<svg width="167" height="233" viewBox="0 0 167 233" fill="none" xmlns="http://www.w3.org/2000/svg">
<g filter="url(#filter0_d_43_33753)">
<path d="M4 219.122V5.8258C4 2.60975 6.55235 0 9.69766 0H156.427C159.573 0 162.125 2.60975 162.125 5.8258V219.122C162.125 222.338 159.573 224.948 156.427 224.948H9.69766C6.55235 224.948 4 222.338 4 219.122Z" fill="white"/>
</g>
<path d="M41.884 184.902C41.884 185.568 40.57 186.09 38.608 186.09C36.268 186.09 35.152 184.956 35.152 182.67C35.152 180.33 36.538 178.764 39.22 178.764C40.66 178.764 41.614 179.124 41.614 179.628C41.614 179.934 41.434 180.096 41.182 180.204C40.48 179.916 39.688 179.682 38.932 179.682C37.114 179.682 36.286 180.672 36.286 182.454C36.286 184.146 36.808 185.208 38.932 185.208C39.886 185.208 40.93 184.866 41.596 184.47C41.776 184.542 41.884 184.686 41.884 184.902ZM45.088 185.19V183.228C45.088 182.238 45.088 180.726 45.124 179.772H43.72C43.666 179.682 43.63 179.592 43.63 179.484C43.63 179.142 43.99 178.926 45.214 178.926C45.664 178.926 46.042 178.962 46.294 179.016L46.186 181.554C48.04 178.746 48.526 178.782 49.516 178.782C50.344 178.782 51.118 179.394 51.118 180.636C51.118 181.086 50.902 181.482 50.398 181.482C50.308 181.482 50.218 181.464 50.128 181.446C50.002 180.078 49.786 179.664 49.318 179.664C48.724 179.664 48.202 179.772 46.222 182.634V185.19L48.976 185.154C49.048 185.28 49.084 185.442 49.084 185.568C49.084 185.838 48.868 186.018 48.472 186.018C48.328 186.018 44.314 186 44.242 186C44.152 185.928 44.098 185.784 44.098 185.64C44.098 185.298 44.368 185.208 44.584 185.208C44.872 185.19 45.088 185.19 45.088 185.19ZM59.866 182.184C59.866 184.83 58.534 186.09 56.338 186.09C53.998 186.09 53.116 184.992 53.116 182.706C53.116 180.204 54.466 178.764 56.716 178.764C58.984 178.764 59.866 179.97 59.866 182.184ZM58.75 182.346C58.75 180.672 58.264 179.592 56.626 179.592C55.024 179.592 54.232 180.492 54.232 182.562C54.232 184.434 54.7 185.244 56.5 185.244C58.048 185.244 58.75 184.218 58.75 182.346ZM66.562 176.532C66.562 176.874 66.382 177.234 65.77 177.234C65.23 177.234 64.996 177.018 64.996 176.568C64.996 176.172 65.32 175.866 65.842 175.866C66.4 175.866 66.562 176.19 66.562 176.532ZM65.158 185.154V183.228C65.158 182.238 65.176 180.762 65.194 179.772H62.62C62.566 179.682 62.548 179.592 62.548 179.484C62.548 179.088 63.034 178.926 64.456 178.926C66.13 178.926 66.31 179.124 66.31 179.43L66.292 185.154L68.83 185.118C68.902 185.244 68.938 185.442 68.938 185.568C68.938 185.838 68.722 186.018 68.326 186.018C68.182 186.018 62.26 186 62.188 186C62.098 185.928 62.044 185.784 62.044 185.64C62.044 185.298 62.314 185.172 62.53 185.172C62.818 185.154 65.158 185.154 65.158 185.154ZM77.722 183.858C77.722 184.992 76.84 186.054 74.428 186.054C72.034 186.054 71.08 185.514 71.08 184.866C71.08 184.65 71.242 184.416 71.548 184.344C72.034 184.83 73.438 185.226 74.464 185.226C76.12 185.226 76.642 184.812 76.642 184.128C76.642 183.552 76.372 183.336 75.454 183.174C74.446 182.994 73.132 182.796 72.718 182.652C71.764 182.328 71.404 181.878 71.404 180.996C71.404 179.664 72.682 178.764 74.806 178.764C76.372 178.764 77.614 179.196 77.614 179.844C77.614 180.078 77.47 180.258 77.164 180.384C76.642 179.934 75.562 179.61 74.662 179.61C73.114 179.61 72.466 180.114 72.466 180.834C72.466 181.446 72.664 181.716 73.744 181.95C74.266 182.058 75.382 182.22 76.156 182.364C77.308 182.58 77.722 183.03 77.722 183.858ZM86.722 183.858C86.722 184.992 85.84 186.054 83.428 186.054C81.034 186.054 80.08 185.514 80.08 184.866C80.08 184.65 80.242 184.416 80.548 184.344C81.034 184.83 82.438 185.226 83.464 185.226C85.12 185.226 85.642 184.812 85.642 184.128C85.642 183.552 85.372 183.336 84.454 183.174C83.446 182.994 82.132 182.796 81.718 182.652C80.764 182.328 80.404 181.878 80.404 180.996C80.404 179.664 81.682 178.764 83.806 178.764C85.372 178.764 86.614 179.196 86.614 179.844C86.614 180.078 86.47 180.258 86.164 180.384C85.642 179.934 84.562 179.61 83.662 179.61C82.114 179.61 81.466 180.114 81.466 180.834C81.466 181.446 81.664 181.716 82.744 181.95C83.266 182.058 84.382 182.22 85.156 182.364C86.308 182.58 86.722 183.03 86.722 183.858ZM96.28 185.082C96.334 185.136 96.388 185.28 96.388 185.424C96.388 185.712 96.226 186.072 95.434 186.072C94.624 186.072 94.12 185.694 94.12 184.416C94.012 185.406 93.04 186.072 91.42 186.072C89.836 186.072 89.242 185.226 89.242 184.164C89.242 182.922 89.854 181.932 91.978 181.932C92.446 181.932 93.49 181.986 94.174 182.076L94.192 181.158C94.21 180.15 93.562 179.7 92.356 179.7C91.582 179.7 90.898 179.916 90.178 180.492C89.782 180.438 89.656 180.258 89.656 179.952C89.656 179.412 90.682 178.764 92.536 178.764C94.336 178.764 95.272 179.556 95.272 181.032L95.236 184.236C95.218 184.812 95.38 185.118 95.938 185.118C96.046 185.118 96.154 185.1 96.28 185.082ZM94.138 182.796C93.562 182.688 92.806 182.652 92.212 182.652C90.844 182.652 90.358 183.066 90.358 184.038C90.358 184.794 90.79 185.28 91.762 185.28C92.77 185.28 93.562 184.848 94.12 184.11L94.138 182.796ZM105.748 185.514C105.748 185.946 105.28 186.054 104.344 186.054C103.462 186.054 103.354 186.018 103.354 185.064C103.354 184.506 103.408 181.734 103.408 181.248C103.408 180.132 103.012 179.664 101.734 179.664C100.978 179.664 100.078 180.15 99.664 180.78V185.964C99.556 186.018 99.376 186.054 99.106 186.054C98.602 186.054 98.53 185.874 98.53 185.28V183.228C98.53 182.238 98.53 180.726 98.566 179.772H97.342C97.288 179.682 97.252 179.592 97.252 179.484C97.252 179.142 97.432 178.926 98.656 178.926C99.106 178.926 99.484 178.962 99.736 179.016L99.628 180.384C99.718 179.448 100.852 178.782 102.094 178.782C103.768 178.782 104.506 179.448 104.506 181.032C104.506 181.698 104.488 183.66 104.452 185.19H105.676C105.73 185.298 105.748 185.406 105.748 185.514ZM113.992 185.046C113.992 185.784 112.714 186.09 110.824 186.09C109.42 186.09 108.592 185.586 108.592 184.092C108.592 182.85 108.61 181.23 108.628 179.88L106.666 179.862C106.612 179.772 106.576 179.664 106.576 179.538C106.576 179.106 107.044 178.998 108.646 178.998L108.628 177.306C108.628 176.91 108.79 176.586 109.204 176.586C109.474 176.586 109.636 176.64 109.762 176.694L109.744 178.998H113.578C113.614 179.07 113.668 179.214 113.668 179.34C113.668 179.772 113.416 179.916 112.732 179.916C112.354 179.916 110.464 179.916 109.744 179.898V183.786C109.726 184.866 110.086 185.208 111.112 185.208C112.336 185.208 112.966 184.974 113.632 184.578C113.884 184.65 113.992 184.812 113.992 185.046ZM122.722 183.858C122.722 184.992 121.84 186.054 119.428 186.054C117.034 186.054 116.08 185.514 116.08 184.866C116.08 184.65 116.242 184.416 116.548 184.344C117.034 184.83 118.438 185.226 119.464 185.226C121.12 185.226 121.642 184.812 121.642 184.128C121.642 183.552 121.372 183.336 120.454 183.174C119.446 182.994 118.132 182.796 117.718 182.652C116.764 182.328 116.404 181.878 116.404 180.996C116.404 179.664 117.682 178.764 119.806 178.764C121.372 178.764 122.614 179.196 122.614 179.844C122.614 180.078 122.47 180.258 122.164 180.384C121.642 179.934 120.562 179.61 119.662 179.61C118.114 179.61 117.466 180.114 117.466 180.834C117.466 181.446 117.664 181.716 118.744 181.95C119.266 182.058 120.382 182.22 121.156 182.364C122.308 182.58 122.722 183.03 122.722 183.858ZM55.78 207.082C55.834 207.136 55.888 207.28 55.888 207.424C55.888 207.712 55.726 208.072 54.934 208.072C54.124 208.072 53.62 207.694 53.62 206.416C53.512 207.406 52.54 208.072 50.92 208.072C49.336 208.072 48.742 207.226 48.742 206.164C48.742 204.922 49.354 203.932 51.478 203.932C51.946 203.932 52.99 203.986 53.674 204.076L53.692 203.158C53.71 202.15 53.062 201.7 51.856 201.7C51.082 201.7 50.398 201.916 49.678 202.492C49.282 202.438 49.156 202.258 49.156 201.952C49.156 201.412 50.182 200.764 52.036 200.764C53.836 200.764 54.772 201.556 54.772 203.032L54.736 206.236C54.718 206.812 54.88 207.118 55.438 207.118C55.546 207.118 55.654 207.1 55.78 207.082ZM53.638 204.796C53.062 204.688 52.306 204.652 51.712 204.652C50.344 204.652 49.858 205.066 49.858 206.038C49.858 206.794 50.29 207.28 51.262 207.28C52.27 207.28 53.062 206.848 53.62 206.11L53.638 204.796ZM65.248 207.514C65.248 207.946 64.78 208.054 63.844 208.054C62.962 208.054 62.854 208.018 62.854 207.064C62.854 206.506 62.908 203.734 62.908 203.248C62.908 202.132 62.512 201.664 61.234 201.664C60.478 201.664 59.578 202.15 59.164 202.78V207.964C59.056 208.018 58.876 208.054 58.606 208.054C58.102 208.054 58.03 207.874 58.03 207.28V205.228C58.03 204.238 58.03 202.726 58.066 201.772H56.842C56.788 201.682 56.752 201.592 56.752 201.484C56.752 201.142 56.932 200.926 58.156 200.926C58.606 200.926 58.984 200.962 59.236 201.016L59.128 202.384C59.218 201.448 60.352 200.782 61.594 200.782C63.268 200.782 64.006 201.448 64.006 203.032C64.006 203.698 63.988 205.66 63.952 207.19H65.176C65.23 207.298 65.248 207.406 65.248 207.514ZM74.32 207.532C74.32 207.964 73.978 208.054 72.88 208.054C72.43 208.054 72.088 208.018 71.818 207.964L71.926 206.614C71.836 207.514 70.738 208.054 69.55 208.054C67.714 208.054 66.67 206.974 66.67 204.67C66.67 202.384 68.092 200.764 70.45 200.764C71.044 200.764 71.638 200.836 71.89 200.926V198.244C71.89 197.74 71.998 197.506 72.448 197.506C72.682 197.506 72.898 197.542 73.06 197.596L73.024 198.514C73.006 198.856 73.024 202.996 73.024 203.77C73.024 204.76 73.024 206.308 73.006 207.244L74.23 207.226C74.284 207.298 74.32 207.424 74.32 207.532ZM71.89 206.218V201.808C71.422 201.7 70.9 201.664 70.324 201.664C68.47 201.664 67.786 202.888 67.786 204.454C67.786 206.344 68.254 207.208 69.874 207.208C70.612 207.208 71.512 206.776 71.89 206.218ZM90.358 198.532C90.358 198.874 90.178 199.234 89.566 199.234C89.026 199.234 88.792 199.018 88.792 198.568C88.792 198.172 89.116 197.866 89.638 197.866C90.196 197.866 90.358 198.19 90.358 198.532ZM90.106 201.43L90.07 208.054C90.052 210.106 88.666 211.06 87.1 211.06C85.354 211.06 84.49 210.736 84.49 210.232C84.49 210.052 84.562 209.908 84.706 209.8C85.372 210.016 86.488 210.196 87.442 210.196C88.792 210.196 88.972 209.296 88.972 207.28C88.972 205.444 88.972 203.608 89.008 201.772H85.84C85.786 201.682 85.768 201.592 85.768 201.484C85.768 201.088 86.47 200.926 87.892 200.926C89.566 200.926 90.106 201.124 90.106 201.43ZM100.78 207.082C100.834 207.136 100.888 207.28 100.888 207.424C100.888 207.712 100.726 208.072 99.934 208.072C99.124 208.072 98.62 207.694 98.62 206.416C98.512 207.406 97.54 208.072 95.92 208.072C94.336 208.072 93.742 207.226 93.742 206.164C93.742 204.922 94.354 203.932 96.478 203.932C96.946 203.932 97.99 203.986 98.674 204.076L98.692 203.158C98.71 202.15 98.062 201.7 96.856 201.7C96.082 201.7 95.398 201.916 94.678 202.492C94.282 202.438 94.156 202.258 94.156 201.952C94.156 201.412 95.182 200.764 97.036 200.764C98.836 200.764 99.772 201.556 99.772 203.032L99.736 206.236C99.718 206.812 99.88 207.118 100.438 207.118C100.546 207.118 100.654 207.1 100.78 207.082ZM98.638 204.796C98.062 204.688 97.306 204.652 96.712 204.652C95.344 204.652 94.858 205.066 94.858 206.038C94.858 206.794 95.29 207.28 96.262 207.28C97.27 207.28 98.062 206.848 98.62 206.11L98.638 204.796ZM110.05 207.514C110.05 207.82 109.834 208.054 109.294 208.054C108.898 208.054 108.646 207.892 108.646 207.496C108.646 206.866 108.7 203.41 108.7 202.924C108.7 202.042 108.592 201.664 107.836 201.664C107.296 201.664 106.828 201.988 106.504 202.834V207.964C106.414 208.018 106.216 208.054 105.946 208.054C105.496 208.054 105.388 207.91 105.388 207.28C105.388 206.668 105.442 203.356 105.442 202.87C105.442 201.934 105.244 201.664 104.542 201.664C103.966 201.664 103.534 201.988 103.21 202.816V207.964C103.102 208.018 102.94 208.054 102.67 208.054C102.166 208.054 102.148 207.91 102.112 207.28C102.094 206.938 102.094 206.002 102.094 205.228C102.094 204.238 102.112 202.726 102.13 201.772C102.148 201.178 102.364 200.962 102.76 200.962C102.886 200.962 103.03 200.98 103.174 201.016V202.222C103.354 201.376 103.912 200.782 104.83 200.782C106.018 200.782 106.342 201.286 106.45 202.312C106.666 201.358 107.26 200.782 108.124 200.782C109.222 200.782 109.762 201.286 109.762 202.672C109.762 203.338 109.762 205.66 109.726 207.19H109.96C110.014 207.28 110.05 207.406 110.05 207.514Z" fill="#1A1A3D"/>
<defs>
<filter id="filter0_d_43_33753" x="0" y="0" width="166.125" height="232.948" filterUnits="userSpaceOnUse" color-interpolation-filters="sRGB">
<feFlood flood-opacity="0" result="BackgroundImageFix"/>
<feColorMatrix in="SourceAlpha" type="matrix" values="0 0 0 0 0 0 0 0 0 0 0 0 0 0 0 0 0 0 127 0" result="hardAlpha"/>
<feOffset dy="4"/>
<feGaussianBlur stdDeviation="2"/>
<feComposite in2="hardAlpha" operator="out"/>
<feColorMatrix type="matrix" values="0 0 0 0 0 0 0 0 0 0 0 0 0 0 0 0 0 0 0.25 0"/>
<feBlend mode="normal" in2="BackgroundImageFix" result="effect1_dropShadow_43_33753"/>
<feBlend mode="normal" in="SourceGraphic" in2="effect1_dropShadow_43_33753" result="shape"/>
</filter>
</defs>
</svg>
