<?xml version="1.0" encoding="utf-8"?>
<!-- Generator: Adobe Illustrator 28.0.0, SVG Export Plug-In . SVG Version: 6.00 Build 0)  -->
<svg version="1.1" id="Layer_1" xmlns="http://www.w3.org/2000/svg" xmlns:xlink="http://www.w3.org/1999/xlink" x="0px" y="0px"
	 viewBox="0 0 135.1 129.2" style="enable-background:new 0 0 135.1 129.2;" xml:space="preserve">
<style type="text/css">
	.st0{fill:#42D694;}
	.st1{fill:#1A1A3D;stroke:#FFFFFF;stroke-miterlimit:10;}
	.st2{fill:#FFFFFF;}
</style>
<path class="st0" d="M75.4,122.9c32.6-5,54.7-34.2,49.4-65.1c-5.3-30.9-36-51.9-68.5-46.9C23.7,15.9,1.5,45.1,6.8,76
	C12.1,106.9,42.8,128,75.4,122.9z"/>
<path class="st1" d="M66,114.5c27.9,0,50.4-21.7,50.4-48.4c0-26.7-22.6-48.4-50.4-48.4c-27.9,0-50.4,21.7-50.4,48.4
	C15.5,92.8,38.1,114.5,66,114.5z"/>
<path class="st2" d="M119.6,60.7c-0.4-1.1-0.4-2.3-0.8-3.4c-1.2-2.9-2.7-5.6-3.7-8.5c-0.3-1.5-1.4-4.3-3-7.3c-1-3.2-2.8-5.2-4-7.4
	c-3.3-3.6-5.4-5.8-8.9-8.5c-0.9-0.6-1.8-1.2-2.8-1.6c-0.2-0.1-0.5-0.2-0.7-0.3c-1-0.6-1.6-1-3.3-1.7c-2.2-1.1-4.5-1.7-6.7-2.7
	c-1.6-0.4-2.7-0.7-3.2-0.9c-1.2-0.6-2.4-1-3.6-1.6c-1.7-0.6-3.6-0.7-5.4-0.9c-2.7-0.2-5.5,0-8.1,0.5c-0.5,0-1.8,0.1-2.7,0.5
	c0,0-0.2,0-0.6,0.2c-0.1,0-0.1,0.1-0.2,0.1c-0.5,0.1-1.3,0.4-2.1,0.7c-0.2,0-0.5,0.1-0.7,0.1c-0.4,0-1,0.1-1.6,0.3
	c-0.5,0.1-1,0.2-1.5,0.3c-1.2,0.1-2.3,0.2-3.4,0.8c-0.2,0.1-0.6,0.2-0.9,0.3c-1.4,0.2-2.7,0.5-4,1c-0.2,0-1.7,0.4-2,0.6
	c-0.4,0.2-0.9,0.4-1.3,0.6c-5.1,2.5-7.6,3.7-12.8,8.2c-1.4,1.4-2.6,2.9-3.8,4.4c-0.7,0.6-1.5,1.2-2.5,2.3c-0.5,0.6-0.8,1.2-1.2,1.8
	c-0.7,0.6-1.4,1.3-2,2c-1.6,2.8-2.3,6-3.7,8.9c-0.6,1.8-0.9,3.7-1.2,5.6c-0.6,1.9-1,3.7-1.4,6.4c0.1,1.7,0.2,1.5-0.1,3.1
	c-0.4,2.8,0,3.7-0.2,5.4c0.1,1.2-0.2,2.7,0.9,3.6c0.2,0.1,0.3,0.2,0.5,0.3c0.2,1.1,0.3,2.2,0.5,3.4c0.4,4,0.9,7.9,2.8,11.5
	c0.6,2,0.7,2.9,2.1,5.2c1,1.8,2.5,3.3,3.7,5c2.2,1.9,4.9,4.8,8.7,7.6c1.4,1,2.7,2.4,4.6,2.7c0.1,0,0.1,0,0.1,0
	c0.3,0.1,0.7,0.1,1,0.1c0.1,0,0.2,0,0.3,0c1.2,0.6,3.6,1.3,3.7,1.3c1.6,0.5,3.3,0.5,5,0.7c0.1,0.4,0.4,0.7,0.9,0.8
	c4.6,1.3,9.5,1.7,14.3,2.1c1.8-0.2,4.8,0.5,6.3-0.7c0.4,0,0.7,0,0.9-0.2c0.4,0.2,0.8,0.4,1.1,0.6c0.6,0.4,1.4,0.6,2,0.4
	c0.4-0.1,0.9-0.5,0.3-0.1c0.1-0.1,0.2-0.1,0.3-0.2c0,0,0,0,0,0c0.8,0.6,2.1,0.2,2.5-0.6c2.1,0.1,4.2,0.2,6.2-0.4
	c1.7-0.7,3.9-1.6,5.3-2.8c0.4-0.4,0.8-0.8,0.9-1.3c0-0.2,0.1-0.5,0.1-0.7c0,0,0,0,0,0c0.2-0.2,0.3-0.3,0.4-0.4
	c0.2-0.1,0.3-0.3,0.4-0.3c2-1,3.6-1.5,5-2.2c1-0.3,2-0.5,3.1-0.7c2.6-0.9,4.3-0.7,6.7-2.8c2.7-2.2,5.3-4.7,6.4-8
	c1.7-3.7,1.8-8,2.7-10.9c1.6-6.6,3.7-10.7,4.4-17.7C119.7,64,119.6,62.3,119.6,60.7z M112.8,79.9c-1.1,3.3-1.5,6.6-2.2,9.7
	c-0.8-0.5-1.9-0.3-2.3,1.1c0,0.2,0,0.5,0.1,0.7c-0.9,1.4-2.1,2.7-3.2,4c-0.5,0.5-1.6,1.5-2.4,2.5c-0.4,0.3-0.8,0.7-1.4,1.1
	c-2.7,2-4.6,3-6.5,4c-1.3,0.4-2.5,0.9-3.7,1.5c-0.7,0.2-1.4,0.7-2,1.1c-0.1,0-0.1,0.1-0.2,0.1c-0.8,0.6-1.6,1.2-2.5,1.8
	c-0.6,0.5-2.1,0.9-3.9,2.4c-0.2,0.1-0.5,0.3-1.8,0.5c-1.9,0.4-3,0.3-4.2,0.4c-3.4-0.4-5.4-2.8-9.6-3.9c-3.9-0.2-5.5-0.7-7.8-0.6
	c-1,0.1-2.1,0.3-3,0.5c-2.6,0.1-5.2,0.4-8.3-0.1c-3.9-0.5-9.6-2.1-12.7-4.1l0,0c0,0-0.1-0.1-0.2-0.1c-0.3-0.3-0.8-0.5-1.3-0.5
	c-0.4-0.4-0.8-0.8-1.5-1.4c-3.4-2.8-5.7-5.1-8.3-9.8c-0.2-0.9-1.8-5.3-2.3-6c-0.6-2.6-1-5.2-1.3-7.9c-0.5-3.4-1.2-8.2-1.2-10.4
	c0.3-3.6,0.6-7.2,1.1-10.8c0.4-1.5,0.9-2.9,1.4-4.9c0.1-0.3,0.5-1.2,0.9-2.2c0.1-0.1,0.2-0.1,0.4-0.3c0.8-0.7,0.9-1.9,1.3-2.9
	c1-2.1,0.9-2.2,2.1-3.7c1.6-2,1.9-3.1,4-5.3c0,0,0,0,0.1-0.1c0.4-0.3,0.8-0.6,1.1-1c1.8-2.5,3-3.4,5.9-5.4c1.6-0.8,7.1-4,8.3-4.7
	c1.9-0.7,3.9-1.5,5.7-2.3c1.5-0.3,3.3-0.9,5.2-1.4c0.2,0,0.3,0,0.5,0c0.5-0.1,0.9-0.3,1.4-0.3c0.7-0.1,1.4-0.1,2.1-0.2
	c0.1,0,0.3,0,0.4,0c0,0.1,0.1,0.2,0.1,0.2c0,0.1,0,0.1,0,0.2c0.7-0.2,1.4-0.4,2-0.5c0.2,0,0.5-0.1,0.7-0.3c0.4,0,1-0.1,1.7-0.6
	c0.1-0.1,0.2-0.3,0.3-0.4c1.1-0.1,2.2-0.3,3.8-0.5c-1.4-0.1,3.3,0,3.8,0.1c1.3,0.1,2.6,0.3,3.9,0.5c0.1,0,0.2,0,0.2,0
	c0,0,0.1,0,0.2,0.1c2.2,0.9,5.3,2.3,6.3,2.3c2.9,1,7.3,2.7,8.8,3.5c2,1.2,2.7,1.2,5,2.7c2.8,2.1,4.1,3.6,7.1,6.7c1.7,2,2.5,3.4,4,6
	c0.5,1.7,2.7,6.1,2.8,6.3c0.5,2.8,3,7.6,4.6,11.5C117.6,65.5,115,72.5,112.8,79.9z"/>
<path class="st2" d="M90.5,108.6C90.6,108.5,90.6,108.5,90.5,108.6z"/>
<path class="st2" d="M25.9,36.9C25.8,37,25.8,37,25.9,36.9z"/>
<path class="st2" d="M43.5,91.4C43.5,91.4,43.5,91.4,43.5,91.4z"/>
<path class="st2" d="M104,77.7C104,77.7,104,77.8,104,77.7c0,0-0.1-0.1-0.2-0.2c-0.5-1.1-1.2-1-1.7-1.3c-0.2-0.5-0.6-0.9-1-1.3
	c-0.8-0.7-0.5-0.4-0.9-0.8c0,0-0.1-0.1-0.1-0.1c-0.1-0.1-0.3-0.5-0.4-0.7c-0.2-0.3-0.4-0.5-0.6-0.7c0,0,0,0,0-0.1
	c0-0.2-0.2-0.7-0.3-1c0.1-0.9-0.3-4.8-2.1-6.5c0,0,0-0.1-0.1-0.1c0-0.1-0.1-0.2-0.1-0.3c0-0.5,0.1-1.1,0.2-1.6
	c0.3-0.8,0.1-0.9,1.2-1.6c1.6-0.9,3.1-3.4,3.6-4.4c0.9-1.2,1.4-2.5,1.1-4c-0.6-4.5-0.8-8.8,0.7-13c0.2-0.4,0.3-0.7,0.4-1.1
	c0-0.1,0-0.2,0-0.3c0-0.4-0.1-0.9-0.5-1.2c0,0-0.1-0.1-0.2-0.1c0,0-0.1-0.1-0.1-0.1c0,0-0.1,0-0.1,0c-0.4-0.2-0.7-0.2-1.1-0.1
	c-0.3,0.1-0.5,0.2-0.7,0.4c0,0,0,0-0.1,0c-0.1,0.1-0.1,0.2-0.2,0.4c-0.1,0.3-0.2,0.6-0.4,1c-0.3,0.5-0.8,1.2-1,1.7
	c-1.6,3.8-2.8,7.6-3.4,10.6c-0.1,0.4-0.4,1.1-0.4,1.5c-0.3,0.8-0.7,0.9-1.2,2.2c-0.1,0.1-0.1,0.2-0.1,0.2c-0.2,0-0.4,0.1-0.6,0.1
	s-0.5,0-0.6,0c-0.2,0-0.4,0-0.5,0c-0.9-0.5-1.8-1.1-2.7-1.5c-0.5-0.1-0.9-0.2-1.4-0.3c-0.1-0.1-0.3-0.3-0.5-0.4
	c0.1-0.1,0.1-0.3,0.2-0.4c0.4-0.5,0.9-0.9,1.6-1.6c1.2-1.6,1.6-4,1.1-5.9c-0.1,0.2,0.2-1.5-0.7-2.2c-0.7-0.7-1-0.7-1.3-0.9
	c0,0,0-0.1,0-0.1c-0.2-0.3-0.3-0.5-0.6-0.7c-0.1-0.2-0.6-0.5-0.8-0.6c-0.3-0.6-0.8-1.2-1.2-1.7c-0.1-0.3-0.6-1.3-0.7-1.5
	c-0.1-0.5-0.2-0.9-0.4-1.3c-0.1-0.4-1.1-1.3-1.4-1.5c-0.5-0.5-0.3-0.7-1.6-1.4c-1.5-0.4-3.1-0.9-4.6-0.2c-0.3,0.2-1,0.1-1.8,1.1
	c-0.7,0.8-0.8,2.4-0.9,2.2c-0.5,1.3-0.8,1.6-1.6,2.2c0,0-0.1,0-0.2,0.1c-0.7,0.2-1.3,0.7-1.9,1.1c-0.2-0.1-0.3-0.1-0.4-0.2
	c0,0-0.1,0-0.1-0.1c0,0,0,0-0.1-0.1c-0.1-0.2-0.2-0.3-0.2-0.4c0,0,0,0,0-0.1c0-0.1-0.1-0.3-0.1-0.4c0,0.3,0-0.9,0-1.7
	c0.2-1.4-0.3-2.7-0.9-3.9c0,0,0,0,0,0c-0.2-0.7,0.1-0.2-0.2-1.6c-0.2-1.3-0.1-2.8-1-3.9c0,0,0,0,0,0c-0.4-0.7-0.7-1.5-1.5-1.9
	c-1.1-0.7-1.9-1.3-4-1.2c-1.8,0.3-3.5,1.9-3,3.7c0,0.2,0.1,0.5-0.2,1.2c-0.7,2.9,0.6,3.9,0.2,5.4c-0.2,1.3,0,0.7-0.4,1.7
	c-0.7,1.6-0.5,2-1.4,3.9c-0.1,0.2-0.7,1.3-0.8,1.6c0,0,0,0.1,0,0.1c-0.2,0.1-0.8,0.8-1,1.1c-0.8,0.5-0.8,0.4-2.8,0.8
	c-2.3,1.1-3.9,1.3-5.5,1.7c-1.8,0-3.4,0.3-4.4,0.4c-0.3,0-1.6-0.1-1.9,0c-1.6,0.4-3.1,1.3-4.5,2.2c-1.4,1.2-3.4,2.3-3.3,4.3
	c0,1.3,0.5,2.4,1,3.6c0.5,0.9,0.3,1.7,2.8,1.6c2.5,0.3,5.1,0.1,7.6-0.3c1-0.3,2.5-0.5,3.4-0.6c-0.2,0.1-0.3,0.3-0.5,0.5
	c-0.2,0.1-2,1.4-2.5,1.8c-3.1,1.8-3.7,3.7-5,3.7c-0.6-1-0.8-2.1-1.8-3.6c-1-1-1-0.9-1.7-1.3c-0.7-0.3-1.6,0-2,0.7
	c0,0-0.1,0.1-0.1,0.1c-0.2,0.1-0.4,0.3-0.6,0.4c-2,1.7-1.8,3.9-2.4,5.4c-0.3,1.9-1.4,4-0.6,6c1.6,2.5,4.4,2.7,6.2,2.6
	c-2.2,3.5-4.6,6.5-7.4,10c-0.7,0.6-1.5,1.4-2.6,2.3c-0.2,0.3-0.2,0.7-0.2,1c-0.2,1,0.7,2.3,2.1,1.8c0.1,0,0.2-0.1,0.2-0.1
	c0.2,0,0.3,0.1,0.6,0.1c0.3,0,0.6,0,0.8-0.1c1.2,0.4,2.9,0.3,3.1,0.5c0.9,0.2,3.5,1.5,4.5,1.9c1.6,0.5,1.7,0.7,3.7,1.5
	c0.5,0.2,1,0.3,1.5,0.2c1.4,0.7,3.1-0.8,2.2-2.3c-0.3-0.5-0.8-0.9-1.2-1.4c-0.1-0.2-0.2-0.4-0.4-0.6c-0.2-0.2-0.3-0.4-0.4-0.4
	c0,0,0,0,0,0c0,0,0-0.1,0-0.1c0-0.2-0.1-0.5-0.1-0.7c0-0.2-0.2-0.9-0.3-1.1c0-0.2,0-0.3,0-0.4c0-0.1,0-0.3,0-0.4
	c0.2-1.9-0.1-3.9,0.4-5.8c0.2-1.6,1.8-4,2.7-6.5c0-0.1,0.1-0.2,0.2-0.3c0.2-0.2,1.6-2.2,1.9-2.6c0.8-1.2,0.4-1,1.4-2.2
	c0.9-0.9,1.8-1.7,3.4-3.1c0.4-0.2,0.7-0.6,0.9-1c0.4-0.4,0.7-0.7,1.1-1.1c1.1-0.3,2.3-0.6,3.9-0.9c0.7-0.2,1.5-0.1,2.1-0.4
	c1.5,0.9,3.3,1.9,4.6,2.3c0.6,0.5,1.3,0.9,2.1,1c0.2,0.1,0.4,0.2,0.5,0.2c0,0,0.1,0,0.1,0.1c1.2,0.7,1.4,0.8,2,1.2v0
	c0,0.7,0,1.4,0.1,2.1c0,0.6-0.1,1.2-0.1,1.8c-0.5,1.4-0.4,2.9-0.5,4.4c-0.1,2.6,1.1,3.1,1.6,5c0.6,1.3,0.6,3.7,0.6,5.3
	c-0.1,0.9-0.3,2.5-0.4,3.1c-0.4,0.9-0.5,1.8,0.5,2.4c1.3,0.6,2.1-0.1,2.5-1.4c2.3-2.8,1.9-4.5,2.6-6c0.6-2.1,0.2-4.6,0.8-5.8
	c0.5-1.3,0-2.6,0-3.9c0-0.5,0.1-1.9,0.2-2.2c0-0.3,0.1-0.5,0.1-0.6c0.2,0,0.5,0.1,0.7,0.1c0,0,0.1,0.1,0.2,0.1c0,0,0,0,0,0
	c0,0,0,0,0,0c0.7,0.6,1.6,0.8,2.4,1.2c1.1,0.4,0.8,1,3.2,2.1c0,0,0.1,0,0.1,0.1c0.2,0.1,0.4,0.3,0.6,0.4c0.1,0.2,0.3,0.6,0.5,0.7
	c1.1,1.1,1.5,1.1,2.1,1.9c0.1,0.1,0.5,0.7,0.5,0.9c0.6,1.1,0.4,1.5,1.2,3.2c0.2,1,0.7,2.8,1.6,4.6c0.3,0.8,0.3,0.6,0.3,0.9
	c0,0,0,0,0,0.1c0,0.1,0,0.1,0,0.1c0,0,0,0,0,0.1c-0.6,1.1,0.5,2.6,1.8,2.2c0.2,0,0.5-0.2,0.6-0.3c0,0,0,0,0,0c0,0,0,0,0,0
	c0.1-0.1,0.2-0.2,0.3-0.3c0,0.1-0.1,0.1-0.1,0.2c0.2-0.1,0.4-0.3,0.5-0.5c0.2-0.2,0.5-0.4,0.5-0.6c0.3-0.4,0.6-1,0.7-1.5
	c0.2-1.1,0.2-2.3-0.2-3.3c0.1-0.6,0-2.4-0.6-3c-0.1-0.2-0.3-0.4-0.5-0.6c0,0,0,0,0,0c0-0.1,0-0.1,0-0.2c0,0,0,0,0-0.1
	c0.3,0.2,0.8,0.5,1.1,0.5c1.4,0.3,1.8,1.1,3.8,1.9c1.4,0.5,4.1,0.5,3.9-1.5C104.4,78.3,104.2,78,104,77.7z M66.8,41.8
	c-0.2-0.7-0.8-1.2-1.6-1.4c-1.6,0-3,0.9-4.4,1.6c-0.2,0.1-0.5,0.3-0.7,0.5c0.7-1.2,1.2-2.5,1.6-3.7c0.3-1.6,0.6-1.4,1-3.3
	c0.2-1.2,0.3-2.4,0.1-3.5c-0.1-0.2-0.2-0.8-0.3-1c0,0,0,0,0,0c-0.3-1.4,0.6-1.4,0.4-3.9v0c0.1-0.1,0.2-0.1,0.3-0.2
	c0.1,0,0.1,0,0.2,0c0,0,0.1,0,0.1,0c0,0,0,0,0.1,0c0.1,0,0.1,0,0.2,0.1c0.2,0.1,0.4,0.2,0.4,0.2c0.1,0.1,0.2,0.2,0.4,0.2
	c0.1,0.1,0.3,0.2,0.4,0.3c0,0,0,0,0,0.1c0,0.1,0.1,0.1,0.1,0.2c0.6,1.2,0.6,0.8,0.8,1.4c0,0.1,0,0.4,0,0.6c0.2,1.5,0.3,2.6,0.5,3.5
	c0.1,0.5,0.3,0.9,0.5,1.4c0.1,0.2,0.2,0.4,0.2,0.6c0.1,0.9-0.2,2.2,0.2,4c0.2,0.7,0.6,1.3,1.2,1.9C68,41.3,67.4,41.5,66.8,41.8z
	 M81.8,50.7C81.8,50.7,81.7,50.7,81.8,50.7c-0.2,0-0.3,0-0.4-0.1c-0.5-0.1-1-0.4-1.6-0.6c-0.1-0.5-0.1-1-0.1-1.5
	c-0.2-1.7-0.2-1.8-0.2-2.9c-0.2-2.8,0.7-4.1,1.6-6.7c0.1,0,0.2,0,0.4,0.1c0.1,0.1,0.2,0.2,0.2,0.2c0.1,0.2,0.1,0.4,0.2,0.4
	c0.4,1,0.4,0.9,0.5,1.2c0.4,1.3,0.5,1.9,0.8,2.5c0,0.1,0,0.2,0,0.3C83.1,47.6,82.8,50.4,81.8,50.7z"/>
<path class="st2" d="M95.7,87L95.7,87C95.7,87,95.7,87,95.7,87C95.7,87,95.7,87,95.7,87z"/>
<path class="st2" d="M95.1,87.5c0,0-0.1,0.1-0.1,0.1C95.1,87.6,95.1,87.5,95.1,87.5z"/>
<path class="st2" d="M69.4,38.1c0.3-0.7,0.2-1.6,0-2.3c-0.1-0.6-0.2-1.2-0.4-1.7c-0.3-2.7-0.9-5.3-2.6-7.5c-0.5-0.7-1.2-1.1-2-1.2
	c-0.3-0.3-0.8-0.6-1.3-0.5c-0.3,0-0.5,0-0.7,0.1c-0.7-0.3-1.4-0.4-2.2,0.1c-2.1,1.7-3,4.3-3.3,6.8c-0.3,1.9-0.8,2.7-1.5,5.1
	c-0.6,2.2-0.5,2.8-1.2,4.5c-0.3,0.6-1.9,2.8-2.9,3.3c-0.4,0.3-1.1,0.5-2.2,1.4c-0.3,0.2-0.6,0.4-0.9,0.6c-0.1,0-0.2,0-0.2,0
	c-0.6,0.1-1.2,0.5-1.3,1.1c-0.5,1.5,1.5,2.3,2.8,1.6c0.4-0.2,1-0.6,1.4-0.9c0.5,0.2,1.1,0.2,1.6,0.1c2.4,0,6-4,6.5-5.4
	c0.2-0.4,0.5-0.8,0.7-1.1c0.7,1.3,1.5,1.2,2.3,1c0.6,0.7,1.7,0.7,2.4,0.2c0.8,1.1,2.1,2.5,3.6,1.5c1.5-1.6,1.6-4,1.6-6.1
	c0-0.2,0-0.3,0-0.5C69.4,38.3,69.4,38.2,69.4,38.1z"/>
<path class="st2" d="M90,90.2c-0.1-1.9-0.2-3.9-1.3-5.5c-1.5-2.3-2.3-2-2.8-3.8c-0.4-1.1-2-1.5-2.9-0.6c-0.7,0.6-0.9,1.5-1,2.3
	c-0.5,3.2,0.4,6.7,2.7,9.1c0.8,0.9,2.1,1.7,3.2,0.9C89.2,92.6,90.2,92,90,90.2z"/>
<path class="st2" d="M53.6,100.3c-0.6,0.6-0.4,0.4-0.6,0.8c-1.6-0.2-1.6-0.1-2.7-0.8c0,0,0,0,0,0c-0.1-0.2-0.2-0.4-0.3-0.6
	c0-0.2,0-0.4,0-0.7c0,0,0-0.7,0.2-1.7c0,0,0,0,0-0.1c0-0.1,0.1-0.2,0.1-0.3c0,0,0.1-0.1,0.1-0.1c0,0,0.1-0.1,0.1-0.1
	c0,0,0,0,0.1-0.1c0,0,0.1,0,0.1-0.1c0.3-0.1,1.5-0.4,2-0.3c1.6,1,3.5-1.2,1.8-2.4c-1.6-1.1-4.1-0.6-5.7,0.3c-1.4,0.9-1.9,2.6-2,4.2
	c-0.5,3.9,2.6,5.7,6.3,5.9c1.6,0.3,2.7-1.4,2.9-2.7C56.2,100.2,54.6,99.5,53.6,100.3z"/>
<path class="st2" d="M90.3,98.3c-0.9-1.7-1.9-4.3-3.7-5.3c-3.7-1-3.6,4.3-4.7,6.5c-0.2,0.7-0.6,1.5-0.8,2.2c0-0.1,0-0.1,0-0.2
	c-0.3-1.5-2.7-1.3-3,0c0,0.1-0.1,0.2-0.1,0.3c-0.1,0-0.2,0-0.3,0c-0.2-0.1-0.4-0.2-0.6-0.2c-0.1,0-0.1,0-0.2-0.1
	c0,0-0.1-0.1-0.1-0.1c-1.1-1.3-0.8-0.7-1.1-2.6c0-1.5-0.1-2.1,0.7-2.6c0.1,0,0.2-0.1,0.3-0.1c0.9-0.1,1.2-0.1,1.6,0
	c0.5,0.1,1,0.6,1.6,0.3c0.8-0.3,0.8-1.4,0-1.7c-1.6-0.8-3.8-0.8-5.2,0.4c-0.8,0.8-1,1.3-1.1,2.2c-0.6-0.6-1.4-0.4-2.2-0.2
	c-0.3,0-1,0.2-1.3,0.1c0,0-0.1,0-0.2,0c0-0.4-0.1-0.8-0.1-1.2c1-0.2,2-0.3,3-0.4c0.7,0,1.4-0.5,1.5-1.1c0.4-1.4-1.2-2.1-2.5-1.8
	c-0.9,0.1-1.9,0.3-2.8,0.4c-1.1-0.7-2.7,0.2-2.4,1.4c0.1,3.1,0.5,6.2,0.9,9.2c0,0,0,0,0,0.1c0,0,0,0.1,0,0.1c0,0,0,0,0,0
	c0,0.4,0.2,0.8,0.6,1.1c2,1,2.7-0.9,2.5-1.8c-0.1-0.9-0.2-1.9-0.3-2.8c1.1,0,2.3-0.2,3.1-0.7c0.1,2.5,1.7,5,4.6,5.2
	c1.3,0.2,2.5-0.6,3-1.8c0,0.2,0,0.3,0.1,0.5c0.5,1.2,2.4,1.2,2.9,0c0.3-0.7,0.5-1.4,0.7-2c0.9,0.1,2.2,0.1,3.2-0.2
	c0,0.1,0,0.3,0,0.3c-0.5,1,0.1,2.6,1.7,2.5C92,103.5,90.8,100,90.3,98.3z M85.4,98.6c0.2-0.5,0.3-1.1,0.5-1.7
	c0.2,0.4,0.5,0.9,0.9,1.6C86.2,98.5,85.8,98.6,85.4,98.6z"/>
<path class="st2" d="M67.1,69.4c0-0.9,0-1.9-0.7-2.6c-0.9-0.7-1.6-1.3-2.4-1.6c-0.1-0.1-0.3-0.2-0.5-0.3c-0.3-0.1-0.6-0.1-0.9-0.2
	c-1.6-0.8-4.3-0.1-5.8,0.4c-1.6,0.3-2.7,1.5-3.4,2.6c-1.1,0.7-2.1,1.5-2.7,1.9c-0.7,0.5-1.1,1.3-1.4,2.1c-0.4,0.7-0.8,1.5-1,2.3
	c0,0.8,0.2,1.5,0.5,2.3c0.2,1.8,1.1,3.2,2.7,4.1c1.2,0.4,2.5,0.2,3.7,0.3c0,0.2,0,0.4-0.1,0.6c-0.1,0.3-0.3,0.7-0.5,1.1
	c-0.9,2.1-2.1,4-2.7,6.2c0,1.3,0.9,2.9,2.4,2.9c0.7,0,1.3-0.3,1.8-0.7c0.1,0,0.2-0.1,0.2-0.1c0.4-0.2,0.8-0.5,0.9-0.9
	c1.1-2.9,0.9-4.2,2-6.9c0.1-0.1,0.1-0.2,0.1-0.3c0,0,0.1-0.1,0.1-0.1c2-0.9,3.8-2.1,5.2-3.8c1.8-3,1.8-4.5,2.5-6.8
	C67.5,70.3,67.1,70.7,67.1,69.4z M62.6,73.4c-0.1,0.1-0.1,0.1-0.2,0.2c-2.1,2.4-1.1,2.7-2.9,3.3c0,0-0.1,0-0.1,0c-0.1,0-0.1,0-0.2,0
	h0c-0.1,0-0.1,0-0.1,0s-0.1,0-0.1,0c-0.1,0-0.2-0.1-0.3-0.1c-0.6-0.4-0.7-0.5-1-0.8c-0.1-0.1-0.1-0.3-0.2-0.4
	c-1.1-2.4-1.3-3.5-1.1-4.6c0,0,0.1,0,0.2,0c0.7-0.2,0.9-0.9,1.3-1.4c0.3,0,0.7,0,1-0.1c0.4,0,0.7,0,1.8,0.1c0.3,0.1,1,0.3,1.3,0.4
	c0,0,0.1,0.1,0.1,0.2c0.1,0.1,0.2,0.3,0.2,0.3c0,0,0,0,0,0.1c0.2,0.6,0.1,0.1,0.3,1.3C62.8,72.5,62.5,72.8,62.6,73.4z"/>
<path class="st2" d="M65.5,100.5c-0.4-0.8-0.5-2-0.7-3.7c-0.2-1.2-0.5-2.4-1.4-3.3c-1.1-1-3.2-1.3-4.2,0c-1.4,2.5-1.5,6.3-1.9,9.1
	c0.3,1.6,2.9,1.4,3.1-0.2c0.1-0.5,0.2-1.1,0.3-1.7c0.6,0,1.1-0.1,1.6-0.2c0.1,0.3,0.2,0.6,0.3,0.9c0,0.2,0,0.3,0,0.5
	c0.3,1.8,2.7,1.6,3.3,0.1C66.3,101.1,65.5,100.4,65.5,100.5z"/>
</svg>
