<svg width="167" height="233" viewBox="0 0 167 233" fill="none" xmlns="http://www.w3.org/2000/svg">
<g filter="url(#filter0_d_43_33759)">
<path d="M4 219.122V5.8258C4 2.60975 6.55235 0 9.69766 0H156.427C159.573 0 162.125 2.60975 162.125 5.8258V219.122C162.125 222.338 159.573 224.948 156.427 224.948H9.69766C6.55235 224.948 4 222.338 4 219.122Z" fill="white"/>
</g>
<path d="M54.884 181.902C54.884 182.568 53.57 183.09 51.608 183.09C49.268 183.09 48.152 181.956 48.152 179.67C48.152 177.33 49.538 175.764 52.22 175.764C53.66 175.764 54.614 176.124 54.614 176.628C54.614 176.934 54.434 177.096 54.182 177.204C53.48 176.916 52.688 176.682 51.932 176.682C50.114 176.682 49.286 177.672 49.286 179.454C49.286 181.146 49.808 182.208 51.932 182.208C52.886 182.208 53.93 181.866 54.596 181.47C54.776 181.542 54.884 181.686 54.884 181.902ZM64.28 182.082C64.334 182.136 64.388 182.28 64.388 182.424C64.388 182.712 64.226 183.072 63.434 183.072C62.624 183.072 62.12 182.694 62.12 181.416C62.012 182.406 61.04 183.072 59.42 183.072C57.836 183.072 57.242 182.226 57.242 181.164C57.242 179.922 57.854 178.932 59.978 178.932C60.446 178.932 61.49 178.986 62.174 179.076L62.192 178.158C62.21 177.15 61.562 176.7 60.356 176.7C59.582 176.7 58.898 176.916 58.178 177.492C57.782 177.438 57.656 177.258 57.656 176.952C57.656 176.412 58.682 175.764 60.536 175.764C62.336 175.764 63.272 176.556 63.272 178.032L63.236 181.236C63.218 181.812 63.38 182.118 63.938 182.118C64.046 182.118 64.154 182.1 64.28 182.082ZM62.138 179.796C61.562 179.688 60.806 179.652 60.212 179.652C58.844 179.652 58.358 180.066 58.358 181.038C58.358 181.794 58.79 182.28 59.762 182.28C60.77 182.28 61.562 181.848 62.12 181.11L62.138 179.796ZM73.748 182.514C73.748 182.946 73.28 183.054 72.344 183.054C71.462 183.054 71.354 183.018 71.354 182.064C71.354 181.506 71.408 178.734 71.408 178.248C71.408 177.132 71.012 176.664 69.734 176.664C68.978 176.664 68.078 177.15 67.664 177.78V182.964C67.556 183.018 67.376 183.054 67.106 183.054C66.602 183.054 66.53 182.874 66.53 182.28V180.228C66.53 179.238 66.53 177.726 66.566 176.772H65.342C65.288 176.682 65.252 176.592 65.252 176.484C65.252 176.142 65.432 175.926 66.656 175.926C67.106 175.926 67.484 175.962 67.736 176.016L67.628 177.384C67.718 176.448 68.852 175.782 70.094 175.782C71.768 175.782 72.506 176.448 72.506 178.032C72.506 178.698 72.488 180.66 72.452 182.19H73.676C73.73 182.298 73.748 182.406 73.748 182.514ZM82.28 182.082C82.334 182.136 82.388 182.28 82.388 182.424C82.388 182.712 82.226 183.072 81.434 183.072C80.624 183.072 80.12 182.694 80.12 181.416C80.012 182.406 79.04 183.072 77.42 183.072C75.836 183.072 75.242 182.226 75.242 181.164C75.242 179.922 75.854 178.932 77.978 178.932C78.446 178.932 79.49 178.986 80.174 179.076L80.192 178.158C80.21 177.15 79.562 176.7 78.356 176.7C77.582 176.7 76.898 176.916 76.178 177.492C75.782 177.438 75.656 177.258 75.656 176.952C75.656 176.412 76.682 175.764 78.536 175.764C80.336 175.764 81.272 176.556 81.272 178.032L81.236 181.236C81.218 181.812 81.38 182.118 81.938 182.118C82.046 182.118 82.154 182.1 82.28 182.082ZM80.138 179.796C79.562 179.688 78.806 179.652 78.212 179.652C76.844 179.652 76.358 180.066 76.358 181.038C76.358 181.794 76.79 182.28 77.762 182.28C78.77 182.28 79.562 181.848 80.12 181.11L80.138 179.796ZM86.15 182.19V173.352H84.35C84.296 173.262 84.26 173.172 84.26 173.064C84.26 172.668 84.998 172.506 86.222 172.506C86.672 172.506 87.05 172.542 87.302 172.596L87.266 173.514V182.172L90.236 182.154C90.308 182.28 90.344 182.442 90.344 182.568C90.344 182.91 90.056 183.036 88.292 183.036C86.492 183.036 86.15 182.946 86.15 182.19ZM106.562 173.532C106.562 173.874 106.382 174.234 105.77 174.234C105.23 174.234 104.996 174.018 104.996 173.568C104.996 173.172 105.32 172.866 105.842 172.866C106.4 172.866 106.562 173.19 106.562 173.532ZM105.158 182.154V180.228C105.158 179.238 105.176 177.762 105.194 176.772H102.62C102.566 176.682 102.548 176.592 102.548 176.484C102.548 176.088 103.034 175.926 104.456 175.926C106.13 175.926 106.31 176.124 106.31 176.43L106.292 182.154L108.83 182.118C108.902 182.244 108.938 182.442 108.938 182.568C108.938 182.838 108.722 183.018 108.326 183.018C108.182 183.018 102.26 183 102.188 183C102.098 182.928 102.044 182.784 102.044 182.64C102.044 182.298 102.314 182.172 102.53 182.172C102.818 182.154 105.158 182.154 105.158 182.154ZM118.748 182.514C118.748 182.946 118.28 183.054 117.344 183.054C116.462 183.054 116.354 183.018 116.354 182.064C116.354 181.506 116.408 178.734 116.408 178.248C116.408 177.132 116.012 176.664 114.734 176.664C113.978 176.664 113.078 177.15 112.664 177.78V182.964C112.556 183.018 112.376 183.054 112.106 183.054C111.602 183.054 111.53 182.874 111.53 182.28V180.228C111.53 179.238 111.53 177.726 111.566 176.772H110.342C110.288 176.682 110.252 176.592 110.252 176.484C110.252 176.142 110.432 175.926 111.656 175.926C112.106 175.926 112.484 175.962 112.736 176.016L112.628 177.384C112.718 176.448 113.852 175.782 115.094 175.782C116.768 175.782 117.506 176.448 117.506 178.032C117.506 178.698 117.488 180.66 117.452 182.19H118.676C118.73 182.298 118.748 182.406 118.748 182.514ZM63.938 201.13C63.938 203.758 62.282 205.09 59.978 205.09C57.638 205.09 57.386 204.55 57.386 203.704V195.244C57.386 194.74 57.494 194.506 57.926 194.506C58.16 194.506 58.376 194.542 58.538 194.596L58.52 195.514V198.016C58.52 198.556 58.484 199.402 58.484 199.402C58.646 198.376 59.672 197.764 60.806 197.764C62.93 197.764 63.938 198.916 63.938 201.13ZM62.858 201.292C62.858 199.528 62.12 198.628 60.644 198.628C59.726 198.628 58.952 199.222 58.52 199.78L58.502 203.614C58.502 204.046 58.592 204.298 60.05 204.298C61.814 204.298 62.858 203.2 62.858 201.292ZM67.088 204.19V202.228C67.088 201.238 67.088 199.726 67.124 198.772H65.72C65.666 198.682 65.63 198.592 65.63 198.484C65.63 198.142 65.99 197.926 67.214 197.926C67.664 197.926 68.042 197.962 68.294 198.016L68.186 200.554C70.04 197.746 70.526 197.782 71.516 197.782C72.344 197.782 73.118 198.394 73.118 199.636C73.118 200.086 72.902 200.482 72.398 200.482C72.308 200.482 72.218 200.464 72.128 200.446C72.002 199.078 71.786 198.664 71.318 198.664C70.724 198.664 70.202 198.772 68.222 201.634V204.19L70.976 204.154C71.048 204.28 71.084 204.442 71.084 204.568C71.084 204.838 70.868 205.018 70.472 205.018C70.328 205.018 66.314 205 66.242 205C66.152 204.928 66.098 204.784 66.098 204.64C66.098 204.298 66.368 204.208 66.584 204.208C66.872 204.19 67.088 204.19 67.088 204.19ZM75.656 198.772H74.612C74.558 198.682 74.522 198.592 74.522 198.484C74.522 198.142 74.846 197.926 75.728 197.926C76.736 197.926 76.754 198.034 76.754 198.664C76.754 199.222 76.664 202.228 76.664 202.714C76.664 203.776 76.862 204.298 78.104 204.298C78.86 204.298 79.85 203.812 80.264 203.182V198.52C80.264 198.124 80.444 197.944 80.876 197.944C81.11 197.944 81.236 197.98 81.38 198.052V204.208H82.334C82.388 204.28 82.406 204.37 82.406 204.496C82.406 204.928 82.028 205.054 81.254 205.054C80.804 205.054 80.444 205.018 80.192 204.964L80.282 203.578C80.192 204.532 78.95 205.18 77.744 205.18C76.07 205.18 75.566 204.532 75.566 202.93C75.566 202.282 75.62 200.32 75.656 198.772ZM91.352 198.376C91.352 198.718 91.172 198.88 90.74 198.88C90.416 198.88 90.182 198.88 89.876 198.808L89.678 198.754L89.822 198.808C90.434 199.042 90.758 199.582 90.758 200.446C90.758 202.12 89.39 203.164 87.23 203.164C86.942 203.164 86.546 203.146 86.258 203.092C85.826 203.254 85.646 203.506 85.646 203.866C85.646 204.19 85.916 204.37 86.906 204.406L89.444 204.532C90.668 204.586 91.1 205.162 91.1 205.918C91.1 207.16 89.84 208.456 87.266 208.456C84.89 208.456 83.9 207.862 83.9 206.602C83.9 205.828 84.44 205.198 85.232 205.036C84.746 204.874 84.548 204.586 84.548 204.154C84.548 203.65 84.872 203.11 85.682 202.966C84.764 202.786 84.116 201.904 84.116 200.644C84.116 198.988 85.448 197.764 87.608 197.764C88.166 197.764 89.174 197.836 89.714 198.016L91.244 197.998C91.316 198.106 91.352 198.214 91.352 198.376ZM89.678 200.518C89.678 199.33 88.886 198.556 87.518 198.556C86.078 198.556 85.232 199.258 85.232 200.518C85.232 201.778 85.898 202.408 87.32 202.408C88.94 202.408 89.678 201.706 89.678 200.518ZM89.966 206.224C89.966 205.684 89.804 205.468 88.544 205.432C87.5 205.396 86.24 205.324 85.718 205.234C85.196 205.486 84.89 205.9 84.89 206.404C84.89 207.232 85.7 207.664 87.464 207.664C89.012 207.664 89.966 206.962 89.966 206.224ZM99.92 203.794C99.92 204.424 98.588 205.09 96.59 205.09C94.268 205.09 93.152 204.028 93.152 201.724C93.152 199.438 94.466 197.764 96.95 197.764C98.912 197.764 99.902 198.844 99.902 200.086C99.902 201.22 99.596 201.544 99.326 201.544H94.304C94.304 203.398 94.898 204.262 96.914 204.262C97.724 204.262 98.804 203.92 99.56 203.326C99.83 203.416 99.92 203.578 99.92 203.794ZM98.804 200.824C98.84 200.608 98.858 200.41 98.858 200.23C98.858 199.276 98.084 198.574 96.662 198.574C95.222 198.574 94.52 199.528 94.34 200.824H98.804ZM108.722 202.858C108.722 203.992 107.84 205.054 105.428 205.054C103.034 205.054 102.08 204.514 102.08 203.866C102.08 203.65 102.242 203.416 102.548 203.344C103.034 203.83 104.438 204.226 105.464 204.226C107.12 204.226 107.642 203.812 107.642 203.128C107.642 202.552 107.372 202.336 106.454 202.174C105.446 201.994 104.132 201.796 103.718 201.652C102.764 201.328 102.404 200.878 102.404 199.996C102.404 198.664 103.682 197.764 105.806 197.764C107.372 197.764 108.614 198.196 108.614 198.844C108.614 199.078 108.47 199.258 108.164 199.384C107.642 198.934 106.562 198.61 105.662 198.61C104.114 198.61 103.466 199.114 103.466 199.834C103.466 200.446 103.664 200.716 104.744 200.95C105.266 201.058 106.382 201.22 107.156 201.364C108.308 201.58 108.722 202.03 108.722 202.858Z" fill="#1A1A3D"/>
<defs>
<filter id="filter0_d_43_33759" x="0" y="0" width="166.125" height="232.948" filterUnits="userSpaceOnUse" color-interpolation-filters="sRGB">
<feFlood flood-opacity="0" result="BackgroundImageFix"/>
<feColorMatrix in="SourceAlpha" type="matrix" values="0 0 0 0 0 0 0 0 0 0 0 0 0 0 0 0 0 0 127 0" result="hardAlpha"/>
<feOffset dy="4"/>
<feGaussianBlur stdDeviation="2"/>
<feComposite in2="hardAlpha" operator="out"/>
<feColorMatrix type="matrix" values="0 0 0 0 0 0 0 0 0 0 0 0 0 0 0 0 0 0 0.25 0"/>
<feBlend mode="normal" in2="BackgroundImageFix" result="effect1_dropShadow_43_33759"/>
<feBlend mode="normal" in="SourceGraphic" in2="effect1_dropShadow_43_33759" result="shape"/>
</filter>
</defs>
</svg>
