<svg width="167" height="233" viewBox="0 0 167 233" fill="none" xmlns="http://www.w3.org/2000/svg">
<g filter="url(#filter0_d_42_33598)">
<path d="M4 219.122V5.8258C4 2.60975 6.55235 0 9.69766 0H156.427C159.573 0 162.125 2.60975 162.125 5.8258V219.122C162.125 222.338 159.573 224.948 156.427 224.948H9.69766C6.55235 224.948 4 222.338 4 219.122Z" fill="white"/>
</g>
<path d="M41.384 186.902C41.384 187.568 40.07 188.09 38.108 188.09C35.768 188.09 34.652 186.956 34.652 184.67C34.652 182.33 36.038 180.764 38.72 180.764C40.16 180.764 41.114 181.124 41.114 181.628C41.114 181.934 40.934 182.096 40.682 182.204C39.98 181.916 39.188 181.682 38.432 181.682C36.614 181.682 35.786 182.672 35.786 184.454C35.786 186.146 36.308 187.208 38.432 187.208C39.386 187.208 40.43 186.866 41.096 186.47C41.276 186.542 41.384 186.686 41.384 186.902ZM48.062 178.532C48.062 178.874 47.882 179.234 47.27 179.234C46.73 179.234 46.496 179.018 46.496 178.568C46.496 178.172 46.82 177.866 47.342 177.866C47.9 177.866 48.062 178.19 48.062 178.532ZM46.658 187.154V185.228C46.658 184.238 46.676 182.762 46.694 181.772H44.12C44.066 181.682 44.048 181.592 44.048 181.484C44.048 181.088 44.534 180.926 45.956 180.926C47.63 180.926 47.81 181.124 47.81 181.43L47.792 187.154L50.33 187.118C50.402 187.244 50.438 187.442 50.438 187.568C50.438 187.838 50.222 188.018 49.826 188.018C49.682 188.018 43.76 188 43.688 188C43.598 187.928 43.544 187.784 43.544 187.64C43.544 187.298 43.814 187.172 44.03 187.172C44.318 187.154 46.658 187.154 46.658 187.154ZM59.492 187.046C59.492 187.784 58.214 188.09 56.324 188.09C54.92 188.09 54.092 187.586 54.092 186.092C54.092 184.85 54.11 183.23 54.128 181.88L52.166 181.862C52.112 181.772 52.076 181.664 52.076 181.538C52.076 181.106 52.544 180.998 54.146 180.998L54.128 179.306C54.128 178.91 54.29 178.586 54.704 178.586C54.974 178.586 55.136 178.64 55.262 178.694L55.244 180.998H59.078C59.114 181.07 59.168 181.214 59.168 181.34C59.168 181.772 58.916 181.916 58.232 181.916C57.854 181.916 55.964 181.916 55.244 181.898V185.786C55.226 186.866 55.586 187.208 56.612 187.208C57.836 187.208 58.466 186.974 59.132 186.578C59.384 186.65 59.492 186.812 59.492 187.046ZM68.546 181.466C68.546 181.844 68.348 182.42 67.34 184.76C66.854 185.858 65.954 187.748 65.504 188.612C64.424 190.7 63.794 191.222 62.462 191.222C61.796 191.222 61.616 190.952 61.616 190.61C61.616 190.502 61.652 190.34 61.778 190.232C61.922 190.232 62.084 190.25 62.21 190.25C63.506 190.25 63.704 190.016 64.802 187.982C64.604 187.91 64.46 187.748 64.262 187.316L61.706 181.79H61.004C60.932 181.718 60.896 181.538 60.896 181.412C60.896 181.052 61.292 180.926 62.066 180.926C62.462 180.926 62.588 181.016 62.84 181.574L65.342 186.956C66.422 184.436 67.25 182.474 67.772 180.98C67.862 180.962 67.952 180.944 68.042 180.944C68.312 180.944 68.546 181.07 68.546 181.466ZM86.384 186.902C86.384 187.568 85.07 188.09 83.108 188.09C80.768 188.09 79.652 186.956 79.652 184.67C79.652 182.33 81.038 180.764 83.72 180.764C85.16 180.764 86.114 181.124 86.114 181.628C86.114 181.934 85.934 182.096 85.682 182.204C84.98 181.916 84.188 181.682 83.432 181.682C81.614 181.682 80.786 182.672 80.786 184.454C80.786 186.146 81.308 187.208 83.432 187.208C84.386 187.208 85.43 186.866 86.096 186.47C86.276 186.542 86.384 186.686 86.384 186.902ZM95.42 186.794C95.42 187.424 94.088 188.09 92.09 188.09C89.768 188.09 88.652 187.028 88.652 184.724C88.652 182.438 89.966 180.764 92.45 180.764C94.412 180.764 95.402 181.844 95.402 183.086C95.402 184.22 95.096 184.544 94.826 184.544H89.804C89.804 186.398 90.398 187.262 92.414 187.262C93.224 187.262 94.304 186.92 95.06 186.326C95.33 186.416 95.42 186.578 95.42 186.794ZM94.304 183.824C94.34 183.608 94.358 183.41 94.358 183.23C94.358 182.276 93.584 181.574 92.162 181.574C90.722 181.574 90.02 182.528 89.84 183.824H94.304ZM105.248 187.514C105.248 187.946 104.78 188.054 103.844 188.054C102.962 188.054 102.854 188.018 102.854 187.064C102.854 186.506 102.908 183.734 102.908 183.248C102.908 182.132 102.512 181.664 101.234 181.664C100.478 181.664 99.578 182.15 99.164 182.78V187.964C99.056 188.018 98.876 188.054 98.606 188.054C98.102 188.054 98.03 187.874 98.03 187.28V185.228C98.03 184.238 98.03 182.726 98.066 181.772H96.842C96.788 181.682 96.752 181.592 96.752 181.484C96.752 181.142 96.932 180.926 98.156 180.926C98.606 180.926 98.984 180.962 99.236 181.016L99.128 182.384C99.218 181.448 100.352 180.782 101.594 180.782C103.268 180.782 104.006 181.448 104.006 183.032C104.006 183.698 103.988 185.66 103.952 187.19H105.176C105.23 187.298 105.248 187.406 105.248 187.514ZM113.492 187.046C113.492 187.784 112.214 188.09 110.324 188.09C108.92 188.09 108.092 187.586 108.092 186.092C108.092 184.85 108.11 183.23 108.128 181.88L106.166 181.862C106.112 181.772 106.076 181.664 106.076 181.538C106.076 181.106 106.544 180.998 108.146 180.998L108.128 179.306C108.128 178.91 108.29 178.586 108.704 178.586C108.974 178.586 109.136 178.64 109.262 178.694L109.244 180.998H113.078C113.114 181.07 113.168 181.214 113.168 181.34C113.168 181.772 112.916 181.916 112.232 181.916C111.854 181.916 109.964 181.916 109.244 181.898V185.786C109.226 186.866 109.586 187.208 110.612 187.208C111.836 187.208 112.466 186.974 113.132 186.578C113.384 186.65 113.492 186.812 113.492 187.046ZM122.42 186.794C122.42 187.424 121.088 188.09 119.09 188.09C116.768 188.09 115.652 187.028 115.652 184.724C115.652 182.438 116.966 180.764 119.45 180.764C121.412 180.764 122.402 181.844 122.402 183.086C122.402 184.22 122.096 184.544 121.826 184.544H116.804C116.804 186.398 117.398 187.262 119.414 187.262C120.224 187.262 121.304 186.92 122.06 186.326C122.33 186.416 122.42 186.578 122.42 186.794ZM121.304 183.824C121.34 183.608 121.358 183.41 121.358 183.23C121.358 182.276 120.584 181.574 119.162 181.574C117.722 181.574 117.02 182.528 116.84 183.824H121.304ZM125.588 187.19V185.228C125.588 184.238 125.588 182.726 125.624 181.772H124.22C124.166 181.682 124.13 181.592 124.13 181.484C124.13 181.142 124.49 180.926 125.714 180.926C126.164 180.926 126.542 180.962 126.794 181.016L126.686 183.554C128.54 180.746 129.026 180.782 130.016 180.782C130.844 180.782 131.618 181.394 131.618 182.636C131.618 183.086 131.402 183.482 130.898 183.482C130.808 183.482 130.718 183.464 130.628 183.446C130.502 182.078 130.286 181.664 129.818 181.664C129.224 181.664 128.702 181.772 126.722 184.634V187.19L129.476 187.154C129.548 187.28 129.584 187.442 129.584 187.568C129.584 187.838 129.368 188.018 128.972 188.018C128.828 188.018 124.814 188 124.742 188C124.652 187.928 124.598 187.784 124.598 187.64C124.598 187.298 124.868 187.208 125.084 187.208C125.372 187.19 125.588 187.19 125.588 187.19ZM41.366 206.184C41.366 208.83 40.034 210.09 37.838 210.09C35.498 210.09 34.616 208.992 34.616 206.706C34.616 204.204 35.966 202.764 38.216 202.764C40.484 202.764 41.366 203.97 41.366 206.184ZM40.25 206.346C40.25 204.672 39.764 203.592 38.126 203.592C36.524 203.592 35.732 204.492 35.732 206.562C35.732 208.434 36.2 209.244 38 209.244C39.548 209.244 40.25 208.218 40.25 206.346ZM45.488 203.142C45.488 200.334 45.974 199.434 47.756 199.434C48.98 199.434 49.772 199.704 49.772 200.226C49.772 200.388 49.682 200.64 49.52 200.766C48.944 200.514 48.386 200.37 47.738 200.37C46.64 200.37 46.586 200.658 46.586 203.142L49.952 203.124C49.988 203.196 50.042 203.322 50.042 203.448C50.042 203.862 49.79 204.042 49.106 204.042C48.728 204.042 47.306 204.042 46.568 204.024V209.19L49.88 209.154C49.952 209.28 49.988 209.442 49.988 209.568C49.988 209.838 49.772 210.018 49.376 210.018C49.232 210.018 43.778 210 43.706 210C43.616 209.928 43.562 209.784 43.562 209.64C43.562 209.298 43.832 209.208 44.048 209.208C44.336 209.19 45.434 209.19 45.434 209.19V207.228C45.434 206.238 45.452 204.996 45.47 204.006L43.544 203.988C43.454 203.916 43.4 203.772 43.4 203.628C43.4 203.286 43.67 203.16 43.886 203.16C44.174 203.142 45.488 203.142 45.488 203.142ZM68.438 206.13C68.438 208.758 66.782 210.09 64.478 210.09C62.138 210.09 61.886 209.55 61.886 208.704V200.244C61.886 199.74 61.994 199.506 62.426 199.506C62.66 199.506 62.876 199.542 63.038 199.596L63.02 200.514V203.016C63.02 203.556 62.984 204.402 62.984 204.402C63.146 203.376 64.172 202.764 65.306 202.764C67.43 202.764 68.438 203.916 68.438 206.13ZM67.358 206.292C67.358 204.528 66.62 203.628 65.144 203.628C64.226 203.628 63.452 204.222 63.02 204.78L63.002 208.614C63.002 209.046 63.092 209.298 64.55 209.298C66.314 209.298 67.358 208.2 67.358 206.292ZM71.588 209.19V207.228C71.588 206.238 71.588 204.726 71.624 203.772H70.22C70.166 203.682 70.13 203.592 70.13 203.484C70.13 203.142 70.49 202.926 71.714 202.926C72.164 202.926 72.542 202.962 72.794 203.016L72.686 205.554C74.54 202.746 75.026 202.782 76.016 202.782C76.844 202.782 77.618 203.394 77.618 204.636C77.618 205.086 77.402 205.482 76.898 205.482C76.808 205.482 76.718 205.464 76.628 205.446C76.502 204.078 76.286 203.664 75.818 203.664C75.224 203.664 74.702 203.772 72.722 206.634V209.19L75.476 209.154C75.548 209.28 75.584 209.442 75.584 209.568C75.584 209.838 75.368 210.018 74.972 210.018C74.828 210.018 70.814 210 70.742 210C70.652 209.928 70.598 209.784 70.598 209.64C70.598 209.298 70.868 209.208 71.084 209.208C71.372 209.19 71.588 209.19 71.588 209.19ZM80.156 203.772H79.112C79.058 203.682 79.022 203.592 79.022 203.484C79.022 203.142 79.346 202.926 80.228 202.926C81.236 202.926 81.254 203.034 81.254 203.664C81.254 204.222 81.164 207.228 81.164 207.714C81.164 208.776 81.362 209.298 82.604 209.298C83.36 209.298 84.35 208.812 84.764 208.182V203.52C84.764 203.124 84.944 202.944 85.376 202.944C85.61 202.944 85.736 202.98 85.88 203.052V209.208H86.834C86.888 209.28 86.906 209.37 86.906 209.496C86.906 209.928 86.528 210.054 85.754 210.054C85.304 210.054 84.944 210.018 84.692 209.964L84.782 208.578C84.692 209.532 83.45 210.18 82.244 210.18C80.57 210.18 80.066 209.532 80.066 207.93C80.066 207.282 80.12 205.32 80.156 203.772ZM95.222 207.858C95.222 208.992 94.34 210.054 91.928 210.054C89.534 210.054 88.58 209.514 88.58 208.866C88.58 208.65 88.742 208.416 89.048 208.344C89.534 208.83 90.938 209.226 91.964 209.226C93.62 209.226 94.142 208.812 94.142 208.128C94.142 207.552 93.872 207.336 92.954 207.174C91.946 206.994 90.632 206.796 90.218 206.652C89.264 206.328 88.904 205.878 88.904 204.996C88.904 203.664 90.182 202.764 92.306 202.764C93.872 202.764 95.114 203.196 95.114 203.844C95.114 204.078 94.97 204.258 94.664 204.384C94.142 203.934 93.062 203.61 92.162 203.61C90.614 203.61 89.966 204.114 89.966 204.834C89.966 205.446 90.164 205.716 91.244 205.95C91.766 206.058 92.882 206.22 93.656 206.364C94.808 206.58 95.222 207.03 95.222 207.858ZM104.222 207.858C104.222 208.992 103.34 210.054 100.928 210.054C98.534 210.054 97.58 209.514 97.58 208.866C97.58 208.65 97.742 208.416 98.048 208.344C98.534 208.83 99.938 209.226 100.964 209.226C102.62 209.226 103.142 208.812 103.142 208.128C103.142 207.552 102.872 207.336 101.954 207.174C100.946 206.994 99.632 206.796 99.218 206.652C98.264 206.328 97.904 205.878 97.904 204.996C97.904 203.664 99.182 202.764 101.306 202.764C102.872 202.764 104.114 203.196 104.114 203.844C104.114 204.078 103.97 204.258 103.664 204.384C103.142 203.934 102.062 203.61 101.162 203.61C99.614 203.61 98.966 204.114 98.966 204.834C98.966 205.446 99.164 205.716 100.244 205.95C100.766 206.058 101.882 206.22 102.656 206.364C103.808 206.58 104.222 207.03 104.222 207.858ZM113.42 208.794C113.42 209.424 112.088 210.09 110.09 210.09C107.768 210.09 106.652 209.028 106.652 206.724C106.652 204.438 107.966 202.764 110.45 202.764C112.412 202.764 113.402 203.844 113.402 205.086C113.402 206.22 113.096 206.544 112.826 206.544H107.804C107.804 208.398 108.398 209.262 110.414 209.262C111.224 209.262 112.304 208.92 113.06 208.326C113.33 208.416 113.42 208.578 113.42 208.794ZM112.304 205.824C112.34 205.608 112.358 205.41 112.358 205.23C112.358 204.276 111.584 203.574 110.162 203.574C108.722 203.574 108.02 204.528 107.84 205.824H112.304ZM117.65 209.19V200.352H115.85C115.796 200.262 115.76 200.172 115.76 200.064C115.76 199.668 116.498 199.506 117.722 199.506C118.172 199.506 118.55 199.542 118.802 199.596L118.766 200.514V209.172L121.736 209.154C121.808 209.28 121.844 209.442 121.844 209.568C121.844 209.91 121.556 210.036 119.792 210.036C117.992 210.036 117.65 209.946 117.65 209.19ZM131.222 207.858C131.222 208.992 130.34 210.054 127.928 210.054C125.534 210.054 124.58 209.514 124.58 208.866C124.58 208.65 124.742 208.416 125.048 208.344C125.534 208.83 126.938 209.226 127.964 209.226C129.62 209.226 130.142 208.812 130.142 208.128C130.142 207.552 129.872 207.336 128.954 207.174C127.946 206.994 126.632 206.796 126.218 206.652C125.264 206.328 124.904 205.878 124.904 204.996C124.904 203.664 126.182 202.764 128.306 202.764C129.872 202.764 131.114 203.196 131.114 203.844C131.114 204.078 130.97 204.258 130.664 204.384C130.142 203.934 129.062 203.61 128.162 203.61C126.614 203.61 125.966 204.114 125.966 204.834C125.966 205.446 126.164 205.716 127.244 205.95C127.766 206.058 128.882 206.22 129.656 206.364C130.808 206.58 131.222 207.03 131.222 207.858Z" fill="#1A1A3D"/>
<defs>
<filter id="filter0_d_42_33598" x="0" y="0" width="166.125" height="232.948" filterUnits="userSpaceOnUse" color-interpolation-filters="sRGB">
<feFlood flood-opacity="0" result="BackgroundImageFix"/>
<feColorMatrix in="SourceAlpha" type="matrix" values="0 0 0 0 0 0 0 0 0 0 0 0 0 0 0 0 0 0 127 0" result="hardAlpha"/>
<feOffset dy="4"/>
<feGaussianBlur stdDeviation="2"/>
<feComposite in2="hardAlpha" operator="out"/>
<feColorMatrix type="matrix" values="0 0 0 0 0 0 0 0 0 0 0 0 0 0 0 0 0 0 0.25 0"/>
<feBlend mode="normal" in2="BackgroundImageFix" result="effect1_dropShadow_42_33598"/>
<feBlend mode="normal" in="SourceGraphic" in2="effect1_dropShadow_42_33598" result="shape"/>
</filter>
</defs>
</svg>
