<?xml version="1.0" encoding="utf-8"?>
<!-- Generator: Adobe Illustrator 28.0.0, SVG Export Plug-In . SVG Version: 6.00 Build 0)  -->
<svg version="1.1" id="Layer_1" xmlns="http://www.w3.org/2000/svg" xmlns:xlink="http://www.w3.org/1999/xlink" x="0px" y="0px"
	 viewBox="0 0 150 135" style="enable-background:new 0 0 150 135;" xml:space="preserve">
<style type="text/css">
	.st0{fill:#FFFFFF;}
	.st1{fill:#F48C31;}
	.st2{fill:#F58B30;}
	.st3{fill:#D35E08;}
	.st4{fill:#F48B30;}
	.st5{fill:#F48C32;}
	.st6{fill:#DF6D0B;}
	.st7{fill:#E66D21;}
	.st8{fill:#E77929;}
	.st9{fill:#DF6C0C;}
	.st10{fill:#E87725;}
	.st11{fill:#DA7426;}
	.st12{fill:#E06E0E;}
	.st13{fill:#D25B1C;}
	.st14{fill:#D7611F;}
	.st15{fill:#CD5C1A;}
	.st16{fill:#D2580D;}
	.st17{fill:#F38E36;}
	.st18{fill:#B94308;}
	.st19{fill:#C04605;}
	.st20{fill:#C55118;}
	.st21{fill:#B75120;}
	.st22{fill:#C84A05;}
	.st23{fill:#FAA23F;}
	.st24{fill:#F9A64C;}
	.st25{fill:#FDC16D;}
	.st26{fill:#FAA84D;}
	.st27{fill:#C85106;}
	.st28{fill:#FAA23E;}
	.st29{fill:#F58B2F;}
	.st30{fill:#DF6C0A;}
	.st31{fill:#D95E19;}
	.st32{fill:#FDC572;}
	.st33{fill:#FBAC50;}
</style>
<path class="st0" d="M79.2,126.5c27.7-4.9,45.9-32.5,40.8-61.6c-5.1-29.1-31.7-48.8-59.4-44C33,25.8,14.7,53.4,19.9,82.5
	C25,111.7,51.6,131.4,79.2,126.5z"/>
<path class="st0" d="M21.7,64.7c0.6-1.9,1.1-3.9,1.9-5.6c1.3-3,2.9-5.7,4.8-8c1-1.2,2.3-2,3.3-3.1c0.6-0.6,1.2-1.3,1.6-2.2
	c1.3-3.3,3.4-5.8,5.5-8.2c2.8-3.1,6.2-5.1,9.8-6.9c4-2,8.3-2.5,12.6-3.2c1.9-0.3,3.8,0,5.7,0.9c0.7,0.3,1.5,0.4,2.2,0.3
	c3-0.6,6-0.8,9-0.4c3.4,0.5,6.6,2.1,9.3,5.2c0.3,0.4,0.9,0.6,1.4,0.5c2.4-0.5,4.9-0.9,7.3-0.2c1.7,0.5,3.3,1.4,4.9,2.2
	c2.3,1.2,4.7,2.6,6.5,4.9c1.4,1.7,2.4,3.9,3.2,6.1c0.8,2,1.8,3.5,3,5.1c0.8,1.1,1.6,2.4,2.1,3.7c1.4,4.1,2.7,8.2,3.8,12.4
	c0.7,3,0.6,6-0.7,8.7c-1.3,3-3.4,4.7-6.1,5.3c-2.4,0.5-4.7,0.1-7.1-0.7c-2.7-0.9-5-2.9-7.5-4.5c-0.7-0.5-1.7-0.5-2.6-0.5
	c-1.4,0-2.8-0.1-4.2,0.2c-3.8,0.7-7.6,1.7-10.8,4.5c-0.8,0.7-1.6,1.5-2.4,2.4c-1.5,1.9-3.3,3.5-5.2,4.8c-1.3,0.8-1,2.3-1.2,3.6
	c-0.5,2.6,0.4,4.4,2.1,6c1.4,1.3,2.7,2.7,3.9,4.3c1.3,1.7,1.6,4,1.9,6.2c0.5,3.2-0.2,6-2,8.1c-0.7,0.8-1.6,1.2-2.4,1.7
	c-2.4,1.6-5.1,2.1-7.9,2.3c-2,0.2-4,0-6-0.1c-3.4-0.2-6.7-0.4-10.1-0.6c-3.3-0.2-6.6-0.4-9.7-2.2c-1.9-1.1-3.7-2.9-5.4-4.6
	c-1.6-1.6-3.1-3.5-4.5-5.5c-1.1-1.6-1.9-3.5-3-5.2c-0.8-1.3-1.7-2.6-2.7-3.8c-2.4-3.2-4.4-6.6-5.5-10.9c-0.9-3.6-1-7.1-0.8-10.7
	c0.1-3.2,0.7-6.4,1.1-9.5C21.2,66.5,21.5,65.7,21.7,64.7z M46.1,33.1c-1.4,1-2.9,1.9-4.2,3c-3.6,3.1-6.5,6.9-8.5,11.8
	c-0.2,0.4-0.6,0.7-0.9,1c-1.3,1.2-2.7,2.2-3.8,3.5c-3.3,4-5.6,8.9-6.7,14.5c-0.5,2.7-0.8,5.5-1.1,8.3c-0.3,3.6-0.2,7.2,0.5,10.8
	c0.1,0.7,0.4,1.4,0.5,2.1c0.6,2.6,1.7,4.9,3.2,7c1.6,2.4,3.3,4.8,4.9,7.2c0.4,0.5,0.6,1.2,0.9,1.8c1.7,3,3.7,5.8,6,8.2
	c2.1,2.1,4.2,4.2,6.8,5c2.7,0.8,5.5,1.2,8.3,1.6c3,0.3,6.1,0.3,9.1,0.5c2.1,0.1,4.3,0.6,6.4,0.4c3.1-0.3,6-1.3,8.7-2.9
	c0.7-0.4,1.5-1.1,2-1.9c2-3.2,1.5-6.8,0.2-10.5c-0.9-2.7-2.7-4.5-4.8-5.9c-1.7-1.2-2.7-3.6-2.4-5.9c0.1-0.8,0.3-1.6,0.3-2.5
	c-0.1-1.5,0.7-2.1,1.5-2.8c1.6-1.3,3.3-2.6,4.5-4.3c1.5-2.2,3.6-3.3,5.5-4.6c0.6-0.4,1.1-0.8,1.8-1.1c1.2-0.5,2.4-0.8,3.7-1.1
	c0.8-0.2,1.6-0.6,2.4-0.7c1.7-0.1,3.4-0.1,5.2-0.1c0.7,0,1.5,0.1,2.1,0.4c1.3,0.7,2.4,1.7,3.7,2.5c4.3,2.9,8.7,4.4,13.2,1.9
	c1-0.6,2-1.5,2.7-2.6c2-3.2,1.7-7.1,0.7-10.9c-0.7-2.9-1.6-5.7-2.6-8.6c-0.7-2.2-1.6-4.3-3-6c-1.2-1.4-2.1-2.9-2.7-4.9
	c-0.8-2.7-2.1-5.2-4.2-7c-2.5-2.1-5.1-3.8-7.8-4.9c-1.9-0.7-3.9-1-5.8-1.1c-1.2-0.1-2.3,0.4-3.4,0.7c-0.8,0.2-1.4-0.1-2-0.9
	c-1.6-2-3.4-3.3-5.6-4.2c-2.4-1-4.8-0.8-7.2-1.1c-0.9-0.1-1.8,0.2-2.7,0.2c-1.6,0.1-3,1.1-4.9,0.1c-2.1-1.2-4.5-1.1-6.6-0.5
	c-2.4,0.6-4.9,0.3-7.1,1.5C50.5,31.3,48.4,32.1,46.1,33.1z"/>
<path class="st0" d="M46.2,33c2.2-0.9,4.3-1.7,6.4-2.7c2.3-1.1,4.8-0.8,7.1-1.5c2.2-0.6,4.5-0.7,6.6,0.5c1.8,1,3.3,0.1,4.9-0.1
	c0.9-0.1,1.8-0.4,2.7-0.2c2.4,0.4,4.8,0.1,7.2,1.1c2.1,0.9,4,2.2,5.6,4.2c0.6,0.8,1.2,1.1,2,0.9c1.1-0.3,2.3-0.8,3.4-0.7
	c1.9,0.1,3.9,0.4,5.8,1.1c2.8,1.1,5.4,2.8,7.8,4.9c2.1,1.8,3.4,4.3,4.2,7c0.6,2,1.5,3.5,2.7,4.9c1.4,1.7,2.3,3.8,3,6
	c0.9,2.8,1.8,5.7,2.6,8.6c1,3.8,1.3,7.7-0.7,10.9c-0.7,1.1-1.7,2-2.7,2.6c-4.4,2.5-8.8,1-13.2-1.9c-1.2-0.8-2.4-1.8-3.7-2.5
	c-0.6-0.4-1.4-0.4-2.1-0.4c-1.7,0-3.5,0-5.2,0.1c-0.8,0.1-1.6,0.4-2.4,0.7c-1.2,0.4-2.5,0.7-3.7,1.1c-0.6,0.2-1.2,0.7-1.8,1.1
	c-1.9,1.4-4,2.4-5.5,4.6c-1.2,1.8-3,3-4.5,4.3c-0.8,0.7-1.6,1.3-1.5,2.8c0,0.8-0.1,1.7-0.3,2.5c-0.3,2.3,0.6,4.6,2.4,5.9
	c2,1.4,3.8,3.2,4.8,5.9c1.3,3.7,1.7,7.3-0.2,10.5c-0.5,0.8-1.2,1.5-2,1.9c-2.7,1.6-5.7,2.6-8.7,2.9c-2.1,0.2-4.2-0.3-6.4-0.4
	c-3-0.2-6.1-0.2-9.1-0.5c-2.8-0.3-5.6-0.7-8.3-1.6c-2.6-0.8-4.7-2.9-6.8-5c-2.3-2.4-4.3-5.2-6-8.2c-0.3-0.6-0.5-1.2-0.9-1.8
	c-1.6-2.4-3.2-4.8-4.9-7.2c-1.4-2.1-2.6-4.3-3.2-7c-0.1-0.7-0.4-1.4-0.5-2.1c-0.7-3.6-0.8-7.2-0.5-10.8c0.3-2.8,0.5-5.6,1.1-8.3
	c1.1-5.7,3.4-10.6,6.7-14.5c1.1-1.3,2.5-2.3,3.8-3.5c0.3-0.3,0.7-0.6,0.9-1c2-4.9,4.9-8.8,8.5-11.8C43.2,35,44.7,34.1,46.2,33z
	 M39.6,109.9c0.1,0,0.2,0.1,0.3,0.3c0.1,0.1,0.2,0.1,0.4,0.3c2.8,2.9,6,4,9.6,4.2c4.2,0.3,8.4,0.5,12.7,0.9c1.5,0.1,3.1,0.2,4.8,0.3
	c2-0.6,4-1.1,5.8-1.9c0.9-0.4,1.5-1.4,2.3-2.1c0,0,0,0,0.1-0.1c0.2-0.7,0.4-1.4,0.6-2.2c0-0.1,0-0.3,0-0.6c-0.1-0.5-0.2-0.9-0.2-1.5
	c0,0-0.1-0.1-0.1-0.3c-0.1-0.2-0.1-0.3-0.2-0.7c-0.5-0.7-1-1.3-1.5-2.1c-0.7-0.7-1.4-1.3-2.1-2.1c-0.7-0.8-1.5-1.6-2.3-2.5
	c-0.5-0.6-1-1.2-1.4-2c-0.4-0.8-0.8-1.5-1-2.3c0-0.1,0-0.2,0.1-0.3c0-0.1,0-0.2,0-0.4c0-0.3,0.1-0.6,0.2-1c0.2-2.1,0.4-4.2,0.6-6.4
	c0-1.2,0.3-2.1,1.3-2.4c0.4-0.1,0.7-0.5,1.2-0.8c1.2-1.1,2.4-2.3,3.7-3.5c0.7-1,1.4-1.9,2.2-2.9c2-1.3,4.1-2.5,6.3-3.8
	c0.1,0,0.2-0.1,0.4-0.1c0,0,0.1-0.1,0.2-0.1c0.2-0.1,0.3-0.1,0.5-0.1c0.1,0,0.1,0,0.2-0.1c0,0,0.1-0.1,0.3,0c1.2-0.5,2.3-1,3.6-1.5
	c0.6-0.1,1.2-0.2,1.9-0.3c0.1,0,0.2,0,0.4,0c0,0,0.1,0,0.2,0c1.3,0,2.5,0,4,0.1c0.3-0.1,0.6-0.1,1-0.1c0.8-0.1,1.6-0.2,2.6-0.3
	c1.5,1,3,2,4.6,3.1c0.7,0.4,1.5,0.9,2.3,1.5c1.7,0.5,3.4,1.1,5.3,1.6c1.2-0.1,2.3-0.1,3.3-1.3c0.1-0.1,0.1-0.2,0.3-0.3
	c0.2-0.3,0.4-0.6,0.7-0.9c1.2-2.4,1.8-5,0.3-8c-0.3-0.7-0.7-1.5-1-2.4c-0.4-3.6-1.4-6.8-3.7-9.6c-0.8-1.2-2-1.9-2.3-3.6
	c-0.4-1.1-0.8-2.2-1.2-3.4c-0.7-1.9-1.7-3.6-3.2-4.6c-2.2-1.5-4.5-3-6.8-4.2c-2.9-1.4-5.8-1.6-8.7,0c-0.4,0.1-0.8,0.2-1.3,0.1
	c-0.3-0.1-0.5-0.2-0.8-0.5c-0.6-0.8-1.2-1.5-1.9-2.4c-1.4-1.4-3-2.4-4.7-2.9c-4-1.2-7.9-1-11.8,0.3c-0.1,0-0.2,0.1-0.4,0.1
	c-0.2-0.1-0.3-0.1-0.6-0.3c-0.5-0.2-1-0.4-1.6-0.8c-0.6-0.2-1.3-0.5-1.9-0.5c-5.9-0.1-11.4,1.7-16.4,5.1c-2.9,2-5.5,4.4-7.6,7.8
	c-1,2-1.9,3.9-3,5.9c0,0-0.1,0.1-0.2,0.1c-0.2,0.1-0.3,0.3-0.6,0.5c-1.5,1.5-3,3-4.7,4.5c-4.2,5.8-6.1,12.8-6.6,20.9
	c0,0.6,0,1.2,0,1.9c0,2.6-0.2,5.2,0.8,8c0.3,0.7,0.6,1.4,0.9,2.3c0.1,0.1,0.1,0.1,0.2,0.3c0,0,0.1,0,0.1,0.2
	c0.1,0.1,0.2,0.2,0.3,0.5c0,0,0.1,0.1,0.1,0.3c1.3,1.8,2.6,3.6,4,5.4c0,0,0,0,0,0.1c0.1,0.1,0.2,0.2,0.3,0.3c0,0,0,0,0,0.1
	c0.1,0,0.1,0.1,0.2,0.1c0,0,0,0,0,0.2c0.1,0.1,0.2,0.2,0.3,0.3c0,0,0,0,0,0.1c0.1,0.1,0.1,0.1,0.2,0.3c0.2,0.3,0.3,0.7,0.5,1.2
	c0.1,0.3,0.3,0.5,0.5,0.9c1.5,2.3,3,4.6,4.5,7.1c0.8,0.9,1.7,1.8,2.5,2.8c0.1,0,0.1,0.1,0.2,0.1C39.5,109.7,39.5,109.7,39.6,109.9z"
	/>
<path class="st1" d="M39.1,45.2c2-3.3,4.6-5.8,7.5-7.8c5-3.4,10.5-5.2,16.4-5.1c0.6,0,1.3,0.3,1.9,0.7c0.2,0.3,0.3,0.5,0.4,0.7
	c0.5,0.6,1,1.3,1.5,1.9c-0.9-0.6-1.8-1.3-2.7-1.9c-0.1,0.1-0.1,0.3-0.2,0.4c1.3,1.5,2.6,3,4,4.4c3.8,4.2,7.1,8.9,9.7,14.2
	c0.1,0.3,0.4,0.4,0.7,0.6c0.2,0.1,0.3,0.2,0.3,0.3c1.6,4.2,2.8,8.6,3.6,13.1c0,0.3,0,0.5-0.1,0.7c-1,0.7-1.9,1.4-2.8,2
	c-1.2,0.8-2.6,0.8-4,0.5c-0.5-0.1-1.1-0.2-1.6-0.3c-0.5-0.5-1-0.9-1.4-1.3c-1.5-2.4-3-4.7-4.5-7c-0.9-1.3-1.9-2.5-2.8-3.8
	c0.3,0.2,0.7,0.3,0.9,0.6c1.5,1.9,3.1,3.8,4.6,5.8c0.8,1,1.4,2.2,2.1,3.4c-0.8-2.9-2.3-5.4-3.9-7.8c-1.9-2.7-4.1-5-6.5-6.9
	c-0.9-0.7-1.8-1.4-2.8-2.2c0-0.2,0.1-0.3,0.2-0.5c0.4,0.1,0.7,0.2,1.1,0.3c0.2,0,0.4,0,0.5,0.1c0.9,0.7,1.8,1.3,2.7,1.8
	c2.6,1.5,4.9,3.5,6.8,6.2c0.8,1.1,1.4,2.3,2.1,3.5c1,1.7,2.8,1.7,3.2-0.2c0.3-1.2,0.4-2.6,0.2-3.9c-0.3-2.1-0.8-4.3-1.5-6.2
	c-0.8-2-2-3.7-3-5.7c-1.4-2-2.8-3.9-4.2-5.7c-0.8-0.9-1.8-1.6-2.7-2.5c-1.1-0.4-2.2-1-3.2-1.1c-2.8-0.1-5.6-0.3-8.2,0.9
	c-1.6,0.8-3.1,1.8-4.4,3c-1.2,1.1-0.9,2.8,0.5,3.9c0.9,0.7,1.8,1.4,2.8,2.2c0,0.1,0,0.2,0,0.2c-0.2,0-0.4,0.1-0.6,0
	c-2-0.4-4.1-0.8-6.1-1.1c-0.6-0.1-1.2,0.1-1.9,0.2c-1.3,0-2.5,0-3.7-0.1C39.5,45.8,39.3,45.4,39.1,45.2z"/>
<path class="st2" d="M23.9,77.1c0.4-8,2.3-15,6.6-20.8c0.6-0.2,1.1-0.4,1.6-0.5c2.3-0.8,4.6-1.7,6.9-2.2c2.1-0.5,4.3-0.5,6.5-0.7
	c2.2,0.4,4.3,0.8,6.5,1.3c1.2,0.7,2.4,1.3,3.6,2c3.1,1.8,6,4,8.6,6.8c1.3,1.4,2.6,2.7,4,4.2c0.1,0.2,0.2,0.3,0.3,0.5
	c0.2,0.3,0.3,0.4,0.5,0.7c0.6,1,1.2,2,1.8,3.1C71,71.7,71,72,71,72.3c-0.1,0.2-0.3,0.4-0.3,0.5c-0.7,2.7-2.3,4.4-4.4,5.5
	c-0.3-0.2-0.6-0.3-0.9-0.6c-1.3-1.3-2.6-2.6-3.9-3.9c0.6-0.1,0.9-0.4,0.4-1c-1.2-1.6-2.4-3.4-3.9-4.6c-1.8-1.4-3.8-2.4-5.8-3.5
	c-2.8-1.6-5.7-1.8-8.6-2c-0.2-0.2-0.3-0.3-0.4-0.4c2.9-0.7,5.8-0.5,8.6,0.4c0.5,0.2,1.1,0.1,1.7,0.1c0.2,0,0.2,0,0.4,0
	c0.6,0.4,1.2,0.7,1.8,1c1.7,0.8,3.5,1.6,5.2,2.3c0.3,0.1,1,0,1.1-0.3c0.1-0.3-0.1-1-0.3-1.5c-0.1-0.3-0.4-0.5-0.6-0.7
	c-1.5-1.4-2.9-3-4.4-4.3c-2.5-2.1-5.3-3.5-8.1-4.1c-4.1-0.9-8.1-0.3-12,0.9c-3,0.9-4.5,3.5-5.5,6.8c-0.5,1.6,0.2,2.5,1.6,2.6
	c0,0.3,0.1,0.5,0,0.7c-1,0.9-1.9,1.7-2.8,2.6c-0.6,0.7-1.1,1.4-1.6,2.2c-1.1,2-2.2,3.8-3.3,5.7c-0.1,0-0.2,0.1-0.4,0.1
	C24.4,76.9,24.1,77,23.9,77.1z"/>
<path class="st1" d="M67.6,33.9c3.8-1.3,7.7-1.5,11.7-0.3c1.7,0.5,3.3,1.5,4.7,3.1c0.1,0.6,0.1,1.2,0.2,1.6
	c1.1,3.9,2.3,7.8,3.2,11.8c0.5,2.1,0.8,4.3,0.9,6.5c0.2,2.9,0.1,5.7,0,8.6c-1.1-0.1-2-0.5-2.8-1.4c-0.4-0.4-0.8-0.7-1.2-1.1
	c-0.1-0.3-0.2-0.5-0.3-0.8c-0.1-0.6-0.2-1-0.4-1.4c-0.4-1.1-0.9-2.2-1.2-3.3c0.2-0.1,0.4-0.2,0.4-0.3c-0.2-0.9-0.5-1.9-0.8-2.9
	c-1.4-3.5-2.7-6.9-4-10.3c0.2,0.1,0.4,0.2,0.5,0.4c1.6,2.5,3.1,5.2,3.9,8.2c0.2,0.7,0.8,1.5,1.4,1.9c0.7,0.4,1.2-0.2,1.6-1
	c0.8-1.8,0.9-3.8,0.6-5.8c-0.4-2.5-0.8-5.1-1.9-7.4c-0.8-1.8-1.8-3.2-3.4-3.8c-1.5-0.6-3-0.5-4.5-0.2c-1.5,0.3-1.6,0.3-1.1,2.3
	c0,0.2,0,0.3-0.1,0.5c-0.1-0.1-0.2-0.1-0.2-0.3c-0.1-0.1-0.2-0.2-0.3-0.3c0,0.1,0.1,0.2,0.1,0.5c0.4,0.9,0.8,1.7,1.1,2.5
	c0.2,0.5,0.3,1,0.4,1.5c-1.3-1.6-2.4-3.3-3.7-4.6C70.9,36.6,69.2,35.3,67.6,33.9z"/>
<path class="st3" d="M52.1,54c-2.1-0.4-4.3-0.8-6.5-1.3c-2.1-1-4.1-0.7-6.1-0.9c-1.3-0.1-2.5-0.1-3.7-0.2c0.1-0.2,0.1-0.3,0.1-0.4
	c0,0,0.1-0.1,0.2-0.1c1.9-0.6,3.6-1.5,5.4-1.7c2.7-0.3,5.6-0.3,8.3-0.1c1.9,0.2,3.9,0.9,5.9,1.4c0,0,0.1,0,0.2,0.1
	c0.4,0.3,0.8,0.5,1.2,0.7c2.2,1.5,4.3,3.1,6.5,4.7c0.2,0.2,0.3,0.3,0.5,0.4c0.3,0.3,0.5,0.6,0.7,0.8c1,1.3,2,2.4,2.9,3.8
	c1.5,2.3,3,4.6,4.5,7c0,0.1,0,0.1-0.1,0.1c-0.4-0.2-0.7-0.4-1-0.6c-0.1,1.3-0.2,2.4-0.3,3.5c-0.6-1-1.1-1.9-1.8-3
	c-0.2-0.3-0.4-0.5-0.5-0.7c-0.1-0.1-0.2-0.2-0.3-0.5c-0.2-0.4-0.2-0.7-0.4-1c-3-4.3-6.5-7.8-10.7-9.9C55.6,55.2,53.8,54.7,52.1,54z"
	/>
<path class="st4" d="M68.3,98c0.5,0.6,1,1.2,1.4,1.9c-0.3,1.7-1.5,2.1-2.5,2.8c-0.3,0.1-0.6,0.1-0.8,0.3c-1.4,2.2-2.1,4.7-1.4,7.7
	c-2.5,1.8-4.8,1.3-7.2-0.9c-0.3-0.2-0.6-0.4-0.9-0.7c-0.1-0.4-0.2-0.6-0.4-1c-0.4-1.6-0.5-3.1,0.1-4.6c0.4-0.4,0.8-0.7,1-1.1
	c0.8-1.7,1.7-3.2,3.3-3.9c0.2-0.1,0.2-0.6,0.5-1c0.8-0.1,1.5-0.5,2.3-0.4C65.3,97.3,66.8,97.7,68.3,98z M60.6,107.5
	c0.2-1.4,0.5-2.8,0.7-4.3c-0.2,0-0.3-0.1-0.5,0c-1.1,0.3-1.7,3.5-1,4.6C60,107.8,60.3,107.7,60.6,107.5z"/>
<path class="st5" d="M88.3,39.3c2.7-1.6,5.7-1.4,8.6,0c2.3,1.1,4.6,2.7,6.8,4.2c1.5,1,2.5,2.6,3.1,4.7c-0.6,0.1-1.1,0.2-1.6,0.2
	c-3.8,0.6-6.7,2.9-8.8,6.4c-1.1,1.8-1.7,4.1-2.7,6.2c-0.2-1.1-0.3-2.2-0.5-3.3c-1-4.5-1.9-8.9-3-13.4C89.7,42.5,88.9,41,88.3,39.3z
	 M97.1,50.9c0.9-1.3,2-2.4,2.7-3.9c1.1-2.3,0.4-4.3-1.7-5.4c-0.7-0.4-1.5-0.8-2.2-1c-2.2-0.6-3.4,0.7-3.1,3.3
	c0.2,1.7,0.5,3.4,0.7,5.2C93.8,51.8,94.3,53.1,97.1,50.9z M91.9,45c-0.4-1.4-0.8-2.8-1.2-4.2c-0.1,0-0.2,0-0.3,0.1
	c0.2,1.2,0.4,2.4,0.6,3.6c0.3,1.3,0.6,2.6,1,3.9c0.3,1.2,0.5,2.5,1.2,3.5c0.1,0,0.3-0.1,0.4-0.1C93.1,49.6,92.6,47.4,91.9,45z"/>
<path class="st6" d="M67.6,33.9c1.7,1.4,3.3,2.6,4.8,4.2c1.3,1.4,2.5,3.1,3.8,4.7c0.2,0.2,0.2,0.3,0.3,0.5c0.2,0.3,0.3,0.4,0.5,0.7
	c0.3,0.6,0.5,1.1,0.8,1.7c1.1,2.5,2.2,4.9,3.3,7.4c0.1,0.5,0.3,1,0.5,1.5c0,0.2,0.1,0.3,0.1,0.5c0.1,0.2,0.2,0.3,0.3,0.5
	c0.2,0.6,0.3,1.1,0.5,1.6c0.4,1.1,0.9,2.2,1.3,3.3c0.2,0.4,0.2,0.9,0.3,1.5c-0.2,0.8-0.4,1.6-0.6,2.2c-0.3,0.8-0.8,1.6-1.2,2.3
	c-0.8-4.5-1.9-8.9-3.6-13.1c0-0.1-0.1-0.2-0.3-0.4c-0.3-0.7-0.5-1.2-0.7-1.8c-2.8-6.1-6.3-11.4-10.7-15.8c-0.5-0.6-1-1.2-1.5-1.9
	c-0.1-0.2-0.3-0.4-0.4-0.6c0.5,0.2,1,0.4,1.6,0.8c0.3,0.2,0.5,0.2,0.7,0.2C67.3,34,67.4,34,67.6,33.9z"/>
<path class="st7" d="M40.1,110.4c-0.1-0.1-0.2-0.1-0.3-0.3c-0.1-0.2-0.2-0.2-0.3-0.3c0,0,0,0,0-0.1c-0.1-0.1-0.2-0.1-0.2-0.2
	c-0.8-0.9-1.7-1.8-2.5-2.9c-0.1-0.5-0.2-0.8-0.3-1.1c-1.1-2.9-2.3-5.8-3.4-8.7c1.5,1.5,2.9,3,4.2,4.6c2.3,2.8,5,4,8,3.7
	c0,0.1,0,0.2,0.1,0.3c0.2,0.8,0.3,1.4,0.5,2.1c0.6,1.5,1.2,2.9,1.9,4.5c0.3,1.2-0.4,0.7-0.7,0.7c-1.6-0.4-3.1-0.8-4.7-1.3
	C41.6,111.1,40.9,110.7,40.1,110.4z"/>
<path class="st3" d="M105.2,48.3c0.5,0,1-0.1,1.6-0.1c0.5,1.1,0.9,2.2,1.3,3.4c-0.2,0.4-0.4,0.8-0.7,0.9c-2.3,1-4.5,2.2-6.2,4.3
	c-0.9,1.1-1.6,2.5-2.4,3.8c-0.5,1.3-1,2.6-1.5,3.9c-0.1,0.2-0.2,0.4-0.3,0.4c-1-1-2.3-0.6-2.8,0.9c-0.1-0.7-0.1-1.3-0.1-1.8
	c1.2,0,0.6-1.2,0.8-1.8c0.7-2.2,1.3-4.5,2.5-6.4c1.9-3.1,4.3-5.2,7.2-6.6C104.8,49,105,48.6,105.2,48.3z"/>
<path class="st8" d="M114,76.1c-0.1,0.1-0.1,0.2-0.3,0.3c-2-0.2-3.8-0.4-5.8-0.6c-0.8-0.7-1.5-1.5-2.2-2.3c0-0.7,0-1.4,0.1-2
	c0.2-0.4,0.4-0.7,0.6-1c1.4-2.4,3.3-3.5,5.8-3.1c1,0.4,1.9,0.7,2.9,1c0-0.3-0.1-0.7-0.1-1.1c1.5,2.9,0.8,5.4-0.5,7.9
	C114.4,75.5,114.2,75.8,114,76.1z M109.3,71.4c0,0.1,0,0.2-0.1,0.4c-1.2,1.6-1.3,2.5-0.3,3.5c0.6-2.1,2.1-2.9,3.8-3.5
	c0-0.1,0-0.3-0.1-0.4c-0.4-0.1-0.7-0.2-1.2-0.4c-0.3-0.1-0.6-0.4-0.9-0.4c-0.4,0-0.9,0.3-1.3,0.5c0,0,0,0.1,0,0.1
	C109.2,71.1,109.2,71.2,109.3,71.4z"/>
<path class="st9" d="M88.5,65.3c0-2.9,0.1-5.7-0.1-8.6c-0.1-2.2-0.4-4.4-0.9-6.5c-1-4-2.1-7.9-3.2-11.8c-0.1-0.5-0.2-1-0.2-1.6
	c0.7,0.7,1.3,1.5,1.9,2.4c0.7,2.4,1.3,4.5,1.9,6.7c0.7,2.6,1.4,5.2,2.1,7.8c0.3,1.1,0.4,2.3,0.4,3.5c0.1,2.5,0.2,4.9,0.3,7.4
	c0,0,0,0-0.1,0.1c-0.7,0.3-1.4,0.6-2,0.8C88.5,65.3,88.5,65.3,88.5,65.3z"/>
<path class="st10" d="M88.2,39.3c0.7,1.6,1.5,3.2,1.9,4.9c1.1,4.4,2,8.9,3,13.4c0.2,1.1,0.3,2.2,0.6,3.4c0,0.8-0.1,1.4-0.3,2.1
	c-0.6-0.5-1-0.3-1.4,0.2c-0.2,0.3-0.4,0.6-0.6,0.8c-0.1-2-0.3-3.9-0.4-5.8c-0.3-5-1.2-9.8-2.7-14.5c-0.5-1.4-0.9-2.9-1.4-4.3
	C87.3,39.5,87.7,39.4,88.2,39.3z"/>
<path class="st8" d="M55.6,50.8c-1.9-0.5-3.9-1.2-5.8-1.4c-2.8-0.2-5.6-0.2-8.3,0.1c-1.8,0.2-3.5,1.1-5.4,1.7
	c0.9-1.9,1.9-3.9,2.9-5.9c0.3,0.2,0.5,0.5,0.7,0.6c1.2,0.1,2.4,0.1,3.7,0.2c0.5,0.3,0.9,0.6,1.3,0.7c2.9,0.9,5.8,1.7,8.7,2.6
	C54.2,49.6,54.9,50.3,55.6,50.8z"/>
<path class="st9" d="M115.1,67.2c0,0.5,0.1,0.9,0.1,1.2c-1-0.3-1.9-0.7-3-1.1c-2.9-1.1-5.1-0.1-6.6,2.3c-0.6-0.4-1-0.8-1.5-1.2
	c0.2-0.6,0.4-1.1,0.7-1.6c0.1-0.2,0.2-0.4,0.3-0.6c0.1-0.1,0.2-0.2,0.4-0.3c0.2-0.2,0.3-0.4,0.5-0.6c0.2-0.1,0.3-0.2,0.6-0.3
	c0.2-0.2,0.3-0.4,0.6-0.6c1-0.4,2-0.7,3-1c0.5,0,0.9,0,1.3,0c1.5-0.1,2.3,0.4,2.6,1.6C114.4,65.6,114.8,66.4,115.1,67.2z"/>
<path class="st11" d="M75.9,107.5c0,0,0.1,0.1,0.1,0.2c0,0.3-0.1,0.4-0.2,0.6c-0.3,0.2-0.5,0.4-0.7,0.6c-1.3,1.5-3,1.9-4.8,1.7
	c-1-0.1-1.8-0.5-1.8,1.2c0,0-0.1,0.1-0.2,0c-0.1-0.6-0.2-1.2-0.2-1.7c0.3-0.3,0.7-0.6,0.8-1c1-2.9,2.6-4.7,5.3-4.5
	c0.5,0.7,1,1.3,1.5,2.1C75.7,107.1,75.8,107.3,75.9,107.5z"/>
<path class="st12" d="M98.8,60.6c0.8-1.2,1.5-2.6,2.4-3.7c1.7-2.1,3.9-3.3,6.2-4.3c0.3-0.1,0.4-0.5,0.7-0.8c0.4,1.5,1.6,2.2,2.3,3.5
	c-0.9,0.3-1.7,0.5-2.7,0.7c-0.9,0.3-1.8,0.5-2.7,0.7c-0.6,0.2-1.1,0.4-1.5,0.7C101.9,58.4,100.3,59.5,98.8,60.6z"/>
<path class="st9" d="M67.3,102.8c0.9-0.7,2.1-1.1,2.5-2.8c0.8,0.7,1.6,1.5,2.3,2.4c-0.3,0.4-0.5,0.6-0.8,0.8
	c-1.9,1.4-3.4,3.3-3.4,6.4c-1-0.8-1.6-0.5-2.1,0.6c0,0.1-0.1,0.1-0.2,0C65.4,107.3,66,104.9,67.3,102.8z"/>
<path class="st13" d="M82.9,73.9c-2.1,1.3-4.1,2.5-6.3,3.7c-0.5-1.3-0.9-2.6-1.3-3.8c2.3-0.3,4.4-0.9,6.1-2.8c0.3-0.4,0.7-0.7,1.1-1
	C82.7,71.4,82.8,72.7,82.9,73.9z"/>
<path class="st14" d="M30.2,96.1c-1.3-1.8-2.6-3.6-3.9-5.5c-0.1-1.3-0.3-2.4-0.3-3.5c0-1.5,0.3-2.9,0.4-4.3c0.4,1.2,0.7,2.4,1.2,3.4
	c0.4,0.8,0.9,1.7,1.9,1.5c0.1,0.3,0.1,0.5,0,0.8c-0.4,2.3,0,4.6,0.5,7C30.1,95.7,30.1,95.9,30.2,96.1z"/>
<path class="st12" d="M35.7,51.8c1.3,0,2.5,0,3.8,0.1c2,0.2,4-0.1,6.1,0.9c-2.1,0.3-4.3,0.3-6.4,0.8c-2.4,0.5-4.6,1.5-6.9,2.2
	c-0.5,0.2-0.9,0.3-1.5,0.5c1.4-1.5,2.9-3,4.6-4.5C35.5,51.8,35.6,51.8,35.7,51.8z"/>
<path class="st15" d="M68.3,111.9c0.1,0,0.2-0.1,0.2-0.1c0-1.7,0.8-1.3,1.8-1.2c1.8,0.2,3.5-0.2,4.8-1.7c0.2-0.2,0.4-0.4,0.7-0.5
	c0.2,0.3,0.3,0.6,0.4,0.9c0,0.1,0,0.3-0.1,0.5c-0.3,0.8-0.5,1.5-0.6,2.2c0,0,0,0-0.1,0c-2,1.1-4,1.8-6.2,1.5c-0.4-0.4-0.7-0.7-1-1.1
	C68.2,112.2,68.2,112,68.3,111.9z"/>
<path class="st16" d="M30.2,96.1c0-0.2-0.1-0.4,0-0.7c0.1-0.5,0.1-0.8,0.1-1.1c0.1-0.7,0.2-1.4,0.3-2.1c0.2,0.5,0.4,0.9,0.6,1.3
	c0.4,0.5,0.8,1,1.3,1.6c0.2,0.7,0.4,1.3,0.6,1.8c1.1,2.9,2.3,5.8,3.4,8.7c0.1,0.3,0.2,0.6,0.3,1.1c-1.5-2.2-3-4.5-4.5-7
	c-0.2-0.4-0.3-0.7-0.5-0.9c-0.2-0.3-0.3-0.7-0.5-1.1c-0.1-0.2-0.2-0.3-0.2-0.3c0,0,0,0,0-0.1c-0.1-0.2-0.2-0.3-0.3-0.3
	c0,0,0,0,0-0.1c-0.1-0.1-0.1-0.1-0.2-0.2c0,0,0,0,0-0.1C30.3,96.2,30.2,96.2,30.2,96.1C30.1,96.1,30.2,96.1,30.2,96.1z"/>
<path class="st17" d="M107.8,55.9c0.9-0.2,1.8-0.4,2.7-0.6c2.3,2.6,3.3,5.8,3.7,9.5c-0.4-1.1-1.2-1.6-2.7-1.5c-0.4,0-0.8,0.1-1.2,0
	c0-0.5,0-0.9,0.1-1.4c0.8-0.6,1.2-1.4,0.7-2.5c-0.4-0.9-1-1.7-1.7-2.5C108.9,56.5,108.3,56.3,107.8,55.9z"/>
<path class="st18" d="M70.7,84.2c-0.4,0.3-0.7,0.7-1.1,0.8c-1,0.3-1.3,1.2-1.4,2.5c-0.8-0.5-1.4-1.1-2.1-1.7c-0.1-0.4-0.1-0.6-0.2-1
	c-0.3-1.1-0.6-2.1-0.9-3.2c1,0,1.9,0,2.9,0.1c0.2,0,0.2,0,0.4,0c0.1,0,0.3-0.1,0.4-0.1c0.2,0,0.4,0,0.5,0
	C69.7,82.4,70.2,83.3,70.7,84.2z"/>
<path class="st18" d="M62.3,115.6c-4.2-0.3-8.4-0.5-12.6-0.9c-0.3-0.6-0.5-1-0.6-1.4c1.3,0.1,2.5,0.2,3.8,0.4
	c0.6,0.1,1.1,0.2,1.6,0.3c0.6,0.7,1.1,0.9,1.2-0.3c0.1-0.1,0.2-0.2,0.4-0.3c0.5-0.3,0.8-0.5,1.3-0.7c0.4,0.3,0.8,0.6,1.2,0.8
	c0.6,0.4,1.3,0.6,2,1c0.7,0.3,1.3,0.5,1.9,0.7C62.4,115.3,62.4,115.4,62.3,115.6z"/>
<path class="st3" d="M86.8,39.5c0.5,1.5,1,2.9,1.5,4.3c1.6,4.7,2.5,9.5,2.7,14.5c0.1,1.9,0.2,3.8,0.3,5.8c-0.1,0.2-0.2,0.3-0.3,0.4
	c-0.2,0-0.2,0-0.3,0.1c-0.1-2.5-0.2-4.9-0.3-7.4c-0.1-1.2-0.2-2.4-0.4-3.5c-0.6-2.6-1.4-5.2-2.1-7.8c-0.6-2.2-1.2-4.4-1.9-6.6
	C86.2,39.3,86.5,39.4,86.8,39.5z"/>
<path class="st18" d="M75.3,73.8c0.4,1.2,0.8,2.5,1.3,3.8c-0.7,1.1-1.3,2-2.2,3.1c-0.3-0.3-0.6-0.6-0.7-1c-0.3-0.9-0.5-1.8-0.7-2.8
	c-0.1-0.4-0.1-0.8-0.1-1.2c0.1-0.4,0.1-0.7,0.2-1.1c-0.1-1.3,0.5-1.2,1.2-1.2c0.3,0,0.5,0.1,0.8,0.1C75.2,73.7,75.2,73.7,75.3,73.8z
	"/>
<path class="st13" d="M102.8,74.4c-1.5-1-3-2-4.6-3.1c-0.2-0.2-0.4-0.2-0.5-0.3c-0.2-1.5-0.5-2.8-0.6-4.2c0.3,0.2,0.6,0.5,0.9,0.7
	c1.5,1.6,3,3.3,5,4c0,0.1,0,0.1,0,0.3C102.9,72.8,102.9,73.6,102.8,74.4z"/>
<path class="st19" d="M83,74c-0.2-1.3-0.3-2.6-0.4-4c0-0.4-0.1-0.6,0-0.8c0.3-0.4,0.6-0.7,0.7-1.2c0.5-1.7,0.5-1.7,1.7-0.9
	c0.1,0,0.1,0,0.2,0.1c0,0.2,0.1,0.3,0.1,0.5c0,0.7,0.1,1.3,0.1,1.8c0,1.4,0.7,3.2-0.9,3.9c0,0-0.1,0.1-0.2,0c-0.1,0-0.2,0-0.2,0
	c-0.2,0.1-0.3,0.1-0.6,0.1c-0.2,0-0.2,0-0.2,0.1C83.2,73.9,83.1,73.9,83,74z"/>
<path class="st13" d="M72.9,77.1c0.2,0.9,0.4,1.8,0.7,2.7c0.1,0.4,0.4,0.7,0.7,1c-1.1,1.1-2.3,2.3-3.5,3.4c-0.6-0.8-1-1.7-1.5-2.7
	c0.8-0.9,1.7-1.5,2.4-2.3C72.2,78.6,72.5,77.8,72.9,77.1z"/>
<path class="st13" d="M84.5,73.5c1.6-0.7,0.8-2.5,0.8-3.9c0-0.6-0.1-1.2,0-1.8c1.1,0,2,0.1,3,0.2c0,0.1,0,0.2,0,0.3
	c-0.1,1.3-0.2,2.6-0.3,3.9C86.9,72.6,85.8,73,84.5,73.5z"/>
<path class="st4" d="M67.8,109.6c0-3.2,1.5-5,3.4-6.4c0.3-0.2,0.5-0.4,0.9-0.7c0.7,0.6,1.4,1.3,2.1,2c-2.7-0.1-4.3,1.8-5.3,4.6
	c-0.1,0.4-0.5,0.7-0.9,0.9C67.9,109.9,67.9,109.8,67.8,109.6z"/>
<path class="st20" d="M94.6,71.8c-1.3,0-2.5,0-3.8-0.2c0.2-1.6,0.4-3.1,0.6-4.5c0.8,0.1,1.5,0.1,2.2,0.2c0,0.1,0,0.2,0.1,0.3
	C94,69.1,94.3,70.5,94.6,71.8z"/>
<path class="st13" d="M66.1,85.8c0.7,0.6,1.3,1.1,2.1,1.7c-0.1,2.1-0.3,4.2-0.6,6.3c-0.7-0.6-1.4-1.3-2.1-2
	c-0.1-0.2-0.2-0.3-0.2-0.4C66.3,89.7,66.2,87.8,66.1,85.8z"/>
<path class="st12" d="M68.3,97.9c-1.5-0.2-3.1-0.6-4.6-0.7c-0.7-0.1-1.4,0.2-2.3,0.4c-0.9,0.4-1.6,0.8-2.3,1.1
	c0.6-0.7,1.1-1.6,1.8-2c1.9-1,3.8-2.1,6.1-1.2c0.1,0,0.1,0,0.2,0C67.6,96.3,68,97,68.3,97.9z"/>
<path class="st19" d="M91.3,67.1c-0.2,1.5-0.4,2.9-0.6,4.5c0,0.1-0.1,0.1-0.2,0.1c-0.2,0-0.3,0-0.4,0.1c-0.6,0.1-1.2,0.2-1.9,0.4
	c0-1.3,0.1-2.5,0.3-3.9c1.4-0.7,2.7-1.2,2.2-3.6c0,0,0,0,0,0c0.1,0,0.2,0,0.4,0C91.2,65.5,91.2,66.3,91.3,67.1z"/>
<path class="st16" d="M24.7,76.8c0.1,0,0.2,0,0.4,0c0.3,0.2,0.6,0.4,0.6,0.6c0.1,0.6,0.2,1.1,0.3,1.8c0.1,0.5,0.2,1,0.3,1.5
	c0,0.3,0,0.5-0.1,0.6C26,81,26,80.8,25.9,80.6c-0.1,0-0.2,0-0.3,0c-0.3,2.1-0.6,4.3-1,6.4c-0.9-2.6-0.8-5.2-0.7-7.9
	c0.2,0,0.4,0,0.4,0C24.5,78.4,24.6,77.6,24.7,76.8z"/>
<path class="st13" d="M49,113.2c0.2,0.4,0.4,0.8,0.6,1.3c-3.4-0.1-6.6-1.2-9.5-4.1c0.7,0.2,1.4,0.6,2.2,0.9c1.6,0.5,3.1,0.9,4.7,1.3
	c0.3,0.1,1,0.5,0.8-0.7c0.3,0.2,0.5,0.5,0.8,0.7C48.7,112.9,48.9,113.1,49,113.2z"/>
<path class="st18" d="M102.9,74.5c0-0.9,0-1.7,0.2-2.6c0.6-0.1,1.1-0.1,1.6-0.2c0.4,0,0.8-0.1,1.2-0.2c0,0.6-0.1,1.3-0.1,2
	c-0.2,0.9-0.4,1.6-0.6,2.4C104.4,75.5,103.7,75,102.9,74.5z"/>
<path class="st18" d="M94.7,71.9c-0.4-1.4-0.7-2.8-1-4.3c0.3-0.3,0.5-0.4,0.7-0.5c0.6-0.4,1.3-0.9,1.9-1.3c-0.1,0.8-0.4,1.5-0.5,2.2
	c-0.2,1.2-0.2,2.4-0.4,3.6c0,0.1,0,0.2,0,0.2C95.3,71.8,95.1,71.8,94.7,71.9z"/>
<path class="st21" d="M69.2,113.6c2.2,0.2,4.2-0.5,6.2-1.6c-0.7,0.7-1.3,1.7-2.2,2.1c-1.9,0.8-3.9,1.3-6,1.8
	c-0.1-0.2-0.1-0.3-0.1-0.4C68.1,115.3,69.4,115.6,69.2,113.6z"/>
<path class="st22" d="M24.6,87.1c0.3-2.2,0.6-4.4,0.9-6.5c0.1,0,0.2,0,0.3,0c0.1,0.2,0.2,0.5,0.3,0.9c0.1,0.5,0.1,0.9,0.2,1.2
	c-0.1,1.5-0.4,2.9-0.4,4.4c0,1.1,0.2,2.3,0.3,3.4c-0.1,0-0.1-0.1-0.1-0.2c-0.1-0.3-0.2-0.4-0.3-0.5c0,0-0.1,0-0.1-0.2
	c-0.1-0.2-0.1-0.2-0.2-0.3C25.2,88.6,24.9,87.9,24.6,87.1z"/>
<path class="st20" d="M105.2,76c0.1-0.8,0.3-1.6,0.5-2.3c0.8,0.7,1.5,1.4,2.3,2.3c0.9,0.6,1.6,1.2,2.4,1.7
	C108.7,77.1,107,76.6,105.2,76z"/>
<path class="st11" d="M110.5,77.7c-0.9-0.6-1.6-1.1-2.4-1.7c1.8,0.1,3.7,0.3,5.6,0.5C112.9,77.6,111.7,77.6,110.5,77.7z"/>
<path class="st18" d="M67.3,95.5c-0.1,0-0.1,0-0.2-0.1c-0.6-0.5-1.2-1-1.8-1.5c-0.3-0.2-0.5-0.4-0.6-0.6c0.3-0.5,0.6-1,0.9-1.4
	c0.6,0.6,1.3,1.3,2,2c0,0.3,0,0.6-0.1,1c-0.1,0.2-0.1,0.3-0.1,0.3C67.3,95.3,67.3,95.4,67.3,95.5z"/>
<path class="st14" d="M67,115.5c0,0.1,0,0.2,0.1,0.4c-1.5,0-3.1-0.1-4.7-0.3c0-0.2,0-0.3,0.1-0.5c0.4-0.1,0.8,0,1.2,0.1
	c0.5,0.5,0.7,0.5,0.8-0.2c0.2,0,0.2,0,0.4,0C65.6,115.9,66.3,115.6,67,115.5C67,115.5,67,115.5,67,115.5z"/>
<path class="st12" d="M24.7,76.8c-0.1,0.8-0.2,1.6-0.4,2.3c0,0-0.2-0.1-0.4-0.1c-0.1-0.6-0.1-1.2-0.1-1.8
	C24.1,77,24.4,76.9,24.7,76.8z"/>
<path class="st21" d="M75.5,111.9c0.1-0.7,0.3-1.4,0.5-2.1C75.9,110.5,75.7,111.1,75.5,111.9z"/>
<path class="st20" d="M95.7,71.7c-0.1,0-0.1-0.1,0-0.2c0.8-0.2,1.4-0.3,2.1-0.4c0.1,0,0.3,0.1,0.4,0.2
	C97.4,71.5,96.6,71.6,95.7,71.7z"/>
<path class="st21" d="M76.1,109.1c-0.1-0.2-0.2-0.4-0.3-0.8c0-0.2,0.1-0.4,0.1-0.6C76,108.1,76.1,108.6,76.1,109.1z"/>
<path class="st11" d="M114.1,76.1c0.1-0.3,0.3-0.6,0.5-0.9C114.5,75.5,114.3,75.8,114.1,76.1z"/>
<path class="st8" d="M35.7,51.7c-0.1,0-0.2,0.1-0.4,0.1c0.1-0.1,0.3-0.3,0.5-0.4C35.8,51.4,35.8,51.6,35.7,51.7z"/>
<path class="st1" d="M67.2,34c-0.1,0-0.3,0-0.6-0.1C66.8,33.9,66.9,34,67.2,34z"/>
<path class="st14" d="M31.8,98.7c0.1,0.2,0.3,0.4,0.4,0.7C32.1,99.3,32,99.1,31.8,98.7z"/>
<path class="st21" d="M75.9,107.4c-0.1-0.1-0.2-0.3-0.2-0.6C75.7,106.9,75.8,107.1,75.9,107.4z"/>
<path class="st14" d="M30.7,96.8c0.1,0,0.2,0.1,0.3,0.3C30.9,97.1,30.8,97,30.7,96.8z"/>
<path class="st14" d="M30.2,96.1c0.1,0,0.2,0.1,0.3,0.3C30.4,96.4,30.3,96.3,30.2,96.1z"/>
<path class="st20" d="M90.1,71.7c0-0.1,0.2-0.1,0.3-0.1C90.4,71.7,90.3,71.7,90.1,71.7z"/>
<path class="st14" d="M25.8,89.9c0.1,0,0.2,0.1,0.3,0.3C26,90.2,25.9,90.1,25.8,89.9z"/>
<path class="st3" d="M67.4,95.2c-0.1-0.1-0.1-0.1,0-0.2C67.4,95,67.4,95.1,67.4,95.2z"/>
<path class="st13" d="M39.3,109.6c0,0,0.1,0,0.2,0.1C39.5,109.7,39.4,109.7,39.3,109.6z"/>
<path class="st14" d="M25.5,89.4c0.1,0,0.1,0.1,0.2,0.2C25.7,89.6,25.6,89.6,25.5,89.4z"/>
<path class="st13" d="M84.1,73.6c0-0.1,0-0.1,0.1-0.1C84.3,73.6,84.2,73.7,84.1,73.6z"/>
<path class="st13" d="M83.3,73.8C83.3,73.8,83.3,73.7,83.3,73.8C83.4,73.8,83.4,73.8,83.3,73.8z"/>
<path class="st14" d="M30.5,96.6c0,0,0.1,0,0.2,0.1C30.6,96.7,30.6,96.7,30.5,96.6z"/>
<path class="st14" d="M31,97.3c0,0,0.1,0,0.2,0.2C31.2,97.4,31.1,97.4,31,97.3z"/>
<path class="st13" d="M39.5,109.8c0,0,0.1,0,0.2,0.2C39.7,110,39.6,109.9,39.5,109.8z"/>
<path class="st23" d="M52,46.5c-0.9-0.7-1.8-1.4-2.8-2.1c-1.4-1.1-1.7-2.8-0.5-3.9c1.3-1.2,2.9-2.2,4.4-3c2.6-1.3,5.4-1,8.2-0.9
	c1.1,0,2.1,0.6,3.2,1.1c0.2,0.6,0.3,1.2,0.5,1.5c1.9,2.2,3.8,4.3,5.7,6.4c0.2,0.2,0.6,0.2,0.8,0.3c1,1.8,2.2,3.6,3,5.6
	c0.8,2,1.2,4.1,1.5,6.2c0.2,1.3,0.1,2.7-0.2,3.9c-0.5,1.9-2.2,1.9-3.3,0.2c-0.7-1.2-1.3-2.4-2.1-3.5c-1.9-2.7-4.2-4.7-6.8-6.2
	c-0.9-0.5-1.8-1.1-2.6-1.8c0.6-0.2,0.8-0.5,0.3-1.1c-0.3-0.4-0.6-0.9-0.9-1.3c-0.2,0.2-0.4,0.4-0.5,0.6c0.2,0.6,0.3,1.2,0.5,1.9
	c-0.3-0.1-0.6-0.2-1.1-0.4c-1.3-0.7-2.5-1.2-3.7-1.8c-0.2-0.1-0.4,0-0.6,0c-0.2-0.1-0.3-0.1-0.4-0.3C53.8,47.3,52.9,46.9,52,46.5z
	 M49.6,43.5c2.4,0.8,4.8,1.9,6.9,3.7c0.4,0.3,1,0.3,1.5,0.4c0.1-0.1,0.1-0.3,0.2-0.4c-0.3-0.5-0.6-1-1-1.4c-2.2-2.3-4.7-2.8-7.3-3
	C49.7,42.8,49.6,43.2,49.6,43.5z M71.6,51.4c0.9,1.8,1.6,3.7,3.3,5c0-2-2.5-6.5-3.8-6.8C71.2,50.3,71.4,50.7,71.6,51.4z"/>
<path class="st24" d="M54.7,47.9c0.1,0.1,0.2,0.1,0.4,0.2c1.4,0.8,2.8,1.6,4.1,2.3c0.9,0.7,1.8,1.4,2.8,2.1c2.5,1.8,4.6,4.2,6.5,6.9
	c1.6,2.3,3.1,4.8,3.9,7.8c-0.7-1.1-1.3-2.3-2.1-3.4c-1.5-2-3-3.9-4.6-5.8c-0.2-0.3-0.5-0.4-0.9-0.6c-0.3-0.2-0.5-0.5-0.8-0.9
	c-0.2-0.2-0.4-0.3-0.5-0.4c-2.1-1.5-4.3-3.1-6.5-4.7c-0.5-0.3-0.9-0.5-1.2-0.7c0,0-0.1,0-0.1,0c-0.8-0.5-1.5-1.2-2.3-1.4
	c-2.9-0.9-5.8-1.7-8.7-2.6c-0.4-0.1-0.8-0.4-1.2-0.7c0.6-0.2,1.2-0.4,1.8-0.3c2,0.3,4.1,0.7,6.1,1.1c0.2,0,0.3,0,0.6,0
	C53,47.2,53.8,47.6,54.7,47.9z"/>
<path class="st10" d="M82.5,69.2c0,0.2,0,0.4,0.1,0.6c-0.4,0.5-0.8,0.8-1.1,1.2c-1.6,1.9-3.7,2.5-6.1,2.8c-0.1-0.1-0.2-0.1-0.3-0.3
	c-0.5-1.4-0.9-2.6-1.3-3.8c0.5,0.1,1.1,0.1,1.6,0.3c1.4,0.3,2.7,0.3,4-0.5c0.9-0.6,1.8-1.3,2.8-1.9C82.3,68.2,82.4,68.7,82.5,69.2z"
	/>
<path class="st24" d="M66.8,35.6c4.5,4.4,8,9.8,10.8,15.8c0.2,0.5,0.4,1.1,0.6,1.7c-0.2-0.1-0.5-0.2-0.6-0.5
	c-2.7-5.3-5.9-10-9.7-14.2c-1.3-1.5-2.6-2.9-4-4.4c0.1-0.1,0.1-0.3,0.2-0.4C65,34.3,65.9,35,66.8,35.6z"/>
<path class="st25" d="M71.6,45.8c-0.3,0-0.6,0-0.8-0.2c-1.9-2.1-3.8-4.2-5.7-6.4c-0.3-0.3-0.4-0.9-0.5-1.4c0.9,0.7,1.9,1.4,2.7,2.3
	C68.8,42,70.1,43.9,71.6,45.8z"/>
<path class="st3" d="M82.5,69.2c-0.2-0.5-0.3-1-0.4-1.6c0-0.3,0-0.5,0-0.8c0.4-0.9,0.9-1.6,1.2-2.4c0.3-0.6,0.4-1.4,0.6-2.1
	c0.2,0.2,0.3,0.3,0.4,0.7c0.3,1.6,0.5,2.9,0.7,4.3c-0.1,0-0.1,0-0.2,0c-1.2-0.8-1.2-0.8-1.7,0.9C83.1,68.4,82.8,68.8,82.5,69.2z"/>
<path class="st3" d="M73.7,69.6c0.5,1.3,0.9,2.5,1.3,3.9c-0.2,0.1-0.4,0.1-0.8-0.1c-0.7-1.8-1.4-3.4-2-5c0,0,0,0,0,0
	C72.7,68.8,73.2,69.1,73.7,69.6z"/>
<path class="st17" d="M59.2,50.4c-1.3-0.7-2.7-1.4-4.1-2.2c0.1-0.1,0.4-0.2,0.5-0.1c1.2,0.6,2.4,1.1,3.6,1.8
	C59.3,50,59.3,50.2,59.2,50.4z"/>
<path class="st25" d="M60.5,50.2c-0.2-0.6-0.4-1.2-0.5-1.8c0.2-0.2,0.4-0.4,0.5-0.6c0.3,0.4,0.5,0.9,0.9,1.3
	c0.6,0.7,0.3,0.9-0.3,1.1C60.9,50.2,60.8,50.2,60.5,50.2z"/>
<path class="st17" d="M54.7,47.8c-0.8-0.2-1.7-0.6-2.6-0.9C52,46.7,52,46.7,52,46.6C52.9,46.9,53.8,47.3,54.7,47.8z"/>
<path class="st23" d="M53.7,62.9c-0.5,0-1.1,0-1.6-0.1c-2.9-0.9-5.7-1.1-8.7-0.5c-2.2,0.4-4.4,0.8-6.4,1.4c-1.4,0.4-2.8,1.2-4.1,1.8
	c-1.4-0.1-2-1-1.6-2.6c1-3.3,2.5-5.9,5.5-6.8c3.9-1.2,7.9-1.8,12-0.9c2.8,0.6,5.6,2,8.1,4.1c1.5,1.3,2.9,2.8,4.4,4.3
	c0.2,0.2,0.5,0.5,0.6,0.7c0.2,0.5,0.4,1.1,0.3,1.5c-0.1,0.3-0.8,0.5-1.1,0.3c-1.8-0.7-3.5-1.5-5.2-2.3c-0.6-0.3-1.2-0.6-1.7-1
	c0.1-0.5,0.2-1.1,0.1-1.2c-1.1-0.5-2.2-1.2-3.3-0.9c0,0.1-0.1,0.3-0.1,0.4C51.8,61.8,52.7,62.3,53.7,62.9z M42.3,59.6
	c0.3,0,0.6-0.1,0.9,0c1.7,0.3,3.4,0.6,5.1,0.9c0.4,0.1,0.7-0.2,1.1-0.3c-0.2-0.4-0.5-0.8-0.8-1c-1.5-1.2-3.2-1.2-4.8-1.4
	c-2-0.3-3.9,0.2-5.6,1.2c-0.3,0.2-0.5,0.5-0.8,0.7c0,0.1,0.1,0.3,0.1,0.4C39.1,59.9,40.6,59.8,42.3,59.6z M35.9,60.8
	c-0.2,0-0.5-0.2-0.7-0.1c-0.3,0.1-0.7,0.4-0.9,0.7c0,0,0.2,0.7,0.2,0.7c0.6,0,1.1,0,1.6-0.1C36.2,61.9,36.1,61.3,35.9,60.8z"/>
<path class="st3" d="M26.2,80.7c-0.1-0.4-0.2-0.9-0.2-1.5c1.4-3,2.8-5.7,4.9-7.9c2.8-2.9,6.1-4.5,9.7-5.1c3.1-0.5,6.3-0.1,9.4,0.9
	c1.9,0.7,3.9,1.5,5.7,2.6c1.5,0.8,2.9,2.1,4.3,3.1c0.2,0.1,0.5,0.1,0.7,0.2c0.3,0.3,0.5,0.5,0.7,0.8c1.3,1.3,2.6,2.6,3.9,3.9
	c0.2,0.2,0.5,0.4,0.9,0.7c0.7,1,1.4,2,2,2.9c-0.1,0.1-0.1,0.2-0.1,0.3c-0.1,0-0.2,0-0.3,0c-0.5-0.7-0.9-1.3-1.4-1.9
	c-0.9-1.2-2-1.6-2.8-0.8c-0.5,0.5-0.7,0.1-1.1-0.3c-0.1-0.1-0.2-0.1-0.2-0.2c0,0,0,0,0-0.1c-1.1-1.2-2.1-2.3-3.2-3.3
	c-2.8-2.3-5.8-4.2-9-5.5c-3.2-1.3-6.5-1.9-9.7-1.5c-2.5,0.3-4.9,1.3-7,2.7c-2.7,1.8-4.8,4.3-6.1,7.7C26.9,79.2,26.6,79.9,26.2,80.7z
	"/>
<path class="st26" d="M61.6,73.8c-0.3-0.2-0.5-0.4-0.8-0.8c-4.2-4-8.7-6.6-13.6-7.8c-2.4-0.6-4.7-0.6-7.1-0.3
	c-3,0.5-5.9,1.5-8.5,3.3c-0.1,0.1-0.2,0.2-0.4,0.4c-0.1,0-0.2,0.1-0.4,0.1c-0.3,0-0.5,0.1-0.8,0.1c0.9-0.8,1.8-1.7,2.8-2.6
	c3.4-2.3,7-3.4,10.9-3.5c2.9,0.1,5.8,0.4,8.6,1.9c2,1.1,4,2,5.8,3.5c1.5,1.2,2.6,3,3.9,4.6C62.5,73.4,62.2,73.7,61.6,73.8z"/>
<path class="st12" d="M31.6,68.3c2.6-1.8,5.5-2.9,8.5-3.4c2.3-0.4,4.7-0.3,7.1,0.3c4.9,1.2,9.4,3.8,13.5,7.8c-0.2,0-0.5,0.1-0.7-0.1
	c-1.4-1-2.8-2.3-4.3-3.1c-1.8-1-3.8-1.9-5.7-2.6c-3.1-1.1-6.3-1.4-9.4-0.9c-3.6,0.6-6.9,2.2-9.7,5.1c-2.1,2.2-3.5,4.9-4.9,7.8
	c-0.1-0.6-0.2-1.1-0.3-1.7c-0.1-0.2-0.3-0.4-0.5-0.7c1-1.9,2.1-3.8,3.3-5.8c0.9-0.8,1.7-1.6,2.5-2.3c0.1,0,0.2,0,0.4-0.1
	C31.5,68.5,31.6,68.4,31.6,68.3z"/>
<path class="st10" d="M68.4,81.3c-0.6-0.9-1.3-1.9-2-2.9c2-1.2,3.6-2.8,4.3-5.5c0-0.2,0.2-0.3,0.4-0.5c0.4,0.5,0.6,1,0.9,1.7
	c0.3,0.7,0.5,1.3,0.7,1.8c0.1,0.3,0.1,0.7,0.2,1.1c-0.4,0.8-0.7,1.6-1.2,2.2c-0.7,0.8-1.6,1.4-2.5,2.2c-0.2,0.1-0.4,0.1-0.6,0.1
	C68.5,81.3,68.4,81.3,68.4,81.3z"/>
<path class="st10" d="M52.1,54.1c1.7,0.6,3.5,1.1,5.1,2c4.2,2.2,7.7,5.6,10.7,9.9c0.2,0.2,0.2,0.5,0.4,0.9c-1.3-1.3-2.6-2.6-3.9-4
	c-2.6-2.8-5.5-5-8.6-6.8C54.6,55.4,53.3,54.8,52.1,54.1z"/>
<path class="st27" d="M72,73.9c-0.3-0.5-0.5-1.1-0.8-1.6C71,72,71,71.7,70.9,71.3c0.1-1.2,0.2-2.3,0.3-3.6c0.3,0.2,0.6,0.4,1,0.6
	c0.7,1.6,1.3,3.3,2,5c-0.6,0.1-1.3,0-1.2,1.3C72.6,74.4,72.3,74.1,72,73.9z"/>
<path class="st17" d="M43.7,62.7c-3.8,0.1-7.4,1.2-10.8,3.5c-0.1-0.2-0.1-0.3-0.2-0.6c1.4-0.7,2.7-1.5,4.1-1.9c2-0.6,4.1-1,6.3-1.4
	C43.4,62.4,43.6,62.5,43.7,62.7z"/>
<path class="st25" d="M53.7,62.8c-1-0.5-2-1.1-2.9-1.6c0-0.1,0.1-0.3,0.1-0.4c1.2-0.4,2.2,0.4,3.3,0.9c0,0-0.1,0.7-0.2,1.1
	C54,62.8,53.9,62.8,53.7,62.8z"/>
<path class="st23" d="M30.8,68.7c-0.7,0.7-1.5,1.5-2.4,2.2c0.4-0.7,0.9-1.4,1.5-2.1C30.3,68.8,30.5,68.7,30.8,68.7z"/>
<path class="st10" d="M68.6,67.6c0.1,0.1,0.3,0.3,0.5,0.5C69,68,68.8,67.8,68.6,67.6z"/>
<path class="st23" d="M75,38.8c0-0.2,0.1-0.3,0.1-0.5c-0.4-2-0.4-2,1.1-2.3c1.5-0.3,3-0.4,4.5,0.2c1.6,0.6,2.6,1.9,3.4,3.8
	c1.1,2.4,1.5,4.9,1.9,7.4c0.3,2,0.2,4-0.6,5.8c-0.3,0.8-0.9,1.5-1.6,1c-0.6-0.4-1.2-1.1-1.4-1.9c-0.8-3.1-2.3-5.7-3.9-8.2
	c-0.1-0.2-0.3-0.2-0.6-0.4C76.9,42.1,76,40.4,75,38.8z M79.8,41.9c-0.9-1.3-1.5-2.9-2.9-3.5c0.2,0.8,0.4,1.4,0.7,2.1
	c0.7,1.4,1.5,2.7,2.3,4c0.2,0.3,0.7,0.3,1.1,0.5c0-0.5,0-1-0.1-1.4C80.6,43,80.2,42.5,79.8,41.9z M82.8,51.6
	c0.3,0.2,0.5,0.4,0.8,0.6c0.1-0.4,0.3-0.8,0.2-1.1c-0.4-1.2-0.8-2.4-1.3-3.5c-0.1-0.2-0.4-0.3-0.7-0.4c-0.1,0.2-0.2,0.5-0.2,0.7
	C81.9,49.2,82.3,50.3,82.8,51.6z"/>
<path class="st10" d="M85.2,67.2c-0.3-1.4-0.5-2.8-0.7-4.3c0.4,0.2,0.8,0.5,1.2,0.9c0.8,0.9,1.8,1.3,2.8,1.4c0.1,0,0.1,0.1,0.1,0.3
	c-0.1,0.9-0.1,1.6-0.2,2.3c-1-0.1-2-0.2-3-0.2C85.2,67.5,85.2,67.4,85.2,67.2z"/>
<path class="st24" d="M75,38.8c1,1.6,1.9,3.3,2.9,4.9c1.4,3.5,2.8,6.9,4.1,10.4c-0.1,0.1-0.2,0.1-0.3,0.1c-0.2-0.4-0.4-0.8-0.6-1.1
	c-1.1-2.5-2.2-4.9-3.3-7.4c-0.2-0.5-0.5-1-0.8-1.8c-0.2-0.4-0.4-0.5-0.5-0.7c-0.1-0.1-0.2-0.2-0.3-0.4c-0.2-0.6-0.3-1.2-0.5-1.6
	c-0.3-0.8-0.7-1.6-1-2.5c0.1-0.1,0.1-0.1,0.1-0.1C74.8,38.7,74.9,38.7,75,38.8z"/>
<path class="st28" d="M81.7,54.3c0.1,0,0.2,0,0.3-0.1c0.3,0.9,0.6,1.8,0.8,2.8c0,0-0.2,0.2-0.4,0.3c-0.2-0.5-0.4-1-0.5-1.7
	c-0.1-0.3-0.2-0.4-0.3-0.5c0-0.1,0-0.2-0.1-0.4C81.6,54.4,81.7,54.4,81.7,54.3z"/>
<path class="st23" d="M74.8,38.5c0,0.1-0.1,0.1-0.1,0.1c-0.1-0.1-0.1-0.2-0.2-0.4C74.6,38.3,74.7,38.4,74.8,38.5z"/>
<path class="st8" d="M55.8,50.9c0.4,0.1,0.7,0.3,1.1,0.6C56.6,51.4,56.3,51.2,55.8,50.9z"/>
<path class="st1" d="M63.6,56.3c0.1,0,0.3,0.1,0.4,0.3C63.9,56.5,63.7,56.4,63.6,56.3z"/>
<path class="st3" d="M65.3,94c0.6,0.4,1.1,0.9,1.7,1.4c-2.3-0.8-4.2,0.3-6.1,1.2c-0.7,0.4-1.2,1.2-1.8,2c-1.5,1.2-2.2,2.8-2.4,4.9
	c-0.4,1.4-0.3,2.9-0.1,4.6c-0.8,0.4-1.6,0.7-2.4,1.1c-0.1,0-0.1,0-0.2-0.1c-0.2-1.3-0.4-2.5-0.4-3.8c-0.2-3.7,0.8-6.8,3.1-8.8
	c2.3-2.1,5.1-2.7,8.1-2.2C65,94.4,65.1,94.1,65.3,94z"/>
<path class="st7" d="M63.7,115.1c-0.4,0-0.7,0-1.2,0c-0.7-0.2-1.3-0.4-2-0.7c-1.1-1.5-2.1-2.9-3.1-4.3c-0.1-0.1-0.3-0.2-0.5-0.3
	c0-0.2,0.1-0.3,0.1-0.5c0.3,0.2,0.6,0.4,0.9,0.6c2.3,2.2,4.7,2.7,7.2,0.9c0.2-0.1,0.3-0.1,0.4,0c0.3,1.2,0.5,2.3,0.8,3.4
	c0,0.1,0,0.2-0.1,0.2c-0.5,0.2-1,0.3-1.4,0.5c-0.1,0-0.2,0-0.4,0.1C64.1,115,63.9,115,63.7,115.1z"/>
<path class="st22" d="M57.1,109.1c0,0.2,0,0.3-0.1,0.6c0.1,1,0.2,1.9,0.3,2.8c-0.4,0.2-0.8,0.5-1.3,0.6c-0.7-1.4-1.2-2.7-1.8-4
	c0.8-0.3,1.5-0.6,2.4-0.9C56.8,108.5,56.9,108.8,57.1,109.1z"/>
<path class="st17" d="M56.8,103.5c0.1-2.1,0.9-3.7,2.3-4.8c0.8-0.4,1.5-0.8,2.2-1.2c0,0.3-0.1,0.9-0.3,1c-1.6,0.7-2.5,2.2-3.3,3.9
	C57.6,102.9,57.2,103.2,56.8,103.5z"/>
<path class="st23" d="M65.5,110.6c-0.1,0-0.2,0-0.3,0.1c-0.8-3-0.1-5.4,1.3-7.6c0.1-0.2,0.5-0.3,0.8-0.3c-1.2,2.2-1.8,4.7-1.7,7.6
	C65.5,110.4,65.5,110.6,65.5,110.6z"/>
<path class="st25" d="M60.6,107.5c-0.3,0.1-0.6,0.3-0.7,0.2c-0.8-1.1-0.1-4.3,1-4.6c0.1,0,0.3,0,0.5,0
	C61.1,104.6,60.8,106.1,60.6,107.5z"/>
<path class="st23" d="M97,51c-2.8,2.1-3.2,0.8-3.6-1.9c-0.2-1.7-0.5-3.4-0.7-5.2c-0.3-2.6,0.9-3.9,3.1-3.3c0.8,0.2,1.5,0.6,2.2,1
	c2.1,1.2,2.8,3.2,1.7,5.4C99.1,48.5,98,49.7,97,51z M94.1,46.4c0,0.3,0,0.6,0.1,0.9c0.2,0.4,0.5,0.8,0.8,1.2
	c0.2-0.3,0.6-0.6,0.7-0.9c0.1-1.3,0.1-2.6,0.1-4c0-0.2-0.4-0.7-0.6-0.7c-0.2,0-0.5,0.3-0.6,0.6C94.4,44.4,94.3,45.3,94.1,46.4z"/>
<path class="st9" d="M93.5,63.1c0.1-0.6,0.2-1.3,0.3-2c0.8-2.2,1.5-4.5,2.6-6.3c2.1-3.5,5-5.8,8.8-6.4c-0.2,0.3-0.4,0.7-0.7,0.9
	c-2.9,1.4-5.3,3.5-7.2,6.6c-1.2,1.9-1.8,4.2-2.5,6.4c-0.2,0.6,0.3,1.8-0.9,1.7c-0.2-0.1-0.4-0.1-0.5-0.2
	C93.4,63.5,93.5,63.3,93.5,63.1z"/>
<path class="st26" d="M92,45.1c0.6,2.3,1.1,4.4,1.7,6.6c-0.1,0-0.3,0.1-0.4,0.1c-0.7-1-0.8-2.3-1.2-3.5c-0.4-1.3-0.7-2.6-1-3.9
	c-0.3-1.2-0.4-2.4-0.6-3.6c0.1,0,0.2,0,0.3-0.1C91.1,42.2,91.5,43.6,92,45.1z"/>
<path class="st1" d="M81.7,54.2c0,0.2,0,0.2-0.1,0.3c-0.2-0.4-0.4-0.9-0.6-1.4C81.2,53.4,81.4,53.8,81.7,54.2z"/>
<path class="st1" d="M76.5,43.3c0.1,0.1,0.3,0.3,0.5,0.5C76.8,43.8,76.6,43.6,76.5,43.3z"/>
<path class="st1" d="M81.6,55.1c0.1,0.1,0.2,0.2,0.3,0.4C81.8,55.4,81.7,55.3,81.6,55.1z"/>
<path class="st29" d="M33.1,96.8c-0.2-0.6-0.4-1.2-0.6-2c-0.1-1.1-0.2-2-0.3-2.9c-0.2-2.3-0.1-4.5,0.6-6.6c0.9-2.6,2.4-4.4,4.3-5.9
	c2.9-2.2,6.1-3,9.5-3.2c0.1,0,0.3,0.2,0.4,0.4c-0.9,0.2-1.6,0.5-2.4,0.7c-2.8,0.5-5,2.1-6.9,4.6c-0.2,0.2-0.4,0.4-0.6,0.6
	c0.2,0.2,0.3,0.1,0.5,0.1c0.1,0,0.3,0,0.6,0c-2.4,2.5-3.2,5.5-2.1,9.2c0.7,2.6,3.2,5,5.4,2.7c0.9-0.9,1.5-2.2,2.3-3.2
	c3.3-4,7.2-6.4,11.8-7.6c1.1-0.3,2.2-0.6,3.6-1.1c-2-2.9-4.4-3.9-7.3-4.6c0.5-0.2,0.7-0.3,1.2-0.5c-0.5-0.1-0.7-0.2-1-0.2
	c-0.5-0.2-0.9-0.5-1.2-0.8c1.5,0.4,3,0.8,4.5,1.2c3,1,5.7,3.1,8.5,5.1c0.1,0.3,0.1,0.4,0.2,0.7c0.5,2.3,0.1,4.2-0.4,6.2
	c-1-0.4-2-0.9-3-1.3c-3.6-1.3-7-0.5-10.1,1.6c-1,0.7-1.7,1.9-2.6,2.9c-2.4,3.3-3.2,7.3-2.6,11.8c-3,0.4-5.7-0.8-8-3.6
	C36,99.9,34.5,98.4,33.1,96.8z M44.4,99.4c0.2-0.8,0.3-1.6,0.5-2.4c1-3.9,2.8-7.1,5.7-9c3.5-2.3,7.3-2.2,11.2-0.4
	c0.4,0.2,0.8,0.2,1.2,0.4c0.1-0.1,0.1-0.3,0.2-0.4c-0.3-0.4-0.6-0.9-1-1.1c-2-1.1-3.9-1.7-6.1-1.6c-2.5,0.1-4.6,0.9-6.7,2.4
	c-2.4,1.7-3.9,4.5-4.9,7.7c-0.4,1.4-0.4,3.1-0.6,4.8c0,1.1,0,2.3,0,3.4c0.1,0,0.2,0,0.3,0C44.3,101.9,44.3,100.7,44.4,99.4z"/>
<path class="st3" d="M45.3,105.1c-0.7-4.6,0.1-8.6,2.6-11.9c2.5-2.5,5.4-3.6,8.5-3.8c2.1-0.2,4.2,0.2,6.2,1.3
	c-0.1,0.4-0.1,0.7-0.2,0.9c0.5,0.5,0.9,1,1.3,1.4c-3.3-1.4-6.5-1.9-9.7-0.7c-4.1,1.6-7.2,7.4-6.2,12.8c-0.9,0.1-1.7,0.1-2.5,0.2
	C45.3,105.3,45.3,105.2,45.3,105.1z"/>
<path class="st22" d="M45.4,105.4c0.8-0.2,1.6-0.2,2.5-0.2c0.2,0.4,0.4,0.8,0.4,1.2c-0.1,0.2-0.2,0.3-0.2,0.4
	c0.6,1.8,1.3,3.4,2.5,4.7c0.7,0.7,1.4,1.4,2.1,2.1c-1.2-0.1-2.4-0.3-3.7-0.4c-0.2-0.2-0.3-0.4-0.5-0.5c-0.2-0.3-0.5-0.6-0.8-0.8
	c-0.7-1.5-1.3-2.9-1.9-4.4C45.7,106.9,45.6,106.2,45.4,105.4z"/>
<path class="st29" d="M98.7,60.7c1.6-1.2,3.1-2.2,4.7-3.3c0.5-0.3,1-0.5,1.5-0.6c-0.2,0.4-0.5,0.8-0.8,1.1c-1.1,0.9-1.6,2.4-1.3,4
	c0.2,1.5,1.2,1.6,2,2.1c-0.9,1.1-1.6,2.3-1.8,3.9c-1.3-0.7-2.6-1.4-3.8-2.1c-0.7-0.4-1.3-0.8-2-1.3C97.7,63.2,98.2,62,98.7,60.7z"/>
<path class="st10" d="M97.2,64.6c0.7,0.4,1.4,0.8,2,1.2c1.2,0.7,2.5,1.4,3.8,2.2c0.1,0.3,0.2,0.5,0.1,0.7c-0.3,0.5-0.4,0.9,0.2,1
	c-0.2,0.7-0.3,1.2-0.5,1.8c-2-0.7-3.4-2.3-5-3.9c-0.3-0.3-0.6-0.5-0.9-0.8c-0.1-0.4-0.1-0.6-0.1-1c0-0.2,0-0.3-0.1-0.5
	c0-0.1,0-0.2,0-0.2C97,64.9,97.1,64.8,97.2,64.6z"/>
<path class="st27" d="M96.9,65c0,0.1,0,0.2,0,0.3c-0.1,0.2-0.2,0.3-0.3,0.4c-0.1,0-0.1,0-0.1,0c-0.6,0.5-1.3,0.9-1.9,1.4
	c-0.2,0.2-0.5,0.3-0.8,0.4c-0.1,0-0.1-0.1-0.1-0.3c-0.1-1.2-0.1-2.3-0.2-3.3c0.1,0,0.2,0,0.4,0.1c0.1,0.6,0.1,1.1,0.2,1.9
	C94.5,64.4,95.9,64,96.9,65z"/>
<path class="st3" d="M103,71.6c0.1-0.6,0.3-1.2,0.5-2c0.1-0.5,0.1-0.8,0.3-1.1c0.2-0.1,0.3-0.1,0.5-0.1c0.5,0.4,0.9,0.7,1.5,1.2
	c1.6-2.4,3.7-3.4,6.6-2.4c-2.4-0.2-4.4,0.8-5.7,3.3c-0.2,0.3-0.4,0.7-0.6,1c-0.5,0.1-0.9,0.2-1.3,0.2c-0.5,0-1,0-1.5,0.1
	C103,71.8,103,71.7,103,71.6z"/>
<path class="st23" d="M111.5,71c0.4,0.1,0.7,0.2,1.1,0.3c0,0.1,0,0.3,0.1,0.4c-1.7,0.5-3.2,1.3-3.8,3.5c-1-0.9-0.9-1.9,0.4-3.4
	C110.4,72.4,111,72,111.5,71z"/>
<path class="st25" d="M111.5,71c-0.4,1.1-1.1,1.4-2.1,0.8c-0.1-0.2-0.1-0.3-0.1-0.5c0-0.1,0-0.3,0-0.3c0.4-0.2,0.8-0.4,1.3-0.5
	C110.8,70.5,111.1,70.8,111.5,71z"/>
<path class="st23" d="M109.2,71c0,0,0,0.1,0,0.2C109.2,71.2,109.2,71.1,109.2,71C109.1,71.1,109.2,71,109.2,71z"/>
<path class="st3" d="M88.4,67.9c0.1-0.8,0.1-1.5,0.2-2.3c0.6-0.4,1.3-0.6,2-0.9c0.6,2.3-0.7,2.8-2.1,3.4
	C88.4,68.1,88.4,68,88.4,67.9z"/>
<path class="st14" d="M93.4,63.8c0,1.1,0.1,2.2,0.1,3.3c-0.7,0.1-1.4,0.1-2.2,0c-0.1-0.8-0.2-1.6-0.3-2.5c0.1-0.2,0.2-0.3,0.3-0.4
	c0.2-0.3,0.4-0.6,0.6-0.9c0.4-0.5,0.8-0.7,1.4-0.2C93.5,63.3,93.4,63.5,93.4,63.8z"/>
<path class="st26" d="M104.2,68.3c-0.1,0.1-0.3,0.2-0.5,0.2c-0.2,0-0.3,0.1-0.4,0.1c0-0.2-0.1-0.4-0.1-0.7c0.1-1.7,0.8-2.9,1.8-4
	c0.2-0.1,0.3-0.1,0.5-0.1c1.3-0.4,2.6-0.8,3.8-1.3c0.2-0.1,0.3-0.5,0.5-0.8c0.2,0,0.4,0.1,0.6,0.2c0,0.4-0.1,0.8-0.1,1.2
	c-1,0.4-2,0.8-3.1,1.2c-0.3,0.2-0.4,0.4-0.6,0.6c-0.1,0.1-0.3,0.2-0.6,0.3c-0.2,0.2-0.4,0.4-0.5,0.6c-0.1,0.1-0.1,0.2-0.3,0.3
	c-0.2,0.2-0.3,0.4-0.3,0.6C104.6,67.3,104.4,67.8,104.2,68.3z"/>
<path class="st29" d="M105.5,65.9c0.1-0.2,0.2-0.4,0.4-0.6C105.8,65.5,105.7,65.7,105.5,65.9z"/>
<path class="st29" d="M106.6,64.9c0.1-0.2,0.2-0.4,0.4-0.6C106.9,64.5,106.8,64.7,106.6,64.9z"/>
<path class="st29" d="M104.8,66.8c0-0.2,0.1-0.3,0.2-0.5C105,66.4,105,66.6,104.8,66.8z"/>
<path class="st16" d="M65.6,110.7c0-0.1,0-0.2,0-0.3c0.1-0.1,0.1-0.1,0.2-0.2c0.5-1,1.1-1.3,2.1-0.6c0.1,0.1,0.1,0.2,0.2,0.4
	c0.1,0.6,0.2,1.1,0.3,1.8c0,0.2-0.1,0.4-0.2,0.6c-0.6,0.6-1.2,1.1-1.7,1.7C66.1,113,65.8,111.9,65.6,110.7z"/>
<path class="st23" d="M105.3,63.9c-0.1,0-0.2,0-0.3,0.1c-0.9-0.5-1.8-0.6-2.1-2.1c-0.3-1.6,0.2-3,1.3-4c0.3-0.3,0.6-0.7,0.9-1.1
	c0.9-0.3,1.7-0.6,2.6-0.8c0.6,0.3,1.2,0.5,1.7,1c0.6,0.7,1.3,1.5,1.7,2.5c0.5,1,0.1,1.8-0.7,2.5c-0.2,0-0.4-0.1-0.7-0.1
	c-1.2,0.3-2.3,0.5-3.3,0.9C105.9,62.9,105.6,63.5,105.3,63.9z M107.2,59c-0.3,0.2-0.7,0.4-1,0.7c-0.2,0.2-0.3,0.7-0.4,1
	c0.3,0.1,0.7,0.4,0.9,0.3c0.6-0.3,1.2-0.8,1.7-1.3c0.2-0.2,0.2-0.5,0.4-1.1C108.2,58.7,107.7,58.8,107.2,59z"/>
<path class="st10" d="M26.3,80.8c0.3-0.8,0.7-1.5,1-2.3c1.4-3.4,3.5-5.9,6.1-7.7c2.2-1.5,4.5-2.5,7-2.7c3.3-0.4,6.5,0.3,9.7,1.5
	c3.2,1.3,6.1,3.2,9,5.5c1.1,0.9,2.1,2.1,3.2,3.3c-0.2,0-0.4,0-0.6-0.1c-1.2-0.8-2.4-1.5-3.5-2.1c-2.6-1.5-5.3-2.3-8-2.7
	c-3.4-0.5-6.7-0.3-9.9,0.9c-2.9,1.1-5.5,2.7-7.5,5.3c-1.7,2.2-2.8,4.9-3.2,8c-1,0.3-1.5-0.6-1.9-1.4c-0.5-1-0.8-2.2-1.2-3.4
	c-0.1-0.4-0.1-0.8-0.2-1.2C26.2,81.2,26.2,81,26.3,80.8z"/>
<path class="st3" d="M29.6,87.6c0.3-3.2,1.4-5.8,3.1-8c2.1-2.6,4.7-4.3,7.5-5.3c3.2-1.2,6.5-1.4,9.9-0.9c2.7,0.4,5.4,1.2,8,2.7
	c1.2,0.7,2.3,1.4,3.5,2.2c0.1,0.5,0.2,0.9,0.2,1.2c-2.4-1.4-4.8-3.1-7.2-4.1c-3.1-1.3-6.2-2-9.4-1.2c-1.4,0.3-2.7,0.6-4.1,1
	c-2.2,0.6-4.1,1.8-5.7,3.6c-2.2,2.5-4,5.4-4.6,9.2c-0.1,0.9-0.4,1.7-0.6,2.5c0-0.5,0.1-0.9,0-1.3c-0.1-0.3-0.4-0.6-0.6-0.8
	C29.6,88.1,29.6,87.9,29.6,87.6z"/>
<path class="st22" d="M29.6,88.4c0.2,0.2,0.5,0.5,0.6,0.8c0.1,0.4,0,0.8,0,1.4c0.1,0.6,0.2,1.1,0.3,1.5c-0.1,0.7-0.2,1.4-0.2,2.1
	c0,0.3-0.1,0.7-0.1,1C29.6,93,29.2,90.8,29.6,88.4z"/>
<path class="st19" d="M66.4,114.1c0.5-0.6,1.1-1.1,1.7-1.6c0.4,0.3,0.7,0.6,1.1,1c0.3,2.1-1,1.8-2,2c-0.1,0-0.1,0-0.1-0.1
	c-0.2-0.4-0.4-0.8-0.6-1.1C66.4,114.3,66.4,114.2,66.4,114.1z"/>
<path class="st30" d="M30.6,92.1c-0.1-0.5-0.2-0.9-0.3-1.4c0.2-1,0.4-1.8,0.6-2.7c0.6-3.8,2.4-6.7,4.6-9.2c1.6-1.8,3.5-3,5.7-3.6
	c1.4-0.4,2.7-0.7,4.1-1c3.2-0.7,6.3-0.1,9.4,1.2c2.4,1,4.8,2.7,7.3,4.1c0.4,0.4,0.7,0.8,1,1.2c0.3,0.8,0.5,1.5,0.8,2.1
	c-2.7-1.9-5.4-4-8.5-5c-1.5-0.5-2.9-0.8-4.6-1.2c-0.5,0-0.8,0.1-1.2,0c-0.2-0.1-0.3-0.2-0.6-0.2c-0.3,0-0.5,0.1-0.7,0
	c-0.1,0-0.3,0-0.4,0.1c-0.3,0-0.5,0.1-0.7,0.1c-0.2-0.1-0.3-0.4-0.5-0.4c-3.4,0.2-6.7,1-9.5,3.2c-1.9,1.5-3.4,3.3-4.3,5.9
	C32,87.5,32,89.7,32.1,92c0.1,0.9,0.2,1.8,0.3,2.8c-0.4-0.4-0.9-0.8-1.2-1.4C30.9,93.1,30.8,92.6,30.6,92.1z"/>
<path class="st10" d="M63.5,89.9c0.4-2,0.9-3.9,0.4-6.2c0.7,0.3,1.3,0.7,1.9,1.1c0.1,0.3,0.1,0.5,0.2,0.9c0.1,2.1,0.2,4-0.9,5.7
	c-0.6-0.3-1.1-0.6-1.6-1C63.6,90.1,63.6,90,63.5,89.9z"/>
<path class="st27" d="M62.9,80.7c-0.3-0.4-0.6-0.7-1-1.1c-0.2-0.4-0.3-0.8-0.3-1.2c0.2,0,0.4,0.1,0.6,0.1c0.1,0,0.1,0,0.1,0
	c0.1,0.1,0.2,0.1,0.2,0.2c0.3,0.3,0.5,0.7,1.1,0.2c0.9-0.8,2-0.4,2.8,0.7c0.4,0.6,0.9,1.2,1.3,1.9c-0.9,0-1.9,0-2.9,0
	C64.2,81.3,63.6,81,62.9,80.7z"/>
<path class="st3" d="M63,80.8c0.6,0.2,1.2,0.5,1.9,0.9c0.4,1,0.7,2,1,3.1c-0.6-0.3-1.2-0.7-1.9-1.1c-0.1-0.2-0.1-0.4-0.2-0.6
	C63.5,82.2,63.2,81.5,63,80.8z"/>
<path class="st27" d="M68.3,81.3c0.1,0,0.2,0,0.2,0.1c-0.1,0.1-0.2,0.2-0.3,0.2C68.3,81.5,68.3,81.4,68.3,81.3z"/>
<path class="st31" d="M52.8,113.6c-0.8-0.7-1.5-1.4-2.2-2.1c-1.2-1.2-2-2.9-2.5-4.7c0-0.1,0.1-0.3,0.3-0.4c1.7,1.9,3.5,3,5.7,2.8
	c0,0,0.1,0,0.2,0c0.6,1.3,1.2,2.6,1.8,4c-0.1,0.2-0.1,0.3-0.4,0.4c-0.5,0.1-0.8,0.2-1.2,0.2C53.9,113.8,53.4,113.7,52.8,113.6z"/>
<path class="st16" d="M57.4,112.5c-0.2-0.9-0.3-1.8-0.4-2.7c0.2,0,0.4,0,0.5,0.2c1,1.4,2,2.8,3,4.2c-0.6-0.2-1.3-0.5-1.9-0.9
	C58.2,113.1,57.8,112.8,57.4,112.5z"/>
<path class="st22" d="M54.5,113.9c0.3-0.1,0.7-0.2,1.1-0.3C55.5,114.8,55.1,114.6,54.5,113.9z"/>
<path class="st16" d="M72,74c0.3,0.2,0.5,0.4,0.9,0.7c0,0.4,0,0.7-0.1,1.1C72.5,75.2,72.3,74.7,72,74z"/>
<path class="st19" d="M96.4,65.8c0-0.1,0.1-0.1,0.2-0.1c0.2,0.1,0.3,0.1,0.4,0.1c0,0.3,0,0.5,0,0.9c0.2,1.4,0.5,2.8,0.7,4.3
	c-0.6,0.2-1.3,0.3-2.1,0.5c0-1.2,0.1-2.4,0.3-3.6C96,67.2,96.3,66.6,96.4,65.8z"/>
<path class="st27" d="M63.6,90.4c0.5,0.3,1,0.7,1.5,1c0.1,0.1,0.2,0.2,0.3,0.4c-0.3,0.5-0.6,1-1,1.5c-0.3-0.1-0.5-0.2-0.7-0.3
	c-0.4-0.5-0.9-0.9-1.4-1.4c0-0.2,0.1-0.5,0.2-0.9C63.1,90.5,63.4,90.4,63.6,90.4z"/>
<path class="st10" d="M63.8,93c0.3,0.1,0.4,0.2,0.7,0.4c0.3,0.2,0.5,0.4,0.7,0.6c-0.1,0.2-0.3,0.4-0.5,0.4c-3-0.5-5.8,0.1-8.1,2.2
	c-2.3,2-3.3,5.1-3.1,8.8c0.1,1.2,0.3,2.4,0.4,3.8c-2.1,0.3-3.9-0.8-5.6-2.8c-0.2-0.4-0.3-0.7-0.5-1.1c-1-5.5,2.1-11.3,6.1-12.9
	C57.3,91,60.5,91.5,63.8,93z"/>
<path class="st16" d="M66.3,114.3c0.3,0.3,0.5,0.7,0.7,1.1c-0.7,0.2-1.5,0.5-2.1-0.5C65.3,114.7,65.8,114.5,66.3,114.3z"/>
<path class="st16" d="M63.7,115.1c0.2-0.1,0.4-0.2,0.7-0.2C64.4,115.6,64.1,115.7,63.7,115.1z"/>
<path class="st32" d="M49.5,43.4c0.1-0.3,0.2-0.6,0.4-0.6c2.6,0.2,5.1,0.7,7.3,3c0.4,0.4,0.6,0.9,1,1.4c-0.1,0.1-0.1,0.3-0.2,0.4
	c-0.5-0.1-1.1-0.1-1.5-0.4C54.4,45.4,52,44.3,49.5,43.4z"/>
<path class="st25" d="M71.5,51.3c-0.2-0.6-0.3-1.1-0.5-1.7c1.3,0.3,3.8,4.8,3.8,6.8C73.2,55.2,72.5,53.2,71.5,51.3z"/>
<path class="st32" d="M42.2,59.7c-1.6,0.1-3.1,0.3-4.6,0.4c0-0.1-0.1-0.3-0.1-0.4c0.3-0.2,0.5-0.5,0.8-0.7c1.7-1.1,3.6-1.5,5.6-1.2
	c1.6,0.2,3.3,0.2,4.8,1.4c0.3,0.2,0.5,0.7,0.8,1c-0.4,0.1-0.7,0.4-1.1,0.3c-1.7-0.3-3.4-0.6-5.1-0.9C42.9,59.6,42.6,59.6,42.2,59.7z
	"/>
<path class="st25" d="M36,60.9c0.1,0.4,0.2,1,0.2,1C35.6,62,35,62.1,34.5,62c-0.1,0-0.3-0.6-0.2-0.7c0.3-0.3,0.6-0.5,0.9-0.7
	C35.4,60.6,35.7,60.8,36,60.9z"/>
<path class="st10" d="M62.6,78.6c0,0-0.1,0-0.2-0.1C62.4,78.5,62.5,78.5,62.6,78.6z"/>
<path class="st23" d="M31.6,68.2c0,0.1-0.1,0.2-0.3,0.3C31.4,68.4,31.5,68.3,31.6,68.2z"/>
<path class="st32" d="M79.9,41.9c0.4,0.6,0.7,1.1,1,1.6c0.2,0.4,0.1,0.9,0.1,1.4c-0.4-0.1-0.9-0.2-1.1-0.5c-0.8-1.3-1.6-2.6-2.3-4
	c-0.3-0.6-0.6-1.3-0.7-2.1C78.3,39,78.9,40.6,79.9,41.9z"/>
<path class="st25" d="M82.7,51.6c-0.4-1.2-0.8-2.4-1.1-3.5c-0.1-0.2,0.1-0.5,0.2-0.7c0.2,0.1,0.6,0.2,0.7,0.4
	c0.5,1.1,0.9,2.3,1.3,3.5c0.1,0.3-0.1,0.7-0.2,1.1C83.3,52.1,83.1,51.9,82.7,51.6z"/>
<path class="st32" d="M94.1,46.3c0.2-1,0.3-2,0.5-2.9c0.1-0.3,0.4-0.6,0.6-0.6c0.2,0,0.6,0.5,0.6,0.7c0,1.3,0,2.7-0.1,4
	c0,0.3-0.4,0.6-0.7,0.9c-0.3-0.4-0.6-0.8-0.8-1.2C94.1,47.1,94.1,46.7,94.1,46.3z"/>
<path class="st28" d="M52.1,77.4c0.2,0.1,0.4,0.1,0.9,0.2c-0.4,0.2-0.7,0.3-1.2,0.5c2.9,0.7,5.4,1.7,7.3,4.6
	c-1.4,0.4-2.5,0.8-3.6,1.1c-4.6,1.1-8.6,3.5-11.8,7.6c-0.8,1-1.5,2.3-2.3,3.2c-2.2,2.3-4.6-0.1-5.4-2.7c-1.1-3.8-0.3-6.8,2.1-9.2
	c-0.3,0-0.5,0-0.6,0c-0.1,0-0.2,0.1-0.5-0.1c0.2-0.2,0.4-0.4,0.6-0.5c1.1-0.3,2.1-0.8,3-1.1c2.6-0.8,5.2-1.6,7.8-2.4
	C49.8,78.2,50.9,77.8,52.1,77.4z M49,84.6c0.8-0.1,1.5-0.2,2.3-0.2c0-0.2,0-0.3,0-0.5c-0.6-0.7-1.4-0.6-2.2-0.6
	c-0.1-0.1-0.2-0.1-0.3-0.2c0,0.1,0,0.3-0.2,0.5c0,0.1,0,0.3-0.2,0.5c-0.3,0-0.6,0.1-1,0.2c-0.1,0-0.2,0-0.3-0.1
	c-0.1,0.1-0.2,0.1-0.5,0.2c-0.2,0-0.4,0.1-0.7,0c-0.2,0.2-0.3,0.3-0.6,0.5c-3,3.1-3.3,3.7-2.9,4.7c1.5-1.1,2.9-2.1,4.5-3.1
	c0.7,0.2,0.9-0.3,1-1.2c0.1-0.2,0.2-0.5,0.4-0.7C48.4,84.5,48.6,84.5,49,84.6z"/>
<path class="st26" d="M44.1,99.6c0.2-1.6,0.1-3.2,0.5-4.6c0.9-3.2,2.4-6,4.9-7.7c2-1.4,4.2-2.3,6.7-2.4c2.2-0.1,4.1,0.6,6.1,1.6
	c0.4,0.2,0.7,0.7,1,1.1c-0.1,0.1-0.1,0.3-0.2,0.4c-0.4-0.1-0.8-0.2-1.2-0.4c-3.9-1.7-7.7-1.9-11.2,0.4c-2.9,1.9-4.7,5.1-5.7,9
	c-0.2,0.8-0.3,1.6-0.6,2.4C44.2,99.5,44.2,99.6,44.1,99.6z"/>
<path class="st33" d="M52,77.4c-1.1,0.4-2.3,0.8-3.4,1.1c-2.6,0.8-5.2,1.6-7.8,2.4c-1,0.3-1.9,0.8-3,1.1c1.8-2.6,4-4.2,6.8-4.7
	c0.8-0.1,1.5-0.4,2.4-0.7c0.3-0.1,0.5-0.1,0.8-0.1c0.2,0,0.3-0.1,0.4-0.1c0.2,0,0.4-0.1,0.7,0c0.3,0.1,0.4,0.2,0.6,0.2
	c0.3,0,0.7-0.1,1.1-0.1C51.1,76.9,51.5,77.2,52,77.4z"/>
<path class="st9" d="M63.6,90.3c-0.3,0.1-0.5,0.2-0.9,0.3c-2.1-1-4.2-1.4-6.3-1.2c-3.1,0.3-6,1.4-8.5,3.8c0.8-1,1.5-2.2,2.4-2.9
	c3.1-2.1,6.4-2.9,10.1-1.6c1,0.3,2,0.9,3,1.3C63.6,90,63.6,90.1,63.6,90.3z"/>
<path class="st23" d="M44.1,99.6c0.1-0.1,0.1-0.1,0.2-0.1c0.1,1.2,0.1,2.4,0.1,3.6c-0.1,0-0.2,0-0.3,0C44,102,44,100.8,44.1,99.6z"
	/>
<path class="st29" d="M103.2,68.7c0.1-0.1,0.2-0.1,0.4-0.1c0,0.3,0,0.6-0.1,1C102.8,69.5,102.9,69.2,103.2,68.7z"/>
<path class="st13" d="M97,65.8c-0.1,0.1-0.2,0-0.4-0.1c0-0.2,0.1-0.2,0.2-0.4C97,65.4,97,65.6,97,65.8z"/>
<path class="st33" d="M105.4,63.8c0.2-0.4,0.5-1,0.9-1.1c1-0.4,2.1-0.6,3.3-0.9c-0.1,0.3-0.2,0.7-0.4,0.8
	C108,63,106.7,63.4,105.4,63.8z"/>
<path class="st25" d="M107.3,59c0.5-0.1,0.9-0.2,1.6-0.3c-0.2,0.5-0.3,0.9-0.4,1.1c-0.5,0.5-1.1,0.9-1.7,1.3
	c-0.2,0.1-0.6-0.2-0.9-0.3c0.1-0.3,0.2-0.8,0.4-1C106.5,59.4,106.9,59.2,107.3,59z"/>
<path class="st29" d="M49.5,76.7c-0.1,0-0.3,0-0.5-0.2C49.2,76.5,49.3,76.5,49.5,76.7z"/>
<path class="st29" d="M48.2,76.5c-0.1,0.1-0.2,0.2-0.3,0.1C48,76.5,48.1,76.5,48.2,76.5z"/>
<path class="st32" d="M48.1,84.6c-0.1,0.2-0.2,0.5-0.3,0.8c-0.4,0.4-0.7,0.7-1,1c-1.5,1.1-2.9,2.1-4.4,3.2c-0.4-1.1,0-1.6,3.1-4.8
	c0.3-0.2,0.4-0.3,0.6-0.4c0.2,0,0.4-0.1,0.8-0.1c0.2,0,0.3-0.1,0.4-0.1c0.1,0,0.2,0,0.4,0C47.8,84.4,47.9,84.5,48.1,84.6z"/>
<path class="st25" d="M49.1,83.4c0.7-0.1,1.5-0.2,2.1,0.5c0,0.2,0,0.3,0,0.5c-0.8,0.1-1.5,0.2-2.4,0.1c-0.2-0.2-0.2-0.4-0.3-0.5
	c0-0.1,0-0.3,0.2-0.5C48.9,83.4,49,83.4,49.1,83.4z"/>
<path class="st33" d="M46.8,86.4c0.3-0.4,0.6-0.7,0.9-1C47.8,86.2,47.6,86.7,46.8,86.4z"/>
<path class="st33" d="M48.5,84c0.1,0.1,0.2,0.2,0.3,0.4c-0.2,0.1-0.4,0.1-0.7,0.2c-0.2-0.1-0.4-0.2-0.5-0.4
	C47.8,84.1,48.1,84.1,48.5,84z"/>
<path class="st33" d="M45.9,84.4c-0.1,0.2-0.2,0.3-0.4,0.4C45.6,84.6,45.7,84.5,45.9,84.4z"/>
<path class="st33" d="M47.1,84.1c-0.1,0.1-0.2,0.1-0.3,0.1C46.9,84.2,47,84.1,47.1,84.1z"/>
<path class="st33" d="M49,83.3c-0.1,0.1-0.2,0.1-0.3,0.1c0-0.1,0-0.3,0-0.4C48.8,83.1,48.9,83.2,49,83.3z"/>
<path class="st0" d="M22.6,63.8c0.6-1.9,1.1-3.9,1.9-5.6c1.3-3,2.9-5.7,4.8-8c1-1.2,2.3-2,3.3-3.1c0.6-0.6,1.2-1.3,1.6-2.2
	c1.3-3.3,3.4-5.8,5.5-8.2c2.8-3.1,6.2-5.1,9.8-6.9c4-2,8.3-2.5,12.6-3.2c1.9-0.3,3.8,0,5.7,0.9c0.7,0.3,1.5,0.4,2.2,0.3
	c3-0.6,6-0.8,9-0.4c3.4,0.5,6.6,2.1,9.3,5.2c0.3,0.4,0.9,0.6,1.4,0.5c2.4-0.5,4.9-0.9,7.3-0.2c1.7,0.5,3.3,1.4,4.9,2.2
	c2.3,1.2,4.7,2.6,6.5,4.9c1.4,1.7,2.4,3.9,3.2,6.1c0.8,2,1.8,3.5,3,5.1c0.8,1.1,1.6,2.4,2.1,3.7c1.4,4.1,2.7,8.2,3.8,12.4
	c0.7,3,0.6,6-0.6,8.7c-1.3,3-3.4,4.7-6.1,5.3c-2.4,0.5-4.7,0.1-7.1-0.7c-2.7-0.9-5-2.9-7.5-4.5c-0.7-0.5-1.7-0.5-2.6-0.5
	c-1.4,0-2.8-0.1-4.2,0.2c-3.8,0.7-7.6,1.7-10.8,4.5c-0.8,0.7-1.6,1.5-2.4,2.4c-1.5,1.9-3.3,3.5-5.2,4.8c-1.3,0.8-1,2.3-1.2,3.6
	c-0.5,2.6,0.4,4.4,2.1,6c1.4,1.3,2.7,2.7,3.9,4.3c1.3,1.7,1.6,4,1.9,6.2c0.5,3.2-0.2,6-2,8.1c-0.7,0.8-1.6,1.2-2.4,1.7
	c-2.4,1.6-5.1,2.1-7.9,2.3c-2,0.2-4,0-6-0.1c-3.4-0.2-6.7-0.4-10.1-0.6c-3.3-0.2-6.6-0.4-9.7-2.2c-1.9-1.1-3.7-2.9-5.4-4.6
	c-1.6-1.6-3.1-3.5-4.5-5.5c-1.1-1.6-1.9-3.5-3-5.2c-0.8-1.3-1.7-2.6-2.7-3.8c-2.4-3.2-4.4-6.6-5.5-10.9c-0.9-3.6-1-7.1-0.8-10.7
	c0.1-3.2,0.7-6.4,1.1-9.5C22.1,65.6,22.4,64.8,22.6,63.8z M47,32.2c-1.4,1-2.9,1.9-4.2,3c-3.6,3.1-6.5,6.9-8.5,11.8
	c-0.2,0.4-0.6,0.7-0.9,1c-1.3,1.2-2.7,2.2-3.8,3.5c-3.3,4-5.6,8.9-6.7,14.5c-0.5,2.7-0.8,5.5-1.1,8.3c-0.3,3.6-0.2,7.2,0.5,10.8
	c0.1,0.7,0.4,1.4,0.5,2.1c0.6,2.6,1.7,4.9,3.2,7c1.6,2.4,3.3,4.8,4.9,7.2c0.4,0.5,0.6,1.2,0.9,1.8c1.7,3,3.7,5.8,6,8.2
	c2.1,2.1,4.2,4.2,6.8,5c2.7,0.8,5.5,1.2,8.3,1.6c3,0.3,6.1,0.3,9.1,0.5c2.1,0.1,4.3,0.6,6.4,0.4c3.1-0.3,6-1.3,8.7-2.9
	c0.7-0.4,1.5-1.1,2-1.9c2-3.2,1.5-6.8,0.2-10.5c-0.9-2.7-2.7-4.5-4.8-5.9c-1.7-1.2-2.7-3.6-2.4-5.9c0.1-0.8,0.3-1.6,0.3-2.5
	c-0.1-1.5,0.7-2.1,1.5-2.8c1.6-1.3,3.3-2.6,4.5-4.3c1.5-2.2,3.6-3.3,5.5-4.6c0.6-0.4,1.1-0.8,1.8-1.1c1.2-0.5,2.4-0.8,3.7-1.1
	c0.8-0.2,1.6-0.6,2.4-0.7c1.7-0.1,3.4-0.1,5.2-0.1c0.7,0,1.5,0.1,2.1,0.4c1.3,0.7,2.4,1.7,3.7,2.5c4.3,2.9,8.7,4.4,13.2,1.9
	c1-0.6,2-1.5,2.7-2.6c2-3.2,1.7-7.1,0.7-10.9c-0.7-2.9-1.6-5.7-2.6-8.6c-0.7-2.2-1.6-4.3-3-6c-1.2-1.4-2.1-2.9-2.7-4.9
	c-0.8-2.7-2.1-5.2-4.2-7c-2.5-2.1-5.1-3.8-7.8-4.9c-1.9-0.7-3.9-1-5.8-1.1c-1.2-0.1-2.3,0.4-3.4,0.7c-0.8,0.2-1.4-0.1-2-0.9
	c-1.6-2-3.4-3.3-5.6-4.2c-2.4-1-4.8-0.8-7.2-1.1c-0.9-0.1-1.8,0.2-2.7,0.2c-1.6,0.1-3,1.1-4.9,0.1c-2.1-1.2-4.5-1.1-6.6-0.5
	c-2.4,0.6-4.9,0.3-7.1,1.5C51.4,30.4,49.3,31.2,47,32.2z"/>
<path class="st0" d="M47.1,32.2c2.2-0.9,4.3-1.7,6.4-2.7c2.3-1.1,4.8-0.8,7.1-1.5c2.2-0.6,4.5-0.7,6.6,0.5c1.8,1,3.3,0.1,4.9-0.1
	c0.9-0.1,1.8-0.4,2.7-0.2c2.4,0.4,4.8,0.1,7.2,1.1c2.1,0.9,4,2.2,5.6,4.2c0.6,0.8,1.2,1.1,2,0.9c1.1-0.3,2.3-0.8,3.4-0.7
	c1.9,0.1,3.9,0.4,5.8,1.1c2.8,1.1,5.4,2.8,7.8,4.9c2.1,1.8,3.4,4.3,4.2,7c0.6,2,1.5,3.5,2.7,4.9c1.4,1.7,2.3,3.8,3,6
	c0.9,2.8,1.8,5.7,2.6,8.6c1,3.8,1.3,7.7-0.7,10.9c-0.7,1.1-1.7,2-2.7,2.6c-4.4,2.5-8.8,1-13.2-1.9c-1.2-0.8-2.4-1.8-3.7-2.5
	c-0.6-0.4-1.4-0.4-2.1-0.4c-1.7,0-3.5,0-5.2,0.1c-0.8,0.1-1.6,0.4-2.4,0.7c-1.2,0.4-2.5,0.7-3.7,1.1c-0.6,0.2-1.2,0.7-1.8,1.1
	c-1.9,1.4-4,2.4-5.5,4.6c-1.2,1.8-3,3-4.5,4.3c-0.8,0.7-1.6,1.3-1.5,2.8c0,0.8-0.1,1.7-0.3,2.5c-0.3,2.3,0.6,4.6,2.4,5.9
	c2,1.4,3.8,3.2,4.8,5.9c1.3,3.7,1.7,7.3-0.2,10.5c-0.5,0.8-1.2,1.5-2,1.9c-2.7,1.6-5.7,2.6-8.7,2.9c-2.1,0.2-4.2-0.3-6.4-0.4
	c-3-0.2-6.1-0.2-9.1-0.5c-2.8-0.3-5.6-0.7-8.3-1.6c-2.6-0.8-4.7-2.9-6.8-5c-2.3-2.4-4.3-5.2-6-8.2c-0.3-0.6-0.5-1.2-0.9-1.8
	c-1.6-2.4-3.2-4.8-4.9-7.2c-1.4-2.1-2.6-4.3-3.2-7c-0.1-0.7-0.4-1.4-0.5-2.1c-0.7-3.6-0.8-7.2-0.5-10.8c0.3-2.8,0.5-5.6,1.1-8.3
	c1.1-5.7,3.4-10.6,6.7-14.5c1.1-1.3,2.5-2.3,3.8-3.5c0.3-0.3,0.7-0.6,0.9-1c2-4.9,4.9-8.8,8.5-11.8C44.1,34.1,45.6,33.2,47.1,32.2z
	 M40.5,109c0.1,0,0.2,0.1,0.3,0.3c0.1,0.1,0.2,0.1,0.4,0.3c2.8,2.9,6,4,9.6,4.2c4.2,0.3,8.4,0.5,12.7,0.9c1.5,0.1,3.1,0.2,4.8,0.3
	c2-0.6,4-1.1,5.8-1.9c0.9-0.4,1.5-1.4,2.3-2.1c0,0,0,0,0.1-0.1c0.2-0.7,0.4-1.4,0.6-2.2c0-0.1,0-0.3,0-0.6c-0.1-0.5-0.2-0.9-0.2-1.5
	c0,0-0.1-0.1-0.1-0.3c-0.1-0.2-0.1-0.3-0.2-0.7c-0.5-0.7-1-1.3-1.5-2.1c-0.7-0.7-1.4-1.3-2.1-2.1c-0.7-0.8-1.5-1.6-2.3-2.5
	c-0.5-0.6-1-1.2-1.4-2c-0.4-0.8-0.8-1.5-1-2.3c0-0.1,0-0.1,0.1-0.3c0-0.1,0-0.2,0-0.4c0-0.3,0.1-0.6,0.2-1c0.2-2.1,0.4-4.2,0.6-6.4
	c0-1.2,0.3-2.1,1.3-2.4c0.4-0.1,0.7-0.5,1.2-0.8c1.2-1.1,2.4-2.3,3.7-3.5c0.7-1,1.4-1.9,2.2-2.9c2-1.3,4.1-2.5,6.3-3.8
	c0.1,0,0.2-0.1,0.4-0.1c0,0,0.1-0.1,0.2-0.1c0.2-0.1,0.3-0.1,0.5-0.1c0.1,0,0.1,0,0.2-0.1c0,0,0.1-0.1,0.3,0c1.2-0.5,2.3-1,3.6-1.5
	c0.6-0.1,1.2-0.2,1.9-0.3c0.1,0,0.2,0,0.4,0c0,0,0.1,0,0.2,0c1.3,0,2.5,0,4,0.1c0.3-0.1,0.6-0.1,1-0.1c0.8-0.1,1.6-0.2,2.6-0.3
	c1.5,1,3,2,4.6,3.1c0.7,0.4,1.5,0.9,2.3,1.5c1.7,0.5,3.4,1.1,5.3,1.6c1.2-0.1,2.3-0.1,3.3-1.3c0.1-0.1,0.1-0.2,0.3-0.4
	c0.2-0.3,0.4-0.6,0.7-0.9c1.2-2.4,1.8-5,0.3-8c-0.3-0.7-0.7-1.5-1-2.4c-0.4-3.6-1.4-6.8-3.7-9.6c-0.8-1.2-2-1.9-2.3-3.6
	c-0.4-1.1-0.8-2.2-1.2-3.4c-0.7-1.9-1.7-3.6-3.2-4.6c-2.2-1.5-4.5-3-6.8-4.2c-2.9-1.4-5.8-1.6-8.7,0c-0.4,0.1-0.8,0.2-1.3,0.1
	c-0.3-0.1-0.5-0.2-0.8-0.5c-0.6-0.8-1.2-1.5-1.9-2.4c-1.4-1.4-3-2.4-4.7-2.9c-4-1.2-7.9-1-11.8,0.3c-0.1,0-0.2,0.1-0.4,0.1
	c-0.2-0.1-0.3-0.1-0.6-0.3c-0.5-0.2-1-0.4-1.6-0.8c-0.6-0.2-1.3-0.5-1.9-0.5c-5.9-0.1-11.4,1.7-16.4,5.1c-2.9,2-5.5,4.4-7.6,7.8
	c-1,2-1.9,3.9-3,5.9c0,0-0.1,0.1-0.2,0.1c-0.2,0.1-0.3,0.3-0.6,0.5c-1.5,1.5-3,3-4.7,4.5c-4.2,5.8-6.1,12.8-6.6,20.9
	c0,0.6,0,1.2,0,1.9c0,2.6-0.2,5.2,0.8,8c0.3,0.7,0.6,1.4,0.9,2.3c0.1,0.1,0.1,0.1,0.2,0.3c0,0,0.1,0,0.1,0.2
	c0.1,0.1,0.2,0.2,0.3,0.5c0,0,0.1,0.1,0.1,0.3c1.3,1.8,2.6,3.6,4,5.4c0,0,0,0,0,0.1c0.1,0.1,0.2,0.2,0.3,0.3c0,0,0,0,0,0.1
	c0.1,0,0.1,0.1,0.2,0.1c0,0,0,0,0,0.2c0.1,0.1,0.2,0.2,0.3,0.3c0,0,0,0,0,0.1c0.1,0.1,0.1,0.1,0.2,0.3c0.2,0.3,0.3,0.7,0.5,1.2
	c0.1,0.3,0.3,0.5,0.5,0.9c1.5,2.3,3,4.6,4.5,7.1c0.8,0.9,1.7,1.8,2.5,2.8c0.1,0,0.1,0.1,0.2,0.1C40.5,108.8,40.4,108.8,40.5,109z"/>
<path class="st1" d="M40,44.3c2-3.3,4.6-5.8,7.5-7.8c5-3.4,10.5-5.2,16.4-5.1c0.6,0,1.3,0.3,1.9,0.7c0.2,0.3,0.3,0.5,0.4,0.7
	c0.5,0.6,1,1.3,1.4,1.9c-0.9-0.6-1.8-1.3-2.7-1.9c-0.1,0.1-0.1,0.3-0.2,0.4c1.3,1.5,2.6,3,4,4.4c3.8,4.2,7.1,8.9,9.7,14.2
	c0.1,0.3,0.4,0.4,0.7,0.6c0.2,0.1,0.3,0.2,0.3,0.3c1.6,4.2,2.8,8.6,3.6,13.1c0,0.3,0,0.5-0.1,0.7c-1,0.7-1.9,1.4-2.8,2
	c-1.2,0.8-2.6,0.8-4,0.5c-0.5-0.1-1.1-0.2-1.6-0.3c-0.5-0.5-1-0.9-1.4-1.3c-1.5-2.4-3-4.7-4.5-7c-0.9-1.3-1.9-2.5-2.8-3.8
	c0.3,0.2,0.7,0.3,0.9,0.6c1.5,1.9,3.1,3.8,4.6,5.8c0.8,1,1.4,2.2,2.1,3.4c-0.8-2.9-2.3-5.4-3.9-7.8c-1.9-2.7-4.1-5-6.5-6.9
	c-0.9-0.7-1.8-1.4-2.8-2.2c0-0.2,0.1-0.3,0.2-0.5c0.4,0.1,0.7,0.2,1.1,0.3c0.2,0,0.4,0,0.5,0.1c0.9,0.7,1.8,1.3,2.7,1.8
	c2.6,1.5,4.9,3.5,6.8,6.2c0.8,1.1,1.4,2.3,2.1,3.5c1,1.7,2.8,1.7,3.3-0.2c0.3-1.2,0.4-2.6,0.2-3.9c-0.3-2.1-0.8-4.3-1.5-6.2
	c-0.8-2-2-3.7-3-5.7c-1.4-2-2.8-3.9-4.2-5.7c-0.8-0.9-1.8-1.6-2.7-2.5c-1.1-0.4-2.2-1-3.2-1.1c-2.8-0.1-5.6-0.3-8.2,0.9
	c-1.6,0.8-3.1,1.8-4.4,3c-1.2,1.1-0.9,2.8,0.5,3.9c0.9,0.7,1.8,1.4,2.8,2.2c0,0.1,0,0.2,0,0.2c-0.2,0-0.4,0.1-0.6,0
	c-2-0.4-4.1-0.8-6.1-1.1c-0.6-0.1-1.2,0.1-1.9,0.2c-1.3,0-2.5,0-3.7-0.1C40.4,44.9,40.2,44.5,40,44.3z"/>
<path class="st2" d="M24.8,76.2c0.4-8,2.3-15,6.6-20.8c0.6-0.2,1.1-0.4,1.6-0.5c2.3-0.8,4.6-1.7,6.9-2.2c2.1-0.5,4.3-0.5,6.5-0.7
	c2.2,0.4,4.3,0.8,6.5,1.3c1.2,0.7,2.4,1.3,3.6,2c3.1,1.8,6,4,8.6,6.8c1.3,1.4,2.6,2.7,4,4.2c0.1,0.2,0.2,0.3,0.3,0.5
	c0.2,0.3,0.3,0.4,0.5,0.7c0.6,1,1.2,2,1.8,3.1c0.1,0.4,0.1,0.6,0.1,0.9c-0.1,0.2-0.3,0.4-0.3,0.5c-0.7,2.7-2.3,4.4-4.4,5.5
	c-0.3-0.2-0.6-0.3-0.9-0.6c-1.3-1.3-2.6-2.6-3.9-3.9c0.6-0.1,0.9-0.4,0.4-1c-1.2-1.6-2.4-3.4-3.9-4.6c-1.8-1.4-3.8-2.4-5.8-3.5
	c-2.8-1.6-5.7-1.8-8.6-2c-0.2-0.2-0.3-0.3-0.4-0.4c2.9-0.7,5.8-0.5,8.6,0.4c0.5,0.2,1.1,0.1,1.7,0.1c0.2,0,0.2,0,0.4,0
	c0.6,0.4,1.2,0.7,1.8,1c1.7,0.8,3.5,1.6,5.2,2.3c0.3,0.1,1,0,1.1-0.3c0.1-0.3-0.1-1-0.3-1.5c-0.1-0.3-0.4-0.5-0.6-0.7
	c-1.5-1.4-2.9-3-4.4-4.3c-2.5-2.1-5.3-3.5-8.1-4.1c-4.1-0.9-8.1-0.3-12,0.9c-3,0.9-4.5,3.5-5.5,6.8c-0.5,1.6,0.2,2.5,1.6,2.6
	c0,0.3,0.1,0.5,0,0.7c-1,0.9-1.9,1.7-2.8,2.6c-0.6,0.7-1.1,1.4-1.6,2.2c-1.1,2-2.2,3.8-3.3,5.7c-0.1,0-0.2,0.1-0.4,0.1
	C25.3,76,25.1,76.1,24.8,76.2z"/>
<path class="st1" d="M68.5,33.1c3.8-1.3,7.7-1.5,11.7-0.3c1.7,0.5,3.3,1.5,4.7,3.1c0.1,0.6,0.1,1.2,0.2,1.6
	c1.1,3.9,2.3,7.8,3.2,11.8c0.5,2.1,0.8,4.3,0.9,6.5c0.2,2.9,0.1,5.7,0,8.6c-1.1-0.1-2-0.5-2.8-1.4c-0.4-0.4-0.8-0.7-1.2-1.1
	c-0.1-0.3-0.2-0.5-0.3-0.8c-0.1-0.6-0.2-1-0.4-1.4c-0.4-1.1-0.9-2.2-1.2-3.3c0.2-0.1,0.4-0.2,0.4-0.3c-0.2-0.9-0.5-1.9-0.8-2.9
	c-1.4-3.5-2.7-6.9-4-10.3c0.2,0.1,0.4,0.2,0.5,0.4c1.6,2.5,3.1,5.2,3.9,8.2c0.2,0.7,0.8,1.5,1.4,1.9c0.7,0.4,1.2-0.2,1.6-1
	c0.8-1.8,0.9-3.8,0.6-5.8c-0.4-2.5-0.8-5.1-1.9-7.4c-0.8-1.8-1.8-3.2-3.4-3.8c-1.5-0.6-3-0.5-4.5-0.2c-1.5,0.3-1.6,0.3-1.1,2.3
	c0,0.2,0,0.3-0.1,0.5c-0.1-0.1-0.2-0.1-0.2-0.3c-0.1-0.1-0.2-0.2-0.3-0.3c0,0.1,0.1,0.2,0.1,0.5c0.4,0.9,0.8,1.7,1.1,2.5
	c0.2,0.5,0.3,1,0.4,1.5c-1.3-1.6-2.4-3.3-3.7-4.6C71.8,35.7,70.1,34.4,68.5,33.1z"/>
<path class="st3" d="M53,53.2c-2.1-0.4-4.3-0.8-6.5-1.3c-2.1-1-4.1-0.7-6.1-0.9c-1.3-0.1-2.5-0.1-3.7-0.2c0.1-0.2,0.1-0.3,0.1-0.4
	c0,0,0.1-0.1,0.2-0.1c1.9-0.6,3.6-1.5,5.4-1.7c2.7-0.3,5.6-0.3,8.3-0.1c1.9,0.2,3.9,0.9,5.9,1.4c0,0,0.1,0,0.2,0.1
	c0.4,0.3,0.8,0.5,1.2,0.7c2.2,1.5,4.3,3.1,6.5,4.7c0.2,0.2,0.3,0.3,0.5,0.4c0.3,0.3,0.5,0.6,0.7,0.8c1,1.3,2,2.4,2.9,3.8
	c1.5,2.3,3,4.6,4.5,7c0,0.1,0,0.1-0.1,0.1c-0.4-0.2-0.7-0.4-1-0.6c-0.1,1.3-0.2,2.4-0.3,3.5c-0.6-1-1.1-1.9-1.8-3
	c-0.2-0.3-0.4-0.5-0.5-0.7c-0.1-0.1-0.2-0.2-0.3-0.5c-0.2-0.4-0.2-0.7-0.4-1c-3-4.3-6.5-7.8-10.7-9.9C56.5,54.3,54.7,53.8,53,53.2z"
	/>
<path class="st4" d="M69.2,97.1c0.5,0.6,1,1.2,1.4,1.9c-0.3,1.7-1.5,2.1-2.5,2.8c-0.3,0.1-0.6,0.1-0.8,0.3c-1.4,2.2-2.1,4.7-1.4,7.7
	c-2.5,1.8-4.8,1.3-7.2-0.9c-0.3-0.2-0.6-0.4-0.9-0.7c-0.1-0.4-0.2-0.6-0.4-1c-0.4-1.6-0.5-3.1,0.1-4.6c0.4-0.4,0.8-0.7,1-1.1
	c0.8-1.7,1.7-3.2,3.3-3.9c0.2-0.1,0.2-0.6,0.4-1c0.8-0.1,1.5-0.5,2.3-0.4C66.2,96.5,67.7,96.8,69.2,97.1z M61.5,106.6
	c0.2-1.4,0.5-2.8,0.7-4.3c-0.2,0-0.3-0.1-0.5,0c-1.1,0.3-1.7,3.5-1,4.6C60.9,106.9,61.2,106.8,61.5,106.6z"/>
<path class="st5" d="M89.2,38.5c2.7-1.6,5.7-1.4,8.6,0c2.3,1.1,4.6,2.7,6.8,4.2c1.5,1,2.5,2.6,3.1,4.7c-0.6,0.1-1.1,0.2-1.6,0.2
	c-3.8,0.6-6.7,2.9-8.8,6.4c-1.1,1.8-1.8,4.1-2.7,6.2c-0.2-1.1-0.3-2.2-0.5-3.3c-1-4.5-1.9-8.9-3-13.4C90.6,41.7,89.8,40.1,89.2,38.5
	z M98,50c0.9-1.3,2-2.4,2.7-3.9c1.1-2.3,0.4-4.3-1.7-5.4c-0.7-0.4-1.5-0.8-2.2-1c-2.2-0.6-3.4,0.7-3.1,3.3c0.2,1.7,0.5,3.4,0.7,5.2
	C94.7,50.9,95.2,52.2,98,50z M92.9,44.1c-0.4-1.4-0.8-2.8-1.2-4.2c-0.1,0-0.2,0-0.3,0.1c0.2,1.2,0.4,2.4,0.6,3.6
	c0.3,1.3,0.6,2.6,1,3.9c0.3,1.2,0.5,2.5,1.2,3.5c0.1,0,0.3-0.1,0.4-0.1C94,48.7,93.5,46.5,92.9,44.1z"/>
<path class="st6" d="M68.5,33.1c1.7,1.4,3.3,2.6,4.8,4.2c1.3,1.4,2.5,3.1,3.8,4.7c0.2,0.2,0.2,0.3,0.3,0.5c0.2,0.3,0.3,0.4,0.5,0.7
	c0.3,0.6,0.5,1.1,0.8,1.7c1.1,2.5,2.2,4.9,3.3,7.4c0.1,0.5,0.3,1,0.5,1.5c0,0.2,0.1,0.3,0.1,0.5c0.1,0.2,0.2,0.3,0.3,0.5
	c0.2,0.6,0.3,1.1,0.5,1.6c0.4,1.1,0.9,2.2,1.3,3.3c0.2,0.4,0.2,0.9,0.3,1.5c-0.2,0.8-0.4,1.6-0.6,2.2c-0.3,0.8-0.8,1.6-1.2,2.3
	c-0.8-4.5-1.9-8.9-3.6-13.1c0-0.1-0.2-0.2-0.3-0.4c-0.3-0.7-0.5-1.2-0.7-1.8c-2.8-6.1-6.3-11.4-10.7-15.8c-0.5-0.6-1-1.2-1.5-1.9
	c-0.1-0.2-0.3-0.4-0.4-0.6c0.5,0.2,1,0.4,1.6,0.8c0.3,0.2,0.5,0.2,0.7,0.2C68.2,33.1,68.3,33.1,68.5,33.1z"/>
<path class="st7" d="M41.1,109.5c-0.1-0.1-0.2-0.1-0.3-0.3c-0.1-0.2-0.2-0.2-0.3-0.3c0,0,0,0,0-0.1c-0.1-0.1-0.2-0.1-0.2-0.2
	c-0.8-0.9-1.7-1.8-2.5-2.9c-0.1-0.5-0.2-0.8-0.3-1.1c-1.1-2.9-2.3-5.8-3.4-8.7c1.5,1.5,2.9,3,4.2,4.6c2.3,2.8,5,4,8,3.7
	c0,0.1,0,0.2,0.1,0.3c0.2,0.8,0.3,1.4,0.5,2.1c0.6,1.5,1.2,2.9,1.9,4.5c0.3,1.2-0.4,0.7-0.7,0.7c-1.6-0.4-3.1-0.8-4.7-1.3
	C42.5,110.2,41.8,109.8,41.1,109.5z"/>
<path class="st3" d="M106.1,47.4c0.5,0,1-0.1,1.6-0.1c0.5,1.1,0.9,2.2,1.3,3.4c-0.2,0.4-0.4,0.8-0.7,0.9c-2.3,1-4.5,2.2-6.2,4.3
	c-0.9,1.1-1.6,2.5-2.4,3.8c-0.5,1.3-1,2.6-1.5,3.9c-0.1,0.2-0.2,0.4-0.3,0.4c-1-1-2.3-0.6-2.8,0.9c-0.1-0.7-0.1-1.3-0.1-1.8
	c1.2,0,0.6-1.2,0.8-1.8c0.7-2.2,1.3-4.5,2.5-6.4c1.9-3.1,4.3-5.2,7.2-6.6C105.7,48.2,105.9,47.7,106.1,47.4z"/>
<path class="st8" d="M114.9,75.2c-0.1,0.1-0.1,0.2-0.3,0.3c-2-0.2-3.8-0.4-5.8-0.6c-0.8-0.7-1.5-1.5-2.2-2.3c0-0.7,0-1.4,0.1-2
	c0.2-0.4,0.4-0.7,0.6-1c1.4-2.4,3.3-3.5,5.8-3.1c1,0.4,1.9,0.7,2.9,1c0-0.3-0.1-0.7-0.1-1.1c1.5,2.9,0.8,5.4-0.5,7.9
	C115.3,74.6,115.1,74.9,114.9,75.2z M110.2,70.5c0,0.1,0,0.2-0.1,0.4c-1.2,1.6-1.3,2.5-0.3,3.5c0.6-2.1,2.1-2.9,3.8-3.5
	c0-0.1,0-0.3-0.1-0.4c-0.4-0.1-0.7-0.2-1.2-0.4c-0.3-0.1-0.6-0.4-0.9-0.4c-0.4,0-0.9,0.3-1.3,0.5c0,0,0,0.1,0,0.1
	C110.1,70.2,110.1,70.3,110.2,70.5z"/>
<path class="st9" d="M89.4,64.4c0-2.9,0.1-5.7-0.1-8.6c-0.1-2.2-0.4-4.4-0.9-6.5c-1-4-2.1-7.9-3.2-11.8c-0.1-0.5-0.2-1-0.2-1.6
	c0.7,0.7,1.3,1.5,1.9,2.4c0.7,2.4,1.3,4.5,1.9,6.7c0.7,2.6,1.4,5.2,2.1,7.8c0.3,1.1,0.4,2.3,0.4,3.5c0.1,2.5,0.2,4.9,0.3,7.4
	c0,0,0,0-0.1,0.1c-0.7,0.3-1.4,0.6-2,0.8C89.5,64.5,89.4,64.4,89.4,64.4z"/>
<path class="st10" d="M89.1,38.4c0.7,1.6,1.5,3.2,1.9,4.9c1.1,4.4,2,8.9,3,13.4c0.2,1.1,0.3,2.2,0.6,3.4c0,0.8-0.1,1.4-0.3,2.1
	c-0.6-0.5-1-0.3-1.4,0.2c-0.2,0.3-0.4,0.6-0.6,0.8c-0.1-2-0.3-3.9-0.4-5.8c-0.3-5-1.2-9.8-2.7-14.5c-0.5-1.4-0.9-2.9-1.4-4.3
	C88.2,38.6,88.6,38.5,89.1,38.4z"/>
<path class="st8" d="M56.5,49.9c-1.9-0.5-3.9-1.2-5.8-1.4c-2.8-0.2-5.6-0.2-8.3,0.1c-1.8,0.2-3.5,1.1-5.4,1.7
	c0.9-1.9,1.9-3.9,2.9-5.9c0.3,0.2,0.5,0.5,0.7,0.6c1.2,0.1,2.4,0.1,3.7,0.2c0.5,0.3,0.9,0.6,1.3,0.7c2.9,0.9,5.8,1.7,8.7,2.6
	C55.1,48.7,55.8,49.4,56.5,49.9z"/>
<path class="st9" d="M116,66.3c0,0.5,0.1,0.9,0.1,1.2c-1-0.3-1.9-0.7-3-1.1c-2.9-1.1-5.1-0.1-6.6,2.3c-0.6-0.4-1-0.8-1.5-1.2
	c0.2-0.6,0.4-1.1,0.7-1.6c0.1-0.2,0.2-0.4,0.3-0.6c0.1-0.1,0.2-0.2,0.4-0.3c0.2-0.2,0.3-0.4,0.5-0.6c0.2-0.1,0.3-0.2,0.6-0.3
	c0.2-0.2,0.3-0.4,0.6-0.6c1-0.4,2-0.7,3.1-1c0.5,0,0.9,0,1.3,0c1.5-0.1,2.3,0.4,2.6,1.6C115.3,64.7,115.7,65.5,116,66.3z"/>
<path class="st11" d="M76.8,106.6c0,0,0.1,0.1,0.1,0.2c0,0.3-0.1,0.4-0.2,0.6c-0.3,0.2-0.5,0.4-0.7,0.6c-1.3,1.5-3,1.9-4.8,1.7
	c-1-0.1-1.8-0.5-1.8,1.2c0,0-0.1,0.1-0.2,0c-0.1-0.6-0.2-1.2-0.2-1.7c0.3-0.3,0.7-0.6,0.8-1c1-2.9,2.6-4.7,5.3-4.5
	c0.5,0.7,1,1.3,1.5,2.1C76.6,106.2,76.7,106.4,76.8,106.6z"/>
<path class="st12" d="M99.7,59.7c0.8-1.2,1.5-2.6,2.4-3.7c1.7-2.1,3.9-3.3,6.2-4.3c0.3-0.1,0.4-0.5,0.7-0.8c0.4,1.5,1.6,2.2,2.3,3.5
	c-0.9,0.3-1.7,0.5-2.7,0.7c-0.9,0.3-1.8,0.5-2.7,0.7c-0.6,0.2-1.1,0.4-1.5,0.7C102.8,57.5,101.2,58.6,99.7,59.7z"/>
<path class="st9" d="M68.2,101.9c0.9-0.7,2.1-1.1,2.5-2.8c0.8,0.7,1.6,1.5,2.3,2.4c-0.3,0.4-0.5,0.6-0.8,0.8
	c-1.9,1.4-3.4,3.3-3.4,6.4c-1-0.8-1.6-0.5-2.1,0.6c0,0.1-0.1,0.1-0.2,0C66.3,106.5,66.9,104,68.2,101.9z"/>
<path class="st13" d="M83.8,73.1c-2,1.3-4.1,2.5-6.3,3.7c-0.5-1.3-0.9-2.6-1.3-3.8c2.3-0.3,4.4-0.9,6.1-2.8c0.3-0.4,0.7-0.7,1.1-1
	C83.6,70.5,83.7,71.8,83.8,73.1z"/>
<path class="st14" d="M31.1,95.2c-1.3-1.8-2.6-3.6-3.9-5.5c-0.1-1.3-0.3-2.4-0.3-3.5c0-1.5,0.3-2.9,0.4-4.3c0.4,1.2,0.7,2.4,1.2,3.4
	c0.4,0.8,0.9,1.7,1.9,1.5c0.1,0.3,0.1,0.5,0,0.8c-0.4,2.3,0,4.6,0.5,7C31,94.8,31,95,31.1,95.2z"/>
<path class="st12" d="M36.6,50.9c1.3,0,2.5,0,3.8,0.1c2,0.2,4-0.1,6.1,0.9c-2.1,0.3-4.3,0.3-6.4,0.8c-2.4,0.5-4.6,1.5-6.9,2.2
	c-0.5,0.2-0.9,0.3-1.5,0.5c1.4-1.5,2.9-3,4.6-4.5C36.4,50.9,36.5,50.9,36.6,50.9z"/>
<path class="st15" d="M69.2,111c0.1,0,0.2-0.1,0.2-0.1c0-1.7,0.8-1.3,1.8-1.2c1.8,0.2,3.5-0.2,4.8-1.7c0.2-0.2,0.4-0.4,0.7-0.5
	c0.2,0.3,0.3,0.6,0.4,0.9c0,0.1,0,0.3-0.1,0.5c-0.3,0.8-0.5,1.5-0.6,2.2c0,0,0,0-0.1,0c-2,1.1-4,1.8-6.2,1.5c-0.4-0.4-0.7-0.7-1-1.1
	C69.1,111.3,69.1,111.1,69.2,111z"/>
<path class="st16" d="M31.1,95.2c0-0.2-0.1-0.4,0-0.7c0.1-0.5,0.1-0.8,0.1-1.1c0.1-0.7,0.2-1.4,0.3-2.1c0.2,0.5,0.4,0.9,0.6,1.3
	c0.4,0.5,0.8,1,1.3,1.6c0.2,0.7,0.4,1.3,0.6,1.8c1.1,2.9,2.3,5.8,3.4,8.7c0.1,0.3,0.2,0.6,0.3,1.1c-1.5-2.2-3-4.5-4.5-7
	c-0.2-0.4-0.3-0.7-0.5-0.9c-0.2-0.3-0.3-0.7-0.5-1.1c-0.1-0.2-0.2-0.3-0.2-0.3c0,0,0,0,0-0.1c-0.1-0.2-0.2-0.3-0.3-0.3
	c0,0,0,0,0-0.1c-0.1-0.1-0.1-0.1-0.2-0.2c0,0,0,0,0-0.1C31.2,95.4,31.2,95.3,31.1,95.2C31.1,95.2,31.1,95.2,31.1,95.2z"/>
<path class="st17" d="M108.7,55c0.9-0.2,1.8-0.4,2.7-0.6c2.3,2.6,3.3,5.8,3.7,9.5c-0.4-1.1-1.1-1.6-2.7-1.5c-0.4,0-0.8,0.1-1.2,0
	c0-0.5,0-0.9,0.1-1.4c0.8-0.6,1.2-1.4,0.7-2.5c-0.4-0.9-1-1.7-1.7-2.5C109.9,55.6,109.2,55.4,108.7,55z"/>
<path class="st18" d="M71.6,83.3c-0.4,0.3-0.7,0.7-1.1,0.8c-1,0.3-1.3,1.2-1.4,2.5c-0.8-0.5-1.4-1.1-2.1-1.7c-0.1-0.4-0.1-0.6-0.2-1
	c-0.3-1.1-0.6-2.1-0.9-3.2c1,0,1.9,0,2.9,0.1c0.2,0,0.2,0,0.4,0c0.1,0,0.3-0.1,0.4-0.1c0.2,0,0.4,0,0.5,0
	C70.7,81.6,71.1,82.4,71.6,83.3z"/>
<path class="st18" d="M63.2,114.7c-4.2-0.3-8.4-0.5-12.6-0.9c-0.3-0.6-0.5-1-0.6-1.4c1.3,0.1,2.5,0.2,3.8,0.4
	c0.6,0.1,1.1,0.2,1.6,0.3c0.6,0.7,1.1,0.9,1.2-0.3c0.1-0.1,0.2-0.2,0.4-0.3c0.5-0.3,0.8-0.5,1.3-0.7c0.4,0.3,0.8,0.6,1.2,0.8
	c0.6,0.4,1.3,0.6,2,1c0.7,0.3,1.3,0.5,1.9,0.7C63.3,114.4,63.3,114.5,63.2,114.7z"/>
<path class="st3" d="M87.7,38.6c0.5,1.5,1,2.9,1.5,4.3c1.6,4.7,2.5,9.5,2.7,14.5c0.1,1.9,0.2,3.8,0.3,5.8c-0.1,0.2-0.2,0.3-0.3,0.4
	c-0.2,0-0.2,0-0.3,0.1c-0.1-2.5-0.2-4.9-0.3-7.4c-0.1-1.2-0.2-2.4-0.4-3.5c-0.6-2.6-1.4-5.2-2.1-7.8c-0.6-2.2-1.2-4.4-1.9-6.6
	C87.2,38.4,87.4,38.5,87.7,38.6z"/>
<path class="st18" d="M76.2,72.9c0.4,1.2,0.8,2.5,1.3,3.8c-0.7,1.1-1.3,2-2.2,3.1c-0.3-0.3-0.6-0.6-0.7-1c-0.3-0.9-0.5-1.8-0.7-2.8
	c-0.1-0.4-0.1-0.8-0.1-1.2c0.1-0.4,0.1-0.7,0.2-1.1c-0.1-1.3,0.5-1.2,1.2-1.2c0.3,0,0.5,0.1,0.8,0.1C76.1,72.8,76.1,72.9,76.2,72.9z
	"/>
<path class="st13" d="M103.8,73.6c-1.5-1-3-2-4.6-3.1c-0.2-0.2-0.4-0.2-0.5-0.3c-0.3-1.5-0.5-2.8-0.6-4.2c0.3,0.2,0.6,0.5,0.9,0.7
	c1.5,1.6,3,3.3,5,4c0,0.1,0,0.1,0,0.3C103.8,71.9,103.8,72.7,103.8,73.6z"/>
<path class="st19" d="M83.9,73.1c-0.2-1.3-0.3-2.6-0.4-4c0-0.4-0.1-0.6,0-0.8c0.3-0.4,0.6-0.7,0.7-1.2c0.5-1.7,0.5-1.7,1.7-0.9
	c0.1,0,0.1,0,0.2,0.1c0,0.2,0.1,0.3,0.1,0.5c0,0.7,0.1,1.3,0.1,1.8c0,1.4,0.7,3.2-0.9,3.9c0,0-0.1,0.1-0.2,0c-0.1,0-0.2,0-0.2,0
	c-0.2,0.1-0.3,0.1-0.6,0.1c-0.2,0-0.2,0-0.2,0.1C84.1,73,84,73,83.9,73.1z"/>
<path class="st13" d="M73.9,76.2c0.2,0.9,0.4,1.8,0.7,2.7c0.1,0.4,0.4,0.7,0.7,1c-1.1,1.1-2.3,2.3-3.5,3.4c-0.6-0.8-1-1.7-1.5-2.7
	c0.8-0.9,1.7-1.5,2.4-2.3C73.1,77.7,73.5,76.9,73.9,76.2z"/>
<path class="st13" d="M85.5,72.6c1.6-0.7,0.8-2.5,0.8-3.9c0-0.6-0.1-1.2,0-1.8c1.1,0,2,0.1,3,0.2c0,0.1,0,0.2,0,0.3
	c-0.1,1.3-0.2,2.6-0.3,3.9C87.8,71.7,86.7,72.2,85.5,72.6z"/>
<path class="st4" d="M68.8,108.8c0-3.2,1.5-5,3.4-6.4c0.3-0.2,0.5-0.4,0.9-0.7c0.7,0.6,1.4,1.3,2.1,2c-2.7-0.1-4.3,1.8-5.3,4.6
	c-0.1,0.4-0.5,0.7-0.9,0.9C68.8,109,68.8,108.9,68.8,108.8z"/>
<path class="st20" d="M95.5,70.9c-1.3,0-2.5,0-3.8-0.2c0.2-1.6,0.4-3.1,0.6-4.5c0.8,0.1,1.5,0.1,2.2,0.2c0,0.1,0,0.2,0.1,0.3
	C94.9,68.2,95.2,69.6,95.5,70.9z"/>
<path class="st13" d="M67,84.9c0.7,0.6,1.3,1.1,2.1,1.7c-0.1,2.1-0.3,4.2-0.6,6.3c-0.7-0.6-1.4-1.3-2.1-2c-0.1-0.2-0.2-0.3-0.2-0.4
	C67.2,88.8,67.1,86.9,67,84.9z"/>
<path class="st12" d="M69.2,97c-1.5-0.2-3.1-0.6-4.6-0.7c-0.7-0.1-1.4,0.2-2.3,0.4c-0.9,0.4-1.6,0.8-2.3,1.1c0.6-0.7,1.1-1.6,1.8-2
	c1.9-1,3.8-2.1,6.1-1.2c0.1,0,0.1,0,0.2,0C68.5,95.4,68.9,96.1,69.2,97z"/>
<path class="st19" d="M92.2,66.2c-0.2,1.5-0.4,2.9-0.6,4.5c0,0.1-0.1,0.1-0.2,0.1c-0.2,0-0.3,0-0.4,0.1c-0.6,0.1-1.2,0.2-1.9,0.4
	c0-1.3,0.1-2.5,0.3-3.9c1.4-0.7,2.7-1.2,2.2-3.6c0,0,0,0,0,0c0.1,0,0.2,0,0.4,0C92.1,64.6,92.2,65.4,92.2,66.2z"/>
<path class="st16" d="M25.7,75.9c0.1,0,0.2,0,0.4,0c0.3,0.2,0.6,0.4,0.6,0.6c0.1,0.6,0.2,1.1,0.3,1.8c0.1,0.5,0.2,1,0.3,1.5
	c0,0.3,0,0.5-0.1,0.6c-0.1-0.3-0.2-0.6-0.3-0.8c-0.1,0-0.2,0-0.3,0c-0.3,2.1-0.6,4.3-1,6.4c-0.9-2.6-0.8-5.2-0.7-7.9
	c0.2,0,0.4,0,0.4,0C25.4,77.5,25.5,76.7,25.7,75.9z"/>
<path class="st13" d="M49.9,112.3c0.2,0.4,0.4,0.8,0.6,1.3c-3.4-0.1-6.6-1.2-9.5-4.1c0.7,0.2,1.4,0.6,2.2,0.9
	c1.6,0.5,3.1,0.9,4.7,1.3c0.3,0.1,1,0.5,0.8-0.7c0.3,0.2,0.5,0.5,0.8,0.7C49.7,112,49.8,112.2,49.9,112.3z"/>
<path class="st18" d="M103.8,73.6c0-0.9,0-1.7,0.2-2.6c0.6-0.1,1.1-0.1,1.6-0.2c0.4,0,0.8-0.1,1.2-0.2c0,0.6-0.1,1.3-0.1,2
	c-0.2,0.9-0.4,1.6-0.6,2.4C105.3,74.6,104.6,74.1,103.8,73.6z"/>
<path class="st18" d="M95.6,71c-0.4-1.4-0.7-2.8-1-4.3c0.3-0.3,0.5-0.4,0.7-0.5c0.6-0.4,1.3-0.9,1.9-1.3c-0.1,0.8-0.4,1.5-0.5,2.2
	c-0.2,1.2-0.2,2.4-0.4,3.6c0,0.1,0,0.2,0,0.2C96.2,70.9,96,70.9,95.6,71z"/>
<path class="st21" d="M70.1,112.7c2.2,0.2,4.2-0.5,6.2-1.6c-0.7,0.7-1.3,1.7-2.2,2.1c-1.9,0.8-3.9,1.3-6,1.8
	c-0.1-0.2-0.1-0.3-0.1-0.4C69.1,114.4,70.3,114.7,70.1,112.7z"/>
<path class="st22" d="M25.6,86.2c0.3-2.2,0.6-4.4,0.9-6.5c0.1,0,0.2,0,0.3,0c0.1,0.2,0.2,0.5,0.3,0.9c0.1,0.5,0.1,0.9,0.2,1.2
	c-0.1,1.5-0.4,2.9-0.4,4.4c0,1.1,0.2,2.3,0.3,3.4c-0.1,0-0.1-0.1-0.1-0.2c-0.1-0.3-0.2-0.4-0.3-0.5c0,0-0.1,0-0.1-0.2
	c-0.1-0.2-0.1-0.2-0.2-0.3C26.2,87.7,25.9,87,25.6,86.2z"/>
<path class="st20" d="M106.1,75.1c0.1-0.8,0.3-1.6,0.5-2.3c0.8,0.7,1.5,1.4,2.3,2.3c0.9,0.6,1.6,1.2,2.4,1.7
	C109.6,76.2,107.9,75.7,106.1,75.1z"/>
<path class="st11" d="M111.4,76.8c-0.9-0.6-1.6-1.1-2.4-1.7c1.8,0.1,3.7,0.3,5.6,0.5C113.8,76.7,112.6,76.7,111.4,76.8z"/>
<path class="st18" d="M68.2,94.6c-0.1,0-0.1,0-0.2-0.1c-0.6-0.5-1.2-1-1.8-1.5c-0.3-0.2-0.5-0.4-0.6-0.6c0.3-0.5,0.6-1,0.9-1.4
	c0.6,0.6,1.3,1.3,2,2c0,0.3,0,0.6-0.1,1c-0.1,0.2-0.1,0.3-0.1,0.3C68.2,94.4,68.2,94.5,68.2,94.6z"/>
<path class="st14" d="M67.9,114.6c0,0.1,0,0.2,0.1,0.4c-1.5,0-3.1-0.1-4.7-0.3c0-0.2,0-0.3,0.1-0.5c0.4-0.1,0.8,0,1.2,0.1
	c0.5,0.5,0.7,0.5,0.8-0.2c0.2,0,0.2,0,0.4,0C66.5,115,67.2,114.7,67.9,114.6C67.9,114.6,67.9,114.6,67.9,114.6z"/>
<path class="st12" d="M25.6,75.9c-0.1,0.8-0.2,1.6-0.4,2.3c0,0-0.2-0.1-0.4-0.1c-0.1-0.6-0.1-1.2-0.1-1.8
	C25.1,76.1,25.3,76,25.6,75.9z"/>
<path class="st21" d="M76.4,111c0.1-0.7,0.3-1.4,0.5-2.1C76.8,109.6,76.6,110.3,76.4,111z"/>
<path class="st20" d="M96.6,70.9c-0.1,0-0.1-0.1,0-0.2c0.8-0.2,1.4-0.3,2.1-0.4c0.1,0,0.3,0.1,0.4,0.2
	C98.3,70.6,97.5,70.8,96.6,70.9z"/>
<path class="st21" d="M77.1,108.2c-0.1-0.2-0.2-0.4-0.3-0.8c0-0.2,0.1-0.4,0.1-0.6C76.9,107.2,77,107.7,77.1,108.2z"/>
<path class="st11" d="M115,75.2c0.1-0.3,0.3-0.6,0.5-0.9C115.4,74.6,115.2,74.9,115,75.2z"/>
<path class="st8" d="M36.6,50.8c-0.1,0-0.2,0.1-0.4,0.1c0.1-0.1,0.3-0.3,0.5-0.4C36.7,50.6,36.7,50.7,36.6,50.8z"/>
<path class="st1" d="M68.1,33.2c-0.1,0-0.3,0-0.6-0.1C67.7,33,67.8,33.1,68.1,33.2z"/>
<path class="st14" d="M32.7,97.9c0.1,0.2,0.3,0.4,0.4,0.7C33,98.4,32.9,98.2,32.7,97.9z"/>
<path class="st21" d="M76.8,106.5c-0.1-0.1-0.2-0.3-0.2-0.6C76.7,106,76.7,106.2,76.8,106.5z"/>
<path class="st14" d="M31.6,96c0.1,0,0.2,0.1,0.3,0.3C31.8,96.2,31.7,96.1,31.6,96z"/>
<path class="st14" d="M31.1,95.3c0.1,0,0.2,0.1,0.3,0.3C31.3,95.5,31.2,95.4,31.1,95.3z"/>
<path class="st20" d="M91.1,70.9c0-0.1,0.2-0.1,0.3-0.1C91.3,70.8,91.2,70.8,91.1,70.9z"/>
<path class="st14" d="M26.7,89c0.1,0,0.2,0.2,0.3,0.3C26.9,89.3,26.8,89.2,26.7,89z"/>
<path class="st3" d="M68.3,94.3c-0.1-0.1,0-0.1,0-0.2C68.4,94.1,68.4,94.2,68.3,94.3z"/>
<path class="st13" d="M40.2,108.7c0,0,0.1,0,0.2,0.1C40.4,108.8,40.3,108.8,40.2,108.7z"/>
<path class="st14" d="M26.5,88.5c0.1,0,0.1,0.1,0.2,0.2C26.6,88.7,26.5,88.7,26.5,88.5z"/>
<path class="st13" d="M85,72.7c0-0.1,0-0.1,0.1-0.1C85.2,72.7,85.1,72.8,85,72.7z"/>
<path class="st13" d="M84.2,72.9C84.2,72.9,84.2,72.8,84.2,72.9C84.4,72.9,84.3,73,84.2,72.9z"/>
<path class="st14" d="M31.4,95.7c0,0,0.1,0,0.2,0.1C31.5,95.8,31.5,95.8,31.4,95.7z"/>
<path class="st14" d="M31.9,96.4c0,0,0.1,0,0.2,0.2C32.1,96.6,32,96.5,31.9,96.4z"/>
<path class="st13" d="M40.5,108.9c0,0,0.1,0,0.2,0.2C40.6,109.1,40.6,109,40.5,108.9z"/>
<path class="st23" d="M52.9,45.6c-0.9-0.7-1.8-1.4-2.8-2.1c-1.4-1.1-1.7-2.8-0.5-3.9c1.3-1.2,2.9-2.2,4.4-3c2.6-1.3,5.4-1,8.2-0.9
	c1.1,0,2.1,0.6,3.2,1.1c0.2,0.6,0.3,1.2,0.5,1.5c1.9,2.2,3.8,4.3,5.7,6.4c0.2,0.2,0.6,0.2,0.8,0.3c1,1.8,2.2,3.6,3,5.6
	c0.8,2,1.2,4.1,1.5,6.2c0.2,1.3,0.1,2.7-0.2,3.9c-0.5,1.9-2.2,1.9-3.3,0.2c-0.7-1.2-1.3-2.4-2.1-3.5c-1.9-2.7-4.2-4.7-6.8-6.2
	c-0.9-0.5-1.8-1.1-2.6-1.8c0.6-0.2,0.8-0.5,0.3-1.1c-0.3-0.4-0.6-0.9-0.9-1.3c-0.2,0.2-0.4,0.4-0.5,0.6c0.2,0.6,0.3,1.2,0.5,1.9
	c-0.3-0.1-0.6-0.2-1.1-0.4c-1.3-0.7-2.5-1.2-3.7-1.8c-0.2-0.1-0.4,0-0.6,0c-0.2-0.1-0.3-0.1-0.4-0.3C54.7,46.4,53.8,46,52.9,45.6z
	 M50.5,42.6c2.4,0.8,4.8,1.9,6.9,3.7c0.4,0.3,1,0.3,1.5,0.4c0.1-0.1,0.1-0.3,0.2-0.4c-0.3-0.5-0.6-1-1-1.4c-2.2-2.3-4.7-2.8-7.3-3
	C50.6,41.9,50.5,42.3,50.5,42.6z M72.5,50.5c0.9,1.8,1.6,3.7,3.3,5c0-2-2.5-6.5-3.8-6.8C72.1,49.4,72.3,49.9,72.5,50.5z"/>
<path class="st24" d="M55.6,47c0.1,0.1,0.2,0.1,0.4,0.2c1.4,0.8,2.8,1.6,4.1,2.3c0.9,0.7,1.8,1.4,2.8,2.1c2.5,1.8,4.6,4.2,6.5,6.9
	c1.6,2.3,3.1,4.8,3.9,7.8C72.6,65.2,72,64,71.2,63c-1.5-2-3-3.9-4.6-5.8c-0.2-0.3-0.5-0.4-0.9-0.6c-0.3-0.2-0.5-0.5-0.8-0.9
	c-0.2-0.2-0.4-0.3-0.5-0.4c-2.1-1.5-4.3-3.1-6.5-4.7c-0.5-0.3-0.9-0.5-1.2-0.7c0,0-0.1,0-0.1,0c-0.8-0.5-1.5-1.2-2.3-1.4
	c-2.9-0.9-5.8-1.7-8.7-2.6c-0.4-0.1-0.8-0.4-1.2-0.7c0.6-0.2,1.2-0.4,1.8-0.3c2,0.3,4.1,0.7,6.1,1.1c0.2,0,0.3,0,0.6,0
	C53.9,46.3,54.8,46.7,55.6,47z"/>
<path class="st10" d="M83.4,68.3c0,0.2,0,0.4,0.1,0.6c-0.4,0.5-0.8,0.8-1.1,1.2c-1.6,1.9-3.7,2.5-6.1,2.8c-0.1-0.1-0.2-0.1-0.3-0.3
	c-0.5-1.4-0.9-2.6-1.3-3.8c0.5,0.1,1.1,0.1,1.6,0.3c1.4,0.3,2.7,0.3,4-0.5c0.9-0.6,1.8-1.3,2.8-1.9C83.2,67.3,83.3,67.8,83.4,68.3z"
	/>
<path class="st24" d="M67.7,34.7c4.5,4.4,8,9.8,10.8,15.8c0.2,0.5,0.4,1.1,0.6,1.7c-0.2-0.1-0.5-0.2-0.6-0.5
	c-2.7-5.3-5.9-10-9.7-14.2c-1.3-1.5-2.6-2.9-4-4.4c0.1-0.1,0.1-0.3,0.2-0.4C65.9,33.4,66.8,34.1,67.7,34.7z"/>
<path class="st25" d="M72.5,44.9c-0.3,0-0.6,0-0.8-0.2c-1.9-2.1-3.8-4.2-5.7-6.4c-0.3-0.3-0.4-0.9-0.5-1.4c0.9,0.7,1.9,1.4,2.7,2.3
	C69.7,41.1,71,43,72.5,44.9z"/>
<path class="st3" d="M83.4,68.3c-0.2-0.5-0.3-1-0.4-1.6c0-0.3,0-0.5,0-0.8c0.4-0.9,0.9-1.6,1.2-2.4c0.3-0.6,0.4-1.4,0.6-2.1
	c0.2,0.2,0.3,0.3,0.4,0.7c0.3,1.6,0.5,2.9,0.7,4.3c-0.1,0-0.1,0-0.2,0c-1.2-0.8-1.2-0.8-1.7,0.9C84,67.5,83.7,67.9,83.4,68.3z"/>
<path class="st3" d="M74.6,68.7c0.5,1.3,0.9,2.5,1.3,3.9c-0.2,0.1-0.4,0.1-0.8-0.1c-0.7-1.8-1.4-3.4-2-5c0,0,0,0,0,0
	C73.6,67.9,74.1,68.3,74.6,68.7z"/>
<path class="st17" d="M60.2,49.5c-1.3-0.7-2.7-1.4-4.1-2.2c0.1-0.1,0.4-0.2,0.5-0.1c1.2,0.6,2.4,1.1,3.6,1.8
	C60.2,49.1,60.2,49.3,60.2,49.5z"/>
<path class="st25" d="M61.4,49.3c-0.2-0.6-0.4-1.2-0.5-1.8c0.2-0.2,0.4-0.4,0.5-0.6c0.3,0.4,0.5,0.9,0.9,1.3
	c0.6,0.7,0.3,0.9-0.3,1.1C61.8,49.3,61.7,49.3,61.4,49.3z"/>
<path class="st17" d="M55.6,46.9c-0.8-0.2-1.7-0.6-2.6-0.9c-0.1-0.1-0.1-0.1-0.1-0.3C53.8,46,54.7,46.4,55.6,46.9z"/>
<path class="st23" d="M54.6,62c-0.5,0-1.1,0-1.6-0.1c-2.9-0.9-5.7-1.1-8.7-0.5c-2.2,0.4-4.4,0.8-6.4,1.4c-1.4,0.4-2.8,1.2-4.1,1.8
	c-1.4-0.1-2-1-1.6-2.6c1-3.3,2.5-5.9,5.5-6.8c3.9-1.2,7.9-1.8,12-0.9c2.8,0.6,5.6,2,8.1,4.1c1.5,1.3,2.9,2.8,4.4,4.3
	c0.2,0.2,0.5,0.5,0.6,0.7c0.2,0.5,0.4,1.1,0.3,1.5c-0.1,0.3-0.8,0.5-1.1,0.3c-1.8-0.7-3.5-1.5-5.2-2.3c-0.6-0.3-1.2-0.6-1.7-1
	c0.1-0.5,0.2-1.1,0.1-1.2c-1.1-0.5-2.2-1.2-3.3-0.9c0,0.1-0.1,0.3-0.1,0.4C52.7,60.9,53.6,61.4,54.6,62z M43.2,58.8
	c0.3,0,0.6-0.1,0.9,0c1.7,0.3,3.4,0.6,5.1,0.9c0.4,0.1,0.7-0.2,1.1-0.3c-0.2-0.4-0.5-0.8-0.8-1c-1.5-1.2-3.2-1.2-4.8-1.4
	c-2-0.3-3.9,0.2-5.6,1.2c-0.3,0.2-0.5,0.5-0.8,0.7c0,0.1,0.1,0.3,0.1,0.4C40,59,41.5,58.9,43.2,58.8z M36.8,59.9
	c-0.2,0-0.5-0.2-0.7-0.1c-0.3,0.1-0.7,0.4-0.9,0.7c0,0,0.2,0.7,0.2,0.7c0.6,0,1.1,0,1.6-0.1C37.1,61,37,60.4,36.8,59.9z"/>
<path class="st3" d="M27.2,79.8c-0.1-0.4-0.2-0.9-0.2-1.5c1.4-3,2.8-5.7,4.9-7.9c2.8-2.9,6.1-4.5,9.7-5.1c3.1-0.5,6.3-0.1,9.4,0.9
	c1.9,0.7,3.9,1.5,5.7,2.6c1.5,0.8,2.9,2.1,4.3,3.1c0.2,0.1,0.5,0.1,0.7,0.2c0.3,0.3,0.5,0.5,0.7,0.8c1.3,1.3,2.6,2.6,3.9,3.9
	c0.2,0.2,0.5,0.4,0.9,0.7c0.7,1,1.4,2,2,2.9c-0.1,0.1-0.1,0.2-0.1,0.3c-0.1,0-0.2,0-0.3,0c-0.5-0.7-0.9-1.3-1.4-1.9
	c-0.9-1.2-2-1.6-2.8-0.7c-0.5,0.5-0.7,0.1-1.1-0.3c-0.1-0.1-0.2-0.1-0.2-0.2c0,0,0,0,0-0.1c-1.1-1.2-2.1-2.3-3.2-3.3
	c-2.8-2.3-5.8-4.2-9-5.5c-3.2-1.3-6.5-1.9-9.7-1.5c-2.5,0.3-4.9,1.3-7,2.7c-2.7,1.8-4.8,4.3-6.1,7.7C27.9,78.4,27.5,79.1,27.2,79.8z
	"/>
<path class="st26" d="M62.5,72.9c-0.3-0.2-0.5-0.4-0.8-0.8c-4.2-4-8.7-6.6-13.6-7.8c-2.4-0.6-4.7-0.6-7.1-0.3
	c-3,0.5-5.9,1.5-8.5,3.3c-0.1,0.1-0.2,0.2-0.4,0.4c-0.1,0-0.2,0.1-0.4,0.1c-0.3,0-0.5,0.1-0.8,0.1c0.9-0.8,1.8-1.7,2.8-2.6
	c3.4-2.3,7-3.4,10.9-3.5c2.9,0.1,5.8,0.4,8.6,1.9c2,1.1,4,2,5.8,3.5c1.5,1.2,2.6,3,3.9,4.6C63.4,72.5,63.1,72.8,62.5,72.9z"/>
<path class="st12" d="M32.5,67.4c2.6-1.8,5.5-2.9,8.5-3.4c2.3-0.4,4.7-0.3,7.1,0.3c4.9,1.2,9.4,3.8,13.5,7.8c-0.2,0-0.5,0.1-0.7-0.1
	c-1.4-1-2.8-2.3-4.3-3.1c-1.8-1-3.8-1.9-5.7-2.6c-3.1-1.1-6.3-1.4-9.4-0.9c-3.6,0.6-6.9,2.2-9.7,5.1c-2.1,2.2-3.5,4.9-4.9,7.8
	c-0.1-0.6-0.2-1.1-0.3-1.7c-0.1-0.2-0.3-0.4-0.5-0.7c1-1.9,2.1-3.8,3.3-5.8c0.9-0.8,1.7-1.6,2.5-2.3c0.1,0,0.2,0,0.4-0.1
	C32.4,67.6,32.5,67.5,32.5,67.4z"/>
<path class="st10" d="M69.3,80.4c-0.6-0.9-1.3-1.9-2-2.9c2-1.2,3.6-2.8,4.3-5.5c0-0.2,0.2-0.3,0.4-0.5c0.4,0.5,0.6,1,0.9,1.7
	c0.3,0.7,0.5,1.3,0.7,1.8c0.1,0.3,0.1,0.7,0.2,1.1c-0.4,0.8-0.7,1.6-1.2,2.2c-0.7,0.8-1.6,1.4-2.5,2.2c-0.2,0.1-0.4,0.1-0.6,0.1
	C69.4,80.4,69.4,80.4,69.3,80.4z"/>
<path class="st10" d="M53,53.2c1.7,0.6,3.5,1.1,5.1,2c4.2,2.2,7.7,5.6,10.7,9.9c0.2,0.2,0.2,0.5,0.4,0.9c-1.3-1.3-2.6-2.6-3.9-4
	c-2.6-2.8-5.5-5-8.6-6.8C55.5,54.6,54.3,54,53,53.2z"/>
<path class="st27" d="M72.9,73c-0.3-0.5-0.5-1.1-0.8-1.6c-0.1-0.3-0.2-0.6-0.2-0.9c0.1-1.2,0.2-2.3,0.3-3.6c0.3,0.2,0.6,0.4,1,0.6
	c0.7,1.6,1.3,3.3,2,5c-0.6,0.1-1.3,0-1.2,1.3C73.5,73.5,73.2,73.3,72.9,73z"/>
<path class="st17" d="M44.7,61.8c-3.8,0.1-7.4,1.2-10.8,3.5c-0.1-0.2-0.1-0.3-0.2-0.6c1.4-0.7,2.7-1.5,4.1-1.9c2-0.6,4.1-1,6.3-1.4
	C44.3,61.5,44.5,61.7,44.7,61.8z"/>
<path class="st25" d="M54.6,62c-1-0.5-2-1.1-2.9-1.6c0-0.1,0.1-0.3,0.1-0.4c1.2-0.4,2.2,0.4,3.3,0.9c0,0-0.1,0.7-0.2,1.1
	C54.9,61.9,54.8,61.9,54.6,62z"/>
<path class="st23" d="M31.7,67.8c-0.7,0.7-1.5,1.5-2.4,2.2c0.4-0.7,0.9-1.4,1.5-2.1C31.2,67.9,31.4,67.9,31.7,67.8z"/>
<path class="st10" d="M69.5,66.7c0.1,0.1,0.3,0.3,0.5,0.5C69.9,67.1,69.7,66.9,69.5,66.7z"/>
<path class="st23" d="M76,37.9c0-0.2,0.1-0.3,0.1-0.5c-0.4-2-0.4-2,1.1-2.3c1.5-0.3,3-0.4,4.5,0.2c1.6,0.6,2.6,1.9,3.4,3.8
	c1.1,2.4,1.5,4.9,1.9,7.4c0.3,2,0.2,4-0.6,5.8c-0.3,0.8-0.9,1.5-1.6,1c-0.6-0.4-1.2-1.1-1.4-1.9c-0.8-3.1-2.3-5.7-3.9-8.2
	c-0.1-0.2-0.3-0.2-0.6-0.4C77.8,41.2,76.9,39.6,76,37.9z M80.7,41c-0.9-1.3-1.5-2.9-2.9-3.5c0.2,0.8,0.4,1.4,0.7,2.1
	c0.7,1.4,1.5,2.7,2.3,4c0.2,0.3,0.7,0.3,1.1,0.5c0-0.5,0-1-0.1-1.4C81.5,42.1,81.1,41.6,80.7,41z M83.7,50.8
	c0.3,0.2,0.5,0.4,0.8,0.6c0.1-0.4,0.3-0.8,0.2-1.1c-0.4-1.2-0.8-2.4-1.3-3.5c-0.1-0.2-0.4-0.3-0.7-0.4c-0.1,0.2-0.2,0.5-0.2,0.7
	C82.8,48.3,83.2,49.4,83.7,50.8z"/>
<path class="st10" d="M86.1,66.4c-0.3-1.4-0.5-2.8-0.7-4.3c0.4,0.2,0.8,0.5,1.2,0.9c0.8,0.9,1.8,1.3,2.8,1.4c0.1,0,0.1,0.1,0.1,0.3
	c-0.1,0.9-0.1,1.6-0.2,2.3c-1-0.1-2-0.2-3-0.2C86.2,66.6,86.1,66.5,86.1,66.4z"/>
<path class="st24" d="M75.9,37.9c1,1.6,1.9,3.3,2.9,4.9c1.4,3.5,2.8,6.9,4.1,10.4c-0.1,0.1-0.2,0.1-0.3,0.1
	c-0.2-0.4-0.4-0.8-0.6-1.1c-1.1-2.5-2.2-4.9-3.3-7.4c-0.2-0.5-0.5-1-0.8-1.8c-0.2-0.4-0.4-0.5-0.5-0.7c-0.1-0.1-0.2-0.2-0.3-0.4
	c-0.2-0.6-0.3-1.2-0.5-1.6c-0.3-0.8-0.7-1.6-1-2.5c0.1-0.1,0.1-0.1,0.1-0.1C75.8,37.8,75.8,37.9,75.9,37.9z"/>
<path class="st28" d="M82.6,53.4c0.1,0,0.2,0,0.3-0.1c0.3,0.9,0.6,1.8,0.8,2.8c0,0-0.2,0.2-0.4,0.3c-0.2-0.5-0.4-1-0.5-1.7
	c-0.1-0.3-0.2-0.4-0.3-0.5c0-0.1,0-0.2-0.1-0.4C82.5,53.5,82.6,53.5,82.6,53.4z"/>
<path class="st23" d="M75.7,37.7c0,0.1,0,0.1-0.1,0.1c-0.1-0.1-0.1-0.2-0.2-0.4C75.5,37.5,75.6,37.5,75.7,37.7z"/>
<path class="st8" d="M56.8,50c0.4,0.1,0.7,0.3,1.1,0.6C57.5,50.5,57.2,50.3,56.8,50z"/>
<path class="st1" d="M64.5,55.4c0.1,0,0.3,0.1,0.4,0.3C64.8,55.6,64.6,55.5,64.5,55.4z"/>
<path class="st3" d="M66.2,93.1c0.6,0.4,1.1,0.9,1.7,1.4c-2.3-0.8-4.2,0.3-6.1,1.2c-0.7,0.4-1.2,1.2-1.8,2c-1.5,1.2-2.2,2.8-2.4,4.9
	c-0.4,1.4-0.3,2.9-0.1,4.6c-0.8,0.4-1.6,0.7-2.4,1.1c-0.1,0-0.1,0-0.2-0.1c-0.2-1.3-0.4-2.5-0.4-3.8c-0.2-3.7,0.8-6.8,3.1-8.8
	c2.3-2.1,5.1-2.7,8.1-2.2C65.9,93.5,66,93.2,66.2,93.1z"/>
<path class="st7" d="M64.6,114.2c-0.4,0-0.7,0-1.2,0c-0.7-0.2-1.3-0.4-2-0.7c-1.1-1.5-2.1-2.9-3.1-4.3c-0.1-0.1-0.3-0.2-0.5-0.3
	c0-0.2,0.1-0.3,0.1-0.5c0.3,0.2,0.6,0.4,0.9,0.6c2.3,2.2,4.7,2.7,7.2,0.9c0.2-0.1,0.3-0.1,0.4,0c0.3,1.2,0.5,2.3,0.8,3.4
	c0,0.1,0,0.2-0.1,0.2c-0.5,0.2-1,0.4-1.4,0.5c-0.1,0-0.2,0-0.4,0.1C65,114.1,64.8,114.1,64.6,114.2z"/>
<path class="st22" d="M58,108.2c0,0.2,0,0.3-0.1,0.6c0.1,1,0.2,1.9,0.3,2.8c-0.4,0.2-0.8,0.5-1.3,0.6c-0.7-1.4-1.2-2.7-1.8-4
	c0.8-0.3,1.5-0.6,2.4-0.9C57.7,107.6,57.8,107.9,58,108.2z"/>
<path class="st17" d="M57.7,102.7c0.1-2.1,0.9-3.7,2.3-4.8c0.8-0.4,1.5-0.8,2.2-1.2c0,0.3-0.1,0.9-0.3,1c-1.6,0.7-2.5,2.2-3.3,3.9
	C58.5,102,58.1,102.3,57.7,102.7z"/>
<path class="st23" d="M66.5,109.7c-0.1,0-0.2,0-0.3,0.1c-0.8-3-0.1-5.4,1.3-7.6c0.1-0.2,0.5-0.3,0.8-0.3c-1.2,2.2-1.8,4.7-1.7,7.6
	C66.4,109.5,66.5,109.7,66.5,109.7z"/>
<path class="st25" d="M61.5,106.7c-0.3,0.1-0.6,0.3-0.7,0.2c-0.8-1.1-0.1-4.3,1-4.6c0.1,0,0.3,0,0.5,0
	C62,103.8,61.7,105.2,61.5,106.7z"/>
<path class="st23" d="M97.9,50.1c-2.8,2.1-3.2,0.8-3.6-1.9c-0.2-1.7-0.5-3.4-0.7-5.2c-0.3-2.6,0.9-3.9,3.1-3.3
	c0.8,0.2,1.5,0.6,2.2,1c2.1,1.2,2.8,3.2,1.7,5.4C100,47.6,98.9,48.8,97.9,50.1z M95,45.5c0,0.3,0,0.6,0.1,0.9
	c0.2,0.4,0.5,0.8,0.8,1.2c0.2-0.3,0.6-0.6,0.7-0.9c0.1-1.3,0.1-2.6,0.1-4c0-0.2-0.4-0.7-0.6-0.7c-0.2,0-0.5,0.3-0.6,0.6
	C95.3,43.5,95.2,44.4,95,45.5z"/>
<path class="st9" d="M94.4,62.2c0.1-0.6,0.2-1.3,0.3-2c0.8-2.2,1.5-4.5,2.6-6.3c2.1-3.5,5-5.8,8.8-6.4c-0.2,0.3-0.4,0.7-0.7,0.9
	c-2.9,1.4-5.3,3.5-7.2,6.6c-1.2,1.9-1.8,4.2-2.5,6.4c-0.2,0.6,0.3,1.8-0.9,1.7c-0.2-0.1-0.4-0.1-0.5-0.2
	C94.4,62.6,94.4,62.4,94.4,62.2z"/>
<path class="st26" d="M92.9,44.2c0.6,2.3,1.1,4.4,1.7,6.6c-0.1,0-0.3,0.1-0.4,0.1c-0.7-1-0.8-2.3-1.2-3.5c-0.4-1.3-0.7-2.6-1-3.9
	c-0.3-1.2-0.4-2.4-0.6-3.6c0.1,0,0.2,0,0.3-0.1C92,41.3,92.4,42.7,92.9,44.2z"/>
<path class="st1" d="M82.6,53.3c0,0.2,0,0.2-0.1,0.3c-0.2-0.4-0.4-0.9-0.6-1.4C82.2,52.5,82.3,52.9,82.6,53.3z"/>
<path class="st1" d="M77.4,42.4c0.1,0.1,0.3,0.3,0.5,0.5C77.7,42.9,77.6,42.7,77.4,42.4z"/>
<path class="st1" d="M82.5,54.2c0.1,0.1,0.2,0.2,0.3,0.4C82.7,54.5,82.6,54.4,82.5,54.2z"/>
<path class="st29" d="M34,95.9c-0.2-0.6-0.4-1.2-0.6-2c-0.1-1.1-0.2-2-0.3-2.9c-0.2-2.3-0.1-4.5,0.6-6.6c0.9-2.6,2.4-4.4,4.3-5.9
	c2.9-2.2,6.1-3,9.5-3.2c0.1,0,0.3,0.2,0.4,0.4c-0.9,0.2-1.6,0.5-2.4,0.7c-2.8,0.5-5,2.1-6.9,4.6c-0.2,0.2-0.4,0.4-0.6,0.6
	c0.2,0.2,0.3,0.1,0.5,0.1c0.1,0,0.3,0,0.6,0c-2.4,2.5-3.2,5.5-2.1,9.2c0.7,2.6,3.2,5,5.4,2.7c0.9-0.9,1.5-2.2,2.3-3.2
	c3.3-4,7.2-6.4,11.8-7.6c1.1-0.3,2.2-0.6,3.6-1.1c-2-2.9-4.4-3.9-7.3-4.6c0.5-0.2,0.7-0.3,1.2-0.5c-0.5-0.1-0.7-0.2-1-0.2
	c-0.5-0.2-0.9-0.5-1.2-0.8c1.5,0.4,3,0.8,4.5,1.2c3,1,5.7,3.1,8.5,5.1c0.1,0.3,0.1,0.4,0.2,0.7c0.5,2.3,0.1,4.2-0.4,6.2
	c-1-0.4-2-0.9-3-1.3c-3.6-1.3-7-0.5-10.1,1.6c-1,0.7-1.7,1.9-2.6,2.9c-2.4,3.3-3.2,7.3-2.6,11.8c-3,0.4-5.7-0.8-8-3.6
	C36.9,99,35.4,97.5,34,95.9z M45.3,98.5c0.2-0.8,0.3-1.6,0.5-2.4c1-3.9,2.8-7.1,5.7-9c3.5-2.3,7.3-2.2,11.2-0.4
	c0.4,0.2,0.8,0.2,1.2,0.4c0.1-0.1,0.1-0.3,0.2-0.4c-0.3-0.4-0.6-0.9-1-1.1c-2-1.1-3.9-1.7-6.1-1.6c-2.5,0.1-4.6,0.9-6.7,2.4
	c-2.4,1.7-3.9,4.5-4.9,7.7c-0.4,1.4-0.4,3.1-0.6,4.8c0,1.1,0,2.3,0,3.4c0.1,0,0.2,0,0.3,0C45.2,101,45.2,99.8,45.3,98.5z"/>
<path class="st3" d="M46.2,104.2c-0.7-4.6,0.1-8.6,2.6-11.9c2.5-2.5,5.4-3.6,8.5-3.8c2.1-0.2,4.2,0.2,6.2,1.3
	c-0.1,0.4-0.1,0.7-0.2,0.9c0.5,0.5,0.9,1,1.3,1.4c-3.3-1.4-6.5-1.9-9.7-0.7c-4.1,1.6-7.2,7.4-6.2,12.8c-0.9,0.1-1.7,0.1-2.5,0.2
	C46.3,104.4,46.2,104.3,46.2,104.2z"/>
<path class="st22" d="M46.3,104.5c0.8-0.2,1.6-0.2,2.5-0.2c0.2,0.4,0.4,0.8,0.4,1.2c-0.1,0.2-0.2,0.3-0.2,0.4
	c0.6,1.8,1.3,3.4,2.5,4.7c0.7,0.7,1.4,1.4,2.1,2.1c-1.2-0.1-2.4-0.3-3.7-0.4c-0.2-0.2-0.3-0.4-0.5-0.5c-0.2-0.3-0.5-0.6-0.8-0.8
	c-0.7-1.5-1.3-2.9-1.9-4.4C46.6,106,46.5,105.3,46.3,104.5z"/>
<path class="st29" d="M99.7,59.8c1.6-1.2,3.1-2.2,4.7-3.3c0.5-0.3,1-0.5,1.5-0.6c-0.2,0.4-0.5,0.8-0.8,1.1c-1.1,0.9-1.6,2.4-1.3,4
	c0.2,1.5,1.2,1.6,2,2.1c-0.9,1.1-1.6,2.3-1.8,3.9c-1.3-0.7-2.6-1.4-3.8-2.1c-0.7-0.4-1.3-0.8-2-1.3C98.6,62.4,99.1,61.1,99.7,59.8z"
	/>
<path class="st10" d="M98.1,63.7c0.7,0.4,1.4,0.8,2,1.2c1.2,0.7,2.5,1.4,3.8,2.2c0.1,0.3,0.2,0.5,0.1,0.7c-0.3,0.5-0.4,0.9,0.2,1
	c-0.2,0.7-0.3,1.2-0.5,1.8c-2-0.7-3.4-2.3-5-3.9c-0.3-0.3-0.6-0.5-0.9-0.8c-0.1-0.4-0.1-0.6-0.1-1c0-0.2,0-0.3-0.1-0.5
	c0-0.1,0-0.2,0-0.2C97.9,64,98,63.9,98.1,63.7z"/>
<path class="st27" d="M97.8,64.1c0,0.1,0,0.2,0,0.3c-0.1,0.2-0.2,0.3-0.3,0.4c-0.1,0-0.1,0-0.2,0c-0.6,0.5-1.3,0.9-1.9,1.4
	c-0.2,0.2-0.5,0.3-0.8,0.4c-0.1,0-0.1-0.1-0.1-0.3c-0.1-1.2-0.1-2.3-0.2-3.3c0.1,0,0.2,0,0.4,0.1c0.1,0.6,0.1,1.1,0.2,1.9
	C95.5,63.5,96.8,63.1,97.8,64.1z"/>
<path class="st3" d="M103.9,70.7c0.1-0.6,0.3-1.2,0.5-2c0.1-0.5,0.1-0.8,0.3-1.1c0.2-0.1,0.3-0.1,0.5-0.1c0.5,0.4,0.9,0.7,1.5,1.2
	c1.6-2.4,3.7-3.4,6.6-2.4c-2.4-0.2-4.4,0.8-5.7,3.3c-0.2,0.3-0.4,0.7-0.6,1c-0.5,0.1-0.9,0.2-1.3,0.2c-0.5,0-1,0-1.5,0.1
	C103.9,70.9,103.9,70.8,103.9,70.7z"/>
<path class="st23" d="M112.4,70.2c0.4,0.1,0.7,0.2,1.1,0.3c0,0.1,0,0.3,0.1,0.4c-1.7,0.5-3.2,1.3-3.8,3.5c-1-0.9-0.9-1.9,0.4-3.4
	C111.3,71.5,112,71.2,112.4,70.2z"/>
<path class="st25" d="M112.4,70.1c-0.4,1.1-1.1,1.4-2.1,0.8c-0.1-0.2-0.1-0.3-0.1-0.5c0-0.1,0-0.3,0-0.3c0.4-0.2,0.8-0.4,1.3-0.5
	C111.7,69.6,112,69.9,112.4,70.1z"/>
<path class="st23" d="M110.1,70.1c0,0,0,0.1,0,0.2C110.1,70.3,110.1,70.2,110.1,70.1C110,70.2,110.1,70.1,110.1,70.1z"/>
<path class="st3" d="M89.3,67.1c0.1-0.8,0.1-1.5,0.2-2.3c0.6-0.4,1.3-0.6,2-0.9c0.6,2.3-0.7,2.9-2.1,3.4
	C89.3,67.2,89.3,67.1,89.3,67.1z"/>
<path class="st14" d="M94.3,62.9c0,1.1,0.1,2.2,0.1,3.3c-0.7,0.1-1.4,0.1-2.2,0c-0.1-0.8-0.2-1.6-0.3-2.5c0.1-0.2,0.2-0.3,0.3-0.4
	c0.2-0.3,0.4-0.6,0.6-0.9c0.4-0.5,0.8-0.7,1.4-0.2C94.4,62.4,94.4,62.6,94.3,62.9z"/>
<path class="st26" d="M105.1,67.4c-0.1,0.1-0.3,0.2-0.5,0.2c-0.2,0-0.3,0.1-0.4,0.1c0-0.2-0.1-0.4-0.1-0.7c0.1-1.7,0.8-2.9,1.8-4
	c0.2-0.1,0.3-0.1,0.5-0.1c1.3-0.4,2.6-0.8,3.8-1.3c0.2-0.1,0.3-0.5,0.5-0.8c0.2,0,0.4,0.1,0.6,0.2c0,0.4-0.1,0.8-0.1,1.2
	c-1,0.4-2,0.8-3.1,1.2c-0.3,0.2-0.4,0.4-0.6,0.6c-0.1,0.1-0.3,0.2-0.6,0.3c-0.2,0.2-0.4,0.4-0.5,0.6c-0.1,0.1-0.2,0.2-0.3,0.3
	c-0.2,0.2-0.3,0.4-0.3,0.6C105.5,66.4,105.3,66.9,105.1,67.4z"/>
<path class="st29" d="M106.4,65c0.1-0.2,0.2-0.4,0.4-0.6C106.8,64.6,106.6,64.8,106.4,65z"/>
<path class="st29" d="M107.5,64c0.1-0.2,0.2-0.4,0.4-0.6C107.8,63.7,107.7,63.8,107.5,64z"/>
<path class="st29" d="M105.8,65.9c0-0.2,0.1-0.3,0.2-0.5C106,65.5,105.9,65.7,105.8,65.9z"/>
<path class="st16" d="M66.5,109.8c0-0.1,0-0.2,0-0.3c0.1-0.1,0.1-0.1,0.2-0.2c0.5-1,1.1-1.3,2.1-0.6c0.1,0.1,0.1,0.2,0.2,0.4
	c0.1,0.6,0.2,1.1,0.3,1.8c0,0.2-0.1,0.4-0.2,0.6c-0.6,0.6-1.2,1.1-1.7,1.7C67,112.1,66.8,111,66.5,109.8z"/>
<path class="st23" d="M106.2,63c-0.1,0-0.2,0-0.3,0.1c-0.9-0.5-1.8-0.6-2.1-2.1c-0.3-1.6,0.2-3,1.3-4c0.3-0.3,0.6-0.7,0.9-1.1
	c0.8-0.3,1.7-0.6,2.6-0.8c0.6,0.3,1.2,0.5,1.7,1c0.6,0.7,1.3,1.5,1.7,2.5c0.5,1,0.1,1.9-0.7,2.5c-0.2,0-0.4-0.1-0.7-0.1
	c-1.2,0.3-2.3,0.5-3.3,0.9C106.8,62,106.5,62.6,106.2,63z M108.1,58.1c-0.3,0.2-0.7,0.4-1,0.7c-0.2,0.2-0.3,0.7-0.4,1
	c0.3,0.1,0.7,0.4,0.9,0.3c0.6-0.3,1.2-0.8,1.7-1.3c0.2-0.2,0.2-0.5,0.4-1.1C109.1,57.9,108.6,57.9,108.1,58.1z"/>
<path class="st10" d="M27.2,79.9c0.3-0.8,0.7-1.5,1-2.3c1.4-3.4,3.5-5.9,6.1-7.7c2.2-1.5,4.5-2.5,7-2.7c3.3-0.4,6.5,0.3,9.7,1.5
	c3.2,1.3,6.1,3.2,9,5.5c1.1,0.9,2.1,2.1,3.1,3.3c-0.2,0-0.4,0-0.6-0.1c-1.2-0.8-2.3-1.5-3.5-2.1c-2.6-1.5-5.3-2.3-8-2.7
	c-3.4-0.5-6.7-0.3-9.9,0.9c-2.9,1.1-5.5,2.7-7.5,5.3c-1.7,2.2-2.8,4.9-3.2,8c-1,0.3-1.5-0.6-1.9-1.4c-0.5-1-0.8-2.2-1.2-3.4
	c-0.1-0.4-0.1-0.8-0.2-1.2C27.1,80.4,27.2,80.2,27.2,79.9z"/>
<path class="st3" d="M30.5,86.7c0.3-3.2,1.4-5.8,3.1-8c2.1-2.6,4.7-4.3,7.5-5.3c3.2-1.2,6.5-1.4,9.9-0.9c2.7,0.4,5.4,1.2,8,2.7
	c1.2,0.7,2.3,1.4,3.5,2.2c0.1,0.5,0.2,0.9,0.2,1.2c-2.4-1.4-4.8-3.1-7.2-4.1c-3.1-1.3-6.2-2-9.4-1.2c-1.4,0.3-2.7,0.6-4.1,1
	c-2.2,0.6-4.1,1.8-5.7,3.6c-2.2,2.5-4,5.4-4.6,9.2c-0.1,0.9-0.4,1.7-0.6,2.5c0-0.5,0.1-0.9,0-1.3c-0.1-0.3-0.4-0.6-0.6-0.8
	C30.5,87.2,30.5,87,30.5,86.7z"/>
<path class="st22" d="M30.5,87.5c0.2,0.2,0.5,0.5,0.6,0.8c0.1,0.4,0,0.8,0,1.4c0.1,0.6,0.2,1.1,0.3,1.5c-0.1,0.7-0.2,1.4-0.2,2.1
	c0,0.3-0.1,0.7-0.1,1C30.5,92.1,30.1,89.9,30.5,87.5z"/>
<path class="st19" d="M67.3,113.2c0.5-0.6,1.1-1.1,1.7-1.6c0.4,0.3,0.7,0.6,1.1,1c0.3,2.1-1,1.8-2,2c-0.1,0-0.1,0-0.1-0.1
	c-0.2-0.4-0.4-0.8-0.6-1.1C67.3,113.4,67.3,113.3,67.3,113.2z"/>
<path class="st30" d="M31.5,91.3c-0.1-0.5-0.2-0.9-0.3-1.4c0.2-1,0.4-1.8,0.6-2.7c0.6-3.8,2.4-6.7,4.6-9.2c1.6-1.8,3.5-3,5.7-3.6
	c1.4-0.4,2.7-0.7,4.1-1c3.2-0.7,6.3-0.1,9.4,1.2c2.4,1,4.8,2.7,7.3,4.1c0.4,0.4,0.7,0.8,1,1.2c0.3,0.8,0.5,1.5,0.8,2.1
	c-2.7-1.9-5.4-4-8.5-5c-1.5-0.5-2.9-0.8-4.6-1.2c-0.5,0-0.8,0.1-1.2,0c-0.2-0.1-0.3-0.2-0.6-0.2c-0.3,0-0.5,0.1-0.7,0
	c-0.1,0-0.3,0-0.4,0.1c-0.3,0-0.5,0.1-0.7,0.1c-0.2-0.1-0.3-0.4-0.5-0.4c-3.4,0.2-6.7,1-9.5,3.2c-1.9,1.4-3.4,3.3-4.3,5.9
	c-0.7,2.1-0.8,4.3-0.6,6.6c0.1,0.9,0.2,1.8,0.3,2.8c-0.4-0.4-0.9-0.8-1.2-1.3C31.8,92.2,31.7,91.7,31.5,91.3z"/>
<path class="st10" d="M64.5,89c0.4-2,0.9-3.9,0.4-6.2c0.7,0.3,1.3,0.7,1.9,1.1c0.1,0.3,0.1,0.5,0.2,0.9c0.1,2.1,0.2,4-0.9,5.7
	c-0.6-0.3-1.1-0.6-1.6-1C64.5,89.2,64.5,89.1,64.5,89z"/>
<path class="st27" d="M63.9,79.8c-0.3-0.4-0.6-0.7-1-1.1c-0.2-0.4-0.3-0.8-0.3-1.2c0.2,0,0.4,0,0.6,0.1c0.1,0,0.1,0,0.1,0
	c0.1,0.1,0.2,0.1,0.2,0.2c0.3,0.3,0.5,0.7,1.1,0.2c0.9-0.8,2-0.4,2.8,0.7c0.4,0.6,0.9,1.2,1.3,1.9c-0.9,0-1.9,0-2.9,0
	C65.1,80.4,64.5,80.1,63.9,79.8z"/>
<path class="st3" d="M63.9,79.9c0.6,0.2,1.2,0.5,1.9,0.9c0.4,1,0.7,2,1,3.1c-0.6-0.3-1.2-0.7-1.9-1.1c-0.1-0.2-0.1-0.4-0.2-0.6
	C64.4,81.3,64.1,80.6,63.9,79.9z"/>
<path class="st27" d="M69.3,80.4c0.1,0,0.2,0,0.2,0.1c-0.1,0.1-0.2,0.2-0.3,0.2C69.2,80.6,69.2,80.5,69.3,80.4z"/>
<path class="st31" d="M53.7,112.7c-0.8-0.7-1.5-1.4-2.2-2.1c-1.2-1.2-2-2.9-2.5-4.7c0-0.1,0.1-0.3,0.3-0.4c1.7,1.9,3.5,3,5.7,2.8
	c0,0,0.1,0,0.2,0c0.6,1.3,1.2,2.6,1.8,4c-0.1,0.2-0.1,0.3-0.4,0.4c-0.5,0.1-0.8,0.2-1.2,0.2C54.8,112.9,54.3,112.8,53.7,112.7z"/>
<path class="st16" d="M58.3,111.6c-0.2-0.9-0.3-1.8-0.4-2.7c0.2,0,0.4,0,0.5,0.2c1,1.4,2,2.8,3,4.2c-0.6-0.2-1.3-0.5-1.9-0.9
	C59.1,112.2,58.7,111.9,58.3,111.6z"/>
<path class="st22" d="M55.4,113c0.3-0.1,0.7-0.2,1.1-0.3C56.5,113.9,56,113.7,55.4,113z"/>
<path class="st16" d="M72.9,73.1c0.3,0.2,0.5,0.4,0.9,0.7c0,0.4,0,0.7-0.1,1.1C73.4,74.4,73.2,73.8,72.9,73.1z"/>
<path class="st19" d="M97.3,64.9c0-0.1,0.1-0.1,0.2-0.1c0.2,0.1,0.3,0.1,0.4,0.1c0,0.3,0,0.5,0,0.9c0.2,1.4,0.5,2.8,0.7,4.3
	c-0.6,0.2-1.3,0.3-2.1,0.5c0-1.2,0.1-2.4,0.3-3.6C97,66.4,97.2,65.7,97.3,64.9z"/>
<path class="st27" d="M64.5,89.5c0.5,0.3,1,0.7,1.5,1c0.1,0.1,0.2,0.2,0.3,0.4c-0.3,0.5-0.6,1-1,1.5c-0.3-0.1-0.5-0.2-0.7-0.3
	c-0.4-0.5-0.9-0.9-1.4-1.4c0-0.2,0.1-0.5,0.2-0.9C64,89.6,64.3,89.6,64.5,89.5z"/>
<path class="st10" d="M64.7,92.1c0.3,0.1,0.4,0.2,0.7,0.4c0.3,0.2,0.5,0.4,0.7,0.6c-0.1,0.2-0.3,0.4-0.5,0.4c-3-0.5-5.8,0.1-8.1,2.2
	c-2.3,2-3.3,5.1-3.1,8.8c0.1,1.2,0.3,2.4,0.4,3.8c-2.1,0.3-3.9-0.8-5.6-2.8c-0.2-0.4-0.3-0.7-0.5-1.1c-1-5.5,2.1-11.3,6.1-12.9
	C58.2,90.2,61.4,90.7,64.7,92.1z"/>
<path class="st16" d="M67.2,113.4c0.3,0.3,0.5,0.7,0.7,1.1c-0.7,0.2-1.5,0.5-2.1-0.5C66.2,113.8,66.7,113.6,67.2,113.4z"/>
<path class="st16" d="M64.6,114.2c0.2-0.1,0.4-0.2,0.7-0.2C65.3,114.7,65.1,114.8,64.6,114.2z"/>
<path class="st32" d="M50.4,42.5c0.1-0.3,0.2-0.6,0.4-0.6c2.6,0.2,5.1,0.7,7.3,3c0.4,0.4,0.6,0.9,1,1.4c-0.1,0.1-0.1,0.3-0.2,0.4
	c-0.5-0.1-1.1-0.1-1.5-0.4C55.3,44.5,52.9,43.4,50.4,42.5z"/>
<path class="st25" d="M72.4,50.4c-0.2-0.6-0.3-1.1-0.5-1.7c1.3,0.3,3.8,4.8,3.8,6.8C74.1,54.3,73.4,52.3,72.4,50.4z"/>
<path class="st32" d="M43.1,58.8c-1.6,0.1-3.1,0.3-4.6,0.4c0-0.1-0.1-0.3-0.1-0.4c0.3-0.2,0.5-0.5,0.8-0.7c1.7-1.1,3.6-1.5,5.6-1.2
	c1.6,0.2,3.3,0.2,4.8,1.4c0.3,0.2,0.5,0.7,0.8,1c-0.4,0.1-0.7,0.4-1.1,0.3c-1.7-0.3-3.4-0.6-5.1-0.9C43.8,58.7,43.5,58.7,43.1,58.8z
	"/>
<path class="st25" d="M36.9,60c0.1,0.4,0.2,1,0.2,1c-0.5,0.1-1.1,0.2-1.6,0.1c-0.1,0-0.3-0.6-0.2-0.7c0.3-0.3,0.6-0.5,0.9-0.7
	C36.3,59.7,36.6,59.9,36.9,60z"/>
<path class="st10" d="M63.5,77.7c0,0-0.1,0-0.2-0.1C63.3,77.6,63.4,77.6,63.5,77.7z"/>
<path class="st23" d="M32.5,67.3c0,0.1-0.1,0.2-0.3,0.3C32.3,67.6,32.4,67.4,32.5,67.3z"/>
<path class="st32" d="M80.8,41c0.4,0.6,0.7,1.1,1,1.6c0.2,0.4,0.1,0.9,0.1,1.4c-0.4-0.1-0.9-0.2-1.1-0.5c-0.8-1.3-1.6-2.6-2.3-4
	c-0.3-0.6-0.6-1.3-0.7-2.1C79.2,38.1,79.8,39.7,80.8,41z"/>
<path class="st25" d="M83.6,50.7c-0.4-1.2-0.8-2.4-1.1-3.5c-0.1-0.2,0.1-0.5,0.2-0.7c0.2,0.1,0.6,0.2,0.7,0.4
	c0.5,1.1,0.9,2.3,1.3,3.5c0.1,0.3-0.1,0.7-0.2,1.1C84.2,51.2,84,51,83.6,50.7z"/>
<path class="st32" d="M95,45.4c0.2-1,0.3-2,0.5-2.9c0.1-0.3,0.4-0.6,0.6-0.6c0.2,0,0.6,0.5,0.6,0.7c0,1.3,0,2.7-0.1,4
	c0,0.3-0.4,0.6-0.7,0.9c-0.3-0.4-0.6-0.8-0.8-1.2C95,46.2,95,45.8,95,45.4z"/>
<path class="st28" d="M53,76.5c0.2,0.1,0.4,0.1,0.9,0.2c-0.4,0.2-0.7,0.3-1.2,0.5c2.9,0.7,5.4,1.7,7.3,4.6c-1.4,0.4-2.5,0.8-3.6,1.1
	c-4.6,1.1-8.6,3.5-11.8,7.6c-0.8,1-1.5,2.3-2.3,3.2c-2.2,2.3-4.6-0.1-5.4-2.7c-1.1-3.8-0.3-6.8,2.1-9.2c-0.3,0-0.5,0-0.6,0
	c-0.1,0-0.2,0.1-0.5-0.1c0.2-0.2,0.4-0.4,0.6-0.5c1.1-0.3,2.1-0.8,3-1.1c2.6-0.8,5.2-1.6,7.8-2.4C50.7,77.3,51.9,76.9,53,76.5z
	 M49.9,83.7c0.8-0.1,1.5-0.2,2.3-0.2c0-0.2,0-0.3,0-0.5c-0.6-0.7-1.4-0.6-2.2-0.6c-0.1-0.1-0.2-0.1-0.3-0.2c0,0.1,0,0.3-0.2,0.5
	c0,0.1,0,0.3-0.2,0.5c-0.3,0-0.6,0.1-1,0.2c-0.1,0-0.2,0-0.3-0.1c-0.1,0.1-0.2,0.1-0.5,0.2c-0.2,0-0.4,0.1-0.7,0
	c-0.2,0.2-0.3,0.3-0.6,0.5c-3,3.1-3.3,3.7-2.9,4.7c1.5-1.1,2.9-2.1,4.5-3.1c0.7,0.2,0.9-0.3,1-1.2c0.1-0.2,0.2-0.5,0.4-0.7
	C49.3,83.6,49.5,83.6,49.9,83.7z"/>
<path class="st26" d="M45,98.7c0.2-1.6,0.1-3.2,0.5-4.6c0.9-3.2,2.4-6,4.9-7.7c2-1.4,4.2-2.3,6.7-2.4c2.2-0.1,4.1,0.6,6,1.6
	c0.4,0.2,0.7,0.7,1,1.1c-0.1,0.1-0.1,0.3-0.2,0.4c-0.4-0.1-0.8-0.2-1.2-0.4c-3.9-1.7-7.7-1.9-11.2,0.4c-2.9,1.9-4.7,5.1-5.7,9
	c-0.2,0.8-0.3,1.6-0.6,2.4C45.1,98.7,45.1,98.7,45,98.7z"/>
<path class="st33" d="M52.9,76.5c-1.1,0.4-2.3,0.8-3.4,1.1c-2.6,0.8-5.2,1.6-7.8,2.4c-1,0.3-1.9,0.8-3,1.1c1.8-2.6,4-4.2,6.8-4.7
	c0.8-0.1,1.5-0.4,2.4-0.7c0.3-0.1,0.5-0.1,0.8-0.1c0.2,0,0.3-0.1,0.4-0.1c0.2,0,0.4-0.1,0.7,0c0.3,0.1,0.4,0.2,0.6,0.2
	c0.3,0,0.7-0.1,1.1-0.1C52,76,52.5,76.3,52.9,76.5z"/>
<path class="st9" d="M64.5,89.4c-0.3,0.1-0.5,0.2-0.9,0.3c-2.1-1-4.2-1.4-6.3-1.2c-3.1,0.3-6,1.4-8.5,3.8c0.8-1,1.5-2.2,2.4-2.9
	c3.1-2.1,6.4-2.9,10.1-1.6c1,0.3,2,0.9,3,1.3C64.5,89.1,64.5,89.2,64.5,89.4z"/>
<path class="st23" d="M45,98.7c0.1-0.1,0.1-0.1,0.2-0.1c0.1,1.2,0.1,2.4,0.1,3.6c-0.1,0-0.2,0-0.3,0C44.9,101.1,44.9,99.9,45,98.7z"
	/>
<path class="st29" d="M104.1,67.8c0.1-0.1,0.2-0.1,0.4-0.1c0,0.3,0,0.6-0.1,1C103.7,68.7,103.9,68.3,104.1,67.8z"/>
<path class="st13" d="M97.9,64.9c-0.1,0.1-0.2,0-0.4-0.1c0-0.2,0.1-0.2,0.2-0.4C97.9,64.6,97.9,64.7,97.9,64.9z"/>
<path class="st33" d="M106.3,63c0.2-0.4,0.5-1,0.9-1.1c1-0.4,2.1-0.6,3.3-0.9c-0.1,0.3-0.2,0.7-0.4,0.8
	C108.9,62.2,107.6,62.5,106.3,63z"/>
<path class="st25" d="M108.2,58.1c0.5-0.1,0.9-0.2,1.6-0.3c-0.2,0.5-0.3,0.9-0.4,1.1c-0.5,0.5-1.1,0.9-1.7,1.3
	c-0.2,0.1-0.6-0.2-0.9-0.3c0.1-0.3,0.2-0.8,0.4-1C107.4,58.5,107.8,58.4,108.2,58.1z"/>
<path class="st29" d="M50.4,75.8c-0.1,0-0.3,0-0.5-0.2C50.1,75.6,50.3,75.7,50.4,75.8z"/>
<path class="st29" d="M49.1,75.6c-0.1,0.1-0.2,0.2-0.3,0.1C48.9,75.6,49,75.6,49.1,75.6z"/>
<path class="st32" d="M49,83.7c-0.1,0.2-0.2,0.5-0.3,0.8c-0.4,0.4-0.7,0.7-1,1c-1.5,1.1-2.9,2.1-4.4,3.2c-0.4-1.1,0-1.6,3.1-4.8
	c0.3-0.1,0.4-0.3,0.6-0.4c0.2,0,0.4-0.1,0.8-0.1c0.2,0,0.3-0.1,0.4-0.1c0.1,0,0.2,0,0.4,0C48.7,83.5,48.8,83.6,49,83.7z"/>
<path class="st25" d="M50,82.5c0.7-0.1,1.5-0.2,2.1,0.5c0,0.2,0,0.3,0,0.5c-0.8,0.1-1.5,0.2-2.4,0.1c-0.2-0.2-0.2-0.4-0.3-0.5
	c0-0.1,0-0.3,0.2-0.5C49.8,82.5,49.9,82.5,50,82.5z"/>
<path class="st33" d="M47.7,85.5c0.3-0.4,0.6-0.7,0.9-1C48.7,85.3,48.5,85.8,47.7,85.5z"/>
<path class="st33" d="M49.4,83.1c0.1,0.1,0.2,0.2,0.3,0.4c-0.2,0.1-0.4,0.1-0.7,0.2c-0.2-0.1-0.4-0.2-0.5-0.4
	C48.8,83.2,49,83.2,49.4,83.1z"/>
<path class="st33" d="M46.8,83.5c-0.1,0.2-0.2,0.3-0.4,0.4C46.5,83.7,46.6,83.6,46.8,83.5z"/>
<path class="st33" d="M48.1,83.2c-0.1,0.1-0.2,0.1-0.3,0.1C47.8,83.3,47.9,83.2,48.1,83.2z"/>
<path class="st33" d="M50,82.4c-0.1,0.1-0.2,0.1-0.3,0.1c0-0.1,0-0.3,0-0.4C49.7,82.2,49.8,82.3,50,82.4z"/>
</svg>
