<svg width="167" height="233" viewBox="0 0 167 233" fill="none" xmlns="http://www.w3.org/2000/svg">
<g filter="url(#filter0_d_167_3)">
<path d="M4 219.122V5.8258C4 2.60975 6.55235 0 9.69766 0H156.427C159.573 0 162.125 2.60975 162.125 5.8258V219.122C162.125 222.338 159.573 224.948 156.427 224.948H9.69766C6.55235 224.948 4 222.338 4 219.122Z" fill="white"/>
</g>
<path d="M36.92 186.794C36.92 187.424 35.588 188.09 33.59 188.09C31.268 188.09 30.152 187.028 30.152 184.724C30.152 182.438 31.466 180.764 33.95 180.764C35.912 180.764 36.902 181.844 36.902 183.086C36.902 184.22 36.596 184.544 36.326 184.544H31.304C31.304 186.398 31.898 187.262 33.914 187.262C34.724 187.262 35.804 186.92 36.56 186.326C36.83 186.416 36.92 186.578 36.92 186.794ZM35.804 183.824C35.84 183.608 35.858 183.41 35.858 183.23C35.858 182.276 35.084 181.574 33.662 181.574C32.222 181.574 31.52 182.528 31.34 183.824H35.804ZM43.562 178.532C43.562 178.874 43.382 179.234 42.77 179.234C42.23 179.234 41.996 179.018 41.996 178.568C41.996 178.172 42.32 177.866 42.842 177.866C43.4 177.866 43.562 178.19 43.562 178.532ZM42.158 187.154V185.228C42.158 184.238 42.176 182.762 42.194 181.772H39.62C39.566 181.682 39.548 181.592 39.548 181.484C39.548 181.088 40.034 180.926 41.456 180.926C43.13 180.926 43.31 181.124 43.31 181.43L43.292 187.154L45.83 187.118C45.902 187.244 45.938 187.442 45.938 187.568C45.938 187.838 45.722 188.018 45.326 188.018C45.182 188.018 39.26 188 39.188 188C39.098 187.928 39.044 187.784 39.044 187.64C39.044 187.298 39.314 187.172 39.53 187.172C39.818 187.154 42.158 187.154 42.158 187.154ZM49.988 181.142C49.988 178.334 50.474 177.434 52.256 177.434C53.48 177.434 54.272 177.704 54.272 178.226C54.272 178.388 54.182 178.64 54.02 178.766C53.444 178.514 52.886 178.37 52.238 178.37C51.14 178.37 51.086 178.658 51.086 181.142L54.452 181.124C54.488 181.196 54.542 181.322 54.542 181.448C54.542 181.862 54.29 182.042 53.606 182.042C53.228 182.042 51.806 182.042 51.068 182.024V187.19L54.38 187.154C54.452 187.28 54.488 187.442 54.488 187.568C54.488 187.838 54.272 188.018 53.876 188.018C53.732 188.018 48.278 188 48.206 188C48.116 187.928 48.062 187.784 48.062 187.64C48.062 187.298 48.332 187.208 48.548 187.208C48.836 187.19 49.934 187.19 49.934 187.19V185.228C49.934 184.238 49.952 182.996 49.97 182.006L48.044 181.988C47.954 181.916 47.9 181.772 47.9 181.628C47.9 181.286 48.17 181.16 48.386 181.16C48.674 181.142 49.988 181.142 49.988 181.142ZM58.988 181.142C58.988 178.334 59.474 177.434 61.256 177.434C62.48 177.434 63.272 177.704 63.272 178.226C63.272 178.388 63.182 178.64 63.02 178.766C62.444 178.514 61.886 178.37 61.238 178.37C60.14 178.37 60.086 178.658 60.086 181.142L63.452 181.124C63.488 181.196 63.542 181.322 63.542 181.448C63.542 181.862 63.29 182.042 62.606 182.042C62.228 182.042 60.806 182.042 60.068 182.024V187.19L63.38 187.154C63.452 187.28 63.488 187.442 63.488 187.568C63.488 187.838 63.272 188.018 62.876 188.018C62.732 188.018 57.278 188 57.206 188C57.116 187.928 57.062 187.784 57.062 187.64C57.062 187.298 57.332 187.208 57.548 187.208C57.836 187.19 58.934 187.19 58.934 187.19V185.228C58.934 184.238 58.952 182.996 58.97 182.006L57.044 181.988C56.954 181.916 56.9 181.772 56.9 181.628C56.9 181.286 57.17 181.16 57.386 181.16C57.674 181.142 58.988 181.142 58.988 181.142ZM72.92 186.794C72.92 187.424 71.588 188.09 69.59 188.09C67.268 188.09 66.152 187.028 66.152 184.724C66.152 182.438 67.466 180.764 69.95 180.764C71.912 180.764 72.902 181.844 72.902 183.086C72.902 184.22 72.596 184.544 72.326 184.544H67.304C67.304 186.398 67.898 187.262 69.914 187.262C70.724 187.262 71.804 186.92 72.56 186.326C72.83 186.416 72.92 186.578 72.92 186.794ZM71.804 183.824C71.84 183.608 71.858 183.41 71.858 183.23C71.858 182.276 71.084 181.574 69.662 181.574C68.222 181.574 67.52 182.528 67.34 183.824H71.804ZM77.15 187.19V178.352H75.35C75.296 178.262 75.26 178.172 75.26 178.064C75.26 177.668 75.998 177.506 77.222 177.506C77.672 177.506 78.05 177.542 78.302 177.596L78.266 178.514V187.172L81.236 187.154C81.308 187.28 81.344 187.442 81.344 187.568C81.344 187.91 81.056 188.036 79.292 188.036C77.492 188.036 77.15 187.946 77.15 187.19ZM99.992 187.046C99.992 187.784 98.714 188.09 96.824 188.09C95.42 188.09 94.592 187.586 94.592 186.092C94.592 184.85 94.61 183.23 94.628 181.88L92.666 181.862C92.612 181.772 92.576 181.664 92.576 181.538C92.576 181.106 93.044 180.998 94.646 180.998L94.628 179.306C94.628 178.91 94.79 178.586 95.204 178.586C95.474 178.586 95.636 178.64 95.762 178.694L95.744 180.998H99.578C99.614 181.07 99.668 181.214 99.668 181.34C99.668 181.772 99.416 181.916 98.732 181.916C98.354 181.916 96.464 181.916 95.744 181.898V185.786C95.726 186.866 96.086 187.208 97.112 187.208C98.336 187.208 98.966 186.974 99.632 186.578C99.884 186.65 99.992 186.812 99.992 187.046ZM108.866 184.184C108.866 186.83 107.534 188.09 105.338 188.09C102.998 188.09 102.116 186.992 102.116 184.706C102.116 182.204 103.466 180.764 105.716 180.764C107.984 180.764 108.866 181.97 108.866 184.184ZM107.75 184.346C107.75 182.672 107.264 181.592 105.626 181.592C104.024 181.592 103.232 182.492 103.232 184.562C103.232 186.434 103.7 187.244 105.5 187.244C107.048 187.244 107.75 186.218 107.75 184.346ZM118.712 181.394C118.712 181.682 118.658 181.97 118.586 182.33L117.38 188C117.2 188.054 116.984 188.09 116.732 188.09C116.228 188.09 115.94 187.982 115.76 187.388L114.464 183.14L112.97 188C112.79 188.054 112.628 188.09 112.376 188.09C111.926 188.09 111.602 188.054 111.512 187.352L110.378 181.25C110.432 181.034 110.738 180.926 110.972 180.926C111.332 180.926 111.44 181.124 111.566 181.79L112.538 187.082L114.176 181.718C114.284 181.682 114.446 181.664 114.536 181.664C114.86 181.664 115.076 181.808 115.22 182.276L116.75 187.028L117.902 180.98C117.992 180.944 118.136 180.908 118.226 180.908C118.55 180.908 118.712 181.088 118.712 181.394ZM126.92 186.794C126.92 187.424 125.588 188.09 123.59 188.09C121.268 188.09 120.152 187.028 120.152 184.724C120.152 182.438 121.466 180.764 123.95 180.764C125.912 180.764 126.902 181.844 126.902 183.086C126.902 184.22 126.596 184.544 126.326 184.544H121.304C121.304 186.398 121.898 187.262 123.914 187.262C124.724 187.262 125.804 186.92 126.56 186.326C126.83 186.416 126.92 186.578 126.92 186.794ZM125.804 183.824C125.84 183.608 125.858 183.41 125.858 183.23C125.858 182.276 125.084 181.574 123.662 181.574C122.222 181.574 121.52 182.528 121.34 183.824H125.804ZM130.088 187.19V185.228C130.088 184.238 130.088 182.726 130.124 181.772H128.72C128.666 181.682 128.63 181.592 128.63 181.484C128.63 181.142 128.99 180.926 130.214 180.926C130.664 180.926 131.042 180.962 131.294 181.016L131.186 183.554C133.04 180.746 133.526 180.782 134.516 180.782C135.344 180.782 136.118 181.394 136.118 182.636C136.118 183.086 135.902 183.482 135.398 183.482C135.308 183.482 135.218 183.464 135.128 183.446C135.002 182.078 134.786 181.664 134.318 181.664C133.724 181.664 133.202 181.772 131.222 184.634V187.19L133.976 187.154C134.048 187.28 134.084 187.442 134.084 187.568C134.084 187.838 133.868 188.018 133.472 188.018C133.328 188.018 129.314 188 129.242 188C129.152 187.928 129.098 187.784 129.098 187.64C129.098 187.298 129.368 187.208 129.584 187.208C129.872 187.19 130.088 187.19 130.088 187.19ZM50.78 209.082C50.834 209.136 50.888 209.28 50.888 209.424C50.888 209.712 50.726 210.072 49.934 210.072C49.124 210.072 48.62 209.694 48.62 208.416C48.512 209.406 47.54 210.072 45.92 210.072C44.336 210.072 43.742 209.226 43.742 208.164C43.742 206.922 44.354 205.932 46.478 205.932C46.946 205.932 47.99 205.986 48.674 206.076L48.692 205.158C48.71 204.15 48.062 203.7 46.856 203.7C46.082 203.7 45.398 203.916 44.678 204.492C44.282 204.438 44.156 204.258 44.156 203.952C44.156 203.412 45.182 202.764 47.036 202.764C48.836 202.764 49.772 203.556 49.772 205.032L49.736 208.236C49.718 208.812 49.88 209.118 50.438 209.118C50.546 209.118 50.654 209.1 50.78 209.082ZM48.638 206.796C48.062 206.688 47.306 206.652 46.712 206.652C45.344 206.652 44.858 207.066 44.858 208.038C44.858 208.794 45.29 209.28 46.262 209.28C47.27 209.28 48.062 208.848 48.62 208.11L48.638 206.796ZM59.492 209.046C59.492 209.784 58.214 210.09 56.324 210.09C54.92 210.09 54.092 209.586 54.092 208.092C54.092 206.85 54.11 205.23 54.128 203.88L52.166 203.862C52.112 203.772 52.076 203.664 52.076 203.538C52.076 203.106 52.544 202.998 54.146 202.998L54.128 201.306C54.128 200.91 54.29 200.586 54.704 200.586C54.974 200.586 55.136 200.64 55.262 200.694L55.244 202.998H59.078C59.114 203.07 59.168 203.214 59.168 203.34C59.168 203.772 58.916 203.916 58.232 203.916C57.854 203.916 55.964 203.916 55.244 203.898V207.786C55.226 208.866 55.586 209.208 56.612 209.208C57.836 209.208 58.466 208.974 59.132 208.578C59.384 208.65 59.492 208.812 59.492 209.046ZM77.222 207.858C77.222 208.992 76.34 210.054 73.928 210.054C71.534 210.054 70.58 209.514 70.58 208.866C70.58 208.65 70.742 208.416 71.048 208.344C71.534 208.83 72.938 209.226 73.964 209.226C75.62 209.226 76.142 208.812 76.142 208.128C76.142 207.552 75.872 207.336 74.954 207.174C73.946 206.994 72.632 206.796 72.218 206.652C71.264 206.328 70.904 205.878 70.904 204.996C70.904 203.664 72.182 202.764 74.306 202.764C75.872 202.764 77.114 203.196 77.114 203.844C77.114 204.078 76.97 204.258 76.664 204.384C76.142 203.934 75.062 203.61 74.162 203.61C72.614 203.61 71.966 204.114 71.966 204.834C71.966 205.446 72.164 205.716 73.244 205.95C73.766 206.058 74.882 206.22 75.656 206.364C76.808 206.58 77.222 207.03 77.222 207.858ZM80.156 203.772H79.112C79.058 203.682 79.022 203.592 79.022 203.484C79.022 203.142 79.346 202.926 80.228 202.926C81.236 202.926 81.254 203.034 81.254 203.664C81.254 204.222 81.164 207.228 81.164 207.714C81.164 208.776 81.362 209.298 82.604 209.298C83.36 209.298 84.35 208.812 84.764 208.182V203.52C84.764 203.124 84.944 202.944 85.376 202.944C85.61 202.944 85.736 202.98 85.88 203.052V209.208H86.834C86.888 209.28 86.906 209.37 86.906 209.496C86.906 209.928 86.528 210.054 85.754 210.054C85.304 210.054 84.944 210.018 84.692 209.964L84.782 208.578C84.692 209.532 83.45 210.18 82.244 210.18C80.57 210.18 80.066 209.532 80.066 207.93C80.066 207.282 80.12 205.32 80.156 203.772ZM96.248 209.514C96.248 209.946 95.78 210.054 94.844 210.054C93.962 210.054 93.854 210.018 93.854 209.064C93.854 208.506 93.908 205.734 93.908 205.248C93.908 204.132 93.512 203.664 92.234 203.664C91.478 203.664 90.578 204.15 90.164 204.78V209.964C90.056 210.018 89.876 210.054 89.606 210.054C89.102 210.054 89.03 209.874 89.03 209.28V207.228C89.03 206.238 89.03 204.726 89.066 203.772H87.842C87.788 203.682 87.752 203.592 87.752 203.484C87.752 203.142 87.932 202.926 89.156 202.926C89.606 202.926 89.984 202.962 90.236 203.016L90.128 204.384C90.218 203.448 91.352 202.782 92.594 202.782C94.268 202.782 95.006 203.448 95.006 205.032C95.006 205.698 94.988 207.66 94.952 209.19H96.176C96.23 209.298 96.248 209.406 96.248 209.514ZM104.222 207.858C104.222 208.992 103.34 210.054 100.928 210.054C98.534 210.054 97.58 209.514 97.58 208.866C97.58 208.65 97.742 208.416 98.048 208.344C98.534 208.83 99.938 209.226 100.964 209.226C102.62 209.226 103.142 208.812 103.142 208.128C103.142 207.552 102.872 207.336 101.954 207.174C100.946 206.994 99.632 206.796 99.218 206.652C98.264 206.328 97.904 205.878 97.904 204.996C97.904 203.664 99.182 202.764 101.306 202.764C102.872 202.764 104.114 203.196 104.114 203.844C104.114 204.078 103.97 204.258 103.664 204.384C103.142 203.934 102.062 203.61 101.162 203.61C99.614 203.61 98.966 204.114 98.966 204.834C98.966 205.446 99.164 205.716 100.244 205.95C100.766 206.058 101.882 206.22 102.656 206.364C103.808 206.58 104.222 207.03 104.222 207.858ZM113.42 208.794C113.42 209.424 112.088 210.09 110.09 210.09C107.768 210.09 106.652 209.028 106.652 206.724C106.652 204.438 107.966 202.764 110.45 202.764C112.412 202.764 113.402 203.844 113.402 205.086C113.402 206.22 113.096 206.544 112.826 206.544H107.804C107.804 208.398 108.398 209.262 110.414 209.262C111.224 209.262 112.304 208.92 113.06 208.326C113.33 208.416 113.42 208.578 113.42 208.794ZM112.304 205.824C112.34 205.608 112.358 205.41 112.358 205.23C112.358 204.276 111.584 203.574 110.162 203.574C108.722 203.574 108.02 204.528 107.84 205.824H112.304ZM122.492 209.046C122.492 209.784 121.214 210.09 119.324 210.09C117.92 210.09 117.092 209.586 117.092 208.092C117.092 206.85 117.11 205.23 117.128 203.88L115.166 203.862C115.112 203.772 115.076 203.664 115.076 203.538C115.076 203.106 115.544 202.998 117.146 202.998L117.128 201.306C117.128 200.91 117.29 200.586 117.704 200.586C117.974 200.586 118.136 200.64 118.262 200.694L118.244 202.998H122.078C122.114 203.07 122.168 203.214 122.168 203.34C122.168 203.772 121.916 203.916 121.232 203.916C120.854 203.916 118.964 203.916 118.244 203.898V207.786C118.226 208.866 118.586 209.208 119.612 209.208C120.836 209.208 121.466 208.974 122.132 208.578C122.384 208.65 122.492 208.812 122.492 209.046Z" fill="#1A1A3D"/>
<defs>
<filter id="filter0_d_167_3" x="0" y="0" width="166.125" height="232.948" filterUnits="userSpaceOnUse" color-interpolation-filters="sRGB">
<feFlood flood-opacity="0" result="BackgroundImageFix"/>
<feColorMatrix in="SourceAlpha" type="matrix" values="0 0 0 0 0 0 0 0 0 0 0 0 0 0 0 0 0 0 127 0" result="hardAlpha"/>
<feOffset dy="4"/>
<feGaussianBlur stdDeviation="2"/>
<feComposite in2="hardAlpha" operator="out"/>
<feColorMatrix type="matrix" values="0 0 0 0 0 0 0 0 0 0 0 0 0 0 0 0 0 0 0.25 0"/>
<feBlend mode="normal" in2="BackgroundImageFix" result="effect1_dropShadow_167_3"/>
<feBlend mode="normal" in="SourceGraphic" in2="effect1_dropShadow_167_3" result="shape"/>
</filter>
</defs>
</svg>
