<?xml version="1.0" encoding="utf-8"?>
<!-- Generator: Adobe Adobe Illustrator 24.2.0, SVG Export Plug-In . SVG Version: 6.00 Build 0)  -->
<svg version="1.1" id="Layer_1" xmlns="http://www.w3.org/2000/svg" xmlns:xlink="http://www.w3.org/1999/xlink" x="0px" y="0px"
	 viewBox="0 0 500 500" style="enable-background:new 0 0 500 500;" xml:space="preserve">
<style type="text/css">
	.st0{fill:#1A1A3D;}
	.st1{fill:#E9B89B;}
	.st2{fill:#C6937B;}
	.st3{fill:#C5927B;}
	.st4{fill:#F61B22;}
	.st5{fill:#CA957D;}
	.st6{fill:#F61C23;}
	.st7{fill:#C8937B;}
	.st8{fill:#E9B79B;}
	.st9{fill:#E8B79A;}
	.st10{fill:#FDD9D4;}
	.st11{fill:#FDC9C5;}
	.st12{fill:#E8B69A;}
	.st13{fill:#FDD7D2;}
	.st14{fill:#C9957D;}
</style>
<g>
	<path class="st0" d="M140.1,436.52c-2.96-1.54-5.96-3.02-8.88-4.64c-7.93-4.4-15.54-9.32-22.74-14.84c-3.75-2.87-7.48-5.8-11-8.95
		c-4.78-4.28-9.5-8.65-13.97-13.24c-9.23-9.47-17.3-19.89-24.41-31.05c-8.77-13.76-15.83-28.36-21.09-43.82
		c-3.06-9.01-5.61-18.16-7.25-27.54c-0.82-4.67-1.62-9.36-2.16-14.07c-0.58-4.97-0.99-9.98-1.22-14.98
		c-0.25-5.48-0.38-10.98-0.23-16.45c0.14-4.97,0.56-9.95,1.2-14.88c0.87-6.73,1.88-13.46,3.17-20.13
		c2.4-12.36,6.27-24.29,11.07-35.92c5.47-13.26,12.22-25.84,20.46-37.56c4.01-5.7,8.3-11.24,12.79-16.58
		c4.15-4.93,8.61-9.63,13.18-14.18c5.71-5.69,11.9-10.85,18.32-15.76c11.08-8.46,22.9-15.7,35.46-21.71
		c7.14-3.42,14.42-6.54,21.94-9.04c9.19-3.06,18.51-5.61,28.02-7.4c4.42-0.83,8.89-1.39,13.35-2.01c7.87-1.11,15.79-1.55,23.74-1.52
		c4.71,0.02,9.43,0.07,14.13,0.33c4.23,0.24,8.48,0.56,12.65,1.24c7.56,1.23,15.13,2.53,22.59,4.23
		c11.69,2.66,22.97,6.64,33.94,11.47c13.25,5.84,25.82,12.92,37.43,21.57c5.96,4.44,11.75,9.14,17.26,14.12
		c5.33,4.81,10.43,9.92,15.26,15.24c8.89,9.79,16.61,20.48,23.32,31.88c8.29,14.09,14.86,28.94,19.58,44.6
		c2.35,7.81,4.36,15.7,5.62,23.76c0.72,4.65,1.43,9.31,1.93,13.98c0.48,4.46,0.76,8.95,0.98,13.43c0.2,4.02,0.35,8.05,0.23,12.06
		c-0.15,4.98-0.52,9.95-0.96,14.91c-0.37,4.25-0.82,8.51-1.49,12.72c-1.41,8.88-3.39,17.64-5.96,26.27
		c-4,13.43-9.3,26.32-15.94,38.66c-5.25,9.74-11.25,18.99-18.01,27.76c-6.2,8.05-12.92,15.63-20.26,22.65
		c-11.53,11.02-24.14,20.62-37.92,28.69c-13.63,7.98-27.93,14.49-43.08,18.96c-7.57,2.23-15.28,4-22.99,5.73
		c-3.91,0.88-7.93,1.31-11.92,1.77c-4.49,0.52-9,0.95-13.51,1.22c-4.82,0.29-9.66,0.35-14.58,0.4c0.31-1.11,0.73-2.12,1.1-3.14
		c1.11-2.99,2.13-6.01,3.32-8.96c1-2.48,2.37-4.82,3.27-7.33c1.95-5.43,3.74-10.91,5.51-16.4c2.87-8.91,5.27-17.93,6.83-27.18
		c0.24-1.43,0.44-2.97,1.1-4.22c2.01-3.81,3.93-7.71,6.43-11.19c5.42-7.58,9.77-15.59,12.26-24.62c1.28-4.65,3.15-9.13,4.61-13.74
		c1.07-3.36,1.95-6.79,2.8-10.21c0.67-2.71,1.06-5.5,1.77-8.2c0.57-2.19,1.47-4.3,2.15-6.46c1.82-5.73,3.56-11.49,5.41-17.21
		c2.01-6.22,4.27-12.38,5.27-18.88c0.98-6.34,2.17-12.67,2.66-19.05c0.87-11.18,1.41-22.39,1.84-33.59
		c0.3-7.96,0.12-15.94,0.28-23.9c0.23-11.85-0.2-23.66-1.36-35.45c-0.04-0.43,0.03-0.89,0.15-1.3c2.45-8.56,4.95-17.11,7.38-25.67
		c0.88-3.09,1.73-6.2,2.37-9.34c1.12-5.53,2.11-11.09,3.07-16.64c0.95-5.48,0.91-10.94-1.05-16.23c-1.29-3.49-3.63-6.27-7.12-7.43
		c-5.24-1.74-10.2-0.58-14.23,3.23c-3.09,2.92-5.03,6.65-6.33,10.7c-0.19,0.59-0.47,1.14-0.71,1.75c-1.45-1-2.65-2.02-4.01-2.7
		c-1.4-0.7-2.94-1.16-4.47-1.56c-4.42-1.17-10.28,1.36-12.05,5.55c-0.92,2.17-1.36,4.72-1.32,7.09c0.1,6.09,0.48,12.19,0.94,18.26
		c0.47,6.32,1.16,12.63,1.74,18.95c0.04,0.48,0.09,1-0.05,1.45c-0.61,1.97-1.27,3.93-1.95,5.88c-1.79,5.09-3.57,10.19-5.42,15.26
		c-1.05,2.9-2.22,5.75-3.34,8.62c-1.52,3.89-2.97,7.82-4.58,11.67c-1.91,4.57-3.96,9.08-5.94,13.61c-0.19,0.44-0.36,0.9-0.66,1.65
		c-0.21-0.66-0.29-0.97-0.39-1.26c-0.82-2.42-1.62-4.84-2.47-7.25c-1.83-5.2-6.1-7.5-10.99-8.64c-6.17-1.45-11.52,0.72-16.25,4.65
		c-2.72,2.26-4.07,5.43-5.57,8.57c-2.67,0.19-4.4,1.79-6.14,3.46c-6.55-1.78-12.46-0.71-17.48,3.81c-4.43,3.99-7.54,9.05-10.37,14.2
		c-3.24,5.9-6.12,11.98-8.11,18.47c-1.58,5.14-3.12,10.27-3.41,15.67c-0.21,3.98-0.32,7.96-0.38,11.94
		c-0.09,5.78-0.86,11.48-1.71,17.19c-0.89,5.98-1.45,12-2.16,18.01c-1.07,9.04-1.17,18.08-0.09,27.12
		c0.63,5.28,1.82,10.52,2.18,15.81c0.34,4.95,1.18,9.81,1.85,14.81c-0.01,1.43,0,2.75-0.04,4.15c-0.06,0.52-0.07,0.96-0.12,1.49
		c-0.06,0.52-0.08,0.94-0.16,1.43c-0.14,1.09-0.23,2.1-0.35,3.18c-0.05,0.18-0.06,0.29-0.13,0.45c-0.06,0.18-0.07,0.32-0.12,0.52
		c-0.05,0.18-0.06,0.29-0.12,0.48c-0.14,0.76-0.22,1.45-0.34,2.21c-0.06,0.18-0.07,0.29-0.14,0.45c-0.06,0.18-0.07,0.32-0.12,0.52
		c-0.05,0.18-0.06,0.29-0.12,0.48c-0.05,0.44-0.04,0.8-0.08,1.23c-0.06,0.18-0.07,0.3-0.13,0.46c-0.06,0.51-0.07,0.96-0.12,1.51
		c-0.06,0.52-0.09,0.94-0.16,1.43c-0.05,0.44-0.04,0.8-0.07,1.24c-0.05,0.19-0.07,0.3-0.14,0.48c-0.06,0.52-0.08,0.96-0.13,1.47
		c-0.05,0.18-0.07,0.29-0.14,0.48c-0.07,0.52-0.08,0.96-0.13,1.47c-0.05,0.18-0.06,0.29-0.12,0.48c-0.05,0.44-0.05,0.8-0.09,1.23
		c-0.06,0.18-0.07,0.29-0.14,0.48c-0.07,0.52-0.08,0.95-0.13,1.47c-0.06,0.18-0.07,0.29-0.14,0.45c-0.05,0.18-0.05,0.32-0.09,0.55
		c-0.05,0.44-0.07,0.78-0.13,1.17c-0.06,0.18-0.06,0.32-0.11,0.52c-0.06,0.18-0.07,0.29-0.14,0.47c-0.07,0.35-0.08,0.63-0.13,1.01
		c-0.05,0.35-0.07,0.61-0.15,0.94c-0.14,0.76-0.22,1.45-0.34,2.22c-0.05,0.19-0.06,0.29-0.12,0.45c-0.06,0.18-0.06,0.32-0.11,0.55
		c-0.05,0.44-0.06,0.78-0.12,1.19c-0.15,0.84-0.24,1.61-0.37,2.45c-0.05,0.18-0.07,0.29-0.13,0.48c-0.05,0.44-0.05,0.8-0.09,1.23
		c-0.05,0.19-0.06,0.3-0.13,0.48c-0.07,0.51-0.08,0.95-0.13,1.47c-0.05,0.18-0.06,0.29-0.13,0.46c-0.07,0.27-0.09,0.47-0.13,0.78
		c-0.12,0.76-0.22,1.43-0.37,2.16c-0.06,0.43-0.07,0.79-0.11,1.23c-0.05,0.19-0.06,0.3-0.12,0.45c-0.06,0.18-0.07,0.32-0.12,0.52
		c-0.06,0.18-0.07,0.29-0.14,0.47c-0.14,0.76-0.22,1.45-0.33,2.21c-0.05,0.18-0.07,0.29-0.13,0.45c-0.06,0.18-0.07,0.32-0.12,0.52
		c-0.06,0.18-0.07,0.29-0.14,0.45c-0.06,0.18-0.07,0.32-0.12,0.52c-0.05,0.18-0.07,0.29-0.14,0.47c-0.46,1.66-0.85,3.24-1.3,4.91
		c-0.27,0.56-0.46,1.05-0.72,1.5C142.99,431.58,141.54,434.05,140.1,436.52z"/>
	<path class="st1" d="M152.62,382.83c0.01-0.11,0.02-0.22,0.12-0.42c0.1-0.25,0.11-0.4,0.12-0.55c0.02-0.11,0.03-0.22,0.15-0.46
		c0.18-0.83,0.26-1.53,0.34-2.23c0.01-0.11,0.02-0.22,0.12-0.42c0.1-0.25,0.11-0.4,0.12-0.55c0.01-0.11,0.03-0.22,0.14-0.46
		c0.18-1.15,0.26-2.18,0.34-3.2c0.02-0.42,0.04-0.84,0.16-1.4c0.1-0.61,0.1-1.06,0.1-1.52c-0.01-1.32-0.02-2.64,0.03-4.12
		c0.14-0.34,0.23-0.51,0.38-0.82c0.15,0.44,0.24,0.73,0.35,1.03c1.38,3.85,2.96,7.59,5.82,10.61c4.22,4.47,9.57,5.63,15.42,4.88
		c4.38-0.56,8.72-1.54,13.11-2c3.46-0.36,6.98-0.36,10.36,0.93c1.11,0.43,2.37,0.55,3.57,0.64c0.29,0.02,0.79-0.59,0.88-0.98
		c0.05-0.21-0.52-0.75-0.89-0.84c-1.33-0.34-2.74-0.42-4.04-0.84c-2.44-0.8-4.92-1.09-7.46-0.91c-2.75,0.2-5.49,0.61-8.25,0.68
		c-4.26,0.11-8.4-0.68-12.47-1.95c-3.95-1.23-7.28-3.42-9.96-6.52c-1.44-1.67-2.5-3.66-3.74-5.51c-1.29-1.92-2.24-3.96-2.3-6.33
		c-0.03-1.01-0.08-2.03-0.2-3.04c-0.89-7.71-1.78-15.41-2.7-23.12c-0.7-5.89-0.54-11.77,0.15-17.63c0.7-5.89,1.74-11.74,2.39-17.63
		c0.64-5.77,0.99-11.57,1.42-17.36c0.24-3.28,0.29-6.57,0.57-9.85c0.4-4.73,0.94-9.45,1.4-14.18c0.47-4.72,1.61-9.28,3.44-13.65
		c1.22-2.92,2.37-5.87,3.73-8.72c1.12-2.34,2.5-4.55,3.78-6.8c0.15-0.26,0.46-0.44,0.94-0.87c0.04,0.83,0.05,1.31,0.08,1.78
		c0.12,1.66,0.14,3.34,0.39,4.98c0.69,4.52,1.96,8.88,3.98,13.01c0.11,0.23,0.2,0.6,0.09,0.78c-0.09,0.15-0.51,0.21-0.74,0.15
		c-0.82-0.23-1.65-0.44-2.41-0.81c-1.2-0.58-2.33-1.34-3.54-1.9c-0.38-0.17-0.94,0.07-1.42,0.13c0.14,0.45,0.15,1.14,0.44,1.3
		c2.07,1.1,4.1,2.5,6.32,2.99c2.25,0.49,3.53,1.33,3.84,3.59c0.05,0.4,0.23,0.79,0.28,1.19c0.13,0.98,0.22,1.97,0.36,3.19
		c-0.94-0.27-1.58-0.47-2.24-0.64c-3.33-0.88-6.66-1.77-10.01-2.58c-0.31-0.07-0.75,0.39-1.12,0.61c0.26,0.35,0.45,0.88,0.79,1.03
		c0.74,0.31,1.57,0.4,2.35,0.63c3.11,0.93,6.22,1.85,9.3,2.84c0.37,0.12,0.81,0.63,0.85,1c0.18,1.45,0.29,2.92,0.25,4.37
		c-0.02,0.55-0.39,1.29-0.83,1.59c-1.38,0.92-2.81,1.8-4.33,2.44c-1.52,0.64-3.18,0.93-4.75,1.46c-0.38,0.13-0.9,0.59-0.91,0.91
		c-0.01,0.32,0.5,0.72,0.87,0.96c0.29,0.18,0.7,0.24,1.06,0.23c2.76-0.08,5.52-0.17,8.28-0.3c0.97-0.05,2.24-0.62,2.83-0.2
		c0.67,0.48,0.72,1.81,1.07,2.77c1.15,3.2,1.84,6.6,3.98,9.38c0.45,0.59,0.26,1.04-0.33,1.41c-1.13,0.72-2.29,1.41-3.35,2.22
		c-0.27,0.2-0.23,0.81-0.33,1.23c0.44,0.08,0.95,0.34,1.32,0.21c0.6-0.21,1.14-0.62,1.65-1.03c1.54-1.22,3.07-1.99,4.79-0.16
		c0.3,0.94,0.69,1.78,0.79,2.66c0.17,1.54,1.15,2.31,2.46,2.41c2.12,0.15,4.31,0.3,6.38-0.07c2.66-0.48,4.26-1.79,4.42-4.84
		c1.02,1.13,1.85,2.36,2.93,3.29c0.92,0.8,0.72,1.23-0.03,1.88c-1.53,1.33-3.02,2.71-4.56,4.03c-6.16,5.28-11.05,11.52-14.41,18.93
		c-0.28,0.62-0.65,1.26,0.14,1.69c0.87,0.47,1.17-0.26,1.53-0.89c1.79-3.08,3.46-6.24,5.45-9.19c3.03-4.47,7.16-7.95,11.12-11.56
		c0.7-0.64,1.57-1.09,2.4-1.55c0.31,1.43,1.25,2.15,2.41,2.74c-0.19,0.4-0.32,0.74-0.53,1.03c-1.68,2.29-3.5,4.49-5.03,6.87
		c-1.93,3-3.68,6.12-5.43,9.23c-1.79,3.18-3.61,6.35-5.18,9.64c-1.74,3.65-3.24,7.41-4.77,11.15c-0.19,0.45-0.11,1.42,0.17,1.58
		c0.81,0.46,0.98-0.45,1.19-0.95c0.82-1.94,1.44-3.98,2.37-5.86c2.55-5.16,5.07-10.33,7.87-15.35c2.29-4.1,4.95-7.99,7.49-11.95
		c1.05-1.63,2.23-3.18,3.45-4.76c1.57,0.24,3.05,0.48,4.51,0.81c-0.21,0.49-0.39,0.89-0.6,1.28c-1.21,2.16-2.52,4.26-3.61,6.47
		c-2.91,5.86-5.43,11.86-7.09,18.23c-1.32,5.08-1.8,10.17-1.05,15.33c0.64,4.38,1.47,8.74,2.47,13.05c0.52,2.24,1.55,4.36,2.44,6.5
		c0.14,0.34,0.78,0.47,1.19,0.7c0.16-0.45,0.39-0.89,0.45-1.35c0.03-0.29-0.22-0.6-0.33-0.91c-0.74-2.15-1.69-4.25-2.16-6.46
		c-0.91-4.29-1.66-8.62-2.27-12.96c-0.56-3.97-0.27-7.96,0.62-11.87c1.06-4.64,2.55-9.17,4.63-13.46c2-4.12,4-8.26,6.24-12.25
		c2.25-4,4.81-7.82,7.24-11.72c0.32-0.52,0.67-1.01,1.01-1.52c0.13,0.03,0.25,0.06,0.38,0.09c0.97,3.94,1.93,7.88,2.9,11.83
		c0.72,2.92,1.43,5.84,2.19,8.75c0.18,0.69,0.48,1.6,1.43,1.27c0.9-0.31,0.49-1.16,0.31-1.8c-0.26-0.94-0.61-1.86-0.85-2.8
		c-2.06-8.28-4.09-16.57-6.18-24.85c-0.63-2.51-1.72-4.8-3.38-6.83c-0.77-0.94-1.36-2.02-2.17-3.23c0.45,0.06,0.57,0.05,0.67,0.09
		c1.55,0.6,3.07,1.26,4.65,1.76c0.42,0.14,0.99-0.18,1.49-0.29c-0.22-0.47-0.41-0.96-0.68-1.39c-0.11-0.17-0.42-0.22-0.65-0.3
		c-0.95-0.34-1.93-0.62-2.87-1.02c-3.53-1.48-7-3.05-9.88-5.67c-1.77-1.61-3.42-3.42-5.38-4.76c-4.5-3.06-7.22-7.29-8.83-12.35
		c-1.84-5.81-3.63-11.65-5.4-17.48c-0.33-1.08-0.54-2.23-0.59-3.35c-0.03-0.7,0.33-1.42,0.56-2.04c0.78,1.83,1.36,3.65,2.28,5.28
		c2.29,4.05,5.8,6.96,9.49,9.68c3.05,2.24,6.14,2.56,9.26,0.44c2.26-1.54,4.16-3.61,6.31-5.33c2.64-2.11,2.81-6.86,0.75-9.29
		c-2.38-2.82-4.73-5.67-7.02-8.56c0.52,0.14,1.07,0.22,1.41,0.53c4.34,4.05,8.76,8.01,12.93,12.23c4.53,4.59,8.91,9.34,13.19,14.16
		c3.14,3.54,5.68,7.53,7.26,12.05c0.74,2.11,1.32,4.28,2.13,6.36c1.86,4.81,3.82,9.59,5.73,14.39c1.48,3.7,2.88,7.47,5.36,10.64
		c1.91,2.43,1.92,5.18,1.75,7.94c-0.3,5.14-2.11,9.92-3.96,14.65c-1.86,4.76-3.93,9.44-6,14.11c-0.96,2.17-2.15,4.25-3.26,6.43
		c-3.6-1.45-6.34-3.65-8.62-6.48c-0.33-0.41-0.65-0.88-1.07-1.15c-0.31-0.2-0.98-0.31-1.16-0.13c-0.28,0.27-0.37,0.84-0.35,1.26
		c0.02,0.32,0.31,0.65,0.55,0.93c3.04,3.6,4.6,7.81,5.2,12.43c0.07,0.57,0.13,1.14,0.22,1.89c-0.48-0.16-0.73-0.19-0.92-0.3
		c-2.62-1.6-4.92-3.57-6.92-5.91c-1.07-1.26-2.16-2.51-3.3-3.71c-0.22-0.23-0.8-0.4-1.03-0.27c-0.26,0.14-0.41,0.65-0.43,1.01
		c-0.01,0.34,0.15,0.72,0.33,1.03c1.01,1.76,1.95,3.58,3.11,5.24c1.89,2.69,3.95,5.26,5.91,7.9c0.72,0.97,0.82,1.94,0.32,3.18
		c-1.29,3.24-2.68,6.49-3.47,9.86c-1.48,6.36-2.65,12.8-3.8,19.24c-0.85,4.75-2.59,9.1-5.1,13.21c-2.97,4.88-6.38,9.52-8.31,14.99
		c-1.42,4.01-3.2,7.9-4.55,11.94c-1.91,5.74-3.59,11.56-5.34,17.36c-2.38,7.9-4.03,15.97-5.12,24.15
		c-23.33-2.79-45.5-9.45-66.62-19.91c1.39-2.54,2.84-5.01,4.27-7.49c0.26-0.45,0.45-0.95,0.79-1.55c0.5-1.73,0.9-3.33,1.29-4.93
		c0.01-0.11,0.03-0.22,0.13-0.42c0.1-0.25,0.11-0.4,0.12-0.55c0.02-0.11,0.03-0.22,0.14-0.42c0.1-0.25,0.11-0.4,0.12-0.55
		c0.02-0.11,0.03-0.22,0.15-0.46c0.17-0.83,0.25-1.53,0.33-2.23c0.02-0.11,0.03-0.22,0.14-0.42c0.1-0.25,0.11-0.4,0.12-0.55
		c0.01-0.11,0.02-0.22,0.13-0.45c0.1-0.5,0.1-0.88,0.11-1.26c0.1-0.66,0.19-1.33,0.37-2.12c0.1-0.36,0.11-0.58,0.13-0.81
		c0.01-0.11,0.03-0.22,0.14-0.45c0.11-0.58,0.12-1.04,0.13-1.5c0.01-0.11,0.03-0.22,0.13-0.45c0.09-0.5,0.08-0.88,0.08-1.26
		c0.01-0.11,0.03-0.22,0.14-0.46c0.19-0.91,0.28-1.69,0.36-2.47c0.01-0.34,0.02-0.68,0.11-1.14c0.09-0.27,0.1-0.42,0.11-0.57
		c0.01-0.11,0.02-0.22,0.13-0.46c0.18-0.83,0.26-1.53,0.34-2.23c0.02-0.26,0.04-0.52,0.15-0.91c0.1-0.43,0.11-0.74,0.12-1.04
		c0.02-0.11,0.03-0.22,0.14-0.42c0.1-0.25,0.1-0.4,0.11-0.55c0.01-0.34,0.03-0.68,0.13-1.14c0.09-0.27,0.09-0.42,0.09-0.58
		c0.02-0.11,0.03-0.22,0.15-0.45c0.11-0.58,0.12-1.04,0.12-1.5c0.02-0.11,0.03-0.22,0.14-0.45c0.09-0.5,0.08-0.88,0.08-1.26
		c0.01-0.11,0.02-0.22,0.13-0.45c0.11-0.58,0.11-1.04,0.12-1.5c0.01-0.11,0.03-0.22,0.14-0.45c0.11-0.58,0.11-1.04,0.12-1.5
		c0.02-0.11,0.03-0.22,0.14-0.45c0.09-0.5,0.08-0.88,0.07-1.26c0.02-0.42,0.05-0.84,0.17-1.4c0.1-0.6,0.11-1.06,0.11-1.52
		c0.02-0.11,0.03-0.22,0.14-0.45C152.64,383.59,152.63,383.21,152.62,382.83z"/>
	<path class="st2" d="M206.88,456.52c0.99-8.19,2.63-16.26,5.02-24.16c1.75-5.8,3.43-11.62,5.34-17.36
		c1.35-4.04,3.13-7.92,4.55-11.94c1.94-5.48,5.34-10.11,8.31-14.99c2.5-4.11,4.24-8.46,5.1-13.21c1.15-6.43,2.32-12.87,3.8-19.24
		c0.79-3.38,2.17-6.63,3.47-9.86c0.49-1.24,0.4-2.21-0.32-3.18c-1.96-2.64-4.02-5.21-5.91-7.9c-1.16-1.66-2.1-3.48-3.11-5.24
		c-0.18-0.31-0.35-0.69-0.33-1.03c0.02-0.36,0.17-0.87,0.43-1.01c0.23-0.13,0.81,0.04,1.03,0.27c1.14,1.2,2.22,2.45,3.3,3.71
		c1.99,2.34,4.3,4.3,6.92,5.91c0.19,0.12,0.44,0.15,0.92,0.3c-0.09-0.75-0.15-1.32-0.22-1.89c-0.6-4.62-2.16-8.83-5.2-12.43
		c-0.23-0.28-0.53-0.61-0.55-0.93c-0.03-0.43,0.07-1,0.35-1.26c0.19-0.18,0.85-0.07,1.16,0.13c0.43,0.27,0.74,0.74,1.07,1.15
		c2.28,2.83,5.03,5.03,8.62,6.48c1.12-2.18,2.3-4.26,3.26-6.43c2.07-4.67,4.14-9.35,6-14.11c1.85-4.73,3.66-9.51,3.96-14.65
		c0.16-2.76,0.15-5.51-1.75-7.94c-2.48-3.16-3.88-6.93-5.36-10.64c-1.91-4.79-3.87-9.57-5.73-14.39c-0.81-2.08-1.39-4.25-2.13-6.36
		c-1.58-4.52-4.12-8.5-7.26-12.05c-4.28-4.83-8.65-9.58-13.19-14.16c-4.17-4.22-8.59-8.18-12.93-12.23
		c-0.34-0.31-0.89-0.39-1.48-0.56c-2.32-1.9-4.5-3.82-6.57-5.75c3.12,0.39,5.68,1.9,7.89,3.78c3.77,3.21,7.31,6.69,10.92,10.1
		c2.57,2.43,5.09,4.92,7.63,7.37c0.21,0.21,0.49,0.34,0.8,0.55c0.14-0.3,0.29-0.48,0.3-0.66c0.18-3.24,0.51-6.48,0.46-9.71
		c-0.03-1.96-0.81-3.89-1.01-5.86c-0.44-4.2-1.21-8.28-3.14-12.08c-0.92-1.81-1.72-3.83-3.59-4.82c-2.1-1.12-4.35-2-6.6-2.78
		c-0.99-0.34-2.17-0.31-3.25-0.22c-3.12,0.26-6.03,1.15-8.7,2.88c-3.44,2.22-5.64,5.3-6.91,9.16c-0.73-0.1-1.36-0.19-1.99-0.28
		c1.41-3.12,2.76-6.29,5.47-8.54c4.72-3.93,10.07-6.09,16.25-4.65c4.9,1.15,9.16,3.44,10.99,8.64c0.85,2.41,1.65,4.83,2.47,7.25
		c0.1,0.3,0.19,0.6,0.39,1.26c0.3-0.75,0.47-1.21,0.66-1.65c1.98-4.54,4.03-9.04,5.94-13.61c1.61-3.86,3.06-7.78,4.58-11.67
		c1.12-2.87,2.29-5.73,3.34-8.62c1.85-5.07,3.63-10.17,5.42-15.26c0.69-1.95,1.34-3.91,1.95-5.88c0.14-0.45,0.09-0.97,0.05-1.45
		c-0.58-6.32-1.27-12.62-1.74-18.95c-0.45-6.08-0.84-12.17-0.94-18.26c-0.04-2.37,0.41-4.92,1.32-7.09
		c1.77-4.19,7.63-6.71,12.05-5.55c1.52,0.4,3.07,0.86,4.47,1.56c1.36,0.68,2.56,1.7,4.01,2.7c0.25-0.6,0.53-1.16,0.71-1.75
		c1.3-4.05,3.24-7.79,6.33-10.7c4.04-3.81,8.99-4.97,14.23-3.23c3.49,1.16,5.83,3.94,7.12,7.43c1.97,5.3,2.01,10.75,1.05,16.23
		c-0.97,5.56-1.95,11.12-3.07,16.64c-0.64,3.14-1.5,6.25-2.37,9.34c-2.43,8.57-4.92,17.11-7.38,25.67c-0.12,0.42-0.19,0.88-0.15,1.3
		c1.16,11.79,1.59,23.61,1.36,35.45c-0.15,7.97,0.02,15.94-0.28,23.9c-0.43,11.21-0.97,22.41-1.84,33.59
		c-0.5,6.38-1.69,12.71-2.66,19.05c-1,6.5-3.26,12.66-5.27,18.88c-1.85,5.72-3.59,11.48-5.41,17.21c-0.69,2.16-1.58,4.27-2.15,6.46
		c-0.71,2.7-1.1,5.49-1.77,8.2c-0.85,3.43-1.74,6.85-2.8,10.21c-1.46,4.6-3.33,9.09-4.61,13.74c-2.49,9.03-6.84,17.05-12.26,24.62
		c-2.49,3.48-4.42,7.39-6.43,11.19c-0.66,1.25-0.86,2.79-1.1,4.22c-1.55,9.24-3.95,18.27-6.83,27.18
		c-1.77,5.49-3.57,10.97-5.51,16.4c-0.9,2.51-2.27,4.85-3.27,7.33c-1.19,2.95-2.21,5.97-3.32,8.96c-0.38,1.02-0.8,2.03-1.22,3.12
		c-4.14-0.14-8.26-0.32-12.38-0.59C212.77,457.11,209.88,456.79,206.88,456.52z M258.55,141.19c0.11,1.25,0.23,2.51,0.34,3.76
		c0.37,4.57,0.9,9.14,1.07,13.72c0.26,6.87-0.08,13.73-0.65,20.58c-0.45,5.35-1.05,10.66-2.01,15.95
		c-0.76,4.19-1.19,8.44-1.68,12.67c-0.11,0.91,0.33,1.89,0.17,2.77c-0.42,2.25,0.03,4.38,0.64,6.49c0.55,1.91,1.34,3.75,1.9,5.66
		c0.12,0.4-0.28,0.96-0.44,1.44c-0.41-0.23-1.06-0.36-1.19-0.7c-0.78-1.96-1.47-3.97-2.12-5.98c-0.27-0.82-0.37-1.7-0.58-2.71
		c-0.35,0.28-0.58,0.38-0.7,0.56c-0.61,0.95-1.12,1.96-1.79,2.87c-0.82,1.11-1.79,2.1-2.64,3.19c-3.76,4.81-7.07,9.85-8.07,16.04
		c-0.08,0.47,0.05,1.17,0.36,1.49c2.92,2.93,5.26,6.29,7.28,9.88c1.47,2.62,3.07,5.19,4.22,7.94c1.19,2.85,3.08,4.46,6.08,4.92
		c0.44,0.07,0.82,0.59,1.22,0.9c-0.38,0.34-0.73,0.91-1.16,0.99c-1.11,0.21-2.26,0.2-3.39,0.28c-0.8,0.05-1.14,0.4-0.78,1.2
		c1.56,3.43,2.98,6.93,4.72,10.28c1.94,3.75,5.16,6.07,9.2,7.3c0.46,0.14,0.79,0.73,1.18,1.12c-0.48,0.28-0.93,0.69-1.44,0.81
		c-1.28,0.3-2.6,0.48-4.1,0.74c0.28,0.46,0.45,0.81,0.69,1.1c1.21,1.48,2.43,2.94,3.66,4.4c0.89,1.05,1.95,1.99,2.67,3.15
		c1.67,2.7,2.56,5.75,2.93,8.85c0.52,4.31,0.69,8.66,1.04,12.99c0.11,1.3,0.33,2.58,0.51,3.87c0.16,0.01,0.31,0.02,0.47,0.03
		c0.16-0.34,0.36-0.67,0.48-1.03c1.37-4.12,2.79-8.23,4.09-12.38c2.02-6.44,3.97-12.9,5.92-19.36c0.45-1.48,0.9-2.97,1.16-4.49
		c0.78-4.52,1.55-9.05,2.14-13.6c0.63-4.87,1.15-9.76,1.54-14.66c0.37-4.65,0.55-9.33,0.74-13.99c0.28-6.94,0.67-13.89,0.71-20.83
		c0.07-11.18-0.07-22.37-0.2-33.55c-0.05-4.06-0.33-8.12-0.51-12.18c-0.01-0.18-0.14-0.36-0.21-0.54c-0.1,0.01-0.21,0.02-0.31,0.03
		c-0.07,1.45-0.18,2.9-0.19,4.34c-0.06,5.09-3.57,10.05-8.38,11.62c-1.26,0.41-2.62,0.63-3.95,0.68c-0.57,0.02-1.17-0.62-1.75-0.95
		c0.39-0.45,0.72-0.98,1.2-1.32c0.45-0.32,1.04-0.44,1.57-0.64c3.37-1.26,5.76-3.63,7.35-6.78c1.65-3.27,2.44-6.78,2.52-10.46
		c0.14-6.52-0.16-13.01-1.66-19.39c-0.11-0.49-0.2-0.98-0.28-1.35c-0.79,0-1.39,0.04-1.98-0.01c-3.27-0.24-6.53-0.7-9.83-0.09
		c-1.43,0.26-2.92,0.26-4.37,0.2c-0.46-0.02-0.88-0.64-1.33-0.98c0.39-0.28,0.75-0.75,1.17-0.81c1.77-0.25,3.55-0.51,5.33-0.5
		c3.04,0.01,5.88-0.75,8.64-1.88c0.78-0.32,1.71-0.72,1.4-1.95c-1.4-5.43-2.47-10.97-4.24-16.28c-1.89-5.65-4.43-11.09-6.71-16.62
		c-0.61-1.49-1.76-2.51-3.16-3.25c-0.61-0.32-1.25-0.58-1.88-0.87c-2.54-1.17-5.05-1.78-7.88-0.76c-3.29,1.19-5.53,3.14-5.99,7.03
		c-0.48,4.02-0.48,8.02-0.18,12.04c0.19,2.59,0.43,5.18,0.65,7.77C258.01,134.98,258.28,137.97,258.55,141.19z M291.42,152.81
		c0.29,3.52,0.57,7.04,0.88,10.85c0.23-0.48,0.37-0.67,0.43-0.89c1.13-3.65,2.3-7.28,3.36-10.95c1.61-5.58,3.38-11.14,4.64-16.8
		c1.59-7.13,2.84-14.33,4.04-21.54c0.72-4.32,0.59-8.64-0.83-12.89c-1.84-5.53-5.43-8.18-11.17-7.81c-3.09,0.2-5.9,1.23-7.99,3.66
		c-3.02,3.51-5.05,7.54-6.12,12.05c-0.08,0.33-0.08,0.76,0.06,1.06c0.59,1.29,1.22,2.57,1.87,3.83c1.8,3.52,3.44,7.06,4.15,11.02
		c0.59,3.27,1.56,6.48,2.34,9.72c0.66,2.78,2.73,4,5.22,4.72c0.78,0.22,1.88,0.17,1.7,1.26c-0.18,1.08-1.28,0.72-2.05,0.66
		c-1.07-0.08-2.13-0.22-3.21-0.33C289.65,144.62,290.51,148.61,291.42,152.81z M246.58,190.3c-1.58,3.78-3.15,7.56-4.75,11.34
		c-1.18,2.8-2.4,5.59-3.59,8.39c-0.41,0.97-0.6,2.09-1.22,2.89c-0.78,1.01-0.77,1.98-0.59,3.09c0.31,1.84,0.54,3.69,0.91,5.51
		c0.11,0.53,0.44,1.15,0.86,1.46c1.43,1.07,3.88,0.87,5.18-0.44c0.88-0.89,1.66-1.89,2.41-2.9c2.36-3.2,4.85-6.31,5.89-10.28
		c0.22-0.84,0.11-1.1-0.75-1.15c-0.97-0.06-1.95-0.17-2.89-0.4c-0.59-0.15-1.38-0.43-1.1-1.31c0.27-0.83,0.97-0.58,1.64-0.49
		c1.28,0.16,2.58,0.24,3.87,0.23c0.91,0,1.43-0.46,1.5-1.52c0.1-1.58,0.38-3.14,0.61-4.71c0.87-5.98,2.4-11.84,2.6-17.93
		c0.23-6.85,0.74-13.69,1.11-20.54c0.02-0.46-0.05-0.92-0.08-1.38c-0.39,0.19-0.57,0.39-0.65,0.63c-0.8,2.3-1.55,4.62-2.38,6.91
		c-1.25,3.47-2.53,6.94-3.85,10.39C249.8,182.12,248.21,186.12,246.58,190.3z"/>
	<path class="st3" d="M188.91,287.36c-1.68-1.74-3.21-0.97-4.75,0.25c-0.51,0.4-1.05,0.82-1.65,1.03c-0.37,0.13-0.87-0.13-1.32-0.21
		c0.1-0.42,0.07-1.03,0.33-1.23c1.06-0.81,2.22-1.5,3.35-2.22c0.59-0.37,0.79-0.82,0.33-1.41c-2.14-2.78-2.83-6.18-3.98-9.38
		c-0.34-0.95-0.4-2.29-1.07-2.77c-0.59-0.42-1.86,0.16-2.83,0.2c-2.76,0.13-5.52,0.22-8.28,0.3c-0.36,0.01-0.77-0.04-1.06-0.23
		c-0.37-0.23-0.87-0.64-0.87-0.96c0.01-0.32,0.52-0.78,0.91-0.91c1.57-0.53,3.23-0.82,4.75-1.46c1.52-0.64,2.95-1.52,4.33-2.44
		c0.45-0.3,0.81-1.04,0.83-1.59c0.04-1.46-0.07-2.92-0.25-4.37c-0.04-0.37-0.49-0.88-0.85-1c-3.09-0.99-6.2-1.92-9.3-2.84
		c-0.78-0.23-1.61-0.32-2.35-0.63c-0.35-0.15-0.53-0.67-0.79-1.03c0.38-0.22,0.82-0.68,1.12-0.61c3.35,0.81,6.67,1.7,10.01,2.58
		c0.65,0.17,1.3,0.37,2.24,0.64c-0.13-1.22-0.23-2.21-0.36-3.19c-0.05-0.4-0.22-0.79-0.28-1.19c-0.31-2.26-1.59-3.1-3.84-3.59
		c-2.22-0.48-4.26-1.89-6.32-2.99c-0.29-0.16-0.3-0.85-0.44-1.3c0.48-0.06,1.05-0.3,1.42-0.13c1.22,0.56,2.34,1.31,3.54,1.9
		c0.76,0.37,1.59,0.58,2.41,0.81c0.23,0.06,0.65,0,0.74-0.15c0.11-0.18,0.02-0.54-0.09-0.78c-2.02-4.13-3.29-8.49-3.98-13.01
		c-0.25-1.64-0.27-3.32-0.39-4.98c-0.03-0.47-0.05-0.95-0.08-1.78c-0.48,0.43-0.79,0.61-0.94,0.87c-1.29,2.25-2.66,4.46-3.78,6.8
		c-1.36,2.85-2.51,5.8-3.73,8.72c-1.84,4.38-2.98,8.93-3.44,13.65c-0.47,4.73-1,9.45-1.4,14.18c-0.28,3.28-0.33,6.57-0.57,9.85
		c-0.43,5.79-0.78,11.59-1.42,17.36c-0.65,5.89-1.69,11.74-2.39,17.63c-0.69,5.86-0.85,11.75-0.15,17.63
		c0.92,7.7,1.81,15.41,2.7,23.12c0.12,1.01,0.17,2.02,0.2,3.04c0.06,2.37,1.02,4.41,2.3,6.33c1.24,1.85,2.3,3.84,3.74,5.51
		c2.67,3.09,6.01,5.28,9.96,6.52c4.07,1.27,8.21,2.06,12.47,1.95c2.75-0.07,5.5-0.48,8.25-0.68c2.54-0.18,5.02,0.11,7.46,0.91
		c1.3,0.42,2.71,0.5,4.04,0.84c0.37,0.09,0.94,0.63,0.89,0.84c-0.09,0.39-0.59,1-0.88,0.98c-1.2-0.09-2.46-0.21-3.57-0.64
		c-3.38-1.3-6.9-1.29-10.36-0.93c-4.39,0.45-8.72,1.43-13.11,2c-5.85,0.75-11.19-0.41-15.42-4.88c-2.86-3.02-4.44-6.76-5.82-10.61
		c-0.11-0.3-0.2-0.59-0.35-1.03c-0.15,0.32-0.24,0.49-0.36,0.71c-0.73-4.84-1.57-9.7-1.91-14.65c-0.36-5.3-1.55-10.53-2.18-15.81
		c-1.09-9.03-0.98-18.08,0.09-27.12c0.71-6,1.27-12.03,2.16-18.01c0.85-5.71,1.63-11.41,1.71-17.19c0.06-3.98,0.17-7.96,0.38-11.94
		c0.28-5.4,1.82-10.53,3.41-15.67c2-6.48,4.88-12.57,8.11-18.47c2.83-5.16,5.94-10.22,10.37-14.2c5.02-4.52,10.93-5.58,17.47-3.72
		c-0.12,0.69-0.31,1.26-0.61,1.8c-5.2-1.53-10.07-1.06-14.3,2.28c-1.91,1.51-3.84,3.33-4.95,5.43c-1.62,3.06-2.05,6.66-1.89,10.09
		c0.15,3.25,0.86,6.54,1.8,9.67c0.97,3.22,2.5,6.28,3.85,9.38c1.34,3.08,1.79,6.31,1.79,9.64c0,2.5-0.02,4.98,0.88,7.43
		c1.64,4.46,3.01,9.02,4.66,13.48c0.67,1.81,1.58,3.59,3.41,4.74C188.75,285.52,188.83,286.44,188.91,287.36z"/>
	<path class="st4" d="M193.5,212.42c0.2-0.57,0.39-1.14,0.6-1.79c1.67-1.8,3.4-3.4,6.07-3.59c0.73,0.06,1.36,0.16,2.15,0.32
		c1.78,0.79,3.4,1.51,5.01,2.23c2.18,1.92,4.36,3.84,6.61,5.78c2.43,2.86,4.77,5.72,7.16,8.54c2.05,2.43,1.89,7.18-0.75,9.29
		c-2.15,1.72-4.05,3.79-6.31,5.33c-3.12,2.12-6.2,1.8-9.26-0.44c-3.69-2.71-7.2-5.62-9.49-9.68c-0.92-1.63-1.51-3.46-2.28-5.38
		c-0.23-1.4-0.43-2.61-0.62-3.94C192.35,216.73,192.36,214.48,193.5,212.42z M200.45,228.97c0.92-0.49,0.56-1.16,0.18-1.74
		c-1.72-2.66-3.56-5.26-3.98-8.54c-0.03-0.26-0.58-0.65-0.85-0.63c-0.29,0.02-0.69,0.43-0.78,0.74c-0.12,0.4-0.01,0.88,0.07,1.31
		c0.58,3.23,2.53,5.77,4.27,8.41C199.52,228.78,199.96,228.84,200.45,228.97z M204.65,231.43c-0.49-0.06-0.99-0.13-1.48-0.19
		c-0.02,0.4-0.2,0.94-0.01,1.17c0.25,0.3,0.79,0.34,1.21,0.5C204.49,232.46,204.62,232.01,204.65,231.43z"/>
	<path class="st3" d="M146.44,422.68c-0.34,1.54-0.73,3.14-1.19,4.79C145.59,425.93,145.99,424.34,146.44,422.68z"/>
	<path class="st3" d="M154.02,374.6c-0.02,0.95-0.1,1.97-0.25,3.05C153.8,376.7,153.88,375.69,154.02,374.6z"/>
	<path class="st3" d="M149.42,405.85c-0.03,0.71-0.12,1.49-0.27,2.32C149.18,407.46,149.27,406.7,149.42,405.85z"/>
	<path class="st3" d="M153.3,379.24c-0.02,0.63-0.1,1.33-0.24,2.08C153.08,380.69,153.17,380,153.3,379.24z"/>
	<path class="st3" d="M147.43,418.05c-0.02,0.63-0.1,1.33-0.23,2.09C147.22,419.5,147.29,418.81,147.43,418.05z"/>
	<path class="st3" d="M150.11,401.45c-0.02,0.63-0.1,1.33-0.24,2.09C149.88,402.9,149.97,402.21,150.11,401.45z"/>
	<path class="st3" d="M154.3,371.68c0.05,0.38,0.05,0.84-0.02,1.35C154.23,372.63,154.24,372.19,154.3,371.68z"/>
	<path class="st3" d="M151.86,389.26c0.05,0.38,0.04,0.84-0.03,1.35C151.78,390.21,151.79,389.77,151.86,389.26z"/>
	<path class="st3" d="M151.6,391.21c0.05,0.38,0.04,0.84-0.03,1.35C151.52,392.16,151.53,391.72,151.6,391.21z"/>
	<path class="st3" d="M151.12,394.87c0.04,0.38,0.04,0.84-0.03,1.35C151.04,395.83,151.06,395.39,151.12,394.87z"/>
	<path class="st3" d="M148.69,410.5c0.05,0.38,0.03,0.84-0.04,1.34C148.61,411.45,148.62,411.01,148.69,410.5z"/>
	<path class="st3" d="M152.36,384.6c0.04,0.4,0.04,0.86-0.03,1.36C152.29,385.56,152.3,385.11,152.36,384.6z"/>
	<path class="st3" d="M152.57,382.9c0.06,0.3,0.07,0.68,0.02,1.11C152.53,383.7,152.53,383.34,152.57,382.9z"/>
	<path class="st3" d="M152.07,387.54c0.06,0.31,0.07,0.69,0.02,1.11C152.03,388.34,152.02,387.97,152.07,387.54z"/>
	<path class="st3" d="M151.35,393.16c0.05,0.31,0.06,0.69,0.01,1.11C151.3,393.95,151.3,393.59,151.35,393.16z"/>
	<path class="st3" d="M147.93,415.37c0.05,0.31,0.04,0.69-0.02,1.11C147.86,416.17,147.87,415.81,147.93,415.37z"/>
	<path class="st3" d="M148.91,408.78c0.06,0.3,0.06,0.68,0.01,1.11C148.86,409.58,148.86,409.22,148.91,408.78z"/>
	<path class="st3" d="M150.38,399.5c0.04,0.23,0.03,0.54-0.04,0.88C150.3,400.13,150.31,399.85,150.38,399.5z"/>
	<path class="st3" d="M148.43,412.43c0.04,0.17,0.02,0.39-0.05,0.65C148.34,412.9,148.36,412.7,148.43,412.43z"/>
	<path class="st3" d="M149.65,404.12c0.04,0.1,0.03,0.26-0.02,0.43C149.58,404.43,149.59,404.3,149.65,404.12z"/>
	<path class="st3" d="M150.64,398.51c0.04,0.1,0.03,0.25-0.02,0.43C150.57,398.82,150.58,398.69,150.64,398.51z"/>
	<path class="st3" d="M150.85,396.79c0.05,0.1,0.04,0.25-0.01,0.43C150.8,397.11,150.8,396.98,150.85,396.79z"/>
	<path class="st3" d="M147.69,417.06c0.04,0.1,0.03,0.26-0.03,0.43C147.63,417.37,147.64,417.24,147.69,417.06z"/>
	<path class="st3" d="M152.82,381.9c0.04,0.1,0.03,0.26-0.03,0.43C152.75,382.22,152.76,382.08,152.82,381.9z"/>
	<path class="st3" d="M146.96,420.72c0.04,0.1,0.03,0.26-0.03,0.43C146.9,421.03,146.91,420.9,146.96,420.72z"/>
	<path class="st3" d="M146.71,421.69c0.04,0.1,0.03,0.26-0.03,0.43C146.63,422.01,146.65,421.87,146.71,421.69z"/>
	<path class="st3" d="M153.55,378.24c0.04,0.1,0.03,0.26-0.03,0.43C153.48,378.55,153.49,378.42,153.55,378.24z"/>
	<path class="st5" d="M192.36,219.21c0.2,1.21,0.4,2.43,0.6,3.74c-0.2,0.81-0.56,1.53-0.53,2.23c0.05,1.13,0.27,2.27,0.59,3.35
		c1.77,5.84,3.56,11.67,5.4,17.48c1.6,5.06,4.33,9.29,8.83,12.35c1.96,1.34,3.61,3.14,5.38,4.76c2.87,2.62,6.35,4.19,9.88,5.67
		c0.93,0.39,1.91,0.67,2.87,1.02c0.23,0.08,0.54,0.13,0.65,0.3c0.28,0.43,0.46,0.92,0.68,1.39c-0.5,0.11-1.07,0.43-1.49,0.29
		c-1.58-0.51-3.1-1.17-4.65-1.76c-0.1-0.04-0.23-0.03-0.67-0.09c0.8,1.21,1.4,2.29,2.17,3.23c1.66,2.03,2.75,4.32,3.38,6.83
		c2.08,8.28,4.11,16.57,6.18,24.85c0.24,0.95,0.59,1.86,0.85,2.8c0.18,0.64,0.59,1.49-0.31,1.8c-0.95,0.32-1.25-0.58-1.43-1.27
		c-0.76-2.91-1.47-5.83-2.19-8.75c-0.97-3.94-1.93-7.88-2.9-11.83c-0.13-0.03-0.25-0.06-0.38-0.09c-0.34,0.51-0.69,1-1.01,1.52
		c-2.43,3.9-4.98,7.72-7.24,11.72c-2.25,3.99-4.25,8.12-6.24,12.25c-2.08,4.29-3.57,8.81-4.63,13.46c-0.89,3.91-1.19,7.9-0.62,11.87
		c0.62,4.34,1.36,8.67,2.27,12.96c0.47,2.21,1.42,4.31,2.16,6.46c0.11,0.31,0.36,0.62,0.33,0.91c-0.05,0.46-0.29,0.9-0.45,1.35
		c-0.41-0.23-1.05-0.36-1.19-0.7c-0.89-2.14-1.92-4.26-2.44-6.5c-1-4.31-1.83-8.67-2.47-13.05c-0.75-5.16-0.27-10.25,1.05-15.33
		c1.66-6.37,4.18-12.37,7.09-18.23c1.1-2.21,2.41-4.31,3.61-6.47c0.22-0.39,0.39-0.79,0.68-1.31c0.82-0.65,1.79-1.04,2.21-1.76
		c2-3.35,3.83-6.79,5.77-10.18c0.72-1.25,1.48-2.44,1.12-3.98c-0.2-0.83-0.33-1.68-0.61-2.49c-1.06-3.17-2.84-5.82-5.69-7.77
		c-0.49-0.99-0.93-1.9-1.45-2.77c-0.3-0.51-0.63-1.13-1.11-1.4c-3.17-1.75-5.83-4.12-8.39-6.64c-0.87-0.86-1.89-1.56-2.98-2.45
		c-0.19,0.64-0.35,0.98-0.39,1.32c-0.35,3.51-0.91,7.02-0.97,10.54c-0.07,4.46,0.17,8.93,0.47,13.39c0.14,2.13,1.19,3.94,3.11,5.22
		c0.09,1.65,0.17,3.19,0.24,4.72c-0.79,0.54-1.66,0.99-2.36,1.63c-3.95,3.61-8.09,7.08-11.12,11.56c-1.99,2.94-3.66,6.11-5.45,9.19
		c-0.36,0.62-0.66,1.36-1.53,0.89c-0.78-0.42-0.42-1.06-0.14-1.69c3.36-7.41,8.25-13.65,14.41-18.93c1.54-1.32,3.02-2.71,4.56-4.03
		c0.75-0.65,0.95-1.08,0.03-1.88c-1.08-0.94-1.91-2.16-2.93-3.38c-0.07-0.48-0.02-0.85-0.04-1.21c-0.19-4.67-0.37-9.34-0.62-14
		c-0.04-0.73-0.47-1.43-0.67-2.24c0.16-1.14,0.28-2.19,0.39-3.23c0.29-2.7,0.57-5.41,0.86-8.11c0.11-1-0.32-1.71-0.93-2.5
		c-1.28-1.66-2.65-3.35-3.47-5.25c-3.39-7.86-5.35-16.19-7.8-24.36c-0.75-2.49,0.45-4.7,1.1-6.98
		C191.85,219.45,192.17,219.34,192.36,219.21z"/>
	<path class="st6" d="M218.99,272.3c2.84,1.86,4.61,4.52,5.67,7.68c0.27,0.81,0.41,1.66,0.61,2.49c0.36,1.53-0.41,2.73-1.12,3.98
		c-1.94,3.38-3.77,6.83-5.77,10.18c-0.43,0.71-1.4,1.1-2.2,1.67c-1.56-0.21-3.04-0.45-4.67-0.76c-0.61-0.26-1.07-0.45-1.53-0.64
		c-1.17-0.51-2.12-1.22-2.43-2.65c-0.12-1.62-0.19-3.15-0.26-4.92c-0.01-0.79-0.09-1.37,0-1.93c0.57-3.62,1.16-7.24,1.81-10.84
		c0.15-0.82,0.45-1.66,0.89-2.36c0.92-1.48,2.4-2.25,4.09-2.28C215.71,271.87,217.35,272.16,218.99,272.3z M212.65,280.26
		c0.02-0.16,0.1-0.34,0.04-0.48c-0.21-0.54-0.38-1.48-0.7-1.53c-0.97-0.18-1.08,0.72-1.18,1.45c-0.23,1.68-0.42,3.36-0.67,5.04
		c-0.1,0.68-0.21,1.41,0.61,1.6c0.88,0.2,1.04-0.55,1.14-1.22C212.13,283.57,212.37,282.02,212.65,280.26z M209.65,289.29
		c0.29,0.36,0.54,0.78,0.9,1.04c0.09,0.07,0.76-0.35,0.77-0.55c0.01-0.37-0.22-0.99-0.47-1.06
		C210.53,288.63,210.08,288.98,209.65,289.29z"/>
	<path class="st6" d="M201.6,270.16c0.25,0.71,0.69,1.42,0.73,2.14c0.26,4.66,0.43,9.33,0.62,14c0.01,0.36-0.03,0.73-0.04,1.18
		c-0.07,3.16-1.68,4.47-4.33,4.96c-2.07,0.38-4.26,0.23-6.38,0.07c-1.31-0.1-2.29-0.86-2.46-2.41c-0.1-0.87-0.49-1.71-0.79-2.66
		c-0.12-1.01-0.2-1.93-0.31-3.05c-0.25-3.68,0-7.12,1.19-10.42c0.3-0.83,0.84-1.71,1.54-2.22
		C194.47,269.49,197.97,269.29,201.6,270.16z M191.38,283.03c1.01,0.63,1.56,0.38,1.7-0.76c0.18-1.44,0.32-2.89,0.53-4.33
		c0.09-0.6,0.26-1.27-0.52-1.32c-0.38-0.03-1.1,0.49-1.16,0.85C191.63,279.24,191.48,281.05,191.38,283.03z M192.78,287.44
		c0.08-0.5,0.22-1,0.18-1.49c-0.01-0.1-0.82-0.34-1-0.19c-0.28,0.23-0.56,0.84-0.44,1.1C191.67,287.17,192.23,287.3,192.78,287.44z"
		/>
	<path class="st7" d="M209.97,296.98c0.48,0.11,0.94,0.3,1.45,0.56c-1.06,1.65-2.25,3.2-3.3,4.83c-2.54,3.95-5.2,7.85-7.49,11.95
		c-2.8,5.02-5.33,10.19-7.87,15.35c-0.93,1.88-1.55,3.92-2.37,5.86c-0.21,0.5-0.38,1.41-1.19,0.95c-0.28-0.16-0.36-1.13-0.17-1.58
		c1.53-3.74,3.03-7.5,4.77-11.15c1.57-3.29,3.39-6.46,5.18-9.64c1.75-3.11,3.49-6.23,5.43-9.23c1.54-2.38,3.35-4.58,5.03-6.87
		C209.64,297.72,209.78,297.38,209.97,296.98z"/>
	<path class="st1" d="M258.55,141.08c-0.27-3.11-0.54-6.1-0.8-9.09c-0.22-2.59-0.46-5.18-0.65-7.77c-0.3-4.02-0.29-8.02,0.18-12.04
		c0.46-3.89,2.7-5.83,5.99-7.03c2.82-1.03,5.34-0.41,7.88,0.76c0.63,0.29,1.27,0.55,1.88,0.87c1.4,0.74,2.55,1.76,3.16,3.25
		c2.28,5.52,4.82,10.96,6.71,16.62c1.77,5.31,2.85,10.85,4.24,16.28c0.32,1.23-0.62,1.63-1.4,1.95c-2.76,1.12-5.6,1.89-8.64,1.88
		c-1.78-0.01-3.56,0.26-5.33,0.5c-0.42,0.06-0.78,0.53-1.17,0.81c0.44,0.34,0.87,0.96,1.33,0.98c1.45,0.06,2.95,0.06,4.37-0.2
		c3.3-0.61,6.56-0.15,9.83,0.09c0.59,0.04,1.19,0.01,1.98,0.01c0.08,0.37,0.17,0.86,0.28,1.35c1.5,6.38,1.8,12.86,1.66,19.39
		c-0.08,3.67-0.87,7.18-2.52,10.46c-1.59,3.15-3.98,5.51-7.35,6.78c-0.53,0.2-1.13,0.32-1.57,0.64c-0.47,0.34-0.8,0.87-1.2,1.32
		c0.58,0.34,1.18,0.98,1.75,0.95c1.33-0.05,2.69-0.27,3.95-0.68c4.81-1.57,8.32-6.53,8.38-11.62c0.02-1.45,0.13-2.9,0.19-4.34
		c0.1-0.01,0.21-0.02,0.31-0.03c0.07,0.18,0.2,0.36,0.21,0.54c0.19,4.06,0.46,8.12,0.51,12.18c0.13,11.18,0.27,22.37,0.2,33.55
		c-0.04,6.95-0.43,13.89-0.71,20.83c-0.19,4.67-0.37,9.34-0.74,13.99c-0.39,4.9-0.91,9.79-1.54,14.66
		c-0.59,4.55-1.37,9.07-2.14,13.6c-0.26,1.52-0.72,3.01-1.16,4.49c-1.95,6.46-3.9,12.92-5.92,19.36c-1.3,4.15-2.72,8.26-4.09,12.38
		c-0.12,0.36-0.32,0.68-0.48,1.03c-0.16-0.01-0.31-0.02-0.47-0.03c-0.17-1.29-0.4-2.58-0.51-3.87c-0.35-4.33-0.52-8.68-1.04-12.99
		c-0.38-3.11-1.26-6.15-2.93-8.85c-0.72-1.16-1.78-2.1-2.67-3.15c-1.23-1.46-2.45-2.93-3.66-4.4c-0.24-0.29-0.41-0.65-0.69-1.1
		c1.5-0.26,2.82-0.43,4.1-0.74c0.52-0.12,0.96-0.53,1.44-0.81c-0.39-0.38-0.71-0.98-1.18-1.12c-4.04-1.23-7.25-3.56-9.2-7.3
		c-1.73-3.34-3.16-6.84-4.72-10.28c-0.36-0.79-0.02-1.14,0.78-1.2c1.13-0.08,2.28-0.07,3.39-0.28c0.43-0.08,0.77-0.64,1.16-0.99
		c-0.41-0.31-0.78-0.83-1.22-0.9c-3.01-0.46-4.89-2.07-6.08-4.92c-1.15-2.75-2.75-5.33-4.22-7.94c-2.02-3.59-4.35-6.95-7.28-9.88
		c-0.31-0.31-0.44-1.01-0.36-1.49c1-6.19,4.31-11.23,8.07-16.04c0.85-1.09,1.82-2.08,2.64-3.19c0.67-0.9,1.18-1.92,1.79-2.87
		c0.12-0.18,0.35-0.29,0.7-0.56c0.21,1.01,0.32,1.89,0.58,2.71c0.65,2.01,1.34,4.01,2.12,5.98c0.13,0.34,0.78,0.47,1.19,0.7
		c0.16-0.49,0.56-1.04,0.44-1.44c-0.56-1.91-1.35-3.75-1.9-5.66c-0.61-2.11-1.05-4.24-0.64-6.49c0.16-0.88-0.28-1.87-0.17-2.77
		c0.49-4.23,0.92-8.48,1.68-12.67c0.96-5.29,1.56-10.6,2.01-15.95c0.57-6.86,0.91-13.72,0.65-20.58c-0.18-4.58-0.7-9.15-1.07-13.72
		C258.79,143.7,258.67,142.45,258.55,141.08z M281.24,225.96c-0.56,0.12-1.14,0.16-1.66,0.37c-0.43,0.17-0.79,0.54-1.17,0.82
		c0.43,0.36,0.81,0.96,1.28,1.04c0.95,0.17,1.94,0.1,2.91,0.06c4.91-0.21,7.68-3.36,8.52-7.71c0.07-0.35-0.26-0.92-0.57-1.15
		c-0.16-0.12-0.74,0.24-1.06,0.47c-0.22,0.15-0.32,0.46-0.48,0.69C287.16,223.29,284.63,225.07,281.24,225.96z"/>
	<path class="st1" d="M291.4,152.71c-0.89-4.1-1.75-8.09-2.66-12.27c1.08,0.11,2.15,0.25,3.21,0.33c0.78,0.06,1.87,0.42,2.05-0.66
		c0.18-1.09-0.92-1.04-1.7-1.26c-2.49-0.72-4.55-1.94-5.22-4.72c-0.77-3.24-1.74-6.45-2.34-9.72c-0.72-3.95-2.36-7.5-4.15-11.02
		c-0.65-1.27-1.28-2.54-1.87-3.83c-0.14-0.3-0.14-0.73-0.06-1.06c1.08-4.5,3.11-8.54,6.12-12.05c2.09-2.43,4.9-3.46,7.99-3.66
		c5.74-0.37,9.33,2.28,11.17,7.81c1.41,4.25,1.55,8.57,0.83,12.89c-1.21,7.2-2.45,14.41-4.04,21.54c-1.26,5.66-3.03,11.22-4.64,16.8
		c-1.06,3.67-2.23,7.3-3.36,10.95c-0.07,0.22-0.2,0.41-0.43,0.89C291.99,159.85,291.71,156.33,291.4,152.71z"/>
	<path class="st8" d="M207.43,209.57c-1.73-0.7-3.35-1.42-5.03-2.21c1.11-3.94,3.31-7.01,6.75-9.24c2.67-1.73,5.58-2.62,8.7-2.88
		c1.08-0.09,2.25-0.12,3.25,0.22c2.25,0.78,4.5,1.66,6.6,2.78c1.87,0.99,2.67,3.01,3.59,4.82c1.92,3.8,2.7,7.88,3.14,12.08
		c0.2,1.97,0.98,3.9,1.01,5.86c0.06,3.23-0.27,6.48-0.46,9.71c-0.01,0.18-0.16,0.36-0.3,0.66c-0.31-0.21-0.59-0.35-0.8-0.55
		c-2.55-2.45-5.06-4.94-7.63-7.37c-3.61-3.4-7.15-6.88-10.92-10.1C213.11,211.47,210.55,209.96,207.43,209.57z"/>
	<path class="st9" d="M246.61,190.21c1.6-4.1,3.19-8.09,4.72-12.11c1.32-3.45,2.59-6.92,3.85-10.39c0.83-2.29,1.58-4.61,2.38-6.91
		c0.08-0.24,0.26-0.45,0.65-0.63c0.03,0.46,0.1,0.92,0.08,1.38c-0.37,6.85-0.88,13.69-1.11,20.54c-0.2,6.09-1.74,11.96-2.6,17.93
		c-0.23,1.57-0.52,3.13-0.61,4.71c-0.06,1.06-0.58,1.52-1.5,1.52c-1.29,0.01-2.59-0.07-3.87-0.23c-0.67-0.08-1.37-0.34-1.64,0.49
		c-0.29,0.88,0.5,1.16,1.1,1.31c0.94,0.23,1.92,0.34,2.89,0.4c0.86,0.05,0.97,0.31,0.75,1.15c-1.03,3.97-3.53,7.09-5.89,10.28
		c-0.75,1.01-1.53,2.01-2.41,2.9c-1.3,1.3-3.75,1.51-5.18,0.44c-0.42-0.32-0.76-0.93-0.86-1.46c-0.37-1.82-0.6-3.67-0.91-5.51
		c-0.19-1.11-0.19-2.08,0.59-3.09c0.62-0.8,0.81-1.93,1.22-2.89c1.19-2.8,2.41-5.59,3.59-8.39
		C243.42,197.86,245,194.08,246.61,190.21z"/>
	<path class="st8" d="M201.65,270.06c-3.68-0.77-7.18-0.58-10.28,1.7c-0.69,0.51-1.24,1.39-1.54,2.22
		c-1.19,3.3-1.44,6.74-1.23,10.33c-1.8-0.95-2.72-2.73-3.38-4.54c-1.65-4.46-3.01-9.02-4.66-13.48c-0.9-2.44-0.87-4.92-0.88-7.43
		c0-3.33-0.45-6.55-1.79-9.64c-1.35-3.1-2.87-6.16-3.85-9.38c-0.95-3.13-1.65-6.42-1.8-9.67c-0.16-3.43,0.27-7.04,1.89-10.09
		c1.12-2.1,3.04-3.92,4.95-5.43c4.24-3.34,9.1-3.81,14.3-2.28c-1.04,2.1-1.05,4.35-1.02,6.72c-0.21,0.25-0.53,0.35-0.58,0.53
		c-0.65,2.28-1.85,4.49-1.1,6.98c2.45,8.17,4.4,16.51,7.8,24.36c0.82,1.9,2.19,3.59,3.47,5.25c0.62,0.79,1.04,1.5,0.93,2.5
		c-0.3,2.7-0.58,5.41-0.86,8.11C201.93,267.87,201.81,268.92,201.65,270.06z"/>
	<path class="st10" d="M200.36,228.98c-0.4-0.14-0.84-0.21-1.01-0.46c-1.74-2.64-3.69-5.19-4.27-8.41
		c-0.08-0.43-0.18-0.91-0.07-1.31c0.09-0.31,0.49-0.72,0.78-0.74c0.28-0.02,0.82,0.37,0.85,0.63c0.41,3.28,2.26,5.88,3.98,8.54
		C201,227.81,201.37,228.47,200.36,228.98z"/>
	<path class="st11" d="M204.7,231.5c-0.08,0.51-0.21,0.96-0.34,1.41c-0.42-0.15-0.96-0.2-1.21-0.5c-0.19-0.23-0.01-0.77,0.01-1.17
		C203.66,231.3,204.16,231.37,204.7,231.5z"/>
	<path class="st12" d="M218.97,272.21c-1.62-0.05-3.26-0.34-4.89-0.3c-1.69,0.04-3.17,0.8-4.09,2.28c-0.44,0.7-0.74,1.54-0.89,2.36
		c-0.65,3.61-1.23,7.22-1.81,10.84c-0.09,0.55-0.01,1.13-0.02,1.81c-1.92-1.06-2.97-2.87-3.11-5c-0.3-4.46-0.55-8.93-0.47-13.39
		c0.06-3.52,0.62-7.03,0.97-10.54c0.04-0.35,0.2-0.69,0.39-1.32c1.09,0.89,2.11,1.59,2.98,2.45c2.56,2.52,5.22,4.89,8.39,6.64
		c0.48,0.27,0.81,0.89,1.11,1.4C218.04,270.31,218.48,271.23,218.97,272.21z"/>
	<path class="st13" d="M212.63,280.36c-0.26,1.65-0.5,3.21-0.74,4.76c-0.1,0.67-0.26,1.42-1.14,1.22c-0.82-0.19-0.71-0.91-0.61-1.6
		c0.25-1.68,0.44-3.36,0.67-5.04c0.1-0.73,0.21-1.63,1.18-1.45c0.32,0.06,0.5,0.99,0.7,1.53
		C212.74,279.92,212.67,280.1,212.63,280.36z"/>
	<path class="st11" d="M209.67,289.21c0.41-0.24,0.86-0.58,1.18-0.49c0.25,0.07,0.48,0.69,0.47,1.06c0,0.2-0.68,0.62-0.77,0.55
		C210.19,290.07,209.94,289.65,209.67,289.21z"/>
	<path class="st10" d="M191.33,282.94c0.16-1.89,0.3-3.69,0.61-5.47c0.06-0.36,0.78-0.87,1.16-0.85c0.78,0.05,0.61,0.72,0.52,1.32
		c-0.22,1.44-0.36,2.89-0.53,4.33C192.94,283.41,192.38,283.66,191.33,282.94z"/>
	<path class="st11" d="M192.7,287.48c-0.47-0.17-1.02-0.3-1.18-0.62c-0.12-0.26,0.15-0.87,0.44-1.1c0.18-0.15,0.99,0.09,1,0.19
		C193,286.44,192.86,286.94,192.7,287.48z"/>
	<path class="st14" d="M281.34,225.93c3.29-0.87,5.82-2.64,7.68-5.38c0.16-0.24,0.27-0.54,0.48-0.69c0.33-0.23,0.91-0.59,1.06-0.47
		c0.31,0.24,0.64,0.8,0.57,1.15c-0.84,4.35-3.61,7.5-8.52,7.71c-0.97,0.04-1.97,0.11-2.91-0.06c-0.47-0.08-0.86-0.68-1.28-1.04
		c0.39-0.28,0.74-0.65,1.17-0.82C280.1,226.12,280.68,226.08,281.34,225.93z"/>
</g>
</svg>
