<?xml version="1.0" encoding="utf-8"?>
<!-- Generator: Adobe Adobe Illustrator 24.2.0, SVG Export Plug-In . SVG Version: 6.00 Build 0)  -->
<svg version="1.1" xmlns="http://www.w3.org/2000/svg" xmlns:xlink="http://www.w3.org/1999/xlink" x="0px" y="0px"
	 viewBox="0 0 119 136" style="enable-background:new 0 0 119 136;" xml:space="preserve">
<style type="text/css">
	.st0{fill:#CFCEC8;stroke:#CFCEC8;stroke-miterlimit:10;}
	.st1{fill:#CFCEC8;}
	.st2{fill:#E3E1C3;}
	.st3{fill:#1A1A3D;}
	.st4{fill:#FFC800;}
	.st5{fill:#FFE600;}
	.st6{fill:#FFF39C;}
</style>
<g id="Layer_1">
	<path class="st1" d="M106.87,69.62c0.12-3.42-0.39-6.82-0.87-10.21c-0.25-1.61-0.48-3.1-0.71-4.53c0.16-2.11,0.41-4.3-0.72-6.08
		c-0.09-0.13-0.2-0.24-0.31-0.35c-0.36-2.27-0.7-4.46-1.03-6.74c-0.15-1.43-1.29-2.45-2.54-2.62c-1.19-2.41-2.2-2.94-2.87-2.26
		c-0.43-1-1.7-1.9-3.34-2.7c0.03-0.24,0.08-0.48,0.1-0.73c-0.04-0.53-0.85-0.58-0.97-0.07c-0.02,0.12-0.04,0.25-0.06,0.37
		c-3.72-1.6-8.65-2.69-10.11-3.1c-0.63-0.13-1.27-0.22-1.91-0.33c-0.81-0.2-1.63-0.38-2.46-0.52c-0.78-0.13-1.57-0.26-2.36-0.38
		c-0.55-0.22-1.12-0.37-1.7-0.48c-0.05-0.03-0.09-0.05-0.14-0.08c0.41-0.07,0.82-0.15,1.23-0.24c0.69-0.32,0.84-0.93,0.93-1.25
		c0.09-0.49-0.38-0.75-0.77-0.93c-1.19-0.62-2.52-0.9-3.85-1.05c-1.25-0.2-2.48-0.26-3.7-0.23c0.01,0,0.02,0,0.03-0.01
		c0.99-0.37,5.22-0.78,4.26-2.31c-0.59-0.64-0.92-0.26-1.43-0.31c-0.88,0.05-1.76,0.14-2.63,0.25c-0.02-0.04-0.03-0.07-0.06-0.11
		c-0.21-0.21-0.52-0.21-0.79-0.18c-0.63,0.06-1.25,0.14-1.87,0.22c0.27-0.19,0.48-0.44,0.56-0.78c0.11-0.38-0.16-0.73-0.51-0.82
		c0.12-0.34,0.05-0.7-0.39-1.04c-0.7-0.26-1.45-0.28-2.2-0.19c-0.98-0.36-3.63,0.87-4.36,0.97c-0.28,0.09-0.54,0.19-0.81,0.29
		c-0.02-0.13-0.08-0.26-0.22-0.4c-0.7-0.43-1.28-0.04-2.25,0.15c-0.11,0.03-0.21,0.08-0.31,0.12c0.01-0.42-0.48-0.84-0.91-0.56
		c-1.54,0.78-3.11,1.53-4.59,2.43c-1.63,0.98-3.24,2.01-4.82,3.07c-0.76-1.02-3.01,1.07-3.82,1.51c-0.33,0.22-0.63,0.46-0.95,0.69
		c-0.07-0.29-0.25-0.52-0.6-0.53c-0.84,0.16-1.4,0.97-2.01,1.52c-1.32,1.34-2.54,2.78-3.76,4.22c0.01-0.02,0.01-0.04,0.02-0.07
		c0.01-0.01,0.01-0.02,0.02-0.03c0,0-0.01-0.01-0.01-0.01c0.06-0.18,0.12-0.35,0.15-0.53c-0.56-1.13-1.41,0.38-1.86,0.86
		c-0.84,1.15-3.49,3.84-3.69,5.17c-0.02,0.03-0.03,0.06-0.05,0.1c-0.08,0.09-0.16,0.17-0.24,0.25c-0.27,0.35-0.73,0.76-0.51,1.24
		c0.03,0.06,0.07,0.08,0.1,0.13c-0.26,0.45-0.57,1.04-0.64,1.52c-1,0.96-1.94,1.98-2.82,3.06c0.12-0.61,0.25-1.23,0.4-1.9
		c0.22-0.69-0.66-1.09-1.12-0.72c-0.21-0.04-0.43,0.03-0.56,0.26C17.75,54.89,12.41,67.35,5.78,79.11c-0.19,0.06-0.36,0.2-0.43,0.46
		c-0.1,0.5-0.18,1-0.26,1.51c-0.1,0.28-0.17,0.56-0.22,0.85c-0.67,2.25-0.88,5.51-0.71,8.48c-0.07,0.92-0.06,1.84,0.27,2.7
		c0.22,1.49,0.55,2.75,0.98,3.57c0.09,0.49,0.17,0.99,0.27,1.47c0.37,1.54,0.86,3.05,1.46,4.52c-0.05,0.17-0.06,0.37,0,0.63
		c0.15,0.35,0.4,0.64,0.67,0.9c2.67,5.7,6.98,10.64,12.37,13.89c1.81,1.07,3.73,1.93,5.65,2.77c0.02,0.02,0.04,0.03,0.06,0.05
		c0,0,0,0,0,0c0.21,0.17,0.46,0.27,0.73,0.16c8.17,3.3,17.5,3.77,26.07,2.06c2.67-0.72,5.07-2.18,7.48-3.49
		c4.22-2.44,8.33-5.07,12.39-7.75c3.18-2.08,6.27-4.3,9.19-6.74c0.14-0.15,0.35-0.29,0.56-0.45c0.12-0.02,0.24-0.07,0.34-0.18
		c1.55-1.22,3.25-2.64,5.02-4.14c1.14-0.68,2.19-1.44,3.09-2.32c0.13-0.16,0.2-0.34,0.22-0.52c2.02-1.75,4.03-3.52,5.89-5.16
		c0.41-0.36,0.81-0.73,1.21-1.09c0.36-0.14,0.72-0.33,1.09-0.64c0.21-0.19,0.43-0.51,0.58-0.83c0.02-0.02,0.04-0.05,0.06-0.07
		c0.5-0.45,1.01-0.89,1.5-1.35c1.33-0.93,2.63-1.9,3.9-2.91c0.42-0.38,1-0.64,1.29-1.12c0.21-0.43-0.16-0.98-0.64-0.97
		c-0.49,0.22-0.89,0.48-1.25,0.76c-0.16-0.1-0.35-0.15-0.54-0.09c-0.52,0.24-0.87,0.76-1.31,1.12c-0.1,0.1-0.21,0.19-0.31,0.28
		c0.09-0.17,0.16-0.34,0.23-0.51c0.18-0.28,0.29-0.6,0.49-0.86c0.22-0.49,1.22-0.98,1.91-3.02c0.28-1.49,0.07-3.32-0.63-4.8
		c0.01-0.25,0.03-0.5,0.03-0.75c0-0.11,0.01-0.22,0.01-0.33c0.58-0.15,1.11-0.47,1.47-0.98c0.48-0.58,0.66-1.31,0.75-2.06
		c0.11-0.2,0.2-0.41,0.26-0.64C107.18,70.87,107.04,70.24,106.87,69.62z M69.49,26.51c1.98,0.14,3.14,0.17,4.88,0.63
		c0.25,0.02,0.53,0.16,0.78,0.29c-1.08,0.21-3.36,0.28-5.36,0.42c-0.01,0-0.01,0-0.02,0c-0.02,0-0.03-0.01-0.05-0.01
		c-0.7-0.32-1.47-0.59-2.21-0.63c-0.4-0.18-0.8-0.34-1.21-0.47C67.36,26.58,68.43,26.49,69.49,26.51z M80.77,96.91
		c-0.46,0.15-0.93,0.28-1.39,0.4c-0.17-0.12-0.36-0.22-0.56-0.29c-1.84-0.72-3.7,0.52-5.52,0.76c-0.84,0.17-1.67,0.35-2.51,0.52
		c-0.97-0.13-1.95-0.25-2.92-0.38c-1.71-0.78-3.98-0.56-5.8-0.67c-0.56-0.01-1.12-0.04-1.68-0.06c-0.5-0.03-1.01-0.05-1.51-0.07
		c-1.26-0.14-2.53-0.26-3.79-0.4c-5.27-1.58-10.28-4.04-14.66-7.29c-0.12-0.95-0.85-1.65-1.47-2.33c-1.44-1.66-2.98-3.22-4.52-4.79
		c-0.38-0.34-0.75-0.67-1.1-1c-0.92-1.04-1.82-2.09-2.67-3.19c-0.04-0.05-0.07-0.09-0.11-0.14c-0.57-1.24-1.16-2.48-1.76-3.7
		c-0.99-2.41-2.07-4.88-3.31-7.29c-0.48-1.83-0.86-3.7-1.14-5.6c-0.06-1.25-0.26-2.5-0.4-3.74c-0.15-2.19-0.17-4.38-0.01-6.56
		c0.04-0.65,0.1-1.26,0.16-1.86c0.01-0.02,0.02-0.03,0.02-0.05c0,0,0.01,0,0.01,0c0.6-0.18,1.1-0.57,1.54-1.03
		c1.27-0.66,2.06-2.13,2.93-3.23c0.76-1.15,1.5-2.15,2.29-3.11c0.19-0.2,0.37-0.39,0.56-0.57c0.32-0.24,0.65-0.47,0.99-0.69
		c0.78,0.28,2.61-1.12,3.24-1.38c1.02-0.62,2.05-1.26,3.08-1.89c2.97-1.18,6.14-2.07,9.4-2.86c7.61-1.72,16.8,0.22,23.84,3.62
		c2.33,1.26,4.48,2.75,6.46,4.42c0.22,0.48,0.58,0.89,1.09,1.17l0,0c0.01,0.01,0.02,0.01,0.03,0.02c0.02,0.02,0.04,0.03,0.06,0.05
		c0.66,0.55,1.3,1.12,1.94,1.7c2.23,2.32,4.21,4.87,5.91,7.64C93.96,64,97.53,78.86,92.63,90.2c-0.14,0.24-0.13,0.56,0.05,0.77
		c0.65,0.73,1.26-0.09,1.78-1.4c0.15,0.39,0.38,0.75,0.67,1.05C90.38,93.31,85.87,95.17,80.77,96.91z"/>
	<g>
		<path class="st2" d="M97.97,81.8c-0.54-2.82-1.45-7.51-2.27-10.57c0.01-0.02,0.02-0.03,0.03-0.05c0.08-0.16,0.14-0.32,0.19-0.48
			c0.57-0.59,0.91-1.4,0.74-2.24c-0.01-0.53-0.28-1.02-0.62-1.42c-0.2-0.33-0.38-0.68-0.54-1.04c0.09,0.23,0.14,0.43,0.04,0.12
			l-0.04-0.13c-0.05-0.11-0.1-0.22-0.15-0.33c0.05,0.06,0.1,0.19,0.15,0.32c-1.5-4.5-3.01-8.99-4.65-13.45
			c-0.2-0.95-0.45-1.88-1.14-2.62c-0.46-0.48-1.07-0.74-1.7-0.79c-0.96-1.04-2.11-1.93-3.32-2.72c-0.2-0.22-0.4-0.44-0.58-0.66
			c-1.09-1.27-2.16-2.57-3.39-3.71c-2.75-2.78-6.41-4.37-10.17-5.29c-0.96-0.26-1.9-0.47-2.84-0.67c-2.91-1.35-5.87-2.61-8.99-3.32
			c-2.75-0.44-5.49-0.03-8.17,0.63c-1.94,0.15-3.86,0.42-5.77,0.77c-2.03,0.5-4,0.57-7.46,1.78c-0.93,0.27-1.89,0.55-2.67,1.15
			c-0.36,0.25-1.28,1.01-1.31,1.05c-0.9,0.68-1.79,1.39-2.48,2.28c-1.06,1.4-2.93,2.2-3.52,3.91c-0.09,0.34-0.12,0.68-0.09,0.99
			c-0.3,0.76-0.49,1.63-0.59,2.57c-0.06,0.08-0.13,0.14-0.18,0.22c-0.87,1.45-0.74,3.26-0.76,4.89c0.2,3.68,0.49,7.35,1.03,11
			c0.33,1.77,0.07,4.03,1.6,5.23c0.35,1.08,0.94,2.05,1.46,3.06c0.27,0.54,0.12,0.53,0.94,2.18c0.11,0.29,0.22,0.57,0.31,0.86
			c0.21,0.61,0.5,1.18,0.84,1.73c0.83,1.71,1.8,3.36,2.89,4.89c1.11,1.3,2.41,2.41,3.52,3.7c0.09,0.09,0.19,0.17,0.29,0.26
			c0.01,0.08,0,0.15,0.01,0.23c0.39,2.3,2.76,3.53,4.5,4.77c0.46,0.3,0.94,0.57,1.42,0.84c0.55,1.2,1.9,1.98,3.02,2.6
			c1.86,0.99,3.85,1.56,5.88,1.89c1.85,0.48,3.73,0.83,5.63,1.09c0.68,0.09,1.39,0.12,2.08,0.11c1.39,0.27,2.79,0.06,4.2,0.05
			c0.1,0,0.19,0.01,0.29,0.01c1.69,0.31,3.41,0.57,5.1,0.17c0.05-0.01,0.08-0.02,0.12-0.03c0.06,0,0.13-0.01,0.19-0.02
			c4.08-0.11,4.53-0.23,8.79-1.01c1.22-0.18,2.42-0.47,3.53-1.01c0.08-0.03,0.17-0.06,0.25-0.09c0.13-0.04,0.25-0.08,0.38-0.11
			c1.17-0.15,2.35-0.45,3.21-1.26c0.18-0.12,0.37-0.22,0.56-0.31c0.33-0.14,0.77-0.35,0.98-0.51c0.7-0.44,1.51-0.71,2.11-1.29
			c0.09-0.09,0.16-0.2,0.23-0.3c0.07-0.04,0.15-0.08,0.22-0.12c0.21-0.1,0.14-0.08,0-0.02c0.13-0.05,0.26-0.11,0.39-0.16
			c0.43-0.26,0.89-0.46,1.34-0.67c0.4-0.23,0.72-0.56,0.95-0.93c0.03-0.03,0.07-0.07,0.1-0.1c-0.02,0.02-0.05,0.03-0.07,0.05
			c0,0,0,0,0,0c0.08-0.07,0.17-0.13,0.25-0.21c0.47-0.45,0.71-1.02,0.78-1.61c1.76,0.62,3.96-0.96,3.75-2.96
			C98.72,83.9,98.37,82.85,97.97,81.8z"/>
		<path class="st2" d="M95.5,66c0,0,0-0.01-0.01-0.01C95.5,65.99,95.5,65.99,95.5,66L95.5,66z"/>
	</g>
	<path class="st2" d="M93.86,43.95c-1.17-1.26-3.47-0.31-3.41,1.41c-0.2,1.45,0.24,3.09,1.98,3.11
		C94.64,48.52,95.01,45.19,93.86,43.95z"/>
	<g>
		<path class="st3" d="M115.5,53.22c-0.69-8.82-3.9-17.46-8.84-24.78c-4.25-6.08-10.14-10.85-16.71-14.25
			c-3.19-1.65-6.55-2.94-10.02-3.87c-3.13-0.75-6.35-1.69-9.56-1.74c-0.36,0.14-0.47,0.51-0.38,0.83c-2.51-0.05-5.01,0.32-7.47,0.84
			c-4.79,1.06-9.48,2.76-13.86,5.05c-0.13,0.06-0.26,0.11-0.38,0.16c-0.8,0.38-1.61,0.83-2.39,1.34c-1.27,0.68-2.51,1.41-3.73,2.17
			c-1.15,0.76-2.5,1.53-3.28,2.7c-0.36-0.11-0.81,0.05-0.98,0.39c-0.03,0.05-0.04,0.09-0.05,0.12c-0.01,0.01-0.01,0.01-0.02,0.03
			c-0.13,0.37-0.46,0.92-0.85,1.5c-2.24,2.19-4.24,4.63-5.96,7.27c-0.12,0.13-0.24,0.25-0.36,0.38c-0.17,0.15-0.26,0.38-0.27,0.6
			c-0.1,0.16-0.18,0.33-0.28,0.49c-0.47,0.53-0.92,1.08-1.34,1.66c0.02,0.24,0.07,0.42,0.14,0.56c-0.17,0.34-0.35,0.68-0.51,1.02
			c-0.37-0.19-0.9-0.03-1.01,0.42c-0.07,0.2-0.12,0.4-0.19,0.6c-0.3-0.22-0.79-0.2-0.99,0.18c-3.97,11.4-3.78,24.2,0.32,35.54
			c2.05,5.73,5.93,10.67,10.61,14.5c0.45,0.34,0.9,0.66,1.36,0.98c3.25,3.09,7.04,5.59,11.14,7.42c1.37,0.58,2.74,1.2,4.19,1.59
			c0.17,0.04,0.34,0.05,0.51,0.01c0.31,0.12,0.63,0.21,0.86,0.32c1.52,0.52,3.1,0.87,4.69,1.12c0.25,0.08,0.52,0.15,0.76,0.25
			c2.6,0.94,5.37,1.2,8.11,1.25c2.44,0.02,4.92-0.09,7.26-0.86c3.24-1.21,6.42-2.6,9.55-4.07c3.91-1.53,7.75-3.33,11.3-5.57
			c0.68-0.34,1.37-0.69,2.05-1.03c1.72-0.88,3.49-1.7,5.1-2.78c0.14,0.03,0.3,0.01,0.44-0.08c0.36-0.23,0.67-0.57,0.87-0.95
			c0,0,0,0,0.01-0.01c0.34,0.06,0.71-0.18,0.95-0.61c0.03-0.02,0.05-0.04,0.08-0.07c0.03-0.02,0.05-0.05,0.07-0.08
			c0.05-0.05,0.11-0.11,0.16-0.17c0,0,0,0,0-0.01c0,0,0.01-0.01,0.01-0.01c0.01-0.01,0.01-0.02,0.02-0.02
			c0.07-0.1,0.13-0.2,0.2-0.29c-0.03,0.05-0.07,0.09-0.11,0.14c0.02-0.04,0.05-0.08,0.08-0.13c0.13-0.16,0.27-0.31,0.37-0.49
			c0.01-0.01,0.01-0.02,0.02-0.04c2.21-3.04,3.78-6.5,5.49-9.84c1.43-2.68,1.84-5.68,2.46-8.62c0.71-2.28,0.99-4.62,0.96-7.01
			C116.18,55.89,115.78,54.56,115.5,53.22z M24.86,50.6c-0.08,2.32-0.05,4.64,0.07,6.94c0,0.11,0.02,0.21,0.02,0.32
			c0.01,0.54,0.03,1.07,0.06,1.61C24.71,56.49,24.67,53.51,24.86,50.6z M104.52,72.99c-1.05,2.42-3.26,5.77-2.86,8.47
			c-0.13,0.82,0.12,1.57,0.59,2.13c-0.73,0.62-1.43,1.21-2.13,1.77c-1.96,1.16-4.11,2.32-5.83,3.48c-0.26,0.15-0.4,0.34-0.45,0.52
			c-3.29,1.64-6.61,3.22-9.94,4.77c-3.27,1.23-6.65,2.23-10.27,2.97c-3.1,0.46-6.93,0.56-10.56,0.25c-0.12-0.07-0.26-0.11-0.39-0.15
			c-1.47-0.3-2.97-0.52-4.44-0.85c-0.05-0.01-0.09-0.02-0.14-0.03c-0.72-0.18-1.43-0.37-2.15-0.57c-0.52-0.07-1.26-0.49-1.84-0.5
			c-0.42-0.12-0.85-0.23-1.28-0.33c-2.62-1.14-5.12-2.61-7.47-4.29c-0.05-0.17-0.15-0.32-0.31-0.41c-0.34-0.18-0.67-0.38-1.01-0.57
			c-4.03-3.08-7.6-6.75-10.54-10.39c-0.53-0.55-0.99-1.8-1.6-2.07c0,0,0,0,0,0c-0.19-0.34-0.38-0.68-0.55-1.03
			c-0.26-0.54-0.5-1.09-0.76-1.63c-0.1-0.28-0.27-0.57-0.49-0.73c-0.67-1.43-1.27-2.91-1.79-4.4c-1.09-3.47-1.69-7.07-1.95-10.76
			c-0.11-4.04,0.26-8.24,0.83-11.7c0.39-2.6,0.96-5.18,1.68-7.71c0.06-0.2,0.02-0.36-0.06-0.5c0.9-1.16,2.22-2.58,3.48-3.81
			c3.5-3.27,7.2-5.93,11.69-8.3c5.42-2.75,15.91-7.68,18.47-3.56c0.1,0.24,0.09,0.49,0.02,0.74c-0.01,0.02-0.02,0.03-0.03,0.06
			c-0.02,0.05-0.03,0.11-0.04,0.16c-0.4,0.9-1.71,1.8-3.18,2.13c-1.93,0.6-4.81,0-7.27,0.56c-0.63,0.15-1.12,0.88-0.77,1.49
			c0.48,0.6,1.24,0.92,1.92,1.23c3.15,1.46,6.6,1.76,10,2.05c3.4,0.24,6.65,1.19,10.44,1.08c2.11-0.23,4.12-0.39,5.76,0.02
			c1.2,0.25,2.4,0.72,3.64,0.49c1.67-0.44,2.92-1.05,4.34-1.03c0.45,0.12,0.86,0.24,1.23,0.38c0.99,0.58,2.38,1.74,3.32,2.82
			c0.85,0.79,1.63,1.75,2.53,2.5c0.04,0.16,0.14,0.3,0.31,0.39c2.48,1.64,4.11,2.94,5.18,4.39c0.24,0.47,0.42,0.91,0.71,1.7
			c0.76,1.68,0.53,1.08,0.9,1.97c0.38,1.76,0.5,3.94,0.57,6.92c0.15,3.34,0.25,6.84,1.82,9.87c0.93,1.59,1.56,2.44,1.86,4.11
			C105.97,68.36,105.39,71.42,104.52,72.99z"/>
		<path class="st3" d="M106.6,83.6c0,0,0.01-0.01,0.02-0.02c0,0,0,0,0,0C106.61,83.58,106.61,83.59,106.6,83.6z"/>
		<path class="st3" d="M106.63,83.56c-0.01,0.01-0.01,0.01-0.01,0.02C106.62,83.57,106.63,83.56,106.63,83.56z"/>
		<path class="st3" d="M106.64,83.55c0.08-0.1,0.16-0.2,0.23-0.31C106.75,83.39,106.68,83.49,106.64,83.55z"/>
		<polygon class="st3" points="106.64,83.55 106.63,83.55 106.63,83.56 		"/>
	</g>
	<path class="st3" d="M67.53,50.47c-0.65-0.63-1.64-0.83-2.52-0.66c-0.77,0.2-1.49,0.71-1.97,1.35c-0.59,0.87-0.93,2.04-0.99,2.58
		c-0.03,0.27-0.06,0.51-0.09,0.74c-3.03,4.1-6.72,7.8-8.49,12.97c-0.42,1.31-0.57,2.69-0.57,4.06c0.01,0.69,0.07,1.4,0.4,2.01
		c0.49,0.81,1.46,1.43,2.43,1.26c0.46-0.1,0.85-0.4,1.13-0.77c1.18-1.79,1.31-4.01,1.89-6.02c0.78-3.13,2.45-5.85,4.47-8.15
		c1.56-1.89,3.83-3.28,4.86-5.55C68.59,53.05,68.39,51.49,67.53,50.47z"/>
	<path class="st3" d="M61.74,68.43c-0.65-0.01-0.65,1.01,0,1C62.39,69.44,62.38,68.42,61.74,68.43z"/>
	<path class="st3" d="M64.03,66.37c-0.65-0.01-0.65,1.01,0,1C64.67,67.38,64.67,66.36,64.03,66.37z"/>
	<path class="st3" d="M63,73.12c-0.65-0.01-0.65,1.01,0,1C63.64,74.13,63.64,73.11,63,73.12z"/>
	<path class="st3" d="M63,78.5c-0.65-0.01-0.65,1.01,0,1C63.64,79.51,63.64,78.49,63,78.5z"/>
	<path class="st3" d="M43.31,63.28c-0.65-0.01-0.65,1.01,0,1C43.96,64.29,43.96,63.27,43.31,63.28z"/>
	<path class="st3" d="M48.69,59.27c-0.65-0.01-0.65,1.01,0,1C49.34,60.28,49.34,59.26,48.69,59.27z"/>
	<path class="st3" d="M47.2,69.8c-0.65-0.01-0.65,1.01,0,1C47.85,70.81,47.85,69.79,47.2,69.8z"/>
	<path class="st3" d="M49.03,71.52c-0.65-0.01-0.65,1.01,0,1C49.68,72.53,49.68,71.51,49.03,71.52z"/>
	<path class="st3" d="M68.14,105.62c-0.18-0.06-0.35-0.02-0.49,0.06c-0.23,0-0.69-0.03-0.32,0c-0.61-0.09-1.23-0.1-1.83-0.06
		c-0.89,0.01-2.03-0.31-3.32-0.58c-2.54-0.2-3.27-0.57-5.9-0.82c-0.99,0-1.74-0.55-2.96-1.1c-2.33-0.87-5.4-2.38-8.25-4.05
		c-3.89-2.2-6.25-4.5-10.29-6.76c-0.52-0.22-0.9-0.99-1.72-1.19c-0.53-0.02-0.85,0.6-0.62,1.03c-1.43,1.22-2.68,2.64-4.12,3.86
		c-1.46,1.04-2.55,2.46-3.74,3.77c-1.68,1.73-3.15,3.42-4.42,4.93c-1.32,1.24-2.14,2.28-3.03,3.46c-0.36,0.51,0.18,1.24,0.77,1.05
		c0.67-0.36,0.39-0.46,0.9-0.92c0.62-0.89,1.44-1.72,2.49-2.76c1.6-2,3.71-4.11,5.71-6.38c0.76-0.96,1.73-1.68,2.66-2.47
		c1.32-1.14,2.48-2.47,3.82-3.6c0.98,0.72,2.07,1.27,3.1,1.92c1.45,1.09,3.92,2.75,5.41,3.83c2.52,1.61,5.18,3.01,7.85,4.36
		c2.12,0.75,2.98,1.33,5.26,2.23c0.47,0.19,0.97,0.17,1.47,0.19c0.22,0.04,1.04,0.18,1.18,0.16c1.25,0.29,2.84,0.49,4.22,0.63
		c1.26,0.32,2.55,0.57,3.85,0.58c-1.96,1.59-3.39,3.26-5.1,4.38c-1.81,1.56-2.89,2.83-4.5,4.25c-0.16,0.15-0.45,0.31-0.91,0.74
		c-0.21,0.2-0.41,0.42-0.63,0.61c-0.01,0-0.01,0-0.01,0.01c-0.56,0.44-0.73,0.45-1.23,0.96c-0.56,0.73,0.52,1.51,1.07,0.87
		c0,0.02,0.02,0.01,0.1-0.07c0.71-0.38,3.05-2.59,4.03-3.44c1.35-1.28,2.6-2.71,3.79-3.45c1-0.63,3.22-2.98,4.02-3.59
		c0.46-0.44,1.12-0.72,1.51-1.22c0.09-0.01,0.18-0.03,0.29-0.05C68.86,106.77,68.78,105.77,68.14,105.62z"/>
	<path class="st3" d="M36.94,106.54c-0.37-0.32-0.93-0.2-1.37-0.38c-0.27-0.09-0.43-0.21-0.66-0.56c-0.32-1.1-0.29-1.43-0.41-2.43
		c-0.05-0.47-0.07-0.98-0.41-1.35c-0.67-0.73-2.04-0.64-2.72,0c-0.49,0.57,0.27,1.42,0.9,1.03c0.36-0.15,0.57-0.19,0.77-0.09
		c0.02,0.06,0.03,0.12,0.04,0.19c0.03,0.2,0.17,2.53,0.62,3.36c0.41,0.68,1.1,1.19,1.9,1.29c0.39,0.03,0.83,0.24,1.2,0.04
		C37.18,107.42,37.25,106.85,36.94,106.54z"/>
	<path class="st3" d="M42.95,105.02c-0.05-0.01-0.12-0.02-0.17-0.03c-0.69-0.64-1.61-0.99-2.53-1.16c-0.15,0-0.7-0.17-0.84-0.2
		c-0.03-0.01-0.06-0.03-0.08-0.04c-0.03-0.02-0.05-0.04-0.07-0.05c-0.03-0.04-0.06-0.07-0.08-0.08c-0.02-0.04-0.04-0.07-0.05-0.09
		c0-0.02,0-0.05,0-0.07c0.01-0.08,0.03-0.2,0.04-0.27c0.24-0.83-0.28-1.7-1.13-1.87c-0.77-0.19-1.56-0.28-2.34-0.38
		c-0.33-0.01-0.72-0.13-0.98,0.14c-0.38,0.36-0.09,1.05,0.43,1.03c0.67,0.07,1.54,0.16,2.55,0.47c0.04,0.02,0.07,0.03,0.09,0.03
		c0.01,0,0.01,0.01,0.02,0.01c0.02,0.02,0.04,0.04,0.05,0.05c0,0,0,0,0,0c0,0.01,0,0.03,0,0.04c-0.5,1.83,0.88,2.5,2.48,2.71
		c0.65,0.16,1.27,0.51,1.47,0.68c0.39,0.29,0.58,0.43,1.28,0.18C43.55,105.88,43.46,105.14,42.95,105.02z"/>
	<path class="st3" d="M33.68,108.21c-0.13-0.23-1.03-0.26-1.08-0.25c-0.07-0.01-0.16-0.03-0.22-0.05c0-0.01-0.01-0.01-0.01-0.02
		c-0.02-0.07-0.04-0.14-0.05-0.19c-0.01-0.12-0.01-0.24-0.02-0.36c0.54-2.59-2.31-2.13-3.64-1.05c-0.47,0.55,0.27,1.37,0.87,0.99
		c0.26-0.23,1.24-0.46,1.4-0.51c0.01,0,0.02,0.01,0.03,0.01c-0.12,0.82-0.11,2.56,1.62,2.57C33.2,109.44,34.32,109.19,33.68,108.21z
		"/>
	<path class="st3" d="M29.08,111.72C29.08,111.72,29.08,111.72,29.08,111.72c-0.02-0.02-0.03-0.03-0.05-0.05
		c-0.02-0.04-0.04-0.07-0.05-0.1c0-0.03,0-0.06,0.01-0.11c0-0.01,0.01-0.03,0.01-0.05c0.04-0.06,0.08-0.12,0.11-0.19
		c0.34-0.58-0.3-1.25-0.9-0.99c-0.05,0-0.1,0-0.13-0.01c-0.04-0.01-0.07-0.02-0.09-0.02c-0.74-0.38-1.43-1.08-2.28-1.11
		c-0.74,0.06-0.81,1.19-0.09,1.36c0.03,0.01,0.04,0.01,0.06,0.02c0.05,0.02,0.09,0.04,0.14,0.07c0.61,0.3,1.15,0.74,1.77,1
		c0.01,0,0.02,0,0.03,0c0.02,0.64,0.37,1.27,1.03,1.49C30.43,113.44,30.11,111.63,29.08,111.72z"/>
	<path class="st3" d="M37.02,115.92c-0.18-0.22-0.91,0.01-1.3,0.15c-0.04-0.3-0.08-0.75-0.11-1c-0.05-0.59-0.21-1.37-0.89-1.52
		c-0.96-0.12-2.06,0.23-2.79,0.85c-0.49,0.56,0.27,1.42,0.9,1.03c0.35-0.28,1.03-0.45,1.36-0.51c0,0.02,0.01,0.03,0.01,0.05
		c0.01,0.06,0.02,0.2,0.03,0.29c0.08,0.81,0.1,3.07,2.06,2.06c0.26-0.11,0.58-0.1,0.8-0.29C37.48,116.79,37.42,116.14,37.02,115.92z
		"/>
	<path class="st3" d="M43.34,116.42c0-0.01-0.01-0.03-0.01-0.05c0-0.05-0.01-0.1-0.01-0.17c0.01-0.1-0.01,0.04-0.01,0.1
		c0.02-0.12,0.03-0.25,0.04-0.38c0.23-1.65-4.01-1.38-4.93-0.93c-0.61,0.42-0.1,1.44,0.61,1.22c0.85-0.17,1.95-0.21,2.9-0.01
		c0,0.01,0,0.02,0,0.03c0.01,0.24,0.03,0.48,0.11,0.7c0.22,0.73,1.11,1.18,1.79,0.79C45.04,117.32,44.38,115.74,43.34,116.42z"/>
	<path class="st3" d="M41.4,110.17c-0.47-0.36-1.07-0.42-1.64-0.38c-0.25,0.03-0.54-0.02-0.73,0.18c-0.33,0.31-0.08,0.91,0.37,0.89
		c0.52-0.03,0.9-0.04,1.12,0.04c0.05,0.03,0.13,0.07,0.17,0.1c0.02,0.02,0.04,0.03,0.05,0.05c0.16,0.25,0.24,0.59,0.57,0.67
		c0.37,0.11,0.76-0.19,0.76-0.58C41.98,110.64,41.68,110.42,41.4,110.17z"/>
	<path class="st3" d="M51.21,112.89c-0.4-0.38-1.35-0.69-1.83-1.15c-0.36-0.34-0.35-0.33-0.43-0.48c0.02,0.03,0.02,0.05,0.03,0.07
		c-0.05-0.09-0.17-0.3-0.29-0.33c-0.51-0.32-1.21,0.21-1.03,0.79c0.36,0.82,1.19,1.33,1.94,1.75c0.38,0.22,0.79,0.52,1.25,0.41
		C51.3,113.83,51.52,113.24,51.21,112.89z"/>
	<path class="st3" d="M55.76,112.08c-0.4,0-0.83-0.17-1.22-0.07c-0.44,0.16-0.3,0.87,0.17,0.85c0.51-0.03,1.14,0.24,1.6-0.04
		C56.66,112.4,56.2,112.02,55.76,112.08z"/>
	<path class="st3" d="M73.7,65.49c-0.65-0.01-0.65,1.01,0,1C74.35,66.5,74.35,65.49,73.7,65.49z"/>
	<path class="st3" d="M84.04,77.76c-0.65-0.01-0.65,1.01,0,1C84.69,78.77,84.69,77.75,84.04,77.76z"/>
	<path class="st1" d="M98.49,50.31c-1.47-3.32-3.46-6.69-6.42-8.87c-0.05-0.09-0.1-0.16-0.14-0.22c-0.01-0.01-0.01-0.03-0.02-0.04
		c-0.03-0.08-0.13-0.32-0.22-0.38c-0.01-0.02-0.03-0.02-0.05-0.04c-0.08-0.14-0.15-0.29-0.24-0.42c-0.35-0.3-0.95-0.09-1.06,0.35
		c-0.04,0.18-0.01,0.36,0.03,0.53c-0.09,0.11-0.15,0.25-0.16,0.44c0.01,0.09,0.03,0.17,0.04,0.26c-0.03,0.02-0.06,0.03-0.09,0.06
		c-0.12,0.1-0.18,0.22-0.21,0.35c-0.06-0.02-0.12-0.06-0.19-0.08c-0.38,0.03-0.57,0.21-0.64,0.47c-0.13-0.14-0.3-0.23-0.49-0.24
		c-0.05,0-0.09,0.02-0.14,0.04c-0.08-0.11-0.16-0.22-0.24-0.33c-0.25-0.49-0.93-0.85-1.33-0.31c-0.36,0.55,0.09,1.1,0.57,1.61
		c0.24,0.33,0.55,0.76,0.89,1.22c0.96,2.77,2.51,5.3,4.15,7.73c1.29,1.69,2.14,3.42,3.55,4.48c0.52,0.15,1.01-0.38,0.86-0.89
		c-0.31-1.08-0.62-2.16-1.15-3.16c0.29,0.09,0.52,0.11,0.68,0.05c0.11,0.08,0.23,0.14,0.35,0.19c0.59,0.7,1.92,1.73,2.45,0.45
		C99.38,52.44,98.83,51.35,98.49,50.31z"/>
	<path class="st1" d="M99.04,76.77c-0.19-1.71-0.33-3.72-0.62-4.84c-0.12-0.87-0.11-1.76-0.32-2.62c-0.24-0.95-0.66-1.84-0.92-2.78
		c-1.22-4.24-3.4-8.09-5.39-12c-0.3-0.81-0.85-3.07-1.62-4.36c-0.16-0.79-1.11-2.63-2.03-3.95c-0.46-0.89-0.51-1.03-0.9-2.02
		c-0.05-0.18-0.17-0.33-0.32-0.42c-0.51-0.32-1.21,0.21-1.03,0.79c0.45,1.31,1.12,2.51,1.87,3.66c-0.07-0.07-0.14-0.12-0.23-0.17
		c-0.09-0.09-0.27-0.3-0.36-0.41c-0.7-1.02-1.32-2.09-1.97-3.14c-0.16-0.25-0.37-0.46-0.63-0.59c-0.34-0.47-0.78-0.84-1.26-1.15
		c-0.31-0.16-0.98-1.14-1.69-1.64c-0.94-0.56-1.8-1.84-2.83-2.35c-0.87-0.22-1.29,1.1-0.39,1.37l0,0c0.01,0.01,0.02,0.02,0.04,0.03
		c0.38,0.28,0.5,0.53,1.23,1.16c1.04,0.89,1.46,1.09,2.32,2.14c0.89,0.72,1,0.72,1.78,1.58c0.05,0.04,0.11,0.07,0.17,0.1
		c0.02,0.02,0.04,0.04,0.06,0.07c0.58,0.97,1.19,1.91,1.77,2.88c0.3,0.4,0.59,0.85,1.01,1.13c0.31,0.59,1.1,2.32,1.39,2.84
		c0.32,1.05,0.81,2.02,1.38,2.96c0.46,1.28,1.13,2.45,1.56,3.76c0.39,1.2,1.3,2.57,1.51,3.26c0.59,2.18,1.46,3.7,2.01,5.46
		c0.33,1.26,0.66,2.5,0.93,3.77c0.47,1.23,0.93,1.57,1.21,2.67c0.26,0.85,0.61,2.06,0.9,3.11c0.06,0.67,0.15,1.33,0.28,1.87
		c0.12,0.9,1.51,1.21,1.59,0.12C99.42,78.3,99.24,77.53,99.04,76.77z"/>
	<path class="st3" d="M51.42,122.56c-0.86,0.14-1.87,0.39-3.22,0.54c-1.55,0.36-2.33,0.49-4.33,0.56c-1.27,0.15-2.35,0.02-3.74-0.12
		c-2.38-0.15-3.46-0.17-5.31-0.73c-2.57-0.64-4.06-1.07-6.18-2.19c-1.79-0.7-4-1.79-5.47-2.59c-2.02-0.96-4.3-2.36-5.66-3.35
		c-0.81-0.55-0.66-0.52-1.28-1.3c-0.23-0.2-0.52-0.18-0.75-0.05c-0.01,0-0.01-0.01-0.02-0.01c-0.02-0.01-0.03-0.02-0.05-0.03
		c-0.9-0.84-1.56-1.61-2.01-2.36c-1.13-1.53-1.28-1.62-2.58-3.8c-0.7-0.98-1.22-1.47-1.97-3.06c-0.16-0.28-0.31-0.92-0.68-1.59
		c-0.13-0.28-0.29-0.54-0.43-0.82c-0.46-1.31-0.92-2.62-1.3-3.95c-0.14-0.84-0.57-2.68-0.91-4.07c-0.02-0.14-0.05-0.38-0.07-0.51
		c0-0.04-0.1-0.98-0.09-1.19c-0.03-0.6-0.22-1.18-0.33-1.77c0-0.01,0-0.01,0-0.01C5,88.04,5.04,85.6,5.31,84.46
		c0.24-1.12,0.45-2.24,0.66-3.37c0.05-0.26,0.12-0.53-0.03-0.76c-0.28-0.52-1.14-0.42-1.28,0.17c-0.65,3.28-1.18,5.61-1.01,8.97
		c-0.06,0.8,0.19,1.56,0.33,2.34c0.04,0.46,0.11,1.7,0.25,2.38c0.6,2.17,0.68,3.48,1.36,5.49c0.43,1.19,0.75,2.43,1.4,3.53
		c0.35,0.75,0.64,1.52,1.17,2.61c0.39,0.52,0.97,1.41,1.54,2.11c0.48,0.93,1.99,3.15,2.29,3.38c0.35,0.53,0.64,1.11,1.11,1.55
		c0.48,0.58,0.97,1.18,1.57,1.63c0.08,0.05,0.17,0.08,0.26,0.12c-0.02,0,0,0.02,0.1,0.06c0.05,0.04,0.16,0.09,0.24,0.12
		c0.13,0.12,0.22,0.29,0.4,0.33c0.06,0.03,0.12,0.02,0.19,0.03c0.26,0.25,0.56,0.47,0.86,0.67c0.36,0.27,0.88,0.63,1.6,1.07
		c1.4,1.01,2.97,1.77,4.52,2.51c0.22,0.12,1.86,1.11,2.72,1.41c1.66,0.67,2.96,1.35,4.96,2.24c1.77,0.54,4.61,1.4,5.78,1.53
		c1.21,0.23,2.44,0.28,3.66,0.35c0.76,0.1,1.86,0.19,3.1,0.22c0.96-0.12,2.42-0.14,3.38-0.26c1.25-0.18,2.19-0.52,3.06-0.55
		c0.56-0.04,1.11-0.21,1.66-0.33c0.01,0,0.01,0,0.01,0c0.01,0,0.02,0,0.03,0c0.32-0.03,0.65-0.07,0.96-0.18
		c0.47-0.27,1.29-0.07,1.19-1.08C52.84,121.72,52.27,122.43,51.42,122.56z"/>
</g>
<g id="Layer_2">
	<path class="st4" d="M77.84,45.27c-0.18-2.12-1.27-4.29-1.84-5.75c-0.74-1.89-1.09-3.08-0.96-4.92c0.07-1.04,0.61-3.11,0.82-4.72
		c0.01-0.74-1.03-0.98-1.36-0.32c-0.52,1.34-0.97,3.17-1.47,3.59c-1.33,1.46-2.92,2.21-5.11,2.53c-1.5,0.35-3.64,0.12-5.33,1.36
		c-1.78,1.33-3.03,3.34-3.93,5.35c-0.93,2.37-0.99,5.17-0.02,7.54c0.93,3.02,3.44,5.59,6.46,6.58c3.25,1.45,6.89,0.07,9.42-2.16
		C77.09,52.14,78.13,48.58,77.84,45.27z"/>
	<g>
		<path class="st5" d="M69.34,38.1c0.03-0.01,0.06-0.02,0.08-0.03C69.4,38.07,69.23,38.14,69.34,38.1z"/>
		<g>
			<path class="st5" d="M72.85,43.55c0-0.01,0-0.01,0-0.02c-0.01-0.03-0.02-0.05-0.03-0.07c0.01,0.04,0.02,0.08,0.03,0.13
				C72.85,43.58,72.85,43.56,72.85,43.55z"/>
			<path class="st5" d="M74.28,44.15c0-0.48-0.05-0.95-0.21-1.4c0-0.01,0-0.01,0-0.02c-0.01-0.62-0.13-1.22-0.33-1.8
				c-0.03-0.09-0.07-0.17-0.08-0.26c0-0.02,0-0.02,0-0.04c0.05-0.17-0.09-0.85-0.12-0.94c0-0.01,0-0.02,0-0.02
				c0.07-0.33,0.01-0.67-0.07-0.99c0-0.13-0.01-0.25-0.02-0.38c0.05-0.17,0.02-0.56,0.01-0.69c-0.03-0.53,0.08-0.43,0.04-0.82
				c-0.03-0.46-0.49-0.66-0.87-0.57c-0.03,0-0.05,0-0.08,0c-0.2-0.09-0.45-0.09-0.63,0.1c-0.82,0.65-0.38,0.26-0.98,0.55
				c-0.42,0.24-0.4,0.26-0.79,0.41c-0.72,0.18-1.38,0.53-2.03,0.87c-1.07,0.44-2.09,0.97-3.04,1.64c-0.39,0.24-0.69,0.57-0.96,0.93
				c-0.02,0.01-0.04,0.02-0.06,0.03c-0.7,0.65-0.82,0.6-1.77,1.49c-0.22,0.26-0.34,0.59-0.51,0.88c-0.36,0.57-0.33,0.41-0.7,1.07
				c-0.63,1.72-0.6,2.92-0.55,3.89c0,0.48,0.2,0.93,0.24,1.41c0.05,0.39,0.02,0.56,0.37,1.17c0.1,0.25,0.11,0.52,0.21,0.77
				c0.22,0.51,0.57,0.95,0.78,1.46c0.07,0.16,0.03,0.06,0-0.01c0.07,0.19,0.17,0.37,0.26,0.56c0.19,0.48,0.57,0.88,1.08,1.01
				c0.08,0.03,0.17,0.05,0.25,0.07c0.31,0.4,0.61,0.32,1.05,0.57c0.22,0.06,0.39,0.25,1.32,0.29c0.73-0.02,1.18-0.39,1.13-0.32
				c0.01,0,0,0,0.01,0c0.11-0.01,0.23-0.01,0.34-0.03c0.08-0.02,0.2-0.05,0.27-0.07c0.58,0.18,1.03-0.29,1.39-0.69
				c0.04-0.04,0.1-0.09,0.16-0.14c0.25-0.07,0.38-0.15,0.49-0.24c1.12-0.64,1.7-1.08,2.45-1.99c1.13-1.76,1.09-1.82,1.79-3.38
				C74.52,47.44,74.43,45.27,74.28,44.15z"/>
		</g>
	</g>
	<path class="st6" d="M71.32,39.73c-0.25-0.36-0.83-0.35-1.1-0.02c-0.4,0.48-0.33,0.34-1.02,1.46c-0.08,0.08-0.58,0.66-0.75,0.9
		c-0.04,0.03-0.08,0.07-0.12,0.1c0.1-0.07-0.33,0.23-0.64,0.45c-0.65,0.41-2.21,1.8-2.64,2.54c-0.51,0.76-0.93,1.61-1.02,2.53
		c-0.02,0.81,0.2,1.64,0.48,2.39c0.15,0.38,0.48,0.48,0.77,0.42c0.31,0.17,0.77,0.31,1.19,0.23c0.51-0.1,0.89-0.48,1.33-0.73
		c0.58-0.22,1.71-1.61,2.03-3.13c0.48-1.63,0.42-2.4,0.83-3.97c0.24-0.92,0.63-1.81,0.83-2.75C71.47,40,71.42,39.85,71.32,39.73z"/>
</g>
</svg>
