<svg width="167" height="233" viewBox="0 0 167 233" fill="none" xmlns="http://www.w3.org/2000/svg">
<g filter="url(#filter0_d_42_33580)">
<path d="M4 219.122V5.8258C4 2.60975 6.55235 0 9.69766 0H156.427C159.573 0 162.125 2.60975 162.125 5.8258V219.122C162.125 222.338 159.573 224.948 156.427 224.948H9.69766C6.55235 224.948 4 222.338 4 219.122Z" fill="white"/>
</g>
<path d="M37.514 184.57C37.514 184.912 37.298 185.164 36.668 185.164H35.678V186.64C35.678 187.036 35.426 187.126 35.03 187.126C34.814 187.126 34.67 187.09 34.544 187.036V185.164H29.648C29.54 185.02 29.486 184.75 29.486 184.588C29.486 184.462 29.504 184.282 29.72 183.994L34.436 177.676C34.544 177.622 34.724 177.586 34.922 177.586C35.408 177.586 35.678 177.82 35.678 178.468V184.228H37.424C37.496 184.336 37.514 184.48 37.514 184.57ZM34.562 184.228V178.792L30.638 184.228H34.562ZM46.1 184.498C46.1 186.136 44.516 187.108 42.338 187.108C40.412 187.108 38.882 186.244 38.882 184.678C38.882 183.508 39.53 182.698 40.826 181.942C39.908 181.438 39.494 180.772 39.494 179.872C39.494 178.396 40.826 177.658 42.716 177.658C44.624 177.658 45.632 178.63 45.632 179.764C45.632 180.988 45.002 181.672 44.03 182.266C45.65 182.986 46.1 183.472 46.1 184.498ZM44.606 179.926C44.606 179.098 43.886 178.45 42.572 178.45C41.258 178.45 40.52 178.936 40.52 179.782C40.52 180.556 40.988 181.15 43.346 181.96C44.264 181.366 44.606 180.844 44.606 179.926ZM44.93 184.678C44.93 183.742 43.976 183.328 41.456 182.284C40.394 183.058 40.034 183.58 40.034 184.498C40.034 185.758 41.294 186.28 42.572 186.28C43.778 186.28 44.93 185.722 44.93 184.678ZM64.676 186.514C64.676 186.91 64.226 187.054 63.236 187.054C62.372 187.054 62.264 187.018 62.264 186.064C62.264 185.506 62.318 182.734 62.318 182.248C62.318 181.132 61.94 180.664 60.644 180.664C59.906 180.664 58.952 181.15 58.538 181.78V186.964C58.448 187.018 58.286 187.054 58.016 187.054C57.494 187.054 57.44 186.892 57.44 186.28C57.44 185.938 57.422 183.85 57.422 181.42C57.422 179.134 57.422 177.928 57.44 177.244C57.44 176.74 57.548 176.506 57.98 176.506C58.232 176.506 58.412 176.542 58.574 176.596L58.556 177.514L58.538 180.178C58.538 180.826 58.52 181.186 58.52 181.186C58.862 180.304 59.78 179.782 61.022 179.782C62.696 179.782 63.398 180.448 63.398 182.032C63.398 182.698 63.398 184.66 63.362 186.19H64.586C64.64 186.298 64.676 186.406 64.676 186.514ZM72.866 183.184C72.866 185.83 71.534 187.09 69.338 187.09C66.998 187.09 66.116 185.992 66.116 183.706C66.116 181.204 67.466 179.764 69.716 179.764C71.984 179.764 72.866 180.97 72.866 183.184ZM71.75 183.346C71.75 181.672 71.264 180.592 69.626 180.592C68.024 180.592 67.232 181.492 67.232 183.562C67.232 185.434 67.7 186.244 69.5 186.244C71.048 186.244 71.75 185.218 71.75 183.346ZM75.656 180.772H74.612C74.558 180.682 74.522 180.592 74.522 180.484C74.522 180.142 74.846 179.926 75.728 179.926C76.736 179.926 76.754 180.034 76.754 180.664C76.754 181.222 76.664 184.228 76.664 184.714C76.664 185.776 76.862 186.298 78.104 186.298C78.86 186.298 79.85 185.812 80.264 185.182V180.52C80.264 180.124 80.444 179.944 80.876 179.944C81.11 179.944 81.236 179.98 81.38 180.052V186.208H82.334C82.388 186.28 82.406 186.37 82.406 186.496C82.406 186.928 82.028 187.054 81.254 187.054C80.804 187.054 80.444 187.018 80.192 186.964L80.282 185.578C80.192 186.532 78.95 187.18 77.744 187.18C76.07 187.18 75.566 186.532 75.566 184.93C75.566 184.282 75.62 182.32 75.656 180.772ZM85.088 186.19V184.228C85.088 183.238 85.088 181.726 85.124 180.772H83.72C83.666 180.682 83.63 180.592 83.63 180.484C83.63 180.142 83.99 179.926 85.214 179.926C85.664 179.926 86.042 179.962 86.294 180.016L86.186 182.554C88.04 179.746 88.526 179.782 89.516 179.782C90.344 179.782 91.118 180.394 91.118 181.636C91.118 182.086 90.902 182.482 90.398 182.482C90.308 182.482 90.218 182.464 90.128 182.446C90.002 181.078 89.786 180.664 89.318 180.664C88.724 180.664 88.202 180.772 86.222 183.634V186.19L88.976 186.154C89.048 186.28 89.084 186.442 89.084 186.568C89.084 186.838 88.868 187.018 88.472 187.018C88.328 187.018 84.314 187 84.242 187C84.152 186.928 84.098 186.784 84.098 186.64C84.098 186.298 84.368 186.208 84.584 186.208C84.872 186.19 85.088 186.19 85.088 186.19ZM99.722 184.858C99.722 185.992 98.84 187.054 96.428 187.054C94.034 187.054 93.08 186.514 93.08 185.866C93.08 185.65 93.242 185.416 93.548 185.344C94.034 185.83 95.438 186.226 96.464 186.226C98.12 186.226 98.642 185.812 98.642 185.128C98.642 184.552 98.372 184.336 97.454 184.174C96.446 183.994 95.132 183.796 94.718 183.652C93.764 183.328 93.404 182.878 93.404 181.996C93.404 180.664 94.682 179.764 96.806 179.764C98.372 179.764 99.614 180.196 99.614 180.844C99.614 181.078 99.47 181.258 99.164 181.384C98.642 180.934 97.562 180.61 96.662 180.61C95.114 180.61 94.466 181.114 94.466 181.834C94.466 182.446 94.664 182.716 95.744 182.95C96.266 183.058 97.382 183.22 98.156 183.364C99.308 183.58 99.722 184.03 99.722 184.858ZM115.562 177.532C115.562 177.874 115.382 178.234 114.77 178.234C114.23 178.234 113.996 178.018 113.996 177.568C113.996 177.172 114.32 176.866 114.842 176.866C115.4 176.866 115.562 177.19 115.562 177.532ZM114.158 186.154V184.228C114.158 183.238 114.176 181.762 114.194 180.772H111.62C111.566 180.682 111.548 180.592 111.548 180.484C111.548 180.088 112.034 179.926 113.456 179.926C115.13 179.926 115.31 180.124 115.31 180.43L115.292 186.154L117.83 186.118C117.902 186.244 117.938 186.442 117.938 186.568C117.938 186.838 117.722 187.018 117.326 187.018C117.182 187.018 111.26 187 111.188 187C111.098 186.928 111.044 186.784 111.044 186.64C111.044 186.298 111.314 186.172 111.53 186.172C111.818 186.154 114.158 186.154 114.158 186.154ZM127.748 186.514C127.748 186.946 127.28 187.054 126.344 187.054C125.462 187.054 125.354 187.018 125.354 186.064C125.354 185.506 125.408 182.734 125.408 182.248C125.408 181.132 125.012 180.664 123.734 180.664C122.978 180.664 122.078 181.15 121.664 181.78V186.964C121.556 187.018 121.376 187.054 121.106 187.054C120.602 187.054 120.53 186.874 120.53 186.28V184.228C120.53 183.238 120.53 181.726 120.566 180.772H119.342C119.288 180.682 119.252 180.592 119.252 180.484C119.252 180.142 119.432 179.926 120.656 179.926C121.106 179.926 121.484 179.962 121.736 180.016L121.628 181.384C121.718 180.448 122.852 179.782 124.094 179.782C125.768 179.782 126.506 180.448 126.506 182.032C126.506 182.698 126.488 184.66 126.452 186.19H127.676C127.73 186.298 127.748 186.406 127.748 186.514ZM59.15 208.19V199.352H57.35C57.296 199.262 57.26 199.172 57.26 199.064C57.26 198.668 57.998 198.506 59.222 198.506C59.672 198.506 60.05 198.542 60.302 198.596L60.266 199.514V208.172L63.236 208.154C63.308 208.28 63.344 208.442 63.344 208.568C63.344 208.91 63.056 209.036 61.292 209.036C59.492 209.036 59.15 208.946 59.15 208.19ZM72.866 205.184C72.866 207.83 71.534 209.09 69.338 209.09C66.998 209.09 66.116 207.992 66.116 205.706C66.116 203.204 67.466 201.764 69.716 201.764C71.984 201.764 72.866 202.97 72.866 205.184ZM71.75 205.346C71.75 203.672 71.264 202.592 69.626 202.592C68.024 202.592 67.232 203.492 67.232 205.562C67.232 207.434 67.7 208.244 69.5 208.244C71.048 208.244 71.75 207.218 71.75 205.346ZM82.748 208.514C82.748 208.946 82.28 209.054 81.344 209.054C80.462 209.054 80.354 209.018 80.354 208.064C80.354 207.506 80.408 204.734 80.408 204.248C80.408 203.132 80.012 202.664 78.734 202.664C77.978 202.664 77.078 203.15 76.664 203.78V208.964C76.556 209.018 76.376 209.054 76.106 209.054C75.602 209.054 75.53 208.874 75.53 208.28V206.228C75.53 205.238 75.53 203.726 75.566 202.772H74.342C74.288 202.682 74.252 202.592 74.252 202.484C74.252 202.142 74.432 201.926 75.656 201.926C76.106 201.926 76.484 201.962 76.736 202.016L76.628 203.384C76.718 202.448 77.852 201.782 79.094 201.782C80.768 201.782 81.506 202.448 81.506 204.032C81.506 204.698 81.488 206.66 81.452 208.19H82.676C82.73 208.298 82.748 208.406 82.748 208.514ZM91.82 208.532C91.82 208.964 91.478 209.054 90.38 209.054C89.93 209.054 89.588 209.018 89.318 208.964L89.426 207.614C89.336 208.514 88.238 209.054 87.05 209.054C85.214 209.054 84.17 207.974 84.17 205.67C84.17 203.384 85.592 201.764 87.95 201.764C88.544 201.764 89.138 201.836 89.39 201.926V199.244C89.39 198.74 89.498 198.506 89.948 198.506C90.182 198.506 90.398 198.542 90.56 198.596L90.524 199.514C90.506 199.856 90.524 203.996 90.524 204.77C90.524 205.76 90.524 207.308 90.506 208.244L91.73 208.226C91.784 208.298 91.82 208.424 91.82 208.532ZM89.39 207.218V202.808C88.922 202.7 88.4 202.664 87.824 202.664C85.97 202.664 85.286 203.888 85.286 205.454C85.286 207.344 85.754 208.208 87.374 208.208C88.112 208.208 89.012 207.776 89.39 207.218ZM99.866 205.184C99.866 207.83 98.534 209.09 96.338 209.09C93.998 209.09 93.116 207.992 93.116 205.706C93.116 203.204 94.466 201.764 96.716 201.764C98.984 201.764 99.866 202.97 99.866 205.184ZM98.75 205.346C98.75 203.672 98.264 202.592 96.626 202.592C95.024 202.592 94.232 203.492 94.232 205.562C94.232 207.434 94.7 208.244 96.5 208.244C98.048 208.244 98.75 207.218 98.75 205.346ZM109.748 208.514C109.748 208.946 109.28 209.054 108.344 209.054C107.462 209.054 107.354 209.018 107.354 208.064C107.354 207.506 107.408 204.734 107.408 204.248C107.408 203.132 107.012 202.664 105.734 202.664C104.978 202.664 104.078 203.15 103.664 203.78V208.964C103.556 209.018 103.376 209.054 103.106 209.054C102.602 209.054 102.53 208.874 102.53 208.28V206.228C102.53 205.238 102.53 203.726 102.566 202.772H101.342C101.288 202.682 101.252 202.592 101.252 202.484C101.252 202.142 101.432 201.926 102.656 201.926C103.106 201.926 103.484 201.962 103.736 202.016L103.628 203.384C103.718 202.448 104.852 201.782 106.094 201.782C107.768 201.782 108.506 202.448 108.506 204.032C108.506 204.698 108.488 206.66 108.452 208.19H109.676C109.73 208.298 109.748 208.406 109.748 208.514Z" fill="#1A1A3D"/>
<defs>
<filter id="filter0_d_42_33580" x="0" y="0" width="166.125" height="232.948" filterUnits="userSpaceOnUse" color-interpolation-filters="sRGB">
<feFlood flood-opacity="0" result="BackgroundImageFix"/>
<feColorMatrix in="SourceAlpha" type="matrix" values="0 0 0 0 0 0 0 0 0 0 0 0 0 0 0 0 0 0 127 0" result="hardAlpha"/>
<feOffset dy="4"/>
<feGaussianBlur stdDeviation="2"/>
<feComposite in2="hardAlpha" operator="out"/>
<feColorMatrix type="matrix" values="0 0 0 0 0 0 0 0 0 0 0 0 0 0 0 0 0 0 0.25 0"/>
<feBlend mode="normal" in2="BackgroundImageFix" result="effect1_dropShadow_42_33580"/>
<feBlend mode="normal" in="SourceGraphic" in2="effect1_dropShadow_42_33580" result="shape"/>
</filter>
</defs>
</svg>
