<svg width="167" height="233" viewBox="0 0 167 233" fill="none" xmlns="http://www.w3.org/2000/svg">
<g filter="url(#filter0_d_42_33604)">
<path d="M4 219.122V5.8258C4 2.60975 6.55235 0 9.69766 0H156.427C159.573 0 162.125 2.60975 162.125 5.8258V219.122C162.125 222.338 159.573 224.948 156.427 224.948H9.69766C6.55235 224.948 4 222.338 4 219.122Z" fill="white"/>
</g>
<path d="M55.55 182.514C55.55 182.82 55.334 183.054 54.794 183.054C54.398 183.054 54.146 182.892 54.146 182.496C54.146 181.866 54.2 178.41 54.2 177.924C54.2 177.042 54.092 176.664 53.336 176.664C52.796 176.664 52.328 176.988 52.004 177.834V182.964C51.914 183.018 51.716 183.054 51.446 183.054C50.996 183.054 50.888 182.91 50.888 182.28C50.888 181.668 50.942 178.356 50.942 177.87C50.942 176.934 50.744 176.664 50.042 176.664C49.466 176.664 49.034 176.988 48.71 177.816V182.964C48.602 183.018 48.44 183.054 48.17 183.054C47.666 183.054 47.648 182.91 47.612 182.28C47.594 181.938 47.594 181.002 47.594 180.228C47.594 179.238 47.612 177.726 47.63 176.772C47.648 176.178 47.864 175.962 48.26 175.962C48.386 175.962 48.53 175.98 48.674 176.016V177.222C48.854 176.376 49.412 175.782 50.33 175.782C51.518 175.782 51.842 176.286 51.95 177.312C52.166 176.358 52.76 175.782 53.624 175.782C54.722 175.782 55.262 176.286 55.262 177.672C55.262 178.338 55.262 180.66 55.226 182.19H55.46C55.514 182.28 55.55 182.406 55.55 182.514ZM63.866 179.184C63.866 181.83 62.534 183.09 60.338 183.09C57.998 183.09 57.116 181.992 57.116 179.706C57.116 177.204 58.466 175.764 60.716 175.764C62.984 175.764 63.866 176.97 63.866 179.184ZM62.75 179.346C62.75 177.672 62.264 176.592 60.626 176.592C59.024 176.592 58.232 177.492 58.232 179.562C58.232 181.434 58.7 182.244 60.5 182.244C62.048 182.244 62.75 181.218 62.75 179.346ZM73.748 182.514C73.748 182.946 73.28 183.054 72.344 183.054C71.462 183.054 71.354 183.018 71.354 182.064C71.354 181.506 71.408 178.734 71.408 178.248C71.408 177.132 71.012 176.664 69.734 176.664C68.978 176.664 68.078 177.15 67.664 177.78V182.964C67.556 183.018 67.376 183.054 67.106 183.054C66.602 183.054 66.53 182.874 66.53 182.28V180.228C66.53 179.238 66.53 177.726 66.566 176.772H65.342C65.288 176.682 65.252 176.592 65.252 176.484C65.252 176.142 65.432 175.926 66.656 175.926C67.106 175.926 67.484 175.962 67.736 176.016L67.628 177.384C67.718 176.448 68.852 175.782 70.094 175.782C71.768 175.782 72.506 176.448 72.506 178.032C72.506 178.698 72.488 180.66 72.452 182.19H73.676C73.73 182.298 73.748 182.406 73.748 182.514ZM81.992 182.046C81.992 182.784 80.714 183.09 78.824 183.09C77.42 183.09 76.592 182.586 76.592 181.092C76.592 179.85 76.61 178.23 76.628 176.88L74.666 176.862C74.612 176.772 74.576 176.664 74.576 176.538C74.576 176.106 75.044 175.998 76.646 175.998L76.628 174.306C76.628 173.91 76.79 173.586 77.204 173.586C77.474 173.586 77.636 173.64 77.762 173.694L77.744 175.998H81.578C81.614 176.07 81.668 176.214 81.668 176.34C81.668 176.772 81.416 176.916 80.732 176.916C80.354 176.916 78.464 176.916 77.744 176.898V180.786C77.726 181.866 78.086 182.208 79.112 182.208C80.336 182.208 80.966 181.974 81.632 181.578C81.884 181.65 81.992 181.812 81.992 182.046ZM100.82 182.532C100.82 182.964 100.478 183.054 99.38 183.054C98.93 183.054 98.588 183.018 98.318 182.964L98.426 181.614C98.336 182.514 97.238 183.054 96.05 183.054C94.214 183.054 93.17 181.974 93.17 179.67C93.17 177.384 94.592 175.764 96.95 175.764C97.544 175.764 98.138 175.836 98.39 175.926V173.244C98.39 172.74 98.498 172.506 98.948 172.506C99.182 172.506 99.398 172.542 99.56 172.596L99.524 173.514C99.506 173.856 99.524 177.996 99.524 178.77C99.524 179.76 99.524 181.308 99.506 182.244L100.73 182.226C100.784 182.298 100.82 182.424 100.82 182.532ZM98.39 181.218V176.808C97.922 176.7 97.4 176.664 96.824 176.664C94.97 176.664 94.286 177.888 94.286 179.454C94.286 181.344 94.754 182.208 96.374 182.208C97.112 182.208 98.012 181.776 98.39 181.218ZM108.92 181.794C108.92 182.424 107.588 183.09 105.59 183.09C103.268 183.09 102.152 182.028 102.152 179.724C102.152 177.438 103.466 175.764 105.95 175.764C107.912 175.764 108.902 176.844 108.902 178.086C108.902 179.22 108.596 179.544 108.326 179.544H103.304C103.304 181.398 103.898 182.262 105.914 182.262C106.724 182.262 107.804 181.92 108.56 181.326C108.83 181.416 108.92 181.578 108.92 181.794ZM107.804 178.824C107.84 178.608 107.858 178.41 107.858 178.23C107.858 177.276 107.084 176.574 105.662 176.574C104.222 176.574 103.52 177.528 103.34 178.824H107.804ZM117.722 180.858C117.722 181.992 116.84 183.054 114.428 183.054C112.034 183.054 111.08 182.514 111.08 181.866C111.08 181.65 111.242 181.416 111.548 181.344C112.034 181.83 113.438 182.226 114.464 182.226C116.12 182.226 116.642 181.812 116.642 181.128C116.642 180.552 116.372 180.336 115.454 180.174C114.446 179.994 113.132 179.796 112.718 179.652C111.764 179.328 111.404 178.878 111.404 177.996C111.404 176.664 112.682 175.764 114.806 175.764C116.372 175.764 117.614 176.196 117.614 176.844C117.614 177.078 117.47 177.258 117.164 177.384C116.642 176.934 115.562 176.61 114.662 176.61C113.114 176.61 112.466 177.114 112.466 177.834C112.466 178.446 112.664 178.716 113.744 178.95C114.266 179.058 115.382 179.22 116.156 179.364C117.308 179.58 117.722 180.03 117.722 180.858ZM77.78 204.082C77.834 204.136 77.888 204.28 77.888 204.424C77.888 204.712 77.726 205.072 76.934 205.072C76.124 205.072 75.62 204.694 75.62 203.416C75.512 204.406 74.54 205.072 72.92 205.072C71.336 205.072 70.742 204.226 70.742 203.164C70.742 201.922 71.354 200.932 73.478 200.932C73.946 200.932 74.99 200.986 75.674 201.076L75.692 200.158C75.71 199.15 75.062 198.7 73.856 198.7C73.082 198.7 72.398 198.916 71.678 199.492C71.282 199.438 71.156 199.258 71.156 198.952C71.156 198.412 72.182 197.764 74.036 197.764C75.836 197.764 76.772 198.556 76.772 200.032L76.736 203.236C76.718 203.812 76.88 204.118 77.438 204.118C77.546 204.118 77.654 204.1 77.78 204.082ZM75.638 201.796C75.062 201.688 74.306 201.652 73.712 201.652C72.344 201.652 71.858 202.066 71.858 203.038C71.858 203.794 72.29 204.28 73.262 204.28C74.27 204.28 75.062 203.848 75.62 203.11L75.638 201.796ZM80.588 204.19V202.228C80.588 201.238 80.588 199.726 80.624 198.772H79.22C79.166 198.682 79.13 198.592 79.13 198.484C79.13 198.142 79.49 197.926 80.714 197.926C81.164 197.926 81.542 197.962 81.794 198.016L81.686 200.554C83.54 197.746 84.026 197.782 85.016 197.782C85.844 197.782 86.618 198.394 86.618 199.636C86.618 200.086 86.402 200.482 85.898 200.482C85.808 200.482 85.718 200.464 85.628 200.446C85.502 199.078 85.286 198.664 84.818 198.664C84.224 198.664 83.702 198.772 81.722 201.634V204.19L84.476 204.154C84.548 204.28 84.584 204.442 84.584 204.568C84.584 204.838 84.368 205.018 83.972 205.018C83.828 205.018 79.814 205 79.742 205C79.652 204.928 79.598 204.784 79.598 204.64C79.598 204.298 79.868 204.208 80.084 204.208C80.372 204.19 80.588 204.19 80.588 204.19ZM95.492 204.046C95.492 204.784 94.214 205.09 92.324 205.09C90.92 205.09 90.092 204.586 90.092 203.092C90.092 201.85 90.11 200.23 90.128 198.88L88.166 198.862C88.112 198.772 88.076 198.664 88.076 198.538C88.076 198.106 88.544 197.998 90.146 197.998L90.128 196.306C90.128 195.91 90.29 195.586 90.704 195.586C90.974 195.586 91.136 195.64 91.262 195.694L91.244 197.998H95.078C95.114 198.07 95.168 198.214 95.168 198.34C95.168 198.772 94.916 198.916 94.232 198.916C93.854 198.916 91.964 198.916 91.244 198.898V202.786C91.226 203.866 91.586 204.208 92.612 204.208C93.836 204.208 94.466 203.974 95.132 203.578C95.384 203.65 95.492 203.812 95.492 204.046ZM104.222 202.858C104.222 203.992 103.34 205.054 100.928 205.054C98.534 205.054 97.58 204.514 97.58 203.866C97.58 203.65 97.742 203.416 98.048 203.344C98.534 203.83 99.938 204.226 100.964 204.226C102.62 204.226 103.142 203.812 103.142 203.128C103.142 202.552 102.872 202.336 101.954 202.174C100.946 201.994 99.632 201.796 99.218 201.652C98.264 201.328 97.904 200.878 97.904 199.996C97.904 198.664 99.182 197.764 101.306 197.764C102.872 197.764 104.114 198.196 104.114 198.844C104.114 199.078 103.97 199.258 103.664 199.384C103.142 198.934 102.062 198.61 101.162 198.61C99.614 198.61 98.966 199.114 98.966 199.834C98.966 200.446 99.164 200.716 100.244 200.95C100.766 201.058 101.882 201.22 102.656 201.364C103.808 201.58 104.222 202.03 104.222 202.858Z" fill="#1A1A3D"/>
<defs>
<filter id="filter0_d_42_33604" x="0" y="0" width="166.125" height="232.948" filterUnits="userSpaceOnUse" color-interpolation-filters="sRGB">
<feFlood flood-opacity="0" result="BackgroundImageFix"/>
<feColorMatrix in="SourceAlpha" type="matrix" values="0 0 0 0 0 0 0 0 0 0 0 0 0 0 0 0 0 0 127 0" result="hardAlpha"/>
<feOffset dy="4"/>
<feGaussianBlur stdDeviation="2"/>
<feComposite in2="hardAlpha" operator="out"/>
<feColorMatrix type="matrix" values="0 0 0 0 0 0 0 0 0 0 0 0 0 0 0 0 0 0 0.25 0"/>
<feBlend mode="normal" in2="BackgroundImageFix" result="effect1_dropShadow_42_33604"/>
<feBlend mode="normal" in="SourceGraphic" in2="effect1_dropShadow_42_33604" result="shape"/>
</filter>
</defs>
</svg>
