<?xml version="1.0" encoding="utf-8"?>
<!-- Generator: Adobe Adobe Illustrator 24.2.0, SVG Export Plug-In . SVG Version: 6.00 Build 0)  -->
<svg version="1.1" id="Layer_1" xmlns="http://www.w3.org/2000/svg" xmlns:xlink="http://www.w3.org/1999/xlink" x="0px" y="0px"
	 width="500px" height="500px" viewBox="0 0 500 500" style="enable-background:new 0 0 500 500;" xml:space="preserve">
<style type="text/css">
	.st0{fill:#09854D;}
	.st1{fill:#1A1A3D;}
	.st2{fill:#97D141;}
	.st3{fill:none;stroke:#97D141;stroke-miterlimit:10;}
</style>
<path class="st0" d="M170.24,92.31c-0.86,7.94-1.94,15.86-2.47,23.84c-0.88,12.21-1.27,24.46-2.25,36.67
	c-1.89,26.25-4.55,52.45-6.52,78.7c-1.19,13.06-2.34,26.12-3.8,39.15c-1.21,10.82-2.8,21.61-3.78,32.46
	c-1.21,12.36-1.92,24.77-2.78,37.16c-0.6,7.78-1.8,15.51-2.16,23.3c-0.17,4.29-0.14,8.6-0.49,12.88c-0.03,0.66-0.1,1.33-0.17,1.99
	c-0.25,0.18-0.4,0.23-0.86,0.43c-0.22-0.21-0.56-0.29-0.87-0.17c-0.86,0.09-0.98,0.05-1.59,0.05c-2.32-0.07-4.31-0.66-6.19-1.16
	c-0.01-0.15-0.03-0.31-0.01-0.46c0.26-3.76,1.31-9.16,1.59-13.58c0.58-8.31,1.67-16.57,2.71-24.83c0.95-8.9,1.86-17.81,2.77-26.72
	c1.4-18.07,3.94-36.01,5.32-54.08c0.66-9.33,0.77-18.69,1.64-28c1.72-14.74,2.79-29.53,3.67-44.34c1.77-25.1,4.25-50.14,6.05-75.24
	c0.45-5,0.9-10.01,1.42-15c0.17-1.25,0.35-2.49,0.52-3.74c0.76-0.86,2.13-0.92,3.85-0.88c1.28,0.04,3.24,0.38,3.89,0.58
	c0.43,0.1,0.83,0.36,1.27,0.39c0.57,0.04,0.91-0.7,0.55-1.13c-1.59-0.93-3.61-1.04-5.42-1.22c-1.49-0.04-3.1-0.09-4.44,0.67
	c-0.12,0.06-0.22,0.15-0.32,0.23c-0.33,0.01-0.66,0.23-0.69,0.6c-0.01,0.07-0.02,0.13-0.03,0.2c-0.2,0.33-0.36,0.68-0.45,1.03
	c-0.01,0.23,0.1,0.4,0.25,0.52c-1.81,13.87-2.48,27.87-3.66,41.8c-1.93,21.96-3.89,43.91-5.11,65.92
	c-0.74,10.31-1.79,20.59-2.87,30.87c-0.67,7.74-0.85,15.5-1.3,23.25c-0.8,14.56-2.98,28.99-4.27,43.51
	c-1.17,13.39-2.59,26.76-3.99,40.13c-1.03,8.28-2.14,16.55-2.74,24.87c-0.29,4.47-1.09,8.89-1.58,13.34c0,0.7-0.15,1.44,0.09,2.1
	c0.03,0.06,0.08,0.11,0.13,0.16c0.07,0.11,0.16,0.21,0.32,0.27c0,0,0,0,0,0c1.3,1.49,3.94,1.34,5.75,1.58
	c1.45,0.11,3.13,0.66,4.57,0.3c0.06,0.07,0.13,0.13,0.21,0.17c1.01,0.51,1.14-0.79,1.18-1.92c0-0.02,0.02-0.03,0.02-0.05
	c0.01-0.08,0.01-0.16-0.01-0.23c0.01-0.45,0.03-0.85,0.09-1.05c0.41-4.6,0.38-9.22,0.56-13.83c0.38-8.19,1.67-16.31,2.25-24.49
	c1.02-15.63,1.99-31.27,3.84-46.83c4.74-35.37,7.07-70.99,10.27-106.51c2.25-23.52,3.56-47.1,5-70.67
	c0.38-5.61,1.07-11.2,1.72-16.78c0.21-2,0.46-3.99,0.67-5.98c0.02-0.19-0.03-0.38-0.15-0.52C171.13,91.5,170.3,91.71,170.24,92.31z"
	/>
<path class="st0" d="M168.39,90.23c-0.43-0.03-0.86,0-1.29,0.04c-0.06-0.05-0.1-0.11-0.16-0.16c-1.48-0.83-4.4-0.96-5.17,0.88
	c-0.18,0.51-0.19,1.05-0.07,1.55c-0.3,0.29-0.53,0.68-0.58,1.18c-0.69,4.95-1.16,9.94-1.38,14.94c-0.01,0.23-0.01,0.49-0.01,0.77
	c-0.01,0.03-0.03,0.05-0.05,0.08c-0.66,2.65-0.6,5.43-0.68,8.15c0.04,1.4-0.18,2.86,0.17,4.23c0,0.04-0.01,0.07-0.01,0.11
	c-0.55,2.6-0.65,2.86-1.19,4.88c-0.26,0.85-0.44,1.72-0.36,2.61c0.03,0.28,0.13,0.52,0.26,0.74c0.03,0.12,0.05,0.25,0.09,0.37
	c0.07,0.3,0.22,0.56,0.4,0.79c-0.05,0.39-0.1,0.77-0.15,1.15c-0.85,8.04-1.44,16.1-1.92,24.17c-0.71,0.58-1.06,1.52-1.27,2.5
	c-0.24,0.67-0.33,1.39-0.37,2.1c-0.01,0.04-0.01,0.08-0.02,0.12c0-0.02,0.01-0.04,0.02-0.06c-0.01,0.11-0.02,0.22-0.02,0.33
	c-0.01,0.4,0.08,0.75,0.24,1.04c-0.98,11.25-1.42,22.54-2.18,33.81c-0.39,4.02-0.73,8.04-0.98,12.06c-0.01,0.13-0.02,0.25-0.03,0.38
	c-0.06,0.73-0.07,1.47-0.13,2.2c0.01-0.02,0.02-0.03,0.03-0.05c-0.01,0.2-0.02,0.4-0.03,0.6c0.02,0.19,0.07,0.35,0.13,0.51
	c-0.44,3.64-0.79,7.29-1.09,10.94c-0.22,0.47-0.28,1.02-0.12,1.52c-0.73,9.1-1.19,18.23-1.99,27.32c-1.84,17.02-4.15,34-4.83,51.12
	c-0.08,0.67,0.13,1.19,0.47,1.58c-1.77,1.21-1.16,4.22-1.61,6.11c-1.02,8.94-2.04,17.88-2.94,26.83
	c-0.83,9.01-1.55,18.02-2.17,27.05c-0.06,1.13-0.15,2.27-0.21,3.4c-0.4,0.68-0.61,1.51-0.74,2.28c-0.37,2.27-0.72,4.59-0.46,6.89
	c0.37,2.13,2.5,2.65,3.89,1.49c0.85,0.88,2.41,1.19,3.7,0.82c0.98,0.48,2.06,0.44,2.98-0.71c0.67-0.81,0.69-1.8,0.3-2.54
	c0.24-0.61,0.42-1.26,0.54-1.89c0.19-1.49,0.52-3.23-0.4-4.54c-0.02-0.03-0.05-0.05-0.08-0.08c0.22-2.86,0.46-5.72,0.69-8.58
	c1.22-15.61,2.68-31.21,3.93-46.82c0.78-10.44,1.5-20.88,2.35-31.31c0.77-0.19,1.44-0.78,1.54-1.72c1.57-10.82,2.1-21.75,3.07-32.63
	c0.29-2.89,0.54-5.78,1.04-8.64c0.14-0.59-0.03-1.24-0.4-1.72c-0.18-0.24-0.41-0.41-0.66-0.53c0.52-4.55,1.03-9.1,1.49-13.65
	c1.07-10.16,1.6-20.36,2.52-30.53c0.24-2.68,0.38-5.36,0.43-8.05c1.44-0.63,1.56-2.7,0.79-4.08c0.1-0.1,0.21-0.21,0.3-0.34
	c0.9-1.71,0.55-3.82,0.82-5.69c0.3-4.06,0.56-8.12,0.85-12.19c0.35-7.01,1.81-13.97,1.81-20.99c-0.04-0.6-0.29-1.11-0.64-1.49
	c0.72-0.62,1.07-1.69,0.51-2.61c-0.18-0.39-0.45-0.73-0.79-0.99c0.6-7.92,1.33-15.82,2.27-23.71c0.45-5.17,1.07-10.33,1.27-15.51
	c0.11-0.81-0.07-1.57-0.44-2.16c0.24-0.38,0.47-0.77,0.76-1.11C172.14,92.86,171.02,90.25,168.39,90.23z"/>
<rect x="317.67" y="140.12" class="st0" width="10" height="6"/>
<path class="st0" d="M171.97,91.16c0.22-0.47,0.86-0.93,0.5-1.48c-0.64-0.9-1.39,0.13-1.7,0.77c-0.12,0.2-0.23,0.41-0.33,0.62
	c-0.06,0.05-0.12,0.1-0.16,0.17c-0.39,0.76-0.58,1.61-0.87,2.42c-0.2,0.68-0.45,1.37-0.51,2.08c0,0,0,0.01,0,0.01
	c-0.01,0.09-0.02,0.17-0.02,0.26c0.05,0.48,0.64,0.79,1.05,0.51c0.09-0.04,0.15-0.11,0.2-0.18c0.14-0.13,0.24-0.32,0.26-0.54
	c0.13-0.68,0.18-0.56,0.33-1.31c0-0.08-0.01-0.15-0.03-0.21c0.19-0.61,0.42-1.27,0.68-1.98C171.73,91.93,171.83,91.23,171.97,91.16z
	"/>
<path class="st1" d="M365.07,110.63c-0.07-0.85-0.23-1.72-0.71-2.43c-0.63-0.96-1.68-1.6-2.75-1.96c-0.17-0.04-0.36-0.09-0.54-0.13
	c-0.47-0.17-0.96-0.29-1.46-0.35c0-0.04-0.01-0.09-0.02-0.13L172.96,89.39c-0.16-0.09-0.35-0.12-0.54-0.05l-0.27-0.02l-0.02,0.24
	c-0.23,0.27-0.37,0.59-0.47,0.92c-0.08,0.07-0.15,0.15-0.19,0.26c-2.04,11.14-2.66,22.53-3.61,33.81
	c-0.41,10.74-1.2,21.44-2.16,32.14c-0.06,0.09-0.11,0.18-0.12,0.3c-0.44,8.02-1.07,16.04-1.71,24.03c0.04,0.18,0.14,0.31,0.26,0.39
	l-0.08,0.91c-0.55,4.81-0.92,9.65-1.33,14.48c-2.79,23.65-5,47.37-6.12,71.15l-9.77,112.27l184.85,16.08
	c1.23,0.47,2.66,0.22,3.95,0.25c1.55-0.17,3.38,0.09,4.66-0.97c0.82-0.71,0.71-1.91,0.51-2.88c-0.08-0.3-0.12-0.65-0.24-0.95
	l24.27-279.01c0.17-0.31,0.21-0.76,0.21-1.16C365.1,111.27,365.08,110.94,365.07,110.63z"/>
<path class="st0" d="M172.26,89.97c-0.11-0.21-0.34-0.32-0.57-0.36c-2.49-0.55-5.04-1.05-7.6-0.74c-1.62,0.21-3.31,1.15-3.61,2.89
	c-0.02,0.29-0.05,0.47-0.05,0.6c-0.2,0.14-0.36,0.37-0.38,0.63c-0.09,0.9-0.12,1.84-0.07,2.73c0.15,0.72,1.29,0.64,1.36-0.09
	c-0.01-0.29,0.02-1.05,0.04-1.62c0.12-0.05,0.23-0.12,0.31-0.24c0.2-0.24,0.27-0.56,0.42-0.83c0.21-0.39,0.53-0.96,1.11-1.36
	c1.46-1,4.62-0.66,7.42-0.54c-1.05,2.72-1.63,5.6-2.17,8.47c-0.07,0.48-0.32,1.16,0.23,1.44c0.77,0.41,1.12-0.49,1.13-1.12
	c0.24-1.4,0.53-2.78,0.85-4.16c0.31-1.59,0.91-3.11,1.53-4.92C172.38,90.54,172.43,90.29,172.26,89.97z"/>
<path class="st2" d="M338.17,410.23c-0.64-0.09-0.77,0.92-0.13,0.99C338.68,411.32,338.81,410.31,338.17,410.23z"/>
<path class="st2" d="M237.78,330.84c-0.05-0.04-0.09-0.08-0.13-0.11c-0.5-0.66-1.34-1.63-1.59-1.76c-0.55-0.53-1.24-0.9-1.84-1.36
	c-0.15-0.13,0,0,0.05,0.05c-0.15-0.15-0.3-0.3-0.46-0.44c-0.07-0.05-0.2-0.16-0.28-0.23c-0.22-0.24-0.42-0.49-0.72-0.62
	c-1.37-0.46-2.19-0.86-3.34-0.91c-0.57-0.02-0.8-0.24-1.67-0.13c-1.17,0.11-1.59,0.43-2.78,0.6c-1.13,0.28-2.23,0.71-3.17,1.42
	c-0.51,0.41-0.92,0.93-1.46,1.32c-0.31,0.32-0.64,0.64-0.95,0.98c-1.55-1.86-3.49-3.24-5.25-4.11c-0.81-0.21-1.06-0.38-2.09-0.61
	c-0.03,0-0.05-0.01-0.08-0.01c-0.09-0.04-0.18-0.09-0.26-0.14c-1.19-0.43-1.85-0.59-2.96-0.87c-0.39-0.15-1.47-0.26-2.38-0.27
	c-0.22,0-0.44,0.05-0.66,0.09c-0.13,0-0.25,0.01-0.37,0.04c-0.04,0-0.08,0.01-0.13,0c-2.14-0.02-4.26,0.48-6.13,1.53
	c-0.72,0.39-2.29,1.3-2.71,1.62c-0.76,0.4-1.49,0.9-2,1.61c-0.57,0.66-1.49,1.73-0.54,2.47c0.2,0.15,0.43,0.21,0.67,0.26
	c0,0,0,0,0,0c0.03,0.01,0.06,0.02,0.08,0.03c0.6,0.3,0.97,0.53,1.9,0.88c0.93,0.27,1.17,0.34,2.2,0.59
	c0.22,0.01,0.39-0.09,0.51-0.23c0.29-0.04,0.57-0.1,0.81-0.18c0.85-0.22,1.7-0.52,2.26-1.23c0.03-0.01,0.97-0.79,1.11-1.02
	c1.24-1.13,2.79-2.47,4.57-2.03c0.71-0.01,0.69,0.13,1.47,0.42c0.01,0.01,0.03,0.02,0.04,0.03c0.01,0.01,0.01,0.01,0.01,0.01
	c0.28,0.37,1,0.97,0.91,0.9c0.83,1.01,0.86,1.48,0.88,2.82c0.1,0.61,0.12,0.3-0.15,1.12c-0.24,0.71-0.25,0.64-0.75,1.31
	c-0.11,0.16-0.19,0.17-0.76,0.42c-1.02,0.54-1.71,0.55-3.07,0.84c-1.6,0.2-2.3,0.13-3.84,0.36c-0.87,0.07-1.23,0.14-1.76,0.15
	c-0.67,0.18-1.32,0.4-1.98,0.64c-0.26,0.05-0.56,0.16-0.87,0.31c-0.18,0.06-0.35,0.13-0.53,0.19c-0.81,0.46-1.51,1.09-2.15,1.78
	c-0.37,0.31-0.75,0.61-1.08,0.97c-0.5,0.53-0.87,1.17-1.32,1.74c-0.77,1.15-2.5,3.33-2.82,3.96c-1.15,0.94-2.93,1.33-4.94,1.51
	c-2.14,0.25-3.31-0.04-5.51-1.1c-0.72-0.36-1.71-0.66-2.49-0.95c-0.21-0.28-0.43-0.59-0.75-0.97c-0.66-0.72-0.75-1.09-1.27-2.15
	c-1.17-1.98-1.87-4.16-2.51-6.35c-0.19-0.65-0.37-1.25-0.54-2.04c0.24-2.06,0.74-4.12,1.39-6.07c1.88-5.55,5.74-9.58,11.18-10.43
	c0.95-0.12,1.84-0.17,2.71-0.18c0.48,0.07,0.82,0.13,1.25,0.28c0.1,0.04,0.2,0.08,0.31,0.13c0,0,0,0,0,0
	c0.2,0.26,0.53,0.27,0.82,0.33c0.67,0.27,1.32,0.54,1.84,0.81c0.92,0.78,1.78,1.62,2.83,2.22c0.48,0.23,1.05,0.32,1.55,0.1
	c1.19-0.58,1.35-2.23,1.01-3.38c-0.61-1.81-2.65-2.55-4.26-3.26c-5-1.94-10.65-2.3-15.85-0.93c-5.93,1.56-10.37,7.38-11.84,13.42
	c-0.13,0.29-0.26,0.57-0.36,0.87c-0.27,0.72-0.7,1.39-0.87,2.14c-0.25,1.2-0.28,2.42-0.19,3.63c0.12,2.79,0.53,5.64,2.05,8.04
	c0.18,0.26,0.36,0.52,0.56,0.78c0.58,1.08,1.41,1.87,2.03,2.57c0.78,1.18,1.81,2.45,3.05,3.34c0.97,0.72,1.32,0.72,2.19,1.4
	c0.64,0.4,1.4,0.53,2.08,0.88c0.72,0.45,1.98,0.78,2.24,0.82c1.13,0.41,2.34,0.54,3.53,0.66c2.42,0.3,4.07,0.48,6.32,0.02
	c0.59-0.16,2.18-0.31,2.82-0.83c0.04-0.02,0.09-0.03,0.13-0.05c0.23-0.08,0.42-0.24,0.6-0.43c0.56,0.1,1.04,0.2,1.88,0.37
	c0.45,0.16,0.87,0.41,1.33,0.55c0.46,0.19,1.39,0.28,1.33,0.29c0.8,0.29,1.58,0.62,2.44,0.71c1.2,0.28,4.06,1.11,5.87,0.33
	c0.05-0.03,0.11-0.05,0.16-0.07c1.36-0.36,2.72-0.8,3.95-1.51c0.16-0.1,0.36-0.25,0.57-0.42c0.27,0.75,0.67,1.39,1.17,1.91
	c0.12,0.2,0.29,0.34,0.5,0.43c1.53,1.26,3.68,1.62,5.56,0.96c0.48-0.22,0.87-0.57,1.15-1c0.23-0.18,0.43-0.4,0.55-0.69
	c0.49-0.89,0.69-1.9,0.87-2.89c0-0.84-0.12-1.67-0.16-2.5c0-0.62,0.03-2.56-0.01-3.17c0.15-1.25,0.03-2,0.18-2.9
	c0.15-0.53,0.23-1.01,0.27-1.46c0.13-0.68,0.22-1.37,0.37-2.05c0.04-0.13,0.13-0.42,0.16-0.51c0.27-0.73,0.45-1.48,0.69-2.22
	c0.19-0.63,0.59-1.21,0.68-1.86c0.01-0.11-0.01-0.2-0.05-0.28c0.46-0.89,0.98-1.79,1.2-2.76c0.01-0.17-0.05-0.31-0.14-0.42
	c0.07-0.21,0.13-0.41,0.17-0.6c-0.01-0.03-0.02-0.05-0.03-0.08c0.69-0.68,1.09-0.96,1.91-1.33c1.11-0.42,1.33-0.42,2.43-0.65
	c0.69-0.19,0.79-0.29,1.17-0.32c0.93-0.09,0.65-0.09,1.33,0.06c0.65,0.07,0.99,0.06,1.24,0.16c0.3,0.05,1.9,0.59,2.1,0.7
	c0.17,0.24,0.95,0.97,1.67,1.45c0.3,0.25,0.64,0.45,0.97,0.68c-0.05-0.03,0.88,0.79,0.77,0.72c0.49,0.52,0.82,1.29,1.51,1.56
	C237.89,332.3,238.39,331.26,237.78,330.84z M210.94,340.03c-0.18,0.7-0.37,1.92-0.76,2.84c-0.65,1.26-1.25,2.29-2.19,3.64
	c-0.87,1.09-1.78,1.87-2.82,2.54c-0.6,0.2-1.12,0.24-1.67,0.22c-0.12-0.02-0.25-0.02-0.37-0.05c-0.91-0.25-3.04-1.3-3.71-2.15
	c-0.05-0.3-0.08-0.64-0.09-1.09c0.03-0.35-0.11-0.83-0.19-1.26c0.06-0.29,0.15-0.6,0.25-0.91c0.85-1.2,1.42-1.63,2.69-2.58
	c1.27-0.94,3.26-1.89,5.06-2.01c1.49-0.08,2.64,0.01,3.85,0.64C210.97,339.91,210.94,339.96,210.94,340.03z"/>
<path class="st2" d="M253.21,333.36c-0.34-1.12-0.29-2.32-0.66-3.44c-0.36-0.96-0.95-2.07-1.93-2.77c-0.59-0.54-1.21-1.06-2-1.26
	c-0.67-0.18-1.38-0.23-2.07-0.15c0,0,0,0,0,0c-0.94-0.15-1.68-0.02-2.13,0c-0.62,0.04-1.18,0.37-1.77,0.52
	c-0.97,0.3-1.9,0.82-2.72,1.42c-0.75,0.75-1.69,1.57-2.36,2.49c-0.06,0.05-0.13,0.08-0.19,0.15c-0.34,0.48-0.62,0.99-0.87,1.52
	c-0.05-0.89-0.23-1.82-0.85-2.44c-0.22-0.12-0.41-0.14-0.56-0.13c-0.1-0.11-0.21-0.22-0.33-0.31c0.27-0.38,0.28-0.78-0.22-1.15
	c-0.08-0.04-0.16-0.07-0.24-0.09c-0.09-0.36-0.44-0.63-0.89-0.77c-0.13-0.29-0.39-0.52-0.72-0.58c-0.34-0.09-1.21-0.07-2.22,0.06
	c-0.05-0.03-0.08-0.07-0.14-0.09c-0.54-0.13-1.09,0-1.64,0.11c-0.04,0-0.08,0-0.12,0c-0.03-0.01-0.06-0.02-0.1-0.03
	c-0.04,0-0.09,0.02-0.13,0.02c-1.32,0.02-2.63,0.32-3.83,0.87c-0.2,0.11-0.4,0.22-0.6,0.34c-0.53,0.2-1.06,0.47-1.5,0.66
	c-0.93,0.47-1.67,1.23-2.34,2.02c-0.2,0.25-0.48,0.5-0.41,0.85c0.02,0.18,0.11,0.32,0.23,0.42c-0.17,0.3-0.29,0.69-0.42,1.05
	c-0.02,0.02-0.05,0.04-0.07,0.07c-0.21,0.27-0.17,0.59-0.02,0.84c0.01,0.01,0.01,0.02,0.02,0.03c0.06,0.08,0.12,0.16,0.2,0.21
	c-0.04,0.12-0.08,0.24-0.13,0.35c-0.4,0.89-0.7,1.81-1.05,2.72c-1.64,3.26-1.78,7.53-1.64,10.72c-0.1,0.11-0.16,0.25-0.13,0.42
	c0.03,0.32,0.04,0.66,0.23,0.92c0.21,0.28,0.69,0.31,0.92,0.04c0.19-0.22,0.3-0.75,0.22-0.78c0.12-0.38,0-0.86,0.05-1.24
	c0.03-0.96,0-1.93,0.07-2.89c0.11-2.08,0.36-3.21,0.89-5.08c0,0,0,0,0,0c0,0.02,0,0.01,0.03-0.09c0.21-0.75,0.67-1.41,0.89-2.16
	c0.32-0.98,1.08-2.81,1.25-3.18c-0.03-0.02,0.69-0.6,1.08-0.99c0.48-0.57,0.49-0.62,1.2-1.19c0.23-0.16,0.48-0.29,0.72-0.42
	c0.92-0.14,1.9-0.26,2.87-0.51c0.15,0.14,0.32,0.28,0.51,0.38c0.03,0.02,0.03,0.03,0.05,0.04c0.01,0.02,0.03,0.03,0.04,0.05
	c0.04,0.12,0.22,0.5,0.3,0.59c0.06,0.11,0.09,0.15,0.11,0.18c0.01,0.03,0.03,0.07,0.07,0.16c0.42,1.12,0.53,1.3,0.65,2.45
	c0.26,1.48-0.06,3.2-0.2,5.1c-0.27,4.48-0.92,9.02-0.06,13.47c0.26,0.97,0.63,2.08,1.54,2.62c1.02,0.27,2.17,0.51,3.18,0.1
	c0.92-0.47,1.65-1.28,1.93-2.28c0.4-0.74,0.47-1.56,0.64-2.36c0.13-0.53,0.08-1.09,0.17-1.63c0.11-0.88,0.25-0.92,0.39-1.88
	c-0.01-0.76,0.11-2,0.1-3.24c-0.15-1.09-0.02-1.42-0.07-2.65c-0.14-1.63,0.49-4.18,1.09-5.39c0.96-1.46,1.49-2.14,2.75-3.14
	c0.34-0.5,1.78-0.98,2.51-1.03c1.11,0.03,0.93-0.11,1.51,0.1c0.2,0.18,0.43,0.33,0.66,0.48c0.09,0.08,0.2,0.11,0.3,0.13
	c0.27,0.25,0.45,0.48,0.6,0.83c0.16,0.43,0.25,2.56,0.41,3.62c0.04,0.54,0.08,1.07,0.1,1.6c-0.04,0.59-0.07,1.17-0.07,1.72
	c0.02,1.9-0.24,3.79-0.25,5.69c0.09,1.12-0.04,1.49-0.19,2.75c-0.09,1.26-0.05,1.84-0.39,2.79c-0.13,0.68,0.01,1.01-0.02,1.34
	c-0.04,0.54,0.07,1.07,0.29,1.56c0.16,0.43,0.54,0.71,0.83,1.04c0.23,0.24,0.46,0.48,0.78,0.62c0.82,0.24,1.79,0.28,2.6,0
	c1.2-0.53,1.64-1.85,2.02-3.01c0.76-4.59,1.23-9.24,1.42-13.89C253.44,337.49,253.41,335.61,253.21,333.36z"/>
<g>
	<path class="st2" d="M293.13,359.57C293.15,359.56,293.15,359.55,293.13,359.57L293.13,359.57z"/>
	<g>
		<path class="st2" d="M285.13,328.75C285.06,328.75,285.05,328.75,285.13,328.75L285.13,328.75z"/>
		<g>
			<path class="st2" d="M316.33,357.63c-0.14-0.01-0.75,0-2.48,0.13c0.01,0,0.02,0,0.03,0
				C314.05,357.75,314.59,357.72,316.33,357.63z"/>
			<path class="st2" d="M328.77,353.53c0.01-0.27-0.02-0.54-0.08-0.8c0-0.12,0.01-0.24,0-0.36c-0.14-1.59-0.76-2.84-1.76-4.06
				c-1.09-1.66-2.89-2.67-4.61-3.57c-0.2-0.12-2.24-1.25-2.99-1.79c-0.51-0.39-0.94-0.86-1.43-1.27c0,0-0.02-0.03-0.09-0.1
				c-0.86-0.97-1.32-1.45-1.68-2.4c0,0,0,0,0-0.01c0.21-0.49,0.56-0.8,1.33-1.13c0.49-0.12,1.95-0.42,2.76-0.28
				c1.42-0.02,2.87-0.01,4.65,0.31c0.54,0.08,1.1,0.04,1.64,0.03c0.52,0.01,1.1-0.09,1.44-0.53c0.29-0.35,0.59-0.58,0.64-1.4
				c0.05-0.35-0.17-0.65-0.27-0.98c-0.18-0.61-0.72-1.05-1.22-1.43c-0.45-0.26-0.98-0.38-1.5-0.45c-0.21-0.01-0.41-0.01-0.62-0.01
				c0.05-0.01,0.23,0.01,0.13,0c-0.92-0.24-1.85-0.38-2.8-0.26c0.14,0.01-0.68-0.04-1.08-0.01c-0.1,0.01-0.16,0.02-0.18,0.02
				c-0.53-0.06-1.06-0.11-1.59-0.14c-1.89-0.2-3.25-0.36-5.23,0.41c-0.68,0.28-1.33,0.71-1.91,1.22c-0.06,0.04-0.11,0.08-0.17,0.12
				c-1.28,0.94-2.57,2.07-2.93,3.69c-0.33,1.36-0.27,2.82,0,4.19c0.13,0.82,0.19,1.65,0.49,2.42c0.14,0.34,0.3,0.68,0.48,1
				c0.04,0.22,0.17,0.44,0.42,0.56c1.4,0.96,3.17,1.69,5.11,2.54c0.84,0.34,0.96,0.48,1.79,1.11c1.01,0.64,1.18,0.89,1.61,1.64
				c0.32,0.62,0.82,1.1,1.24,1.64c0.03,0.04,0.04,0.07,0.05,0.08c0.01,0.01,0.01,0.02,0.02,0.03c0.36,0.79,0.41,1.67,0.25,2.04
				c-0.41,0.62-1.96,1.55-3.73,1.97c-0.23,0.01-0.44,0.02-0.64,0.04c0.16,0.01-0.24,0.07-0.35,0.05c-0.62,0-1.24,0.04-1.86,0.08
				c-0.06,0-0.15,0-0.22,0.01c-0.01,0-0.02,0-0.03,0c-0.07,0-0.09,0-0.1,0c0.03,0,0.05,0,0.07-0.01c-2.32-0.2-4.28-0.55-6.13-1.1
				c-0.32-0.44-0.23-0.28-0.51-0.9c-0.03-0.07-0.08-0.24-0.11-0.35c-0.49-1.78-0.65-3.64-0.83-5.46c0.08-1.69,0.06-4.01,0.29-6.22
				c0-0.34-0.01-0.66-0.02-0.98c0.42-1.46,0.53-2.97,0.85-4.45c0.16-1.48,0.93-2.58,0.66-4.38c-0.09-0.53-0.14-1.1-0.44-1.55
				c-0.36-0.45-0.44-0.43-0.6-0.63c-0.5-0.61-1.31-0.92-2.07-0.99c-0.46-0.1-0.94-0.12-1.39,0.04c-0.54,0.21-1.19,0.3-1.65,0.65
				c-0.15,0.14-0.21,0.31-0.2,0.48c-0.37,0.37-0.6,0.87-0.7,1.38c-0.27,1.16-0.4,2.35-0.56,3.53c-0.23,1.84-0.52,3.68-0.81,5.51
				c-0.14,0.78-0.28,1.55-0.42,2.33c-0.42,1.93-1.64,5.16-3.02,6.9c-0.18,0.25-0.31,0.4-0.44,0.52c-0.05,0.02-0.1,0.03-0.14,0.06
				c-0.05,0.04-0.08,0.1-0.11,0.15c-0.15,0.13-0.34,0.27-0.61,0.54c-0.41,0.41-0.15,0.24-0.57,0.54c0.15-0.06-0.67,0.31-1.04,0.52
				c-0.07,0.06-0.31,0.14-0.44,0.18c-0.86,0.14-0.74,0.1-1.72,0.02c-0.09-0.02-0.16-0.04-0.22-0.05c-0.03-0.01-0.05-0.02-0.07-0.03
				c-0.02-0.02-0.04-0.03-0.05-0.04c-0.63-0.77-0.75-0.91-1.04-1.78c-0.29-0.97-0.54-4.63-0.52-5.69c0.05-3.7,0.33-7.38,0.78-11.05
				c0.01-0.5,0.09-1.02,0.12-1.53c0.04-0.16,0.08-0.33,0.12-0.51c0.03-0.12,0.04-0.24,0.05-0.36c0.1-0.23,0.06-0.5-0.08-0.71
				c-0.22-0.77-0.85-1.43-1.5-1.9c-0.62-0.49-1.2-1.05-1.92-1.4c-0.51-0.18-1.02-0.35-1.57-0.29c-0.04,0-0.05,0-0.08,0
				c0.02,0,0.05,0,0.08,0c-0.4-0.05-0.76,0.14-1.06,0.39c-0.31,0.42-0.46,0.23-0.67,0.87c-0.01,0.09-0.01,0.17,0.01,0.25
				c-0.02,0.08-0.04,0.16-0.05,0.24c-0.16,3.76-0.06,8.57-0.68,11.65c-0.02,0.08-0.02,0.15-0.04,0.23c0,0.01-0.01,0.01-0.01,0.02
				c-0.01,0.02-0.03,0.04-0.04,0.06c-0.03,0-0.06,0.01-0.11,0.01c-0.36,0.05-0.59-0.09-0.88-0.37c-0.05-0.09-0.11-0.15-0.17-0.21
				c0.01-0.38-0.01-0.76-0.02-1.12c0.07-0.74-0.07-2.87-0.43-4.19c-0.12-0.48-0.35-0.93-0.49-1.41c0,0,0-0.01,0-0.01
				c-0.11-0.54-0.11-1.12-0.42-1.6c-0.56-0.74-0.7-1.32-1.39-2.35c-0.57-0.67-0.35-0.31-0.77-1.13c-0.56-0.73-1.55-0.81-2.35-1.16
				c-0.63-0.24-0.57-0.2-0.97-0.39c-0.74-0.11-1.52-0.12-2.27-0.17c-1.03-0.09-2.09-0.07-3.1,0.13c-1.05,0.4-2.09,0.87-3.02,1.5
				c-0.46,0.35-0.92,0.75-1.33,1.18c-0.04-0.41-0.14-0.8-0.21-1.2c-0.12-0.5-0.17-1.09-0.59-1.44c-0.09-0.07-0.2-0.1-0.31-0.13
				c-0.07-0.05-0.14-0.09-0.22-0.12c-0.01,0-0.01-0.01-0.02-0.02c-0.08-0.06-0.18-0.1-0.27-0.14c-0.01-0.01-0.02-0.01-0.03-0.02
				c-0.15-0.07-0.3-0.12-0.47-0.14c-0.02,0-0.04-0.01-0.06-0.01c-0.27-0.04-0.55-0.05-0.82-0.01c-0.46-0.1-0.95,0.01-1.41,0.08
				c-0.72,0.11-1.45,0.31-2.05,0.73c-0.21,0.2-0.38,0.46-0.5,0.75c-0.13,0.1-0.23,0.25-0.25,0.44c-0.25,1.25-0.33,2.52-0.37,3.79
				c-0.27,1.37-0.25,2.77-0.43,4.15c-0.61,2.68-0.28,4.56-0.62,7.11c-0.36,2.69-0.63,5.39-0.8,8.1c-0.55,3.1-1,6.23-1,9.38
				c-0.11,1.09-0.09,2.19-0.08,3.28c0.03,0.16,0.08,0.33,0.21,0.43c0.01,0.01,0.02,0.01,0.03,0.02c0.02,0.08,0.04,0.15,0.07,0.22
				c0.91,1.96,3.12,2.17,5.22,1.52c0.47-0.17,0.76-0.63,1-1.05c0.19-0.27,0.29-0.57,0.36-0.88c0.23-0.4,0.38-0.89,0.4-1.22
				c0.52-2.52,0.56-5.01,0.48-7.38c0.05-0.76,0.1-1.51,0.16-2.26c0.38,0.22,0.6,0.35,1.17,0.72c0.59,0.29,1.34,0.59,1.47,0.7
				c2.15,1.32,4.75,1.78,7.24,1.9c1.16,0.09,2.28-0.26,3.34-0.69c0.63-0.19,1.23-0.44,1.76-0.85c0.58-0.5,1.22-0.68,1.75-1.35
				c0.15-0.11,0.29-0.21,0.41-0.35c0.48-0.72,0.72-1.57,0.96-2.39c0.5-1.63,1.1-4.37,1.16-6.65c0-0.55,0-1.12-0.06-1.68
				c0.62,0.2,0.57,0.27,0.64,0.44c0.05,0.94,0.01,2.27-0.07,3.54c-0.26,1.27-0.2,3.25-0.18,3.94c-0.19,1.62,0.07,3.32,0.91,4.73
				c0.83,1.58,2.43,2.61,4.13,3.06c1.45,0.65,3.16,0.76,4.67,0.26c0.36-0.17,0.76-0.28,1.08-0.53c0.06-0.06,0.18-0.18,0.24-0.26
				c0.02-0.02,0.05-0.05,0.08-0.07c0.04-0.03,0.06-0.05,0.08-0.06c-0.02,0.02-0.06,0.04-0.11,0.07c0.44-0.2,0.78-0.56,1.18-0.82
				c-0.11,0.02,0.59-0.27,0.91-0.6c0.46-0.45,0.31-0.39,0.63-0.65c0.47-0.42,1.11-0.68,1.38-1.29c0.52-0.56,1.42-1.46,2.13-2.5
				c-0.05,1.22-0.08,2.45-0.04,3.67c-0.03,0.15-0.05,0.31-0.08,0.48c-0.02,0.78-0.29,1.69,0.22,2.36c0.11,0.15,0.27,0.23,0.43,0.27
				c0.47,0.5,1.17,0.72,1.88,0.8c0.98,0.2,1.95,0.39,2.94,0.52c0.92,0.2,1.87,0.15,2.8,0.25c1.67,0.23,4.76,0.53,5.76,0.41
				c2.77,0.01,5.55-0.15,8.27-0.7c1.26-0.33,2.82-0.86,3.8-1.73c0.67-0.47,1.38-0.93,1.77-1.69c0.44-0.57,0.94-1.11,1.27-1.75
				c0.2-0.85,0.31-1.02,0.63-2.01C328.93,354.27,328.79,353.9,328.77,353.53z M275.29,347.67c-0.59,0.92-1.17,1.7-1.91,2.23
				c-1.22,0.75-2.23,1.21-4.15,1.47c-0.33,0-1.39,0.02-2.22-0.16c-0.17-0.03-0.36-0.1-0.72-0.22c-0.67-0.31-1.3-0.64-1.65-0.83
				c-0.02-0.02-0.04-0.03-0.06-0.05c-0.12-0.18-0.23-0.36-0.32-0.53c-0.26-0.48-0.42-0.79-0.58-1.09c-0.09-0.33-0.13-0.67-0.13-1.2
				c-0.13-1.28-0.32-1.98-0.16-2.95c0.21-3.14,0.62-5.4,2.19-8.18c-0.06,0.03,0.22-0.39,0.49-0.8c0.1-0.14,0.2-0.28,0.29-0.42
				c0.16-0.23,0.26-0.38,0.19-0.28c0.06-0.07,0.13-0.13,0.2-0.2c0.15-0.03,0.29-0.08,0.42-0.17c1.75-0.74,2.09-0.78,3.73,0.25
				c0.74,0.5,1.12,0.6,1.63,0.93c0.28,0.24,0.54,0.48,0.73,0.72c0.49,0.6,1.17,1.58,1.25,1.76c0.16,0.35,0.26,0.74,0.47,1.07
				c0.03,0.06,0.08,0.13,0.11,0.19c0.01,0.02,0.01,0.03,0.02,0.04c0,0.02,0.01,0.04,0.01,0.06c0.3,1.23,0.6,2.66,0.56,4.37
				C275.65,344.2,275.47,346.28,275.29,347.67z"/>
		</g>
	</g>
</g>
<path class="st2" d="M170.86,366.47c0-0.01,0-0.02,0-0.03c0-0.02,0-0.04,0.01-0.06c0-0.76,0.12-1.51,0.18-2.27
	c0.03-0.66-0.1-1.87-0.24-2.73c-0.02-0.37-0.09-0.72-0.24-1.03c-0.04-0.12-0.09-0.23-0.15-0.33c-0.09-0.12-0.22-0.19-0.35-0.23
	c-0.07-0.05-0.11-0.1-0.19-0.14c-0.88-0.57-1.95-0.42-2.94-0.59c-0.25,0.01-0.48,0.02-0.7,0.02c-0.02,0-0.03-0.01-0.05-0.01
	c-0.21-0.03-0.42-0.02-0.63-0.01c-0.2,0.01-0.2,0-0.02,0.01c-0.08-0.01-0.17,0-0.24,0.02c-0.14-0.02-0.28-0.03-0.42-0.02
	c-0.49-0.11-0.8,0.03-1.02-0.01c-0.35-0.03-1.57,0.04-2.18,0.38c-0.51,0.23-0.73,0.78-0.88,1.29c-0.41,0.9-0.36,1.49-0.37,2.02
	c-0.01,0.04-0.01,0.08-0.01,0.12c0,0.02-0.01,0.05-0.01,0.09c0,0,0,0,0,0.01c-0.07,0.24-0.11,0.49-0.14,0.74
	c-0.22,1.1-0.11,1.45-0.16,2.08c-0.01,1.76-0.22,2.63,0.28,3.96c0.09,0.17,0.22,0.27,0.37,0.31c0.13,0.14,0.29,0.25,0.47,0.33
	c1.22,0.68,2.66,0.73,4.03,0.74c0.96-0.05,2.2,0.1,3.84-0.22c0.68-0.11,1.21-0.62,1.38-1.26c0.04-0.12,0.08-0.23,0.1-0.34
	c0.24-0.59,0.3-1.26,0.3-1.89c0-0.28-0.01-0.56-0.03-0.84C170.86,366.53,170.85,366.5,170.86,366.47z"/>
<path class="st2" d="M352.76,161.9c-0.77-0.56-1.96-0.26-2.89-0.43c-17.17-0.43-34.27-2.03-51.33-3.91
	c-10.17-0.84-20.38-1.12-30.56-2.03c-5.49-0.4-10.99-0.45-16.48-0.77c-0.33-0.02-0.7-0.02-0.9,0.28c-0.36,0.47,0.05,1.21,0.65,1.11
	c8.32,0.32,18.61,0.81,27.59,1.58c6.44,0.48,12.91,0.56,19.34,1.2c17.44,1.95,34.91,3.48,52.45,3.98c0.59,0.01,1.19,0.16,1.76,0.09
	C352.86,162.9,353.07,162.26,352.76,161.9z"/>
<path class="st2" d="M344.99,181.53c-22.12-1.13-44.26-1.89-66.33-3.85c-7.64-0.72-15.29-1.32-22.94-1.97
	c-2.37-0.18-4.76-0.5-7.12-0.58c-0.71,0.16-0.65,1.29,0.09,1.36c14.56,1.22,29.1,2.59,43.67,3.66c18.23,1.24,36.49,1.93,54.74,2.87
	c0.43,0.07,0.85-0.34,0.78-0.79C347.67,181.19,345.79,181.73,344.99,181.53z"/>
<path class="st2" d="M347.21,195.14c-0.41-0.45-1.14-0.24-1.69-0.34c-17.24-0.39-34.46-1.15-51.67-2.23
	c-13.6-0.91-27.26-1.32-40.8-2.96c-1.72-0.25-2.63-0.52-4.12-0.95c-0.73-0.04-0.97,1.09-0.26,1.34c3.81,1.29,7.88,1.4,11.85,1.83
	c7.89,0.67,15.81,1.03,23.71,1.59c20.57,1.3,41.15,2.33,61.75,2.82c0.38,0,0.8,0.15,1.12-0.11
	C347.39,195.9,347.44,195.43,347.21,195.14z"/>
<path class="st2" d="M180.32,114.5c-0.86-1.88-3.18-3.03-5.19-2.47c-2.09,0.43-3.19,2.79-2.76,4.77c0.24,1.07,0.97,1.96,1.87,2.58
	c0.01,0.02,0.02,0.04,0.03,0.06c-0.3-0.03-0.61-0.02-0.9,0.08c-1.93,0.65-1.99,3.35-0.65,4.62c0.08,0.07,0.16,0.15,0.25,0.23
	c-0.03,0-0.07,0-0.1,0c-0.19,0.02-0.36,0.13-0.47,0.28c-0.23,0.29-0.16,0.76,0.14,0.98c0.42,0.27,0.96,0.07,1.43,0.09
	c0.72-0.07,1.68-0.13,2.62-0.29c1.9,0.52,2.6,1.55,1.07,2.12c-0.82,0.34-1.24,0.34-2.36,0.59c-0.28,0.1-0.48,0.38-0.47,0.68
	c0,0.75,0.87,0.83,1.42,1c0.36,0.01,2.05,0.78,1.7,0.64c0.2,0.11,0.39,0.23,0.57,0.36c-0.14,0.3-0.77,0.6-1.59,0.79
	c-1.54,0.34-3,0.29-4.13,0.28c-0.18-0.02-0.38,0.03-0.52,0.15c-0.36,0.27-0.34,0.85,0.02,1.11c0.39,0.25,0.91,0.1,1.35,0.14
	c1.98-0.06,4.37,0.01,5.88-1.47c1.11-1.41-0.2-2.35-1.55-2.89c0.25-0.09,0.49-0.2,0.72-0.33c1.52-0.75,1.54-2.61,0.23-3.59
	c-0.1-0.07-0.21-0.13-0.32-0.2c0.79-0.42,1.36-1.05,1.45-2.02c0.03-1.01-0.53-2.19-1.59-2.4c-0.87-0.12-1.06,1.2-0.24,1.37
	c0,0,0,0,0.01,0.01c-0.03-0.01-0.07-0.02-0.08-0.02c0.04,0.01,0.07,0.02,0.11,0.04c0.04,0.02,0.07,0.05,0.11,0.08
	c0.02,0.02,0.05,0.06,0.09,0.12c0.07,0.13,0.13,0.27,0.17,0.41c0.02,0.11,0.04,0.22,0.04,0.34c0,0.06-0.01,0.13-0.02,0.19
	c-0.04,0.39-1.1,0.91-1.63,1.01c-0.07,0.02-0.13,0.03-0.2,0.04c0.14-0.7,0.02-1.45-0.22-2.16c-0.01-0.04,0-0.07-0.02-0.1
	c-0.19-0.84-0.39-1.79-0.81-2.56c0-0.03,0.01-0.07,0-0.11c-0.04-0.33-0.3-0.49-0.56-0.65c-0.02-0.02-0.03-0.04-0.05-0.06
	c-0.03-0.02-0.06-0.02-0.09-0.04c-0.07-0.04-0.14-0.08-0.2-0.13c-0.13-0.09-0.25-0.2-0.37-0.31c-1.32-1.21-0.81-3.11-0.14-3.84
	c1.36-1.39,3.94-0.47,4.6,0.94c0.33,0.75,0.25,0.68,0.22,0.95c-0.55,0.86,0.81,1.61,1.22,0.68
	C180.76,115.91,180.62,115.14,180.32,114.5z M175.22,122.01c0.01,0.06,0.02,0.12,0.03,0.19c0.03,0.11,0.07,0.18,0.12,0.26
	c0.12,0.5,0.18,1.26,0.05,1.47c-0.02,0.1-0.11,0.14-0.17,0.28c-0.07,0.01-0.14,0.02-0.21,0.03c-0.02-0.05-0.03-0.1-0.06-0.14
	c-0.47-0.41-0.43-0.2-0.98-0.69c-1.03-0.78-0.94-2.25-0.27-2.53C174.41,120.73,174.72,120.68,175.22,122.01z"/>
<path class="st2" d="M179.52,142.34c-3.63-0.13-6.77-0.99-6.3-2.02c0.66-0.91,3.19-1.01,5.33-0.82c0.48-0.02,1.03,0.23,1.45-0.07
	c0.48-0.36,0.25-1.18-0.35-1.24c-0.3-0.02-0.6-0.05-0.9-0.07c0.44-0.34,0.81-0.8,1.09-1.38c0.52-1.07,0.16-2.74-0.61-2.9
	c-0.19-0.06-0.36-0.03-0.5,0.05c-2.79,0.05-5.57,0.07-8.36,0.1c-0.7-0.11-1.11,0.84-0.53,1.25c0.95,0.11,1.91,0.14,2.89,0.14
	c0.05,0.48,0.23,1,0.44,1.34c0.34,0.65,0.8,1.14,1.34,1.5c-0.61,0.13-1.21,0.33-1.77,0.63c-0.34,0.22-0.62,0.54-0.79,0.91
	c-0.47,1.03,0.22,2.2,1.14,2.71c0.89,0.47,1.86,0.74,2.85,0.91c-0.19,0.08-0.37,0.18-0.53,0.32c-0.43,0.27-1.54,1.89-1.42,1.71
	c-0.13,0.13-0.28,0.25-0.43,0.35c-0.04,0.02-0.07,0.04-0.1,0.05c-0.02,0-0.03,0-0.05,0c-0.02,0-0.03,0-0.06,0
	c-0.02,0-0.04-0.01-0.06-0.01c-0.03-0.01-0.06-0.03-0.08-0.03c-0.04-0.02-0.07-0.05-0.11-0.08c-0.52-0.65-0.53-1.31-0.28-1.66
	c0,0,0,0,0,0c0.48-0.27,0.44-1.05-0.09-1.24c-1.31-0.26-1.69,1.68-1.32,2.63c0.31,1.37,1.82,2.37,3.06,1.42
	c1.14-0.88,1.5-2.15,2.21-2.24c0.34-0.08,1.24,0.13,1.25,0.8c0,0.01,0,0.02,0,0.03c-0.01,0.02-0.01,0.04-0.02,0.06
	c-0.01,0.01-0.02,0.03-0.03,0.04c-0.01,0.01-0.01,0.01-0.03,0.02c0,0-0.01,0.01-0.01,0.01c-0.02,0.01-0.02,0.01-0.01,0.01
	c-0.14,0.08-0.25,0.19-0.31,0.34c-0.24,0.55,0.38,1.16,0.92,0.9c1.34-0.66,1.02-2.35-0.01-3.13c0.3,0.02,0.61,0.05,0.91,0.07
	C180.23,143.85,180.42,142.44,179.52,142.34z M174.16,135.43c-0.01-0.02-0.01-0.04-0.01-0.06c1.51-0.04,3.03-0.12,4.53-0.1
	c0.01,0.03,0.01,0.06,0.02,0.09c0.02,0.46-0.04,0.83-0.46,1.35c-0.58,0.76-2.1,1.03-2.83,0.45
	C174.67,136.67,174.26,135.93,174.16,135.43z"/>
<path class="st2" d="M180.08,149.08c-2.94,0-6.99-0.3-10.66-0.38c0.03,0.47,0.05,0.93,0.07,1.4c3.29,0.08,6.78,0.28,10.15,0.38
	c0.38-0.01,0.85,0.06,1.1-0.29C181.1,149.73,180.67,148.98,180.08,149.08z"/>
<g>
	<path class="st2" d="M179.25,155.14c-0.13-0.18-0.31-0.36-0.51-0.49c-0.18-0.19-0.44-0.33-0.72-0.35
		c-1.95-0.34-3.95-0.52-5.94-0.62c-1.37-0.06-2.61,0.99-2.8,2.3c0,0,0,0,0,0.01c-0.03,0.19-0.03,0.38-0.01,0.57
		c0.12,1.8,1.81,3.27,3.58,3.26c0.91,0.02,1.82-0.39,2.37-1.12c0.18-0.24,0.31-0.51,0.43-0.79c0.76,0.49,1.67,0.74,2.58,0.54
		C179.65,158.17,179.93,156.22,179.25,155.14z M178.06,157.04c-0.01,0.01-0.01,0.02-0.02,0.02c0,0-0.01,0-0.01,0.01
		c-0.01,0.01-0.01,0.01-0.03,0.01c-0.01,0-0.01,0-0.02,0.01c-0.13,0.03-0.27,0.04-0.41,0.05c-0.03,0-0.04,0-0.05,0
		c-0.12-0.01-0.29-0.04-0.39-0.05c-0.35-0.14-0.47-0.18-0.51-0.2c0.26,0.13,0.16,0.09,0.01,0.01c0,0-0.01-0.01-0.01-0.01
		c-0.02-0.01-0.02-0.01-0.03-0.02c0.01,0.01,0.02,0.01,0.03,0.01c-0.47-0.28-0.82-0.73-1.34-0.66c-0.55,0.07-0.71,0.64-0.87,1.09
		c-0.25,0.56-0.23,0.55-0.62,0.87c-0.94,0.72-2.89-0.12-3.1-1.5c-0.01-0.13-0.01-0.24,0-0.35c0.12-0.05,0.24-0.1,0.35-0.14
		c-0.05,0.01,0.94-0.25,1.1-0.24c0.81-0.1,0.96-0.03,1.16-0.09c0.03,0,0.05-0.02,0.08-0.03c0.41,0.05,0.87,0.03,1.17,0.04
		c1.15,0.01,2.3,0.02,3.45-0.04c0.01,0.01,0.02,0.01,0.04,0.02c0.01,0.01,0.01,0.01,0.02,0.02c0.01,0.01,0.02,0.02,0.03,0.03
		c0.01,0.01,0.02,0.03,0.03,0.04c0.01,0.03,0.02,0.07,0.03,0.09C178.24,156.6,178.24,156.62,178.06,157.04z"/>
	<polygon class="st2" points="176.62,156.88 176.62,156.88 176.61,156.88 	"/>
</g>
<path class="st2" d="M330.83,406.29c-0.64-0.09-0.77,0.92-0.13,0.99C331.35,407.37,331.48,406.36,330.83,406.29z"/>
<path class="st2" d="M301.05,374.05c0.25-0.55-0.37-1.16-0.92-0.9c-0.49,0.27-0.57,0.92-0.89,1.35c-0.06,0.18-0.57,0.92-1.07,1.56
	c-0.04,0-0.08-0.01-0.12-0.01c0.06-0.82,0.12-1.64,0.15-2.46c-0.15-0.72-1.29-0.64-1.36,0.09c-0.09,1.12-0.22,2.63-0.32,3.89
	c-0.02,0.03-0.04,0.05-0.07,0.09c-0.15,0.24-0.12,0.49,0.01,0.69c-0.05,0.72-0.08,1.29-0.07,1.52c0,0,0,0,0,0
	c-0.01,0.06-0.02,0.11-0.03,0.17c0-0.01,0-0.01,0.01-0.02c-0.02,0.08-0.05,0.19-0.07,0.27c-0.03,0.19-0.12,0.39-0.04,0.59
	c0.31,0.92,1.49,0.47,1.38-0.43c0-0.12,0-0.24,0-0.36c0,0,0,0,0,0c0,0.06,0,0.19,0.01,0.09c0.02-0.16,0.01-0.15,0-0.09
	c0.01-0.05,0.03-0.1,0.03-0.13c0,0.01,0-0.01,0.02-0.07c0.05-0.18,0.06-0.24,0.01-0.04c0,0,0-0.01,0-0.01c0,0,0-0.01,0,0
	c0.03-0.09,0.05-0.19,0.06-0.28c0.02-0.28,0.05-0.57,0.07-0.85c0.01,0,0.02,0.01,0.03,0.01c0.26,0.12,0.5,0.31,0.97,1.05
	c0.2,0.25,0.29,0.63,0.59,0.79c0.4,0.26,0.99-0.05,1.03-0.52c-0.07-0.74-0.7-1.37-1.14-1.95c-0.17-0.18-0.38-0.35-0.61-0.5
	C299.67,376.54,300.43,375.32,301.05,374.05z"/>
<path class="st2" d="M306.07,375.65c-0.16-0.18-0.38-0.22-0.59-0.18c-0.47-0.83-1.6-0.99-2.4-0.51c-1.51,0.83-2.59,2.91-1.66,4.52
	c0.58,1.08,2.06,1.43,3.14,0.92c1.06-0.49,1.72-1.58,1.88-2.71C306.51,377.01,306.53,376.19,306.07,375.65z M304.2,379
	c-1.5,0.8-2.22-0.69-1.37-1.95c0.56-0.72,0.77-0.89,1.3-0.97c0.01,0,0.02,0,0.03,0c0.01,0,0.02,0,0.03,0.01c0.01,0,0.01,0,0.02,0.01
	c0,0,0,0,0,0c0.13,0.11,0,0.23,0.46,0.49c0.12,0.05,0.24,0.06,0.35,0.04c0.01,0.02,0.02,0.04,0.02,0.05
	c0.02,0.12,0.03,0.29,0.04,0.38C305.1,378.16,304.45,378.84,304.2,379z"/>
<path class="st2" d="M311.05,374.15c-0.49-0.36-1,0.04-1.21,0.51c-0.48,0.74-1.03,1.43-1.59,2.11c0.03-0.74,0.06-1.49,0.11-2.23
	c0.26-0.97-1.2-1.33-1.37-0.33c-0.13,2.01-0.17,4.02-0.31,6.03c-0.09,0.41,0.15,0.87,0.6,0.92c0.99,0.07,0.78-1.12,0.85-1.78
	c0-0.07,0.01-0.15,0.01-0.22c0.34,0.26,0.65,0.65,1.08,1.32c0.32,0.4,0.48,1.09,1.05,1.19c0.6,0.1,1.03-0.66,0.64-1.13
	c-0.56-0.87-1.1-1.84-1.92-2.48c0.86-1,1.71-2.02,2.32-3.18C311.39,374.62,311.27,374.31,311.05,374.15z"/>
<path class="st2" d="M317.63,375.32c-0.27-0.36-0.85-0.34-1.11,0.02c-0.33,1.01-0.1,2.19-0.44,3.23c-0.07,0.44-0.63,1.75-0.99,2.02
	c-0.01,0.01-0.02,0.01-0.03,0.02c0,0-0.01,0-0.01,0c-0.04-0.01-0.07-0.02-0.1-0.04c-0.3-0.04-0.91-1.06-0.97-1.47
	c-0.45-1.54,0.02-2.33-0.25-3.9c-0.34-0.65-1.41-0.28-1.29,0.45c-0.1,1.08-0.27,4.5,1.32,5.78c0.38,0.36,0.9,0.62,1.44,0.59
	c0.43-0.04,0.81-0.31,1.09-0.63c0.91-1.14,1.27-2.61,1.41-4.04C317.69,376.67,317.96,375.91,317.63,375.32z"/>
<path class="st2" d="M323.1,375.59c-0.3-0.04-0.62,0.14-0.74,0.43c-0.08,0.15-0.34,0.63-0.16,0.29c-0.16,0.37-0.7,1.14-1.08,1.64
	c-0.02-0.03-0.04-0.06-0.06-0.09c-0.82-0.95-1.52-1.82-1.81-2.58c-0.34-0.84-1.65-0.28-1.29,0.55c0.53,1.17,1.34,2.26,2.28,3.14
	c0.07,0.04,0.13,0.07,0.19,0.09c0,0.03,0.01,0.05,0.02,0.08c-0.15,0.96-0.21,1.94-0.27,2.91c-0.02,0.18,0.03,0.38,0.15,0.52
	c0.27,0.36,0.85,0.34,1.11-0.02c0.34-1.03,0.2-2.2,0.4-3.29c0.74-0.81,1.31-1.75,1.82-2.71
	C323.84,376.13,323.54,375.64,323.1,375.59z"/>
<path class="st2" d="M329.12,377.02c-0.3-0.38-0.59-0.9-1.07-1.07c-0.3-0.1-0.59,0.07-0.75,0.31c-0.41-0.09-0.87,0.01-1.21,0.27
	c-0.98,0.66-1.5,1.83-1.75,2.95c-0.35,1.76,0.76,4.16,2.8,4.02c0.89-0.07,1.57-0.77,2.03-1.48
	C330.11,380.53,330.21,378.47,329.12,377.02z M328.47,379.99c-0.14,0.69-0.23,1.02-0.77,1.69c-0.96,1.35-2.94-0.68-1.51-3.23
	c0.15-0.23,0.4-0.6,0.73-0.79c0.26,0.25,0.68,0.2,0.94-0.02c0.07,0.09,0.14,0.19,0.22,0.33
	C328.59,378.94,328.55,379.07,328.47,379.99z"/>
<path class="st0" d="M155.43,281.1c-0.41-0.43-1.21-0.11-1.19,0.49c-0.03,2.48-0.3,4.95-0.46,7.42c-0.02,1.07-0.06,1.95-0.14,2.79
	c-0.28-0.57-1.26-0.38-1.24,0.31c-0.11,3.67-0.58,7.31-0.66,10.98c0.02,1.1,0.08,2.19,0.11,3.29c-0.31,2.35-0.6,4.8-0.81,7.65
	c-0.19,2.89-0.93,6.73-1.21,10.83c-0.34,3.85-0.55,7.88-0.88,11.19c-0.43,2.18-0.58,5.56-1.01,7.96c-0.1,0.64-0.18,1.27-0.35,1.9
	c-0.05,0.18-0.02,0.38,0.07,0.54c0.14,0.25,0.44,0.36,0.71,0.32c-0.09,1.33-0.18,2.67-0.16,4c-0.08,0.53-0.46,2.52-0.49,3.7
	c-0.05,2-0.06,3.46-0.35,5.12c-0.14,1.32-0.01,3.47-0.12,4.14c-0.59,3.38-1.27,7.35-1.5,9.92c-0.02,0.35-0.01,0.77,0.3,0.99
	c0.36,0.31,0.98,0.1,1.09-0.36c0.04-0.09,0.02-0.24-0.01-0.36c0-0.04,0-0.07,0-0.11c0-0.06,0-0.12,0.01-0.19
	c0.03-0.25,0.06-0.5,0.09-0.75c0.23-2.53,0.89-5.9,1.38-8.98c0.14-2.2,0.01-4.03,0.34-5.8c0.2-1.59,0.03-3.21,0.26-4.8
	c0.12-0.92,0.47-2.57,0.4-4.04c0.12-2.1,0.25-4.2,0.38-6.29c0.16-0.79,0.49-3.98,0.66-5.94c0.19-0.92,0.61-3.92,0.57-5.57
	c0.62-6.43,1.49-10.22,1.85-16.06c-0.07-1.31,0.14-1.75,0.22-3.17c0.04-1.1-0.14-1.58-0.14-2.4c0.08-1.02,0.08-2.05,0.05-3.07
	c0.09-0.65,0.17-1.27,0.26-1.84c0.22-2.25,0.49-4.6,0.84-6.97c0.04-1.14,0.02-1.8,0.22-2.57c0.63-3.04,0.53-5.44,0.81-8.7
	c0.09-1.39,0.2-2.78,0.27-4.17C155.6,282.02,155.77,281.47,155.43,281.1z"/>
</svg>
