<svg width="167" height="233" viewBox="0 0 167 233" fill="none" xmlns="http://www.w3.org/2000/svg">
<g filter="url(#filter0_d_167_4)">
<path d="M4 219.122V5.8258C4 2.60975 6.55235 0 9.69766 0H156.427C159.573 0 162.125 2.60975 162.125 5.8258V219.122C162.125 222.338 159.573 224.948 156.427 224.948H9.69766C6.55235 224.948 4 222.338 4 219.122Z" fill="white"/>
</g>
<path d="M45.722 184.13C45.722 186.65 44.444 188.036 42.266 188.036C41.546 188.036 40.988 187.946 40.538 187.748V191.096C40.448 191.15 40.25 191.186 39.98 191.186C39.566 191.186 39.458 191.096 39.422 190.826C39.404 190.718 39.404 190.592 39.404 190.412V185.876C39.404 183.644 39.404 182.582 39.422 181.772H38.558C38.504 181.682 38.468 181.592 38.468 181.484C38.468 181.142 38.756 180.926 39.512 180.926C39.962 180.926 40.34 180.962 40.592 181.016L40.52 182.402C40.7 181.304 41.78 180.782 42.842 180.782C44.984 180.782 45.722 181.916 45.722 184.13ZM44.642 184.292C44.642 182.528 44.156 181.646 42.68 181.646C41.762 181.646 40.97 182.222 40.538 182.78V186.974C40.934 187.118 41.546 187.244 42.086 187.244C43.832 187.244 44.642 186.2 44.642 184.292ZM55.28 187.082C55.334 187.136 55.388 187.28 55.388 187.424C55.388 187.712 55.226 188.072 54.434 188.072C53.624 188.072 53.12 187.694 53.12 186.416C53.012 187.406 52.04 188.072 50.42 188.072C48.836 188.072 48.242 187.226 48.242 186.164C48.242 184.922 48.854 183.932 50.978 183.932C51.446 183.932 52.49 183.986 53.174 184.076L53.192 183.158C53.21 182.15 52.562 181.7 51.356 181.7C50.582 181.7 49.898 181.916 49.178 182.492C48.782 182.438 48.656 182.258 48.656 181.952C48.656 181.412 49.682 180.764 51.536 180.764C53.336 180.764 54.272 181.556 54.272 183.032L54.236 186.236C54.218 186.812 54.38 187.118 54.938 187.118C55.046 187.118 55.154 187.1 55.28 187.082ZM53.138 184.796C52.562 184.688 51.806 184.652 51.212 184.652C49.844 184.652 49.358 185.066 49.358 186.038C49.358 186.794 49.79 187.28 50.762 187.28C51.77 187.28 52.562 186.848 53.12 186.11L53.138 184.796ZM59.15 187.19V178.352H57.35C57.296 178.262 57.26 178.172 57.26 178.064C57.26 177.668 57.998 177.506 59.222 177.506C59.672 177.506 60.05 177.542 60.302 177.596L60.266 178.514V187.172L63.236 187.154C63.308 187.28 63.344 187.442 63.344 187.568C63.344 187.91 63.056 188.036 61.292 188.036C59.492 188.036 59.15 187.946 59.15 187.19ZM73.28 187.082C73.334 187.136 73.388 187.28 73.388 187.424C73.388 187.712 73.226 188.072 72.434 188.072C71.624 188.072 71.12 187.694 71.12 186.416C71.012 187.406 70.04 188.072 68.42 188.072C66.836 188.072 66.242 187.226 66.242 186.164C66.242 184.922 66.854 183.932 68.978 183.932C69.446 183.932 70.49 183.986 71.174 184.076L71.192 183.158C71.21 182.15 70.562 181.7 69.356 181.7C68.582 181.7 67.898 181.916 67.178 182.492C66.782 182.438 66.656 182.258 66.656 181.952C66.656 181.412 67.682 180.764 69.536 180.764C71.336 180.764 72.272 181.556 72.272 183.032L72.236 186.236C72.218 186.812 72.38 187.118 72.938 187.118C73.046 187.118 73.154 187.1 73.28 187.082ZM71.138 184.796C70.562 184.688 69.806 184.652 69.212 184.652C67.844 184.652 67.358 185.066 67.358 186.038C67.358 186.794 67.79 187.28 68.762 187.28C69.77 187.28 70.562 186.848 71.12 186.11L71.138 184.796ZM81.884 186.902C81.884 187.568 80.57 188.09 78.608 188.09C76.268 188.09 75.152 186.956 75.152 184.67C75.152 182.33 76.538 180.764 79.22 180.764C80.66 180.764 81.614 181.124 81.614 181.628C81.614 181.934 81.434 182.096 81.182 182.204C80.48 181.916 79.688 181.682 78.932 181.682C77.114 181.682 76.286 182.672 76.286 184.454C76.286 186.146 76.808 187.208 78.932 187.208C79.886 187.208 80.93 186.866 81.596 186.47C81.776 186.542 81.884 186.686 81.884 186.902ZM90.92 186.794C90.92 187.424 89.588 188.09 87.59 188.09C85.268 188.09 84.152 187.028 84.152 184.724C84.152 182.438 85.466 180.764 87.95 180.764C89.912 180.764 90.902 181.844 90.902 183.086C90.902 184.22 90.596 184.544 90.326 184.544H85.304C85.304 186.398 85.898 187.262 87.914 187.262C88.724 187.262 89.804 186.92 90.56 186.326C90.83 186.416 90.92 186.578 90.92 186.794ZM89.804 183.824C89.84 183.608 89.858 183.41 89.858 183.23C89.858 182.276 89.084 181.574 87.662 181.574C86.222 181.574 85.52 182.528 85.34 183.824H89.804ZM109.82 187.532C109.82 187.964 109.478 188.054 108.38 188.054C107.93 188.054 107.588 188.018 107.318 187.964L107.426 186.614C107.336 187.514 106.238 188.054 105.05 188.054C103.214 188.054 102.17 186.974 102.17 184.67C102.17 182.384 103.592 180.764 105.95 180.764C106.544 180.764 107.138 180.836 107.39 180.926V178.244C107.39 177.74 107.498 177.506 107.948 177.506C108.182 177.506 108.398 177.542 108.56 177.596L108.524 178.514C108.506 178.856 108.524 182.996 108.524 183.77C108.524 184.76 108.524 186.308 108.506 187.244L109.73 187.226C109.784 187.298 109.82 187.424 109.82 187.532ZM107.39 186.218V181.808C106.922 181.7 106.4 181.664 105.824 181.664C103.97 181.664 103.286 182.888 103.286 184.454C103.286 186.344 103.754 187.208 105.374 187.208C106.112 187.208 107.012 186.776 107.39 186.218ZM117.92 186.794C117.92 187.424 116.588 188.09 114.59 188.09C112.268 188.09 111.152 187.028 111.152 184.724C111.152 182.438 112.466 180.764 114.95 180.764C116.912 180.764 117.902 181.844 117.902 183.086C117.902 184.22 117.596 184.544 117.326 184.544H112.304C112.304 186.398 112.898 187.262 114.914 187.262C115.724 187.262 116.804 186.92 117.56 186.326C117.83 186.416 117.92 186.578 117.92 186.794ZM116.804 183.824C116.84 183.608 116.858 183.41 116.858 183.23C116.858 182.276 116.084 181.574 114.662 181.574C113.222 181.574 112.52 182.528 112.34 183.824H116.804ZM126.722 185.858C126.722 186.992 125.84 188.054 123.428 188.054C121.034 188.054 120.08 187.514 120.08 186.866C120.08 186.65 120.242 186.416 120.548 186.344C121.034 186.83 122.438 187.226 123.464 187.226C125.12 187.226 125.642 186.812 125.642 186.128C125.642 185.552 125.372 185.336 124.454 185.174C123.446 184.994 122.132 184.796 121.718 184.652C120.764 184.328 120.404 183.878 120.404 182.996C120.404 181.664 121.682 180.764 123.806 180.764C125.372 180.764 126.614 181.196 126.614 181.844C126.614 182.078 126.47 182.258 126.164 182.384C125.642 181.934 124.562 181.61 123.662 181.61C122.114 181.61 121.466 182.114 121.466 182.834C121.466 183.446 121.664 183.716 122.744 183.95C123.266 184.058 124.382 184.22 125.156 184.364C126.308 184.58 126.722 185.03 126.722 185.858ZM59.636 203.466C59.636 203.844 59.366 204.51 58.268 206.76C57.728 207.84 57.152 209.1 56.684 209.982C56.504 210.036 56.288 210.072 56.018 210.072C55.55 210.072 55.388 210 55.1 209.334L52.778 203.79H51.968C51.896 203.718 51.86 203.538 51.86 203.412C51.86 203.052 52.274 202.926 53.102 202.926C53.516 202.926 53.66 202.998 53.912 203.574C54.218 204.312 56.198 209.046 56.198 209.046L58.934 202.98C59.006 202.962 59.096 202.962 59.168 202.962C59.42 202.962 59.636 203.07 59.636 203.466ZM68.366 206.184C68.366 208.83 67.034 210.09 64.838 210.09C62.498 210.09 61.616 208.992 61.616 206.706C61.616 204.204 62.966 202.764 65.216 202.764C67.484 202.764 68.366 203.97 68.366 206.184ZM67.25 206.346C67.25 204.672 66.764 203.592 65.126 203.592C63.524 203.592 62.732 204.492 62.732 206.562C62.732 208.434 63.2 209.244 65 209.244C66.548 209.244 67.25 208.218 67.25 206.346ZM77.222 207.858C77.222 208.992 76.34 210.054 73.928 210.054C71.534 210.054 70.58 209.514 70.58 208.866C70.58 208.65 70.742 208.416 71.048 208.344C71.534 208.83 72.938 209.226 73.964 209.226C75.62 209.226 76.142 208.812 76.142 208.128C76.142 207.552 75.872 207.336 74.954 207.174C73.946 206.994 72.632 206.796 72.218 206.652C71.264 206.328 70.904 205.878 70.904 204.996C70.904 203.664 72.182 202.764 74.306 202.764C75.872 202.764 77.114 203.196 77.114 203.844C77.114 204.078 76.97 204.258 76.664 204.384C76.142 203.934 75.062 203.61 74.162 203.61C72.614 203.61 71.966 204.114 71.966 204.834C71.966 205.446 72.164 205.716 73.244 205.95C73.766 206.058 74.882 206.22 75.656 206.364C76.808 206.58 77.222 207.03 77.222 207.858ZM86.78 209.082C86.834 209.136 86.888 209.28 86.888 209.424C86.888 209.712 86.726 210.072 85.934 210.072C85.124 210.072 84.62 209.694 84.62 208.416C84.512 209.406 83.54 210.072 81.92 210.072C80.336 210.072 79.742 209.226 79.742 208.164C79.742 206.922 80.354 205.932 82.478 205.932C82.946 205.932 83.99 205.986 84.674 206.076L84.692 205.158C84.71 204.15 84.062 203.7 82.856 203.7C82.082 203.7 81.398 203.916 80.678 204.492C80.282 204.438 80.156 204.258 80.156 203.952C80.156 203.412 81.182 202.764 83.036 202.764C84.836 202.764 85.772 203.556 85.772 205.032L85.736 208.236C85.718 208.812 85.88 209.118 86.438 209.118C86.546 209.118 86.654 209.1 86.78 209.082ZM84.638 206.796C84.062 206.688 83.306 206.652 82.712 206.652C81.344 206.652 80.858 207.066 80.858 208.038C80.858 208.794 81.29 209.28 82.262 209.28C83.27 209.28 84.062 208.848 84.62 208.11L84.638 206.796ZM95.852 203.376C95.852 203.718 95.672 203.88 95.24 203.88C94.916 203.88 94.682 203.88 94.376 203.808L94.178 203.754L94.322 203.808C94.934 204.042 95.258 204.582 95.258 205.446C95.258 207.12 93.89 208.164 91.73 208.164C91.442 208.164 91.046 208.146 90.758 208.092C90.326 208.254 90.146 208.506 90.146 208.866C90.146 209.19 90.416 209.37 91.406 209.406L93.944 209.532C95.168 209.586 95.6 210.162 95.6 210.918C95.6 212.16 94.34 213.456 91.766 213.456C89.39 213.456 88.4 212.862 88.4 211.602C88.4 210.828 88.94 210.198 89.732 210.036C89.246 209.874 89.048 209.586 89.048 209.154C89.048 208.65 89.372 208.11 90.182 207.966C89.264 207.786 88.616 206.904 88.616 205.644C88.616 203.988 89.948 202.764 92.108 202.764C92.666 202.764 93.674 202.836 94.214 203.016L95.744 202.998C95.816 203.106 95.852 203.214 95.852 203.376ZM94.178 205.518C94.178 204.33 93.386 203.556 92.018 203.556C90.578 203.556 89.732 204.258 89.732 205.518C89.732 206.778 90.398 207.408 91.82 207.408C93.44 207.408 94.178 206.706 94.178 205.518ZM94.466 211.224C94.466 210.684 94.304 210.468 93.044 210.432C92 210.396 90.74 210.324 90.218 210.234C89.696 210.486 89.39 210.9 89.39 211.404C89.39 212.232 90.2 212.664 91.964 212.664C93.512 212.664 94.466 211.962 94.466 211.224ZM104.42 208.794C104.42 209.424 103.088 210.09 101.09 210.09C98.768 210.09 97.652 209.028 97.652 206.724C97.652 204.438 98.966 202.764 101.45 202.764C103.412 202.764 104.402 203.844 104.402 205.086C104.402 206.22 104.096 206.544 103.826 206.544H98.804C98.804 208.398 99.398 209.262 101.414 209.262C102.224 209.262 103.304 208.92 104.06 208.326C104.33 208.416 104.42 208.578 104.42 208.794ZM103.304 205.824C103.34 205.608 103.358 205.41 103.358 205.23C103.358 204.276 102.584 203.574 101.162 203.574C99.722 203.574 99.02 204.528 98.84 205.824H103.304ZM113.222 207.858C113.222 208.992 112.34 210.054 109.928 210.054C107.534 210.054 106.58 209.514 106.58 208.866C106.58 208.65 106.742 208.416 107.048 208.344C107.534 208.83 108.938 209.226 109.964 209.226C111.62 209.226 112.142 208.812 112.142 208.128C112.142 207.552 111.872 207.336 110.954 207.174C109.946 206.994 108.632 206.796 108.218 206.652C107.264 206.328 106.904 205.878 106.904 204.996C106.904 203.664 108.182 202.764 110.306 202.764C111.872 202.764 113.114 203.196 113.114 203.844C113.114 204.078 112.97 204.258 112.664 204.384C112.142 203.934 111.062 203.61 110.162 203.61C108.614 203.61 107.966 204.114 107.966 204.834C107.966 205.446 108.164 205.716 109.244 205.95C109.766 206.058 110.882 206.22 111.656 206.364C112.808 206.58 113.222 207.03 113.222 207.858Z" fill="#1A1A3D"/>
<defs>
<filter id="filter0_d_167_4" x="0" y="0" width="166.125" height="232.948" filterUnits="userSpaceOnUse" color-interpolation-filters="sRGB">
<feFlood flood-opacity="0" result="BackgroundImageFix"/>
<feColorMatrix in="SourceAlpha" type="matrix" values="0 0 0 0 0 0 0 0 0 0 0 0 0 0 0 0 0 0 127 0" result="hardAlpha"/>
<feOffset dy="4"/>
<feGaussianBlur stdDeviation="2"/>
<feComposite in2="hardAlpha" operator="out"/>
<feColorMatrix type="matrix" values="0 0 0 0 0 0 0 0 0 0 0 0 0 0 0 0 0 0 0.25 0"/>
<feBlend mode="normal" in2="BackgroundImageFix" result="effect1_dropShadow_167_4"/>
<feBlend mode="normal" in="SourceGraphic" in2="effect1_dropShadow_167_4" result="shape"/>
</filter>
</defs>
</svg>
