<svg width="167" height="233" viewBox="0 0 167 233" fill="none" xmlns="http://www.w3.org/2000/svg">
<g filter="url(#filter0_d_153_11)">
<path d="M4 219.122V5.8258C4 2.60975 6.55235 0 9.69766 0H156.427C159.573 0 162.125 2.60975 162.125 5.8258V219.122C162.125 222.338 159.573 224.948 156.427 224.948H9.69766C6.55235 224.948 4 222.338 4 219.122Z" fill="white"/>
</g>
<path d="M50.438 184.13C50.438 186.758 48.782 188.09 46.478 188.09C44.138 188.09 43.886 187.55 43.886 186.704V178.244C43.886 177.74 43.994 177.506 44.426 177.506C44.66 177.506 44.876 177.542 45.038 177.596L45.02 178.514V181.016C45.02 181.556 44.984 182.402 44.984 182.402C45.146 181.376 46.172 180.764 47.306 180.764C49.43 180.764 50.438 181.916 50.438 184.13ZM49.358 184.292C49.358 182.528 48.62 181.628 47.144 181.628C46.226 181.628 45.452 182.222 45.02 182.78L45.002 186.614C45.002 187.046 45.092 187.298 46.55 187.298C48.314 187.298 49.358 186.2 49.358 184.292ZM59.366 184.184C59.366 186.83 58.034 188.09 55.838 188.09C53.498 188.09 52.616 186.992 52.616 184.706C52.616 182.204 53.966 180.764 56.216 180.764C58.484 180.764 59.366 181.97 59.366 184.184ZM58.25 184.346C58.25 182.672 57.764 181.592 56.126 181.592C54.524 181.592 53.732 182.492 53.732 184.562C53.732 186.434 54.2 187.244 56 187.244C57.548 187.244 58.25 186.218 58.25 184.346ZM68.366 184.184C68.366 186.83 67.034 188.09 64.838 188.09C62.498 188.09 61.616 186.992 61.616 184.706C61.616 182.204 62.966 180.764 65.216 180.764C67.484 180.764 68.366 181.97 68.366 184.184ZM67.25 184.346C67.25 182.672 66.764 181.592 65.126 181.592C63.524 181.592 62.732 182.492 62.732 184.562C62.732 186.434 63.2 187.244 65 187.244C66.548 187.244 67.25 186.218 67.25 184.346ZM77.852 187.496C77.852 187.838 77.42 188.054 76.394 188.054C75.872 188.054 75.62 187.91 75.35 187.514L73.136 184.364L72.038 185.192V187.964C71.948 188.018 71.786 188.054 71.516 188.054C71.012 188.054 70.94 187.874 70.94 187.28C70.94 186.938 70.922 184.85 70.922 182.42C70.922 180.134 70.922 178.928 70.94 178.244C70.94 177.74 71.048 177.506 71.48 177.506C71.732 177.506 71.912 177.542 72.074 177.596L72.038 178.514V184.22L75.818 181.25C76.106 180.998 76.268 180.908 76.538 180.908C76.844 180.908 76.988 181.07 76.988 181.304C76.988 181.358 76.97 181.412 76.952 181.466L74.054 183.788L76.556 187.19H77.762C77.816 187.262 77.852 187.388 77.852 187.496ZM86.222 185.858C86.222 186.992 85.34 188.054 82.928 188.054C80.534 188.054 79.58 187.514 79.58 186.866C79.58 186.65 79.742 186.416 80.048 186.344C80.534 186.83 81.938 187.226 82.964 187.226C84.62 187.226 85.142 186.812 85.142 186.128C85.142 185.552 84.872 185.336 83.954 185.174C82.946 184.994 81.632 184.796 81.218 184.652C80.264 184.328 79.904 183.878 79.904 182.996C79.904 181.664 81.182 180.764 83.306 180.764C84.872 180.764 86.114 181.196 86.114 181.844C86.114 182.078 85.97 182.258 85.664 182.384C85.142 181.934 84.062 181.61 83.162 181.61C81.614 181.61 80.966 182.114 80.966 182.834C80.966 183.446 81.164 183.716 82.244 183.95C82.766 184.058 83.882 184.22 84.656 184.364C85.808 184.58 86.222 185.03 86.222 185.858ZM95.492 187.046C95.492 187.784 94.214 188.09 92.324 188.09C90.92 188.09 90.092 187.586 90.092 186.092C90.092 184.85 90.11 183.23 90.128 181.88L88.166 181.862C88.112 181.772 88.076 181.664 88.076 181.538C88.076 181.106 88.544 180.998 90.146 180.998L90.128 179.306C90.128 178.91 90.29 178.586 90.704 178.586C90.974 178.586 91.136 178.64 91.262 178.694L91.244 180.998H95.078C95.114 181.07 95.168 181.214 95.168 181.34C95.168 181.772 94.916 181.916 94.232 181.916C93.854 181.916 91.964 181.916 91.244 181.898V185.786C91.226 186.866 91.586 187.208 92.612 187.208C93.836 187.208 94.466 186.974 95.132 186.578C95.384 186.65 95.492 186.812 95.492 187.046ZM104.366 184.184C104.366 186.83 103.034 188.09 100.838 188.09C98.498 188.09 97.616 186.992 97.616 184.706C97.616 182.204 98.966 180.764 101.216 180.764C103.484 180.764 104.366 181.97 104.366 184.184ZM103.25 184.346C103.25 182.672 102.764 181.592 101.126 181.592C99.524 181.592 98.732 182.492 98.732 184.562C98.732 186.434 99.2 187.244 101 187.244C102.548 187.244 103.25 186.218 103.25 184.346ZM107.588 187.19V185.228C107.588 184.238 107.588 182.726 107.624 181.772H106.22C106.166 181.682 106.13 181.592 106.13 181.484C106.13 181.142 106.49 180.926 107.714 180.926C108.164 180.926 108.542 180.962 108.794 181.016L108.686 183.554C110.54 180.746 111.026 180.782 112.016 180.782C112.844 180.782 113.618 181.394 113.618 182.636C113.618 183.086 113.402 183.482 112.898 183.482C112.808 183.482 112.718 183.464 112.628 183.446C112.502 182.078 112.286 181.664 111.818 181.664C111.224 181.664 110.702 181.772 108.722 184.634V187.19L111.476 187.154C111.548 187.28 111.584 187.442 111.584 187.568C111.584 187.838 111.368 188.018 110.972 188.018C110.828 188.018 106.814 188 106.742 188C106.652 187.928 106.598 187.784 106.598 187.64C106.598 187.298 106.868 187.208 107.084 187.208C107.372 187.19 107.588 187.19 107.588 187.19ZM122.42 186.794C122.42 187.424 121.088 188.09 119.09 188.09C116.768 188.09 115.652 187.028 115.652 184.724C115.652 182.438 116.966 180.764 119.45 180.764C121.412 180.764 122.402 181.844 122.402 183.086C122.402 184.22 122.096 184.544 121.826 184.544H116.804C116.804 186.398 117.398 187.262 119.414 187.262C120.224 187.262 121.304 186.92 122.06 186.326C122.33 186.416 122.42 186.578 122.42 186.794ZM121.304 183.824C121.34 183.608 121.358 183.41 121.358 183.23C121.358 182.276 120.584 181.574 119.162 181.574C117.722 181.574 117.02 182.528 116.84 183.824H121.304ZM42.32 209.532C42.32 209.964 41.978 210.054 40.88 210.054C40.43 210.054 40.088 210.018 39.818 209.964L39.926 208.614C39.836 209.514 38.738 210.054 37.55 210.054C35.714 210.054 34.67 208.974 34.67 206.67C34.67 204.384 36.092 202.764 38.45 202.764C39.044 202.764 39.638 202.836 39.89 202.926V200.244C39.89 199.74 39.998 199.506 40.448 199.506C40.682 199.506 40.898 199.542 41.06 199.596L41.024 200.514C41.006 200.856 41.024 204.996 41.024 205.77C41.024 206.76 41.024 208.308 41.006 209.244L42.23 209.226C42.284 209.298 42.32 209.424 42.32 209.532ZM39.89 208.218V203.808C39.422 203.7 38.9 203.664 38.324 203.664C36.47 203.664 35.786 204.888 35.786 206.454C35.786 208.344 36.254 209.208 37.874 209.208C38.612 209.208 39.512 208.776 39.89 208.218ZM50.366 206.184C50.366 208.83 49.034 210.09 46.838 210.09C44.498 210.09 43.616 208.992 43.616 206.706C43.616 204.204 44.966 202.764 47.216 202.764C49.484 202.764 50.366 203.97 50.366 206.184ZM49.25 206.346C49.25 204.672 48.764 203.592 47.126 203.592C45.524 203.592 44.732 204.492 44.732 206.562C44.732 208.434 45.2 209.244 47 209.244C48.548 209.244 49.25 208.218 49.25 206.346ZM60.05 209.514C60.05 209.82 59.834 210.054 59.294 210.054C58.898 210.054 58.646 209.892 58.646 209.496C58.646 208.866 58.7 205.41 58.7 204.924C58.7 204.042 58.592 203.664 57.836 203.664C57.296 203.664 56.828 203.988 56.504 204.834V209.964C56.414 210.018 56.216 210.054 55.946 210.054C55.496 210.054 55.388 209.91 55.388 209.28C55.388 208.668 55.442 205.356 55.442 204.87C55.442 203.934 55.244 203.664 54.542 203.664C53.966 203.664 53.534 203.988 53.21 204.816V209.964C53.102 210.018 52.94 210.054 52.67 210.054C52.166 210.054 52.148 209.91 52.112 209.28C52.094 208.938 52.094 208.002 52.094 207.228C52.094 206.238 52.112 204.726 52.13 203.772C52.148 203.178 52.364 202.962 52.76 202.962C52.886 202.962 53.03 202.98 53.174 203.016V204.222C53.354 203.376 53.912 202.782 54.83 202.782C56.018 202.782 56.342 203.286 56.45 204.312C56.666 203.358 57.26 202.782 58.124 202.782C59.222 202.782 59.762 203.286 59.762 204.672C59.762 205.338 59.762 207.66 59.726 209.19H59.96C60.014 209.28 60.05 209.406 60.05 209.514ZM66.062 200.532C66.062 200.874 65.882 201.234 65.27 201.234C64.73 201.234 64.496 201.018 64.496 200.568C64.496 200.172 64.82 199.866 65.342 199.866C65.9 199.866 66.062 200.19 66.062 200.532ZM64.658 209.154V207.228C64.658 206.238 64.676 204.762 64.694 203.772H62.12C62.066 203.682 62.048 203.592 62.048 203.484C62.048 203.088 62.534 202.926 63.956 202.926C65.63 202.926 65.81 203.124 65.81 203.43L65.792 209.154L68.33 209.118C68.402 209.244 68.438 209.442 68.438 209.568C68.438 209.838 68.222 210.018 67.826 210.018C67.682 210.018 61.76 210 61.688 210C61.598 209.928 61.544 209.784 61.544 209.64C61.544 209.298 61.814 209.172 62.03 209.172C62.318 209.154 64.658 209.154 64.658 209.154ZM78.248 209.514C78.248 209.946 77.78 210.054 76.844 210.054C75.962 210.054 75.854 210.018 75.854 209.064C75.854 208.506 75.908 205.734 75.908 205.248C75.908 204.132 75.512 203.664 74.234 203.664C73.478 203.664 72.578 204.15 72.164 204.78V209.964C72.056 210.018 71.876 210.054 71.606 210.054C71.102 210.054 71.03 209.874 71.03 209.28V207.228C71.03 206.238 71.03 204.726 71.066 203.772H69.842C69.788 203.682 69.752 203.592 69.752 203.484C69.752 203.142 69.932 202.926 71.156 202.926C71.606 202.926 71.984 202.962 72.236 203.016L72.128 204.384C72.218 203.448 73.352 202.782 74.594 202.782C76.268 202.782 77.006 203.448 77.006 205.032C77.006 205.698 76.988 207.66 76.952 209.19H78.176C78.23 209.298 78.248 209.406 78.248 209.514ZM84.062 200.532C84.062 200.874 83.882 201.234 83.27 201.234C82.73 201.234 82.496 201.018 82.496 200.568C82.496 200.172 82.82 199.866 83.342 199.866C83.9 199.866 84.062 200.19 84.062 200.532ZM82.658 209.154V207.228C82.658 206.238 82.676 204.762 82.694 203.772H80.12C80.066 203.682 80.048 203.592 80.048 203.484C80.048 203.088 80.534 202.926 81.956 202.926C83.63 202.926 83.81 203.124 83.81 203.43L83.792 209.154L86.33 209.118C86.402 209.244 86.438 209.442 86.438 209.568C86.438 209.838 86.222 210.018 85.826 210.018C85.682 210.018 79.76 210 79.688 210C79.598 209.928 79.544 209.784 79.544 209.64C79.544 209.298 79.814 209.172 80.03 209.172C80.318 209.154 82.658 209.154 82.658 209.154ZM95.384 208.902C95.384 209.568 94.07 210.09 92.108 210.09C89.768 210.09 88.652 208.956 88.652 206.67C88.652 204.33 90.038 202.764 92.72 202.764C94.16 202.764 95.114 203.124 95.114 203.628C95.114 203.934 94.934 204.096 94.682 204.204C93.98 203.916 93.188 203.682 92.432 203.682C90.614 203.682 89.786 204.672 89.786 206.454C89.786 208.146 90.308 209.208 92.432 209.208C93.386 209.208 94.43 208.866 95.096 208.47C95.276 208.542 95.384 208.686 95.384 208.902ZM104.78 209.082C104.834 209.136 104.888 209.28 104.888 209.424C104.888 209.712 104.726 210.072 103.934 210.072C103.124 210.072 102.62 209.694 102.62 208.416C102.512 209.406 101.54 210.072 99.92 210.072C98.336 210.072 97.742 209.226 97.742 208.164C97.742 206.922 98.354 205.932 100.478 205.932C100.946 205.932 101.99 205.986 102.674 206.076L102.692 205.158C102.71 204.15 102.062 203.7 100.856 203.7C100.082 203.7 99.398 203.916 98.678 204.492C98.282 204.438 98.156 204.258 98.156 203.952C98.156 203.412 99.182 202.764 101.036 202.764C102.836 202.764 103.772 203.556 103.772 205.032L103.736 208.236C103.718 208.812 103.88 209.118 104.438 209.118C104.546 209.118 104.654 209.1 104.78 209.082ZM102.638 206.796C102.062 206.688 101.306 206.652 100.712 206.652C99.344 206.652 98.858 207.066 98.858 208.038C98.858 208.794 99.29 209.28 100.262 209.28C101.27 209.28 102.062 208.848 102.62 208.11L102.638 206.796ZM114.248 209.514C114.248 209.946 113.78 210.054 112.844 210.054C111.962 210.054 111.854 210.018 111.854 209.064C111.854 208.506 111.908 205.734 111.908 205.248C111.908 204.132 111.512 203.664 110.234 203.664C109.478 203.664 108.578 204.15 108.164 204.78V209.964C108.056 210.018 107.876 210.054 107.606 210.054C107.102 210.054 107.03 209.874 107.03 209.28V207.228C107.03 206.238 107.03 204.726 107.066 203.772H105.842C105.788 203.682 105.752 203.592 105.752 203.484C105.752 203.142 105.932 202.926 107.156 202.926C107.606 202.926 107.984 202.962 108.236 203.016L108.128 204.384C108.218 203.448 109.352 202.782 110.594 202.782C112.268 202.782 113.006 203.448 113.006 205.032C113.006 205.698 112.988 207.66 112.952 209.19H114.176C114.23 209.298 114.248 209.406 114.248 209.514ZM122.42 208.794C122.42 209.424 121.088 210.09 119.09 210.09C116.768 210.09 115.652 209.028 115.652 206.724C115.652 204.438 116.966 202.764 119.45 202.764C121.412 202.764 122.402 203.844 122.402 205.086C122.402 206.22 122.096 206.544 121.826 206.544H116.804C116.804 208.398 117.398 209.262 119.414 209.262C120.224 209.262 121.304 208.92 122.06 208.326C122.33 208.416 122.42 208.578 122.42 208.794ZM121.304 205.824C121.34 205.608 121.358 205.41 121.358 205.23C121.358 204.276 120.584 203.574 119.162 203.574C117.722 203.574 117.02 204.528 116.84 205.824H121.304ZM132.248 209.514C132.248 209.946 131.78 210.054 130.844 210.054C129.962 210.054 129.854 210.018 129.854 209.064C129.854 208.506 129.908 205.734 129.908 205.248C129.908 204.132 129.512 203.664 128.234 203.664C127.478 203.664 126.578 204.15 126.164 204.78V209.964C126.056 210.018 125.876 210.054 125.606 210.054C125.102 210.054 125.03 209.874 125.03 209.28V207.228C125.03 206.238 125.03 204.726 125.066 203.772H123.842C123.788 203.682 123.752 203.592 123.752 203.484C123.752 203.142 123.932 202.926 125.156 202.926C125.606 202.926 125.984 202.962 126.236 203.016L126.128 204.384C126.218 203.448 127.352 202.782 128.594 202.782C130.268 202.782 131.006 203.448 131.006 205.032C131.006 205.698 130.988 207.66 130.952 209.19H132.176C132.23 209.298 132.248 209.406 132.248 209.514Z" fill="#1A1A3D"/>
<defs>
<filter id="filter0_d_153_11" x="0" y="0" width="166.125" height="232.948" filterUnits="userSpaceOnUse" color-interpolation-filters="sRGB">
<feFlood flood-opacity="0" result="BackgroundImageFix"/>
<feColorMatrix in="SourceAlpha" type="matrix" values="0 0 0 0 0 0 0 0 0 0 0 0 0 0 0 0 0 0 127 0" result="hardAlpha"/>
<feOffset dy="4"/>
<feGaussianBlur stdDeviation="2"/>
<feComposite in2="hardAlpha" operator="out"/>
<feColorMatrix type="matrix" values="0 0 0 0 0 0 0 0 0 0 0 0 0 0 0 0 0 0 0.25 0"/>
<feBlend mode="normal" in2="BackgroundImageFix" result="effect1_dropShadow_153_11"/>
<feBlend mode="normal" in="SourceGraphic" in2="effect1_dropShadow_153_11" result="shape"/>
</filter>
</defs>
</svg>
