<svg width="167" height="233" viewBox="0 0 167 233" fill="none" xmlns="http://www.w3.org/2000/svg">
<g filter="url(#filter0_d_152_3)">
<path d="M4 219.122V5.8258C4 2.60975 6.55235 0 9.69766 0H156.427C159.573 0 162.125 2.60975 162.125 5.8258V219.122C162.125 222.338 159.573 224.948 156.427 224.948H9.69766C6.55235 224.948 4 222.338 4 219.122Z" fill="white"/>
</g>
<path d="M64.244 186.46C64.244 186.874 63.974 187 62.984 187C62.984 187 59.312 186.982 57.692 186.982H57.206C57.098 186.82 57.062 186.604 57.062 186.442C57.062 186.064 57.17 185.848 57.422 185.56L62.588 180.826L57.386 180.844C57.314 180.736 57.278 180.61 57.278 180.448C57.278 180.106 57.566 179.908 58.394 179.908L63.614 179.926C63.74 180.088 63.812 180.322 63.812 180.538C63.812 180.898 63.668 181.186 63.236 181.582L58.196 186.154L64.154 186.136C64.208 186.226 64.244 186.334 64.244 186.46ZM72.866 183.184C72.866 185.83 71.534 187.09 69.338 187.09C66.998 187.09 66.116 185.992 66.116 183.706C66.116 181.204 67.466 179.764 69.716 179.764C71.984 179.764 72.866 180.97 72.866 183.184ZM71.75 183.346C71.75 181.672 71.264 180.592 69.626 180.592C68.024 180.592 67.232 181.492 67.232 183.562C67.232 185.434 67.7 186.244 69.5 186.244C71.048 186.244 71.75 185.218 71.75 183.346ZM82.748 186.514C82.748 186.946 82.28 187.054 81.344 187.054C80.462 187.054 80.354 187.018 80.354 186.064C80.354 185.506 80.408 182.734 80.408 182.248C80.408 181.132 80.012 180.664 78.734 180.664C77.978 180.664 77.078 181.15 76.664 181.78V186.964C76.556 187.018 76.376 187.054 76.106 187.054C75.602 187.054 75.53 186.874 75.53 186.28V184.228C75.53 183.238 75.53 181.726 75.566 180.772H74.342C74.288 180.682 74.252 180.592 74.252 180.484C74.252 180.142 74.432 179.926 75.656 179.926C76.106 179.926 76.484 179.962 76.736 180.016L76.628 181.384C76.718 180.448 77.852 179.782 79.094 179.782C80.768 179.782 81.506 180.448 81.506 182.032C81.506 182.698 81.488 184.66 81.452 186.19H82.676C82.73 186.298 82.748 186.406 82.748 186.514ZM91.82 186.532C91.82 186.964 91.478 187.054 90.38 187.054C89.93 187.054 89.588 187.018 89.318 186.964L89.426 185.614C89.336 186.514 88.238 187.054 87.05 187.054C85.214 187.054 84.17 185.974 84.17 183.67C84.17 181.384 85.592 179.764 87.95 179.764C88.544 179.764 89.138 179.836 89.39 179.926V177.244C89.39 176.74 89.498 176.506 89.948 176.506C90.182 176.506 90.398 176.542 90.56 176.596L90.524 177.514C90.506 177.856 90.524 181.996 90.524 182.77C90.524 183.76 90.524 185.308 90.506 186.244L91.73 186.226C91.784 186.298 91.82 186.424 91.82 186.532ZM89.39 185.218V180.808C88.922 180.7 88.4 180.664 87.824 180.664C85.97 180.664 85.286 181.888 85.286 183.454C85.286 185.344 85.754 186.208 87.374 186.208C88.112 186.208 89.012 185.776 89.39 185.218ZM100.28 186.082C100.334 186.136 100.388 186.28 100.388 186.424C100.388 186.712 100.226 187.072 99.434 187.072C98.624 187.072 98.12 186.694 98.12 185.416C98.012 186.406 97.04 187.072 95.42 187.072C93.836 187.072 93.242 186.226 93.242 185.164C93.242 183.922 93.854 182.932 95.978 182.932C96.446 182.932 97.49 182.986 98.174 183.076L98.192 182.158C98.21 181.15 97.562 180.7 96.356 180.7C95.582 180.7 94.898 180.916 94.178 181.492C93.782 181.438 93.656 181.258 93.656 180.952C93.656 180.412 94.682 179.764 96.536 179.764C98.336 179.764 99.272 180.556 99.272 182.032L99.236 185.236C99.218 185.812 99.38 186.118 99.938 186.118C100.046 186.118 100.154 186.1 100.28 186.082ZM98.138 183.796C97.562 183.688 96.806 183.652 96.212 183.652C94.844 183.652 94.358 184.066 94.358 185.038C94.358 185.794 94.79 186.28 95.762 186.28C96.77 186.28 97.562 185.848 98.12 185.11L98.138 183.796ZM109.352 180.376C109.352 180.718 109.172 180.88 108.74 180.88C108.416 180.88 108.182 180.88 107.876 180.808L107.678 180.754L107.822 180.808C108.434 181.042 108.758 181.582 108.758 182.446C108.758 184.12 107.39 185.164 105.23 185.164C104.942 185.164 104.546 185.146 104.258 185.092C103.826 185.254 103.646 185.506 103.646 185.866C103.646 186.19 103.916 186.37 104.906 186.406L107.444 186.532C108.668 186.586 109.1 187.162 109.1 187.918C109.1 189.16 107.84 190.456 105.266 190.456C102.89 190.456 101.9 189.862 101.9 188.602C101.9 187.828 102.44 187.198 103.232 187.036C102.746 186.874 102.548 186.586 102.548 186.154C102.548 185.65 102.872 185.11 103.682 184.966C102.764 184.786 102.116 183.904 102.116 182.644C102.116 180.988 103.448 179.764 105.608 179.764C106.166 179.764 107.174 179.836 107.714 180.016L109.244 179.998C109.316 180.106 109.352 180.214 109.352 180.376ZM107.678 182.518C107.678 181.33 106.886 180.556 105.518 180.556C104.078 180.556 103.232 181.258 103.232 182.518C103.232 183.778 103.898 184.408 105.32 184.408C106.94 184.408 107.678 183.706 107.678 182.518ZM107.966 188.224C107.966 187.684 107.804 187.468 106.544 187.432C105.5 187.396 104.24 187.324 103.718 187.234C103.196 187.486 102.89 187.9 102.89 188.404C102.89 189.232 103.7 189.664 105.464 189.664C107.012 189.664 107.966 188.962 107.966 188.224ZM40.088 208.19V206.228C40.088 205.238 40.088 203.726 40.124 202.772H38.72C38.666 202.682 38.63 202.592 38.63 202.484C38.63 202.142 38.99 201.926 40.214 201.926C40.664 201.926 41.042 201.962 41.294 202.016L41.186 204.554C43.04 201.746 43.526 201.782 44.516 201.782C45.344 201.782 46.118 202.394 46.118 203.636C46.118 204.086 45.902 204.482 45.398 204.482C45.308 204.482 45.218 204.464 45.128 204.446C45.002 203.078 44.786 202.664 44.318 202.664C43.724 202.664 43.202 202.772 41.222 205.634V208.19L43.976 208.154C44.048 208.28 44.084 208.442 44.084 208.568C44.084 208.838 43.868 209.018 43.472 209.018C43.328 209.018 39.314 209 39.242 209C39.152 208.928 39.098 208.784 39.098 208.64C39.098 208.298 39.368 208.208 39.584 208.208C39.872 208.19 40.088 208.19 40.088 208.19ZM54.92 207.794C54.92 208.424 53.588 209.09 51.59 209.09C49.268 209.09 48.152 208.028 48.152 205.724C48.152 203.438 49.466 201.764 51.95 201.764C53.912 201.764 54.902 202.844 54.902 204.086C54.902 205.22 54.596 205.544 54.326 205.544H49.304C49.304 207.398 49.898 208.262 51.914 208.262C52.724 208.262 53.804 207.92 54.56 207.326C54.83 207.416 54.92 207.578 54.92 207.794ZM53.804 204.824C53.84 204.608 53.858 204.41 53.858 204.23C53.858 203.276 53.084 202.574 51.662 202.574C50.222 202.574 49.52 203.528 49.34 204.824H53.804ZM63.722 206.858C63.722 207.992 62.84 209.054 60.428 209.054C58.034 209.054 57.08 208.514 57.08 207.866C57.08 207.65 57.242 207.416 57.548 207.344C58.034 207.83 59.438 208.226 60.464 208.226C62.12 208.226 62.642 207.812 62.642 207.128C62.642 206.552 62.372 206.336 61.454 206.174C60.446 205.994 59.132 205.796 58.718 205.652C57.764 205.328 57.404 204.878 57.404 203.996C57.404 202.664 58.682 201.764 60.806 201.764C62.372 201.764 63.614 202.196 63.614 202.844C63.614 203.078 63.47 203.258 63.164 203.384C62.642 202.934 61.562 202.61 60.662 202.61C59.114 202.61 58.466 203.114 58.466 203.834C58.466 204.446 58.664 204.716 59.744 204.95C60.266 205.058 61.382 205.22 62.156 205.364C63.308 205.58 63.722 206.03 63.722 206.858ZM72.992 208.046C72.992 208.784 71.714 209.09 69.824 209.09C68.42 209.09 67.592 208.586 67.592 207.092C67.592 205.85 67.61 204.23 67.628 202.88L65.666 202.862C65.612 202.772 65.576 202.664 65.576 202.538C65.576 202.106 66.044 201.998 67.646 201.998L67.628 200.306C67.628 199.91 67.79 199.586 68.204 199.586C68.474 199.586 68.636 199.64 68.762 199.694L68.744 201.998H72.578C72.614 202.07 72.668 202.214 72.668 202.34C72.668 202.772 72.416 202.916 71.732 202.916C71.354 202.916 69.464 202.916 68.744 202.898V206.786C68.726 207.866 69.086 208.208 70.112 208.208C71.336 208.208 71.966 207.974 72.632 207.578C72.884 207.65 72.992 207.812 72.992 208.046ZM82.28 208.082C82.334 208.136 82.388 208.28 82.388 208.424C82.388 208.712 82.226 209.072 81.434 209.072C80.624 209.072 80.12 208.694 80.12 207.416C80.012 208.406 79.04 209.072 77.42 209.072C75.836 209.072 75.242 208.226 75.242 207.164C75.242 205.922 75.854 204.932 77.978 204.932C78.446 204.932 79.49 204.986 80.174 205.076L80.192 204.158C80.21 203.15 79.562 202.7 78.356 202.7C77.582 202.7 76.898 202.916 76.178 203.492C75.782 203.438 75.656 203.258 75.656 202.952C75.656 202.412 76.682 201.764 78.536 201.764C80.336 201.764 81.272 202.556 81.272 204.032L81.236 207.236C81.218 207.812 81.38 208.118 81.938 208.118C82.046 208.118 82.154 208.1 82.28 208.082ZM80.138 205.796C79.562 205.688 78.806 205.652 78.212 205.652C76.844 205.652 76.358 206.066 76.358 207.038C76.358 207.794 76.79 208.28 77.762 208.28C78.77 208.28 79.562 207.848 80.12 207.11L80.138 205.796ZM84.656 202.772H83.612C83.558 202.682 83.522 202.592 83.522 202.484C83.522 202.142 83.846 201.926 84.728 201.926C85.736 201.926 85.754 202.034 85.754 202.664C85.754 203.222 85.664 206.228 85.664 206.714C85.664 207.776 85.862 208.298 87.104 208.298C87.86 208.298 88.85 207.812 89.264 207.182V202.52C89.264 202.124 89.444 201.944 89.876 201.944C90.11 201.944 90.236 201.98 90.38 202.052V208.208H91.334C91.388 208.28 91.406 208.37 91.406 208.496C91.406 208.928 91.028 209.054 90.254 209.054C89.804 209.054 89.444 209.018 89.192 208.964L89.282 207.578C89.192 208.532 87.95 209.18 86.744 209.18C85.07 209.18 84.566 208.532 84.566 206.93C84.566 206.282 84.62 204.32 84.656 202.772ZM94.088 208.19V206.228C94.088 205.238 94.088 203.726 94.124 202.772H92.72C92.666 202.682 92.63 202.592 92.63 202.484C92.63 202.142 92.99 201.926 94.214 201.926C94.664 201.926 95.042 201.962 95.294 202.016L95.186 204.554C97.04 201.746 97.526 201.782 98.516 201.782C99.344 201.782 100.118 202.394 100.118 203.636C100.118 204.086 99.902 204.482 99.398 204.482C99.308 204.482 99.218 204.464 99.128 204.446C99.002 203.078 98.786 202.664 98.318 202.664C97.724 202.664 97.202 202.772 95.222 205.634V208.19L97.976 208.154C98.048 208.28 98.084 208.442 98.084 208.568C98.084 208.838 97.868 209.018 97.472 209.018C97.328 209.018 93.314 209 93.242 209C93.152 208.928 93.098 208.784 93.098 208.64C93.098 208.298 93.368 208.208 93.584 208.208C93.872 208.19 94.088 208.19 94.088 208.19ZM109.28 208.082C109.334 208.136 109.388 208.28 109.388 208.424C109.388 208.712 109.226 209.072 108.434 209.072C107.624 209.072 107.12 208.694 107.12 207.416C107.012 208.406 106.04 209.072 104.42 209.072C102.836 209.072 102.242 208.226 102.242 207.164C102.242 205.922 102.854 204.932 104.978 204.932C105.446 204.932 106.49 204.986 107.174 205.076L107.192 204.158C107.21 203.15 106.562 202.7 105.356 202.7C104.582 202.7 103.898 202.916 103.178 203.492C102.782 203.438 102.656 203.258 102.656 202.952C102.656 202.412 103.682 201.764 105.536 201.764C107.336 201.764 108.272 202.556 108.272 204.032L108.236 207.236C108.218 207.812 108.38 208.118 108.938 208.118C109.046 208.118 109.154 208.1 109.28 208.082ZM107.138 205.796C106.562 205.688 105.806 205.652 105.212 205.652C103.844 205.652 103.358 206.066 103.358 207.038C103.358 207.794 103.79 208.28 104.762 208.28C105.77 208.28 106.562 207.848 107.12 207.11L107.138 205.796ZM118.748 208.514C118.748 208.946 118.28 209.054 117.344 209.054C116.462 209.054 116.354 209.018 116.354 208.064C116.354 207.506 116.408 204.734 116.408 204.248C116.408 203.132 116.012 202.664 114.734 202.664C113.978 202.664 113.078 203.15 112.664 203.78V208.964C112.556 209.018 112.376 209.054 112.106 209.054C111.602 209.054 111.53 208.874 111.53 208.28V206.228C111.53 205.238 111.53 203.726 111.566 202.772H110.342C110.288 202.682 110.252 202.592 110.252 202.484C110.252 202.142 110.432 201.926 111.656 201.926C112.106 201.926 112.484 201.962 112.736 202.016L112.628 203.384C112.718 202.448 113.852 201.782 115.094 201.782C116.768 201.782 117.506 202.448 117.506 204.032C117.506 204.698 117.488 206.66 117.452 208.19H118.676C118.73 208.298 118.748 208.406 118.748 208.514ZM126.992 208.046C126.992 208.784 125.714 209.09 123.824 209.09C122.42 209.09 121.592 208.586 121.592 207.092C121.592 205.85 121.61 204.23 121.628 202.88L119.666 202.862C119.612 202.772 119.576 202.664 119.576 202.538C119.576 202.106 120.044 201.998 121.646 201.998L121.628 200.306C121.628 199.91 121.79 199.586 122.204 199.586C122.474 199.586 122.636 199.64 122.762 199.694L122.744 201.998H126.578C126.614 202.07 126.668 202.214 126.668 202.34C126.668 202.772 126.416 202.916 125.732 202.916C125.354 202.916 123.464 202.916 122.744 202.898V206.786C122.726 207.866 123.086 208.208 124.112 208.208C125.336 208.208 125.966 207.974 126.632 207.578C126.884 207.65 126.992 207.812 126.992 208.046Z" fill="#1A1A3D"/>
<defs>
<filter id="filter0_d_152_3" x="0" y="0" width="166.125" height="232.948" filterUnits="userSpaceOnUse" color-interpolation-filters="sRGB">
<feFlood flood-opacity="0" result="BackgroundImageFix"/>
<feColorMatrix in="SourceAlpha" type="matrix" values="0 0 0 0 0 0 0 0 0 0 0 0 0 0 0 0 0 0 127 0" result="hardAlpha"/>
<feOffset dy="4"/>
<feGaussianBlur stdDeviation="2"/>
<feComposite in2="hardAlpha" operator="out"/>
<feColorMatrix type="matrix" values="0 0 0 0 0 0 0 0 0 0 0 0 0 0 0 0 0 0 0.25 0"/>
<feBlend mode="normal" in2="BackgroundImageFix" result="effect1_dropShadow_152_3"/>
<feBlend mode="normal" in="SourceGraphic" in2="effect1_dropShadow_152_3" result="shape"/>
</filter>
</defs>
</svg>
