<svg width="167" height="233" viewBox="0 0 167 233" fill="none" xmlns="http://www.w3.org/2000/svg">
<g filter="url(#filter0_d_152_4)">
<path d="M4 219.122V5.8258C4 2.60975 6.55235 0 9.69766 0H156.427C159.573 0 162.125 2.60975 162.125 5.8258V219.122C162.125 222.338 159.573 224.948 156.427 224.948H9.69766C6.55235 224.948 4 222.338 4 219.122Z" fill="white"/>
</g>
<path d="M60.32 187.532C60.32 187.964 59.978 188.054 58.88 188.054C58.43 188.054 58.088 188.018 57.818 187.964L57.926 186.614C57.836 187.514 56.738 188.054 55.55 188.054C53.714 188.054 52.67 186.974 52.67 184.67C52.67 182.384 54.092 180.764 56.45 180.764C57.044 180.764 57.638 180.836 57.89 180.926V178.244C57.89 177.74 57.998 177.506 58.448 177.506C58.682 177.506 58.898 177.542 59.06 177.596L59.024 178.514C59.006 178.856 59.024 182.996 59.024 183.77C59.024 184.76 59.024 186.308 59.006 187.244L60.23 187.226C60.284 187.298 60.32 187.424 60.32 187.532ZM57.89 186.218V181.808C57.422 181.7 56.9 181.664 56.324 181.664C54.47 181.664 53.786 182.888 53.786 184.454C53.786 186.344 54.254 187.208 55.874 187.208C56.612 187.208 57.512 186.776 57.89 186.218ZM68.42 186.794C68.42 187.424 67.088 188.09 65.09 188.09C62.768 188.09 61.652 187.028 61.652 184.724C61.652 182.438 62.966 180.764 65.45 180.764C67.412 180.764 68.402 181.844 68.402 183.086C68.402 184.22 68.096 184.544 67.826 184.544H62.804C62.804 186.398 63.398 187.262 65.414 187.262C66.224 187.262 67.304 186.92 68.06 186.326C68.33 186.416 68.42 186.578 68.42 186.794ZM67.304 183.824C67.34 183.608 67.358 183.41 67.358 183.23C67.358 182.276 66.584 181.574 65.162 181.574C63.722 181.574 63.02 182.528 62.84 183.824H67.304ZM86.366 184.184C86.366 186.83 85.034 188.09 82.838 188.09C80.498 188.09 79.616 186.992 79.616 184.706C79.616 182.204 80.966 180.764 83.216 180.764C85.484 180.764 86.366 181.97 86.366 184.184ZM85.25 184.346C85.25 182.672 84.764 181.592 83.126 181.592C81.524 181.592 80.732 182.492 80.732 184.562C80.732 186.434 81.2 187.244 83 187.244C84.548 187.244 85.25 186.218 85.25 184.346ZM89.156 181.772H88.112C88.058 181.682 88.022 181.592 88.022 181.484C88.022 181.142 88.346 180.926 89.228 180.926C90.236 180.926 90.254 181.034 90.254 181.664C90.254 182.222 90.164 185.228 90.164 185.714C90.164 186.776 90.362 187.298 91.604 187.298C92.36 187.298 93.35 186.812 93.764 186.182V181.52C93.764 181.124 93.944 180.944 94.376 180.944C94.61 180.944 94.736 180.98 94.88 181.052V187.208H95.834C95.888 187.28 95.906 187.37 95.906 187.496C95.906 187.928 95.528 188.054 94.754 188.054C94.304 188.054 93.944 188.018 93.692 187.964L93.782 186.578C93.692 187.532 92.45 188.18 91.244 188.18C89.57 188.18 89.066 187.532 89.066 185.93C89.066 185.282 89.12 183.32 89.156 181.772ZM105.32 187.532C105.32 187.964 104.978 188.054 103.88 188.054C103.43 188.054 103.088 188.018 102.818 187.964L102.926 186.614C102.836 187.514 101.738 188.054 100.55 188.054C98.714 188.054 97.67 186.974 97.67 184.67C97.67 182.384 99.092 180.764 101.45 180.764C102.044 180.764 102.638 180.836 102.89 180.926V178.244C102.89 177.74 102.998 177.506 103.448 177.506C103.682 177.506 103.898 177.542 104.06 177.596L104.024 178.514C104.006 178.856 104.024 182.996 104.024 183.77C104.024 184.76 104.024 186.308 104.006 187.244L105.23 187.226C105.284 187.298 105.32 187.424 105.32 187.532ZM102.89 186.218V181.808C102.422 181.7 101.9 181.664 101.324 181.664C99.47 181.664 98.786 182.888 98.786 184.454C98.786 186.344 99.254 187.208 100.874 187.208C101.612 187.208 102.512 186.776 102.89 186.218ZM113.42 186.794C113.42 187.424 112.088 188.09 110.09 188.09C107.768 188.09 106.652 187.028 106.652 184.724C106.652 182.438 107.966 180.764 110.45 180.764C112.412 180.764 113.402 181.844 113.402 183.086C113.402 184.22 113.096 184.544 112.826 184.544H107.804C107.804 186.398 108.398 187.262 110.414 187.262C111.224 187.262 112.304 186.92 113.06 186.326C113.33 186.416 113.42 186.578 113.42 186.794ZM112.304 183.824C112.34 183.608 112.358 183.41 112.358 183.23C112.358 182.276 111.584 181.574 110.162 181.574C108.722 181.574 108.02 182.528 107.84 183.824H112.304ZM45.722 206.13C45.722 208.65 44.444 210.036 42.266 210.036C41.546 210.036 40.988 209.946 40.538 209.748V213.096C40.448 213.15 40.25 213.186 39.98 213.186C39.566 213.186 39.458 213.096 39.422 212.826C39.404 212.718 39.404 212.592 39.404 212.412V207.876C39.404 205.644 39.404 204.582 39.422 203.772H38.558C38.504 203.682 38.468 203.592 38.468 203.484C38.468 203.142 38.756 202.926 39.512 202.926C39.962 202.926 40.34 202.962 40.592 203.016L40.52 204.402C40.7 203.304 41.78 202.782 42.842 202.782C44.984 202.782 45.722 203.916 45.722 206.13ZM44.642 206.292C44.642 204.528 44.156 203.646 42.68 203.646C41.762 203.646 40.97 204.222 40.538 204.78V208.974C40.934 209.118 41.546 209.244 42.086 209.244C43.832 209.244 44.642 208.2 44.642 206.292ZM52.562 200.532C52.562 200.874 52.382 201.234 51.77 201.234C51.23 201.234 50.996 201.018 50.996 200.568C50.996 200.172 51.32 199.866 51.842 199.866C52.4 199.866 52.562 200.19 52.562 200.532ZM51.158 209.154V207.228C51.158 206.238 51.176 204.762 51.194 203.772H48.62C48.566 203.682 48.548 203.592 48.548 203.484C48.548 203.088 49.034 202.926 50.456 202.926C52.13 202.926 52.31 203.124 52.31 203.43L52.292 209.154L54.83 209.118C54.902 209.244 54.938 209.442 54.938 209.568C54.938 209.838 54.722 210.018 54.326 210.018C54.182 210.018 48.26 210 48.188 210C48.098 209.928 48.044 209.784 48.044 209.64C48.044 209.298 48.314 209.172 48.53 209.172C48.818 209.154 51.158 209.154 51.158 209.154ZM62.858 200.532C62.858 200.874 62.678 201.234 62.066 201.234C61.526 201.234 61.292 201.018 61.292 200.568C61.292 200.172 61.616 199.866 62.138 199.866C62.696 199.866 62.858 200.19 62.858 200.532ZM62.606 203.43L62.57 210.054C62.552 212.106 61.166 213.06 59.6 213.06C57.854 213.06 56.99 212.736 56.99 212.232C56.99 212.052 57.062 211.908 57.206 211.8C57.872 212.016 58.988 212.196 59.942 212.196C61.292 212.196 61.472 211.296 61.472 209.28C61.472 207.444 61.472 205.608 61.508 203.772H58.34C58.286 203.682 58.268 203.592 58.268 203.484C58.268 203.088 58.97 202.926 60.392 202.926C62.066 202.926 62.606 203.124 62.606 203.43ZM72.722 206.13C72.722 208.65 71.444 210.036 69.266 210.036C68.546 210.036 67.988 209.946 67.538 209.748V213.096C67.448 213.15 67.25 213.186 66.98 213.186C66.566 213.186 66.458 213.096 66.422 212.826C66.404 212.718 66.404 212.592 66.404 212.412V207.876C66.404 205.644 66.404 204.582 66.422 203.772H65.558C65.504 203.682 65.468 203.592 65.468 203.484C65.468 203.142 65.756 202.926 66.512 202.926C66.962 202.926 67.34 202.962 67.592 203.016L67.52 204.402C67.7 203.304 68.78 202.782 69.842 202.782C71.984 202.782 72.722 203.916 72.722 206.13ZM71.642 206.292C71.642 204.528 71.156 203.646 69.68 203.646C68.762 203.646 67.97 204.222 67.538 204.78V208.974C67.934 209.118 68.546 209.244 69.086 209.244C70.832 209.244 71.642 208.2 71.642 206.292ZM81.92 208.794C81.92 209.424 80.588 210.09 78.59 210.09C76.268 210.09 75.152 209.028 75.152 206.724C75.152 204.438 76.466 202.764 78.95 202.764C80.912 202.764 81.902 203.844 81.902 205.086C81.902 206.22 81.596 206.544 81.326 206.544H76.304C76.304 208.398 76.898 209.262 78.914 209.262C79.724 209.262 80.804 208.92 81.56 208.326C81.83 208.416 81.92 208.578 81.92 208.794ZM80.804 205.824C80.84 205.608 80.858 205.41 80.858 205.23C80.858 204.276 80.084 203.574 78.662 203.574C77.222 203.574 76.52 204.528 76.34 205.824H80.804ZM91.748 209.514C91.748 209.946 91.28 210.054 90.344 210.054C89.462 210.054 89.354 210.018 89.354 209.064C89.354 208.506 89.408 205.734 89.408 205.248C89.408 204.132 89.012 203.664 87.734 203.664C86.978 203.664 86.078 204.15 85.664 204.78V209.964C85.556 210.018 85.376 210.054 85.106 210.054C84.602 210.054 84.53 209.874 84.53 209.28V207.228C84.53 206.238 84.53 204.726 84.566 203.772H83.342C83.288 203.682 83.252 203.592 83.252 203.484C83.252 203.142 83.432 202.926 84.656 202.926C85.106 202.926 85.484 202.962 85.736 203.016L85.628 204.384C85.718 203.448 86.852 202.782 88.094 202.782C89.768 202.782 90.506 203.448 90.506 205.032C90.506 205.698 90.488 207.66 90.452 209.19H91.676C91.73 209.298 91.748 209.406 91.748 209.514ZM95.15 209.19V200.352H93.35C93.296 200.262 93.26 200.172 93.26 200.064C93.26 199.668 93.998 199.506 95.222 199.506C95.672 199.506 96.05 199.542 96.302 199.596L96.266 200.514V209.172L99.236 209.154C99.308 209.28 99.344 209.442 99.344 209.568C99.344 209.91 99.056 210.036 97.292 210.036C95.492 210.036 95.15 209.946 95.15 209.19ZM109.28 209.082C109.334 209.136 109.388 209.28 109.388 209.424C109.388 209.712 109.226 210.072 108.434 210.072C107.624 210.072 107.12 209.694 107.12 208.416C107.012 209.406 106.04 210.072 104.42 210.072C102.836 210.072 102.242 209.226 102.242 208.164C102.242 206.922 102.854 205.932 104.978 205.932C105.446 205.932 106.49 205.986 107.174 206.076L107.192 205.158C107.21 204.15 106.562 203.7 105.356 203.7C104.582 203.7 103.898 203.916 103.178 204.492C102.782 204.438 102.656 204.258 102.656 203.952C102.656 203.412 103.682 202.764 105.536 202.764C107.336 202.764 108.272 203.556 108.272 205.032L108.236 208.236C108.218 208.812 108.38 209.118 108.938 209.118C109.046 209.118 109.154 209.1 109.28 209.082ZM107.138 206.796C106.562 206.688 105.806 206.652 105.212 206.652C103.844 206.652 103.358 207.066 103.358 208.038C103.358 208.794 103.79 209.28 104.762 209.28C105.77 209.28 106.562 208.848 107.12 208.11L107.138 206.796ZM118.82 209.532C118.82 209.964 118.478 210.054 117.38 210.054C116.93 210.054 116.588 210.018 116.318 209.964L116.426 208.614C116.336 209.514 115.238 210.054 114.05 210.054C112.214 210.054 111.17 208.974 111.17 206.67C111.17 204.384 112.592 202.764 114.95 202.764C115.544 202.764 116.138 202.836 116.39 202.926V200.244C116.39 199.74 116.498 199.506 116.948 199.506C117.182 199.506 117.398 199.542 117.56 199.596L117.524 200.514C117.506 200.856 117.524 204.996 117.524 205.77C117.524 206.76 117.524 208.308 117.506 209.244L118.73 209.226C118.784 209.298 118.82 209.424 118.82 209.532ZM116.39 208.218V203.808C115.922 203.7 115.4 203.664 114.824 203.664C112.97 203.664 112.286 204.888 112.286 206.454C112.286 208.344 112.754 209.208 114.374 209.208C115.112 209.208 116.012 208.776 116.39 208.218ZM126.92 208.794C126.92 209.424 125.588 210.09 123.59 210.09C121.268 210.09 120.152 209.028 120.152 206.724C120.152 204.438 121.466 202.764 123.95 202.764C125.912 202.764 126.902 203.844 126.902 205.086C126.902 206.22 126.596 206.544 126.326 206.544H121.304C121.304 208.398 121.898 209.262 123.914 209.262C124.724 209.262 125.804 208.92 126.56 208.326C126.83 208.416 126.92 208.578 126.92 208.794ZM125.804 205.824C125.84 205.608 125.858 205.41 125.858 205.23C125.858 204.276 125.084 203.574 123.662 203.574C122.222 203.574 121.52 204.528 121.34 205.824H125.804Z" fill="#1A1A3D"/>
<defs>
<filter id="filter0_d_152_4" x="0" y="0" width="166.125" height="232.948" filterUnits="userSpaceOnUse" color-interpolation-filters="sRGB">
<feFlood flood-opacity="0" result="BackgroundImageFix"/>
<feColorMatrix in="SourceAlpha" type="matrix" values="0 0 0 0 0 0 0 0 0 0 0 0 0 0 0 0 0 0 127 0" result="hardAlpha"/>
<feOffset dy="4"/>
<feGaussianBlur stdDeviation="2"/>
<feComposite in2="hardAlpha" operator="out"/>
<feColorMatrix type="matrix" values="0 0 0 0 0 0 0 0 0 0 0 0 0 0 0 0 0 0 0.25 0"/>
<feBlend mode="normal" in2="BackgroundImageFix" result="effect1_dropShadow_152_4"/>
<feBlend mode="normal" in="SourceGraphic" in2="effect1_dropShadow_152_4" result="shape"/>
</filter>
</defs>
</svg>
