<svg width="167" height="233" viewBox="0 0 167 233" fill="none" xmlns="http://www.w3.org/2000/svg">
<g filter="url(#filter0_d_152_5)">
<path d="M4 219.122V5.8258C4 2.60975 6.55235 0 9.69766 0H156.427C159.573 0 162.125 2.60975 162.125 5.8258V219.122C162.125 222.338 159.573 224.948 156.427 224.948H9.69766C6.55235 224.948 4 222.338 4 219.122Z" fill="white"/>
</g>
<path d="M32.15 187.19V178.352H30.35C30.296 178.262 30.26 178.172 30.26 178.064C30.26 177.668 30.998 177.506 32.222 177.506C32.672 177.506 33.05 177.542 33.302 177.596L33.266 178.514V187.172L36.236 187.154C36.308 187.28 36.344 187.442 36.344 187.568C36.344 187.91 36.056 188.036 34.292 188.036C32.492 188.036 32.15 187.946 32.15 187.19ZM43.562 178.532C43.562 178.874 43.382 179.234 42.77 179.234C42.23 179.234 41.996 179.018 41.996 178.568C41.996 178.172 42.32 177.866 42.842 177.866C43.4 177.866 43.562 178.19 43.562 178.532ZM42.158 187.154V185.228C42.158 184.238 42.176 182.762 42.194 181.772H39.62C39.566 181.682 39.548 181.592 39.548 181.484C39.548 181.088 40.034 180.926 41.456 180.926C43.13 180.926 43.31 181.124 43.31 181.43L43.292 187.154L45.83 187.118C45.902 187.244 45.938 187.442 45.938 187.568C45.938 187.838 45.722 188.018 45.326 188.018C45.182 188.018 39.26 188 39.188 188C39.098 187.928 39.044 187.784 39.044 187.64C39.044 187.298 39.314 187.172 39.53 187.172C39.818 187.154 42.158 187.154 42.158 187.154ZM50.15 187.19V178.352H48.35C48.296 178.262 48.26 178.172 48.26 178.064C48.26 177.668 48.998 177.506 50.222 177.506C50.672 177.506 51.05 177.542 51.302 177.596L51.266 178.514V187.172L54.236 187.154C54.308 187.28 54.344 187.442 54.344 187.568C54.344 187.91 54.056 188.036 52.292 188.036C50.492 188.036 50.15 187.946 50.15 187.19ZM64.046 181.466C64.046 181.844 63.848 182.42 62.84 184.76C62.354 185.858 61.454 187.748 61.004 188.612C59.924 190.7 59.294 191.222 57.962 191.222C57.296 191.222 57.116 190.952 57.116 190.61C57.116 190.502 57.152 190.34 57.278 190.232C57.422 190.232 57.584 190.25 57.71 190.25C59.006 190.25 59.204 190.016 60.302 187.982C60.104 187.91 59.96 187.748 59.762 187.316L57.206 181.79H56.504C56.432 181.718 56.396 181.538 56.396 181.412C56.396 181.052 56.792 180.926 57.566 180.926C57.962 180.926 58.088 181.016 58.34 181.574L60.842 186.956C61.922 184.436 62.75 182.474 63.272 180.98C63.362 180.962 63.452 180.944 63.542 180.944C63.812 180.944 64.046 181.07 64.046 181.466ZM81.722 184.13C81.722 186.65 80.444 188.036 78.266 188.036C77.546 188.036 76.988 187.946 76.538 187.748V191.096C76.448 191.15 76.25 191.186 75.98 191.186C75.566 191.186 75.458 191.096 75.422 190.826C75.404 190.718 75.404 190.592 75.404 190.412V185.876C75.404 183.644 75.404 182.582 75.422 181.772H74.558C74.504 181.682 74.468 181.592 74.468 181.484C74.468 181.142 74.756 180.926 75.512 180.926C75.962 180.926 76.34 180.962 76.592 181.016L76.52 182.402C76.7 181.304 77.78 180.782 78.842 180.782C80.984 180.782 81.722 181.916 81.722 184.13ZM80.642 184.292C80.642 182.528 80.156 181.646 78.68 181.646C77.762 181.646 76.97 182.222 76.538 182.78V186.974C76.934 187.118 77.546 187.244 78.086 187.244C79.832 187.244 80.642 186.2 80.642 184.292ZM91.28 187.082C91.334 187.136 91.388 187.28 91.388 187.424C91.388 187.712 91.226 188.072 90.434 188.072C89.624 188.072 89.12 187.694 89.12 186.416C89.012 187.406 88.04 188.072 86.42 188.072C84.836 188.072 84.242 187.226 84.242 186.164C84.242 184.922 84.854 183.932 86.978 183.932C87.446 183.932 88.49 183.986 89.174 184.076L89.192 183.158C89.21 182.15 88.562 181.7 87.356 181.7C86.582 181.7 85.898 181.916 85.178 182.492C84.782 182.438 84.656 182.258 84.656 181.952C84.656 181.412 85.682 180.764 87.536 180.764C89.336 180.764 90.272 181.556 90.272 183.032L90.236 186.236C90.218 186.812 90.38 187.118 90.938 187.118C91.046 187.118 91.154 187.1 91.28 187.082ZM89.138 184.796C88.562 184.688 87.806 184.652 87.212 184.652C85.844 184.652 85.358 185.066 85.358 186.038C85.358 186.794 85.79 187.28 86.762 187.28C87.77 187.28 88.562 186.848 89.12 186.11L89.138 184.796ZM100.82 187.532C100.82 187.964 100.478 188.054 99.38 188.054C98.93 188.054 98.588 188.018 98.318 187.964L98.426 186.614C98.336 187.514 97.238 188.054 96.05 188.054C94.214 188.054 93.17 186.974 93.17 184.67C93.17 182.384 94.592 180.764 96.95 180.764C97.544 180.764 98.138 180.836 98.39 180.926V178.244C98.39 177.74 98.498 177.506 98.948 177.506C99.182 177.506 99.398 177.542 99.56 177.596L99.524 178.514C99.506 178.856 99.524 182.996 99.524 183.77C99.524 184.76 99.524 186.308 99.506 187.244L100.73 187.226C100.784 187.298 100.82 187.424 100.82 187.532ZM98.39 186.218V181.808C97.922 181.7 97.4 181.664 96.824 181.664C94.97 181.664 94.286 182.888 94.286 184.454C94.286 186.344 94.754 187.208 96.374 187.208C97.112 187.208 98.012 186.776 98.39 186.218ZM108.722 185.858C108.722 186.992 107.84 188.054 105.428 188.054C103.034 188.054 102.08 187.514 102.08 186.866C102.08 186.65 102.242 186.416 102.548 186.344C103.034 186.83 104.438 187.226 105.464 187.226C107.12 187.226 107.642 186.812 107.642 186.128C107.642 185.552 107.372 185.336 106.454 185.174C105.446 184.994 104.132 184.796 103.718 184.652C102.764 184.328 102.404 183.878 102.404 182.996C102.404 181.664 103.682 180.764 105.806 180.764C107.372 180.764 108.614 181.196 108.614 181.844C108.614 182.078 108.47 182.258 108.164 182.384C107.642 181.934 106.562 181.61 105.662 181.61C104.114 181.61 103.466 182.114 103.466 182.834C103.466 183.446 103.664 183.716 104.744 183.95C105.266 184.058 106.382 184.22 107.156 184.364C108.308 184.58 108.722 185.03 108.722 185.858ZM124.562 178.532C124.562 178.874 124.382 179.234 123.77 179.234C123.23 179.234 122.996 179.018 122.996 178.568C122.996 178.172 123.32 177.866 123.842 177.866C124.4 177.866 124.562 178.19 124.562 178.532ZM123.158 187.154V185.228C123.158 184.238 123.176 182.762 123.194 181.772H120.62C120.566 181.682 120.548 181.592 120.548 181.484C120.548 181.088 121.034 180.926 122.456 180.926C124.13 180.926 124.31 181.124 124.31 181.43L124.292 187.154L126.83 187.118C126.902 187.244 126.938 187.442 126.938 187.568C126.938 187.838 126.722 188.018 126.326 188.018C126.182 188.018 120.26 188 120.188 188C120.098 187.928 120.044 187.784 120.044 187.64C120.044 187.298 120.314 187.172 120.53 187.172C120.818 187.154 123.158 187.154 123.158 187.154ZM136.748 187.514C136.748 187.946 136.28 188.054 135.344 188.054C134.462 188.054 134.354 188.018 134.354 187.064C134.354 186.506 134.408 183.734 134.408 183.248C134.408 182.132 134.012 181.664 132.734 181.664C131.978 181.664 131.078 182.15 130.664 182.78V187.964C130.556 188.018 130.376 188.054 130.106 188.054C129.602 188.054 129.53 187.874 129.53 187.28V185.228C129.53 184.238 129.53 182.726 129.566 181.772H128.342C128.288 181.682 128.252 181.592 128.252 181.484C128.252 181.142 128.432 180.926 129.656 180.926C130.106 180.926 130.484 180.962 130.736 181.016L130.628 182.384C130.718 181.448 131.852 180.782 133.094 180.782C134.768 180.782 135.506 181.448 135.506 183.032C135.506 183.698 135.488 185.66 135.452 187.19H136.676C136.73 187.298 136.748 187.406 136.748 187.514ZM63.884 208.902C63.884 209.568 62.57 210.09 60.608 210.09C58.268 210.09 57.152 208.956 57.152 206.67C57.152 204.33 58.538 202.764 61.22 202.764C62.66 202.764 63.614 203.124 63.614 203.628C63.614 203.934 63.434 204.096 63.182 204.204C62.48 203.916 61.688 203.682 60.932 203.682C59.114 203.682 58.286 204.672 58.286 206.454C58.286 208.146 58.808 209.208 60.932 209.208C61.886 209.208 62.93 208.866 63.596 208.47C63.776 208.542 63.884 208.686 63.884 208.902ZM73.28 209.082C73.334 209.136 73.388 209.28 73.388 209.424C73.388 209.712 73.226 210.072 72.434 210.072C71.624 210.072 71.12 209.694 71.12 208.416C71.012 209.406 70.04 210.072 68.42 210.072C66.836 210.072 66.242 209.226 66.242 208.164C66.242 206.922 66.854 205.932 68.978 205.932C69.446 205.932 70.49 205.986 71.174 206.076L71.192 205.158C71.21 204.15 70.562 203.7 69.356 203.7C68.582 203.7 67.898 203.916 67.178 204.492C66.782 204.438 66.656 204.258 66.656 203.952C66.656 203.412 67.682 202.764 69.536 202.764C71.336 202.764 72.272 203.556 72.272 205.032L72.236 208.236C72.218 208.812 72.38 209.118 72.938 209.118C73.046 209.118 73.154 209.1 73.28 209.082ZM71.138 206.796C70.562 206.688 69.806 206.652 69.212 206.652C67.844 206.652 67.358 207.066 67.358 208.038C67.358 208.794 67.79 209.28 68.762 209.28C69.77 209.28 70.562 208.848 71.12 208.11L71.138 206.796ZM82.748 209.514C82.748 209.946 82.28 210.054 81.344 210.054C80.462 210.054 80.354 210.018 80.354 209.064C80.354 208.506 80.408 205.734 80.408 205.248C80.408 204.132 80.012 203.664 78.734 203.664C77.978 203.664 77.078 204.15 76.664 204.78V209.964C76.556 210.018 76.376 210.054 76.106 210.054C75.602 210.054 75.53 209.874 75.53 209.28V207.228C75.53 206.238 75.53 204.726 75.566 203.772H74.342C74.288 203.682 74.252 203.592 74.252 203.484C74.252 203.142 74.432 202.926 75.656 202.926C76.106 202.926 76.484 202.962 76.736 203.016L76.628 204.384C76.718 203.448 77.852 202.782 79.094 202.782C80.768 202.782 81.506 203.448 81.506 205.032C81.506 205.698 81.488 207.66 81.452 209.19H82.676C82.73 209.298 82.748 209.406 82.748 209.514ZM91.28 209.082C91.334 209.136 91.388 209.28 91.388 209.424C91.388 209.712 91.226 210.072 90.434 210.072C89.624 210.072 89.12 209.694 89.12 208.416C89.012 209.406 88.04 210.072 86.42 210.072C84.836 210.072 84.242 209.226 84.242 208.164C84.242 206.922 84.854 205.932 86.978 205.932C87.446 205.932 88.49 205.986 89.174 206.076L89.192 205.158C89.21 204.15 88.562 203.7 87.356 203.7C86.582 203.7 85.898 203.916 85.178 204.492C84.782 204.438 84.656 204.258 84.656 203.952C84.656 203.412 85.682 202.764 87.536 202.764C89.336 202.764 90.272 203.556 90.272 205.032L90.236 208.236C90.218 208.812 90.38 209.118 90.938 209.118C91.046 209.118 91.154 209.1 91.28 209.082ZM89.138 206.796C88.562 206.688 87.806 206.652 87.212 206.652C85.844 206.652 85.358 207.066 85.358 208.038C85.358 208.794 85.79 209.28 86.762 209.28C87.77 209.28 88.562 208.848 89.12 208.11L89.138 206.796ZM95.15 209.19V200.352H93.35C93.296 200.262 93.26 200.172 93.26 200.064C93.26 199.668 93.998 199.506 95.222 199.506C95.672 199.506 96.05 199.542 96.302 199.596L96.266 200.514V209.172L99.236 209.154C99.308 209.28 99.344 209.442 99.344 209.568C99.344 209.91 99.056 210.036 97.292 210.036C95.492 210.036 95.15 209.946 95.15 209.19ZM108.722 207.858C108.722 208.992 107.84 210.054 105.428 210.054C103.034 210.054 102.08 209.514 102.08 208.866C102.08 208.65 102.242 208.416 102.548 208.344C103.034 208.83 104.438 209.226 105.464 209.226C107.12 209.226 107.642 208.812 107.642 208.128C107.642 207.552 107.372 207.336 106.454 207.174C105.446 206.994 104.132 206.796 103.718 206.652C102.764 206.328 102.404 205.878 102.404 204.996C102.404 203.664 103.682 202.764 105.806 202.764C107.372 202.764 108.614 203.196 108.614 203.844C108.614 204.078 108.47 204.258 108.164 204.384C107.642 203.934 106.562 203.61 105.662 203.61C104.114 203.61 103.466 204.114 103.466 204.834C103.466 205.446 103.664 205.716 104.744 205.95C105.266 206.058 106.382 206.22 107.156 206.364C108.308 206.58 108.722 207.03 108.722 207.858Z" fill="#1A1A3D"/>
<defs>
<filter id="filter0_d_152_5" x="0" y="0" width="166.125" height="232.948" filterUnits="userSpaceOnUse" color-interpolation-filters="sRGB">
<feFlood flood-opacity="0" result="BackgroundImageFix"/>
<feColorMatrix in="SourceAlpha" type="matrix" values="0 0 0 0 0 0 0 0 0 0 0 0 0 0 0 0 0 0 127 0" result="hardAlpha"/>
<feOffset dy="4"/>
<feGaussianBlur stdDeviation="2"/>
<feComposite in2="hardAlpha" operator="out"/>
<feColorMatrix type="matrix" values="0 0 0 0 0 0 0 0 0 0 0 0 0 0 0 0 0 0 0.25 0"/>
<feBlend mode="normal" in2="BackgroundImageFix" result="effect1_dropShadow_152_5"/>
<feBlend mode="normal" in="SourceGraphic" in2="effect1_dropShadow_152_5" result="shape"/>
</filter>
</defs>
</svg>
