<svg width="167" height="233" viewBox="0 0 167 233" fill="none" xmlns="http://www.w3.org/2000/svg">
<g filter="url(#filter0_d_39_16640)">
<path d="M4 219.122V5.8258C4 2.60975 6.55235 0 9.69766 0H156.427C159.573 0 162.125 2.60975 162.125 5.8258V219.122C162.125 222.338 159.573 224.948 156.427 224.948H9.69766C6.55235 224.948 4 222.338 4 219.122Z" fill="white"/>
</g>
<path d="M51.212 181.394C51.212 181.682 51.158 181.97 51.086 182.33L49.88 188C49.7 188.054 49.484 188.09 49.232 188.09C48.728 188.09 48.44 187.982 48.26 187.388L46.964 183.14L45.47 188C45.29 188.054 45.128 188.09 44.876 188.09C44.426 188.09 44.102 188.054 44.012 187.352L42.878 181.25C42.932 181.034 43.238 180.926 43.472 180.926C43.832 180.926 43.94 181.124 44.066 181.79L45.038 187.082L46.676 181.718C46.784 181.682 46.946 181.664 47.036 181.664C47.36 181.664 47.576 181.808 47.72 182.276L49.25 187.028L50.402 180.98C50.492 180.944 50.636 180.908 50.726 180.908C51.05 180.908 51.212 181.088 51.212 181.394ZM57.062 178.532C57.062 178.874 56.882 179.234 56.27 179.234C55.73 179.234 55.496 179.018 55.496 178.568C55.496 178.172 55.82 177.866 56.342 177.866C56.9 177.866 57.062 178.19 57.062 178.532ZM55.658 187.154V185.228C55.658 184.238 55.676 182.762 55.694 181.772H53.12C53.066 181.682 53.048 181.592 53.048 181.484C53.048 181.088 53.534 180.926 54.956 180.926C56.63 180.926 56.81 181.124 56.81 181.43L56.792 187.154L59.33 187.118C59.402 187.244 59.438 187.442 59.438 187.568C59.438 187.838 59.222 188.018 58.826 188.018C58.682 188.018 52.76 188 52.688 188C52.598 187.928 52.544 187.784 52.544 187.64C52.544 187.298 52.814 187.172 53.03 187.172C53.318 187.154 55.658 187.154 55.658 187.154ZM69.248 187.514C69.248 187.946 68.78 188.054 67.844 188.054C66.962 188.054 66.854 188.018 66.854 187.064C66.854 186.506 66.908 183.734 66.908 183.248C66.908 182.132 66.512 181.664 65.234 181.664C64.478 181.664 63.578 182.15 63.164 182.78V187.964C63.056 188.018 62.876 188.054 62.606 188.054C62.102 188.054 62.03 187.874 62.03 187.28V185.228C62.03 184.238 62.03 182.726 62.066 181.772H60.842C60.788 181.682 60.752 181.592 60.752 181.484C60.752 181.142 60.932 180.926 62.156 180.926C62.606 180.926 62.984 180.962 63.236 181.016L63.128 182.384C63.218 181.448 64.352 180.782 65.594 180.782C67.268 180.782 68.006 181.448 68.006 183.032C68.006 183.698 67.988 185.66 67.952 187.19H69.176C69.23 187.298 69.248 187.406 69.248 187.514ZM77.852 187.496C77.852 187.838 77.42 188.054 76.394 188.054C75.872 188.054 75.62 187.91 75.35 187.514L73.136 184.364L72.038 185.192V187.964C71.948 188.018 71.786 188.054 71.516 188.054C71.012 188.054 70.94 187.874 70.94 187.28C70.94 186.938 70.922 184.85 70.922 182.42C70.922 180.134 70.922 178.928 70.94 178.244C70.94 177.74 71.048 177.506 71.48 177.506C71.732 177.506 71.912 177.542 72.074 177.596L72.038 178.514V184.22L75.818 181.25C76.106 180.998 76.268 180.908 76.538 180.908C76.844 180.908 76.988 181.07 76.988 181.304C76.988 181.358 76.97 181.412 76.952 181.466L74.054 183.788L76.556 187.19H77.762C77.816 187.262 77.852 187.388 77.852 187.496ZM86.42 186.794C86.42 187.424 85.088 188.09 83.09 188.09C80.768 188.09 79.652 187.028 79.652 184.724C79.652 182.438 80.966 180.764 83.45 180.764C85.412 180.764 86.402 181.844 86.402 183.086C86.402 184.22 86.096 184.544 85.826 184.544H80.804C80.804 186.398 81.398 187.262 83.414 187.262C84.224 187.262 85.304 186.92 86.06 186.326C86.33 186.416 86.42 186.578 86.42 186.794ZM85.304 183.824C85.34 183.608 85.358 183.41 85.358 183.23C85.358 182.276 84.584 181.574 83.162 181.574C81.722 181.574 81.02 182.528 80.84 183.824H85.304ZM90.65 187.19V178.352H88.85C88.796 178.262 88.76 178.172 88.76 178.064C88.76 177.668 89.498 177.506 90.722 177.506C91.172 177.506 91.55 177.542 91.802 177.596L91.766 178.514V187.172L94.736 187.154C94.808 187.28 94.844 187.442 94.844 187.568C94.844 187.91 94.556 188.036 92.792 188.036C90.992 188.036 90.65 187.946 90.65 187.19ZM114.014 185.57C114.014 185.912 113.798 186.164 113.168 186.164H112.178V187.64C112.178 188.036 111.926 188.126 111.53 188.126C111.314 188.126 111.17 188.09 111.044 188.036V186.164H106.148C106.04 186.02 105.986 185.75 105.986 185.588C105.986 185.462 106.004 185.282 106.22 184.994L110.936 178.676C111.044 178.622 111.224 178.586 111.422 178.586C111.908 178.586 112.178 178.82 112.178 179.468V185.228H113.924C113.996 185.336 114.014 185.48 114.014 185.57ZM111.062 185.228V179.792L107.138 185.228H111.062ZM118.622 188.108C116.894 188.108 115.526 187.514 115.526 186.794C115.526 186.542 115.688 186.254 115.994 186.164C116.48 186.686 117.578 187.19 118.694 187.19C120.296 187.19 121.286 186.668 121.286 185.498C121.286 184.688 120.692 183.734 118.496 183.734H117.47C117.326 183.59 117.272 183.464 117.272 183.194C117.272 182.942 117.362 182.816 117.47 182.816H118.316C120.35 182.816 120.998 181.916 120.998 181.088C120.998 180.332 120.422 179.594 118.658 179.594C117.776 179.594 116.894 179.99 116.39 180.512C116.084 180.476 115.904 180.26 115.904 179.972C115.904 179.342 117.2 178.64 118.91 178.64C121.25 178.64 122.186 179.666 122.186 180.872C122.186 182.024 121.646 182.924 119.666 183.14C121.952 183.266 122.474 184.31 122.474 185.39C122.474 186.992 120.89 188.108 118.622 188.108ZM50.78 209.082C50.834 209.136 50.888 209.28 50.888 209.424C50.888 209.712 50.726 210.072 49.934 210.072C49.124 210.072 48.62 209.694 48.62 208.416C48.512 209.406 47.54 210.072 45.92 210.072C44.336 210.072 43.742 209.226 43.742 208.164C43.742 206.922 44.354 205.932 46.478 205.932C46.946 205.932 47.99 205.986 48.674 206.076L48.692 205.158C48.71 204.15 48.062 203.7 46.856 203.7C46.082 203.7 45.398 203.916 44.678 204.492C44.282 204.438 44.156 204.258 44.156 203.952C44.156 203.412 45.182 202.764 47.036 202.764C48.836 202.764 49.772 203.556 49.772 205.032L49.736 208.236C49.718 208.812 49.88 209.118 50.438 209.118C50.546 209.118 50.654 209.1 50.78 209.082ZM48.638 206.796C48.062 206.688 47.306 206.652 46.712 206.652C45.344 206.652 44.858 207.066 44.858 208.038C44.858 208.794 45.29 209.28 46.262 209.28C47.27 209.28 48.062 208.848 48.62 208.11L48.638 206.796ZM59.222 206.13C59.222 208.65 57.944 210.036 55.766 210.036C55.046 210.036 54.488 209.946 54.038 209.748V213.096C53.948 213.15 53.75 213.186 53.48 213.186C53.066 213.186 52.958 213.096 52.922 212.826C52.904 212.718 52.904 212.592 52.904 212.412V207.876C52.904 205.644 52.904 204.582 52.922 203.772H52.058C52.004 203.682 51.968 203.592 51.968 203.484C51.968 203.142 52.256 202.926 53.012 202.926C53.462 202.926 53.84 202.962 54.092 203.016L54.02 204.402C54.2 203.304 55.28 202.782 56.342 202.782C58.484 202.782 59.222 203.916 59.222 206.13ZM58.142 206.292C58.142 204.528 57.656 203.646 56.18 203.646C55.262 203.646 54.47 204.222 54.038 204.78V208.974C54.434 209.118 55.046 209.244 55.586 209.244C57.332 209.244 58.142 208.2 58.142 206.292ZM68.222 206.13C68.222 208.65 66.944 210.036 64.766 210.036C64.046 210.036 63.488 209.946 63.038 209.748V213.096C62.948 213.15 62.75 213.186 62.48 213.186C62.066 213.186 61.958 213.096 61.922 212.826C61.904 212.718 61.904 212.592 61.904 212.412V207.876C61.904 205.644 61.904 204.582 61.922 203.772H61.058C61.004 203.682 60.968 203.592 60.968 203.484C60.968 203.142 61.256 202.926 62.012 202.926C62.462 202.926 62.84 202.962 63.092 203.016L63.02 204.402C63.2 203.304 64.28 202.782 65.342 202.782C67.484 202.782 68.222 203.916 68.222 206.13ZM67.142 206.292C67.142 204.528 66.656 203.646 65.18 203.646C64.262 203.646 63.47 204.222 63.038 204.78V208.974C63.434 209.118 64.046 209.244 64.586 209.244C66.332 209.244 67.142 208.2 67.142 206.292ZM72.65 209.19V200.352H70.85C70.796 200.262 70.76 200.172 70.76 200.064C70.76 199.668 71.498 199.506 72.722 199.506C73.172 199.506 73.55 199.542 73.802 199.596L73.766 200.514V209.172L76.736 209.154C76.808 209.28 76.844 209.442 76.844 209.568C76.844 209.91 76.556 210.036 74.792 210.036C72.992 210.036 72.65 209.946 72.65 209.19ZM86.42 208.794C86.42 209.424 85.088 210.09 83.09 210.09C80.768 210.09 79.652 209.028 79.652 206.724C79.652 204.438 80.966 202.764 83.45 202.764C85.412 202.764 86.402 203.844 86.402 205.086C86.402 206.22 86.096 206.544 85.826 206.544H80.804C80.804 208.398 81.398 209.262 83.414 209.262C84.224 209.262 85.304 208.92 86.06 208.326C86.33 208.416 86.42 208.578 86.42 208.794ZM85.304 205.824C85.34 205.608 85.358 205.41 85.358 205.23C85.358 204.276 84.584 203.574 83.162 203.574C81.722 203.574 81.02 204.528 80.84 205.824H85.304ZM104.222 206.13C104.222 208.65 102.944 210.036 100.766 210.036C100.046 210.036 99.488 209.946 99.038 209.748V213.096C98.948 213.15 98.75 213.186 98.48 213.186C98.066 213.186 97.958 213.096 97.922 212.826C97.904 212.718 97.904 212.592 97.904 212.412V207.876C97.904 205.644 97.904 204.582 97.922 203.772H97.058C97.004 203.682 96.968 203.592 96.968 203.484C96.968 203.142 97.256 202.926 98.012 202.926C98.462 202.926 98.84 202.962 99.092 203.016L99.02 204.402C99.2 203.304 100.28 202.782 101.342 202.782C103.484 202.782 104.222 203.916 104.222 206.13ZM103.142 206.292C103.142 204.528 102.656 203.646 101.18 203.646C100.262 203.646 99.47 204.222 99.038 204.78V208.974C99.434 209.118 100.046 209.244 100.586 209.244C102.332 209.244 103.142 208.2 103.142 206.292ZM111.062 200.532C111.062 200.874 110.882 201.234 110.27 201.234C109.73 201.234 109.496 201.018 109.496 200.568C109.496 200.172 109.82 199.866 110.342 199.866C110.9 199.866 111.062 200.19 111.062 200.532ZM109.658 209.154V207.228C109.658 206.238 109.676 204.762 109.694 203.772H107.12C107.066 203.682 107.048 203.592 107.048 203.484C107.048 203.088 107.534 202.926 108.956 202.926C110.63 202.926 110.81 203.124 110.81 203.43L110.792 209.154L113.33 209.118C113.402 209.244 113.438 209.442 113.438 209.568C113.438 209.838 113.222 210.018 112.826 210.018C112.682 210.018 106.76 210 106.688 210C106.598 209.928 106.544 209.784 106.544 209.64C106.544 209.298 106.814 209.172 107.03 209.172C107.318 209.154 109.658 209.154 109.658 209.154ZM122.42 208.794C122.42 209.424 121.088 210.09 119.09 210.09C116.768 210.09 115.652 209.028 115.652 206.724C115.652 204.438 116.966 202.764 119.45 202.764C121.412 202.764 122.402 203.844 122.402 205.086C122.402 206.22 122.096 206.544 121.826 206.544H116.804C116.804 208.398 117.398 209.262 119.414 209.262C120.224 209.262 121.304 208.92 122.06 208.326C122.33 208.416 122.42 208.578 122.42 208.794ZM121.304 205.824C121.34 205.608 121.358 205.41 121.358 205.23C121.358 204.276 120.584 203.574 119.162 203.574C117.722 203.574 117.02 204.528 116.84 205.824H121.304Z" fill="#1A1A3D"/>
<defs>
<filter id="filter0_d_39_16640" x="0" y="0" width="166.125" height="232.948" filterUnits="userSpaceOnUse" color-interpolation-filters="sRGB">
<feFlood flood-opacity="0" result="BackgroundImageFix"/>
<feColorMatrix in="SourceAlpha" type="matrix" values="0 0 0 0 0 0 0 0 0 0 0 0 0 0 0 0 0 0 127 0" result="hardAlpha"/>
<feOffset dy="4"/>
<feGaussianBlur stdDeviation="2"/>
<feComposite in2="hardAlpha" operator="out"/>
<feColorMatrix type="matrix" values="0 0 0 0 0 0 0 0 0 0 0 0 0 0 0 0 0 0 0.25 0"/>
<feBlend mode="normal" in2="BackgroundImageFix" result="effect1_dropShadow_39_16640"/>
<feBlend mode="normal" in="SourceGraphic" in2="effect1_dropShadow_39_16640" result="shape"/>
</filter>
</defs>
</svg>
