<svg width="167" height="233" viewBox="0 0 167 233" fill="none" xmlns="http://www.w3.org/2000/svg">
<g filter="url(#filter0_d_153_7)">
<path d="M4 219.122V5.8258C4 2.60975 6.55235 0 9.69766 0H156.427C159.573 0 162.125 2.60975 162.125 5.8258V219.122C162.125 222.338 159.573 224.948 156.427 224.948H9.69766C6.55235 224.948 4 222.338 4 219.122Z" fill="white"/>
</g>
<path d="M32.384 181.902C32.384 182.568 31.07 183.09 29.108 183.09C26.768 183.09 25.652 181.956 25.652 179.67C25.652 177.33 27.038 175.764 29.72 175.764C31.16 175.764 32.114 176.124 32.114 176.628C32.114 176.934 31.934 177.096 31.682 177.204C30.98 176.916 30.188 176.682 29.432 176.682C27.614 176.682 26.786 177.672 26.786 179.454C26.786 181.146 27.308 182.208 29.432 182.208C30.386 182.208 31.43 181.866 32.096 181.47C32.276 181.542 32.384 181.686 32.384 181.902ZM39.062 173.532C39.062 173.874 38.882 174.234 38.27 174.234C37.73 174.234 37.496 174.018 37.496 173.568C37.496 173.172 37.82 172.866 38.342 172.866C38.9 172.866 39.062 173.19 39.062 173.532ZM37.658 182.154V180.228C37.658 179.238 37.676 177.762 37.694 176.772H35.12C35.066 176.682 35.048 176.592 35.048 176.484C35.048 176.088 35.534 175.926 36.956 175.926C38.63 175.926 38.81 176.124 38.81 176.43L38.792 182.154L41.33 182.118C41.402 182.244 41.438 182.442 41.438 182.568C41.438 182.838 41.222 183.018 40.826 183.018C40.682 183.018 34.76 183 34.688 183C34.598 182.928 34.544 182.784 34.544 182.64C34.544 182.298 34.814 182.172 35.03 182.172C35.318 182.154 37.658 182.154 37.658 182.154ZM51.248 182.514C51.248 182.946 50.78 183.054 49.844 183.054C48.962 183.054 48.854 183.018 48.854 182.064C48.854 181.506 48.908 178.734 48.908 178.248C48.908 177.132 48.512 176.664 47.234 176.664C46.478 176.664 45.578 177.15 45.164 177.78V182.964C45.056 183.018 44.876 183.054 44.606 183.054C44.102 183.054 44.03 182.874 44.03 182.28V180.228C44.03 179.238 44.03 177.726 44.066 176.772H42.842C42.788 176.682 42.752 176.592 42.752 176.484C42.752 176.142 42.932 175.926 44.156 175.926C44.606 175.926 44.984 175.962 45.236 176.016L45.128 177.384C45.218 176.448 46.352 175.782 47.594 175.782C49.268 175.782 50.006 176.448 50.006 178.032C50.006 178.698 49.988 180.66 49.952 182.19H51.176C51.23 182.298 51.248 182.406 51.248 182.514ZM60.248 182.514C60.248 182.946 59.78 183.054 58.844 183.054C57.962 183.054 57.854 183.018 57.854 182.064C57.854 181.506 57.908 178.734 57.908 178.248C57.908 177.132 57.512 176.664 56.234 176.664C55.478 176.664 54.578 177.15 54.164 177.78V182.964C54.056 183.018 53.876 183.054 53.606 183.054C53.102 183.054 53.03 182.874 53.03 182.28V180.228C53.03 179.238 53.03 177.726 53.066 176.772H51.842C51.788 176.682 51.752 176.592 51.752 176.484C51.752 176.142 51.932 175.926 53.156 175.926C53.606 175.926 53.984 175.962 54.236 176.016L54.128 177.384C54.218 176.448 55.352 175.782 56.594 175.782C58.268 175.782 59.006 176.448 59.006 178.032C59.006 178.698 58.988 180.66 58.952 182.19H60.176C60.23 182.298 60.248 182.406 60.248 182.514ZM68.78 182.082C68.834 182.136 68.888 182.28 68.888 182.424C68.888 182.712 68.726 183.072 67.934 183.072C67.124 183.072 66.62 182.694 66.62 181.416C66.512 182.406 65.54 183.072 63.92 183.072C62.336 183.072 61.742 182.226 61.742 181.164C61.742 179.922 62.354 178.932 64.478 178.932C64.946 178.932 65.99 178.986 66.674 179.076L66.692 178.158C66.71 177.15 66.062 176.7 64.856 176.7C64.082 176.7 63.398 176.916 62.678 177.492C62.282 177.438 62.156 177.258 62.156 176.952C62.156 176.412 63.182 175.764 65.036 175.764C66.836 175.764 67.772 176.556 67.772 178.032L67.736 181.236C67.718 181.812 67.88 182.118 68.438 182.118C68.546 182.118 68.654 182.1 68.78 182.082ZM66.638 179.796C66.062 179.688 65.306 179.652 64.712 179.652C63.344 179.652 62.858 180.066 62.858 181.038C62.858 181.794 63.29 182.28 64.262 182.28C65.27 182.28 66.062 181.848 66.62 181.11L66.638 179.796ZM78.05 182.514C78.05 182.82 77.834 183.054 77.294 183.054C76.898 183.054 76.646 182.892 76.646 182.496C76.646 181.866 76.7 178.41 76.7 177.924C76.7 177.042 76.592 176.664 75.836 176.664C75.296 176.664 74.828 176.988 74.504 177.834V182.964C74.414 183.018 74.216 183.054 73.946 183.054C73.496 183.054 73.388 182.91 73.388 182.28C73.388 181.668 73.442 178.356 73.442 177.87C73.442 176.934 73.244 176.664 72.542 176.664C71.966 176.664 71.534 176.988 71.21 177.816V182.964C71.102 183.018 70.94 183.054 70.67 183.054C70.166 183.054 70.148 182.91 70.112 182.28C70.094 181.938 70.094 181.002 70.094 180.228C70.094 179.238 70.112 177.726 70.13 176.772C70.148 176.178 70.364 175.962 70.76 175.962C70.886 175.962 71.03 175.98 71.174 176.016V177.222C71.354 176.376 71.912 175.782 72.83 175.782C74.018 175.782 74.342 176.286 74.45 177.312C74.666 176.358 75.26 175.782 76.124 175.782C77.222 175.782 77.762 176.286 77.762 177.672C77.762 178.338 77.762 180.66 77.726 182.19H77.96C78.014 182.28 78.05 182.406 78.05 182.514ZM86.366 179.184C86.366 181.83 85.034 183.09 82.838 183.09C80.498 183.09 79.616 181.992 79.616 179.706C79.616 177.204 80.966 175.764 83.216 175.764C85.484 175.764 86.366 176.97 86.366 179.184ZM85.25 179.346C85.25 177.672 84.764 176.592 83.126 176.592C81.524 176.592 80.732 177.492 80.732 179.562C80.732 181.434 81.2 182.244 83 182.244C84.548 182.244 85.25 181.218 85.25 179.346ZM96.248 182.514C96.248 182.946 95.78 183.054 94.844 183.054C93.962 183.054 93.854 183.018 93.854 182.064C93.854 181.506 93.908 178.734 93.908 178.248C93.908 177.132 93.512 176.664 92.234 176.664C91.478 176.664 90.578 177.15 90.164 177.78V182.964C90.056 183.018 89.876 183.054 89.606 183.054C89.102 183.054 89.03 182.874 89.03 182.28V180.228C89.03 179.238 89.03 177.726 89.066 176.772H87.842C87.788 176.682 87.752 176.592 87.752 176.484C87.752 176.142 87.932 175.926 89.156 175.926C89.606 175.926 89.984 175.962 90.236 176.016L90.128 177.384C90.218 176.448 91.352 175.782 92.594 175.782C94.268 175.782 95.006 176.448 95.006 178.032C95.006 178.698 94.988 180.66 94.952 182.19H96.176C96.23 182.298 96.248 182.406 96.248 182.514ZM113.438 179.13C113.438 181.758 111.782 183.09 109.478 183.09C107.138 183.09 106.886 182.55 106.886 181.704V173.244C106.886 172.74 106.994 172.506 107.426 172.506C107.66 172.506 107.876 172.542 108.038 172.596L108.02 173.514V176.016C108.02 176.556 107.984 177.402 107.984 177.402C108.146 176.376 109.172 175.764 110.306 175.764C112.43 175.764 113.438 176.916 113.438 179.13ZM112.358 179.292C112.358 177.528 111.62 176.628 110.144 176.628C109.226 176.628 108.452 177.222 108.02 177.78L108.002 181.614C108.002 182.046 108.092 182.298 109.55 182.298C111.314 182.298 112.358 181.2 112.358 179.292ZM116.156 176.772H115.112C115.058 176.682 115.022 176.592 115.022 176.484C115.022 176.142 115.346 175.926 116.228 175.926C117.236 175.926 117.254 176.034 117.254 176.664C117.254 177.222 117.164 180.228 117.164 180.714C117.164 181.776 117.362 182.298 118.604 182.298C119.36 182.298 120.35 181.812 120.764 181.182V176.52C120.764 176.124 120.944 175.944 121.376 175.944C121.61 175.944 121.736 175.98 121.88 176.052V182.208H122.834C122.888 182.28 122.906 182.37 122.906 182.496C122.906 182.928 122.528 183.054 121.754 183.054C121.304 183.054 120.944 183.018 120.692 182.964L120.782 181.578C120.692 182.532 119.45 183.18 118.244 183.18C116.57 183.18 116.066 182.532 116.066 180.93C116.066 180.282 116.12 178.32 116.156 176.772ZM132.248 182.514C132.248 182.946 131.78 183.054 130.844 183.054C129.962 183.054 129.854 183.018 129.854 182.064C129.854 181.506 129.908 178.734 129.908 178.248C129.908 177.132 129.512 176.664 128.234 176.664C127.478 176.664 126.578 177.15 126.164 177.78V182.964C126.056 183.018 125.876 183.054 125.606 183.054C125.102 183.054 125.03 182.874 125.03 182.28V180.228C125.03 179.238 125.03 177.726 125.066 176.772H123.842C123.788 176.682 123.752 176.592 123.752 176.484C123.752 176.142 123.932 175.926 125.156 175.926C125.606 175.926 125.984 175.962 126.236 176.016L126.128 177.384C126.218 176.448 127.352 175.782 128.594 175.782C130.268 175.782 131.006 176.448 131.006 178.032C131.006 178.698 130.988 180.66 130.952 182.19H132.176C132.23 182.298 132.248 182.406 132.248 182.514ZM140.222 180.858C140.222 181.992 139.34 183.054 136.928 183.054C134.534 183.054 133.58 182.514 133.58 181.866C133.58 181.65 133.742 181.416 134.048 181.344C134.534 181.83 135.938 182.226 136.964 182.226C138.62 182.226 139.142 181.812 139.142 181.128C139.142 180.552 138.872 180.336 137.954 180.174C136.946 179.994 135.632 179.796 135.218 179.652C134.264 179.328 133.904 178.878 133.904 177.996C133.904 176.664 135.182 175.764 137.306 175.764C138.872 175.764 140.114 176.196 140.114 176.844C140.114 177.078 139.97 177.258 139.664 177.384C139.142 176.934 138.062 176.61 137.162 176.61C135.614 176.61 134.966 177.114 134.966 177.834C134.966 178.446 135.164 178.716 136.244 178.95C136.766 179.058 137.882 179.22 138.656 179.364C139.808 179.58 140.222 180.03 140.222 180.858ZM59.78 204.082C59.834 204.136 59.888 204.28 59.888 204.424C59.888 204.712 59.726 205.072 58.934 205.072C58.124 205.072 57.62 204.694 57.62 203.416C57.512 204.406 56.54 205.072 54.92 205.072C53.336 205.072 52.742 204.226 52.742 203.164C52.742 201.922 53.354 200.932 55.478 200.932C55.946 200.932 56.99 200.986 57.674 201.076L57.692 200.158C57.71 199.15 57.062 198.7 55.856 198.7C55.082 198.7 54.398 198.916 53.678 199.492C53.282 199.438 53.156 199.258 53.156 198.952C53.156 198.412 54.182 197.764 56.036 197.764C57.836 197.764 58.772 198.556 58.772 200.032L58.736 203.236C58.718 203.812 58.88 204.118 59.438 204.118C59.546 204.118 59.654 204.1 59.78 204.082ZM57.638 201.796C57.062 201.688 56.306 201.652 55.712 201.652C54.344 201.652 53.858 202.066 53.858 203.038C53.858 203.794 54.29 204.28 55.262 204.28C56.27 204.28 57.062 203.848 57.62 203.11L57.638 201.796ZM69.248 204.514C69.248 204.946 68.78 205.054 67.844 205.054C66.962 205.054 66.854 205.018 66.854 204.064C66.854 203.506 66.908 200.734 66.908 200.248C66.908 199.132 66.512 198.664 65.234 198.664C64.478 198.664 63.578 199.15 63.164 199.78V204.964C63.056 205.018 62.876 205.054 62.606 205.054C62.102 205.054 62.03 204.874 62.03 204.28V202.228C62.03 201.238 62.03 199.726 62.066 198.772H60.842C60.788 198.682 60.752 198.592 60.752 198.484C60.752 198.142 60.932 197.926 62.156 197.926C62.606 197.926 62.984 197.962 63.236 198.016L63.128 199.384C63.218 198.448 64.352 197.782 65.594 197.782C67.268 197.782 68.006 198.448 68.006 200.032C68.006 200.698 67.988 202.66 67.952 204.19H69.176C69.23 204.298 69.248 204.406 69.248 204.514ZM78.32 204.532C78.32 204.964 77.978 205.054 76.88 205.054C76.43 205.054 76.088 205.018 75.818 204.964L75.926 203.614C75.836 204.514 74.738 205.054 73.55 205.054C71.714 205.054 70.67 203.974 70.67 201.67C70.67 199.384 72.092 197.764 74.45 197.764C75.044 197.764 75.638 197.836 75.89 197.926V195.244C75.89 194.74 75.998 194.506 76.448 194.506C76.682 194.506 76.898 194.542 77.06 194.596L77.024 195.514C77.006 195.856 77.024 199.996 77.024 200.77C77.024 201.76 77.024 203.308 77.006 204.244L78.23 204.226C78.284 204.298 78.32 204.424 78.32 204.532ZM75.89 203.218V198.808C75.422 198.7 74.9 198.664 74.324 198.664C72.47 198.664 71.786 199.888 71.786 201.454C71.786 203.344 72.254 204.208 73.874 204.208C74.612 204.208 75.512 203.776 75.89 203.218ZM95.492 204.046C95.492 204.784 94.214 205.09 92.324 205.09C90.92 205.09 90.092 204.586 90.092 203.092C90.092 201.85 90.11 200.23 90.128 198.88L88.166 198.862C88.112 198.772 88.076 198.664 88.076 198.538C88.076 198.106 88.544 197.998 90.146 197.998L90.128 196.306C90.128 195.91 90.29 195.586 90.704 195.586C90.974 195.586 91.136 195.64 91.262 195.694L91.244 197.998H95.078C95.114 198.07 95.168 198.214 95.168 198.34C95.168 198.772 94.916 198.916 94.232 198.916C93.854 198.916 91.964 198.916 91.244 198.898V202.786C91.226 203.866 91.586 204.208 92.612 204.208C93.836 204.208 94.466 203.974 95.132 203.578C95.384 203.65 95.492 203.812 95.492 204.046ZM104.42 203.794C104.42 204.424 103.088 205.09 101.09 205.09C98.768 205.09 97.652 204.028 97.652 201.724C97.652 199.438 98.966 197.764 101.45 197.764C103.412 197.764 104.402 198.844 104.402 200.086C104.402 201.22 104.096 201.544 103.826 201.544H98.804C98.804 203.398 99.398 204.262 101.414 204.262C102.224 204.262 103.304 203.92 104.06 203.326C104.33 203.416 104.42 203.578 104.42 203.794ZM103.304 200.824C103.34 200.608 103.358 200.41 103.358 200.23C103.358 199.276 102.584 198.574 101.162 198.574C99.722 198.574 99.02 199.528 98.84 200.824H103.304ZM113.78 204.082C113.834 204.136 113.888 204.28 113.888 204.424C113.888 204.712 113.726 205.072 112.934 205.072C112.124 205.072 111.62 204.694 111.62 203.416C111.512 204.406 110.54 205.072 108.92 205.072C107.336 205.072 106.742 204.226 106.742 203.164C106.742 201.922 107.354 200.932 109.478 200.932C109.946 200.932 110.99 200.986 111.674 201.076L111.692 200.158C111.71 199.15 111.062 198.7 109.856 198.7C109.082 198.7 108.398 198.916 107.678 199.492C107.282 199.438 107.156 199.258 107.156 198.952C107.156 198.412 108.182 197.764 110.036 197.764C111.836 197.764 112.772 198.556 112.772 200.032L112.736 203.236C112.718 203.812 112.88 204.118 113.438 204.118C113.546 204.118 113.654 204.1 113.78 204.082ZM111.638 201.796C111.062 201.688 110.306 201.652 109.712 201.652C108.344 201.652 107.858 202.066 107.858 203.038C107.858 203.794 108.29 204.28 109.262 204.28C110.27 204.28 111.062 203.848 111.62 203.11L111.638 201.796Z" fill="#1A1A3D"/>
<defs>
<filter id="filter0_d_153_7" x="0" y="0" width="166.125" height="232.948" filterUnits="userSpaceOnUse" color-interpolation-filters="sRGB">
<feFlood flood-opacity="0" result="BackgroundImageFix"/>
<feColorMatrix in="SourceAlpha" type="matrix" values="0 0 0 0 0 0 0 0 0 0 0 0 0 0 0 0 0 0 127 0" result="hardAlpha"/>
<feOffset dy="4"/>
<feGaussianBlur stdDeviation="2"/>
<feComposite in2="hardAlpha" operator="out"/>
<feColorMatrix type="matrix" values="0 0 0 0 0 0 0 0 0 0 0 0 0 0 0 0 0 0 0.25 0"/>
<feBlend mode="normal" in2="BackgroundImageFix" result="effect1_dropShadow_153_7"/>
<feBlend mode="normal" in="SourceGraphic" in2="effect1_dropShadow_153_7" result="shape"/>
</filter>
</defs>
</svg>
