<svg width="167" height="233" viewBox="0 0 167 233" fill="none" xmlns="http://www.w3.org/2000/svg">
<g filter="url(#filter0_d_153_8)">
<path d="M4 219.122V5.8258C4 2.60975 6.55235 0 9.69766 0H156.427C159.573 0 162.125 2.60975 162.125 5.8258V219.122C162.125 222.338 159.573 224.948 156.427 224.948H9.69766C6.55235 224.948 4 222.338 4 219.122Z" fill="white"/>
</g>
<path d="M32.78 187.082C32.834 187.136 32.888 187.28 32.888 187.424C32.888 187.712 32.726 188.072 31.934 188.072C31.124 188.072 30.62 187.694 30.62 186.416C30.512 187.406 29.54 188.072 27.92 188.072C26.336 188.072 25.742 187.226 25.742 186.164C25.742 184.922 26.354 183.932 28.478 183.932C28.946 183.932 29.99 183.986 30.674 184.076L30.692 183.158C30.71 182.15 30.062 181.7 28.856 181.7C28.082 181.7 27.398 181.916 26.678 182.492C26.282 182.438 26.156 182.258 26.156 181.952C26.156 181.412 27.182 180.764 29.036 180.764C30.836 180.764 31.772 181.556 31.772 183.032L31.736 186.236C31.718 186.812 31.88 187.118 32.438 187.118C32.546 187.118 32.654 187.1 32.78 187.082ZM30.638 184.796C30.062 184.688 29.306 184.652 28.712 184.652C27.344 184.652 26.858 185.066 26.858 186.038C26.858 186.794 27.29 187.28 28.262 187.28C29.27 187.28 30.062 186.848 30.62 186.11L30.638 184.796ZM35.588 187.19V185.228C35.588 184.238 35.588 182.726 35.624 181.772H34.22C34.166 181.682 34.13 181.592 34.13 181.484C34.13 181.142 34.49 180.926 35.714 180.926C36.164 180.926 36.542 180.962 36.794 181.016L36.686 183.554C38.54 180.746 39.026 180.782 40.016 180.782C40.844 180.782 41.618 181.394 41.618 182.636C41.618 183.086 41.402 183.482 40.898 183.482C40.808 183.482 40.718 183.464 40.628 183.446C40.502 182.078 40.286 181.664 39.818 181.664C39.224 181.664 38.702 181.772 36.722 184.634V187.19L39.476 187.154C39.548 187.28 39.584 187.442 39.584 187.568C39.584 187.838 39.368 188.018 38.972 188.018C38.828 188.018 34.814 188 34.742 188C34.652 187.928 34.598 187.784 34.598 187.64C34.598 187.298 34.868 187.208 35.084 187.208C35.372 187.19 35.588 187.19 35.588 187.19ZM50.384 186.902C50.384 187.568 49.07 188.09 47.108 188.09C44.768 188.09 43.652 186.956 43.652 184.67C43.652 182.33 45.038 180.764 47.72 180.764C49.16 180.764 50.114 181.124 50.114 181.628C50.114 181.934 49.934 182.096 49.682 182.204C48.98 181.916 48.188 181.682 47.432 181.682C45.614 181.682 44.786 182.672 44.786 184.454C44.786 186.146 45.308 187.208 47.432 187.208C48.386 187.208 49.43 186.866 50.096 186.47C50.276 186.542 50.384 186.686 50.384 186.902ZM60.176 187.514C60.176 187.91 59.726 188.054 58.736 188.054C57.872 188.054 57.764 188.018 57.764 187.064C57.764 186.506 57.818 183.734 57.818 183.248C57.818 182.132 57.44 181.664 56.144 181.664C55.406 181.664 54.452 182.15 54.038 182.78V187.964C53.948 188.018 53.786 188.054 53.516 188.054C52.994 188.054 52.94 187.892 52.94 187.28C52.94 186.938 52.922 184.85 52.922 182.42C52.922 180.134 52.922 178.928 52.94 178.244C52.94 177.74 53.048 177.506 53.48 177.506C53.732 177.506 53.912 177.542 54.074 177.596L54.056 178.514L54.038 181.178C54.038 181.826 54.02 182.186 54.02 182.186C54.362 181.304 55.28 180.782 56.522 180.782C58.196 180.782 58.898 181.448 58.898 183.032C58.898 183.698 58.898 185.66 58.862 187.19H60.086C60.14 187.298 60.176 187.406 60.176 187.514ZM66.062 178.532C66.062 178.874 65.882 179.234 65.27 179.234C64.73 179.234 64.496 179.018 64.496 178.568C64.496 178.172 64.82 177.866 65.342 177.866C65.9 177.866 66.062 178.19 66.062 178.532ZM64.658 187.154V185.228C64.658 184.238 64.676 182.762 64.694 181.772H62.12C62.066 181.682 62.048 181.592 62.048 181.484C62.048 181.088 62.534 180.926 63.956 180.926C65.63 180.926 65.81 181.124 65.81 181.43L65.792 187.154L68.33 187.118C68.402 187.244 68.438 187.442 68.438 187.568C68.438 187.838 68.222 188.018 67.826 188.018C67.682 188.018 61.76 188 61.688 188C61.598 187.928 61.544 187.784 61.544 187.64C61.544 187.298 61.814 187.172 62.03 187.172C62.318 187.154 64.658 187.154 64.658 187.154ZM77.492 187.046C77.492 187.784 76.214 188.09 74.324 188.09C72.92 188.09 72.092 187.586 72.092 186.092C72.092 184.85 72.11 183.23 72.128 181.88L70.166 181.862C70.112 181.772 70.076 181.664 70.076 181.538C70.076 181.106 70.544 180.998 72.146 180.998L72.128 179.306C72.128 178.91 72.29 178.586 72.704 178.586C72.974 178.586 73.136 178.64 73.262 178.694L73.244 180.998H77.078C77.114 181.07 77.168 181.214 77.168 181.34C77.168 181.772 76.916 181.916 76.232 181.916C75.854 181.916 73.964 181.916 73.244 181.898V185.786C73.226 186.866 73.586 187.208 74.612 187.208C75.836 187.208 76.466 186.974 77.132 186.578C77.384 186.65 77.492 186.812 77.492 187.046ZM86.42 186.794C86.42 187.424 85.088 188.09 83.09 188.09C80.768 188.09 79.652 187.028 79.652 184.724C79.652 182.438 80.966 180.764 83.45 180.764C85.412 180.764 86.402 181.844 86.402 183.086C86.402 184.22 86.096 184.544 85.826 184.544H80.804C80.804 186.398 81.398 187.262 83.414 187.262C84.224 187.262 85.304 186.92 86.06 186.326C86.33 186.416 86.42 186.578 86.42 186.794ZM85.304 183.824C85.34 183.608 85.358 183.41 85.358 183.23C85.358 182.276 84.584 181.574 83.162 181.574C81.722 181.574 81.02 182.528 80.84 183.824H85.304ZM95.384 186.902C95.384 187.568 94.07 188.09 92.108 188.09C89.768 188.09 88.652 186.956 88.652 184.67C88.652 182.33 90.038 180.764 92.72 180.764C94.16 180.764 95.114 181.124 95.114 181.628C95.114 181.934 94.934 182.096 94.682 182.204C93.98 181.916 93.188 181.682 92.432 181.682C90.614 181.682 89.786 182.672 89.786 184.454C89.786 186.146 90.308 187.208 92.432 187.208C93.386 187.208 94.43 186.866 95.096 186.47C95.276 186.542 95.384 186.686 95.384 186.902ZM104.492 187.046C104.492 187.784 103.214 188.09 101.324 188.09C99.92 188.09 99.092 187.586 99.092 186.092C99.092 184.85 99.11 183.23 99.128 181.88L97.166 181.862C97.112 181.772 97.076 181.664 97.076 181.538C97.076 181.106 97.544 180.998 99.146 180.998L99.128 179.306C99.128 178.91 99.29 178.586 99.704 178.586C99.974 178.586 100.136 178.64 100.262 178.694L100.244 180.998H104.078C104.114 181.07 104.168 181.214 104.168 181.34C104.168 181.772 103.916 181.916 103.232 181.916C102.854 181.916 100.964 181.916 100.244 181.898V185.786C100.226 186.866 100.586 187.208 101.612 187.208C102.836 187.208 103.466 186.974 104.132 186.578C104.384 186.65 104.492 186.812 104.492 187.046ZM107.156 181.772H106.112C106.058 181.682 106.022 181.592 106.022 181.484C106.022 181.142 106.346 180.926 107.228 180.926C108.236 180.926 108.254 181.034 108.254 181.664C108.254 182.222 108.164 185.228 108.164 185.714C108.164 186.776 108.362 187.298 109.604 187.298C110.36 187.298 111.35 186.812 111.764 186.182V181.52C111.764 181.124 111.944 180.944 112.376 180.944C112.61 180.944 112.736 180.98 112.88 181.052V187.208H113.834C113.888 187.28 113.906 187.37 113.906 187.496C113.906 187.928 113.528 188.054 112.754 188.054C112.304 188.054 111.944 188.018 111.692 187.964L111.782 186.578C111.692 187.532 110.45 188.18 109.244 188.18C107.57 188.18 107.066 187.532 107.066 185.93C107.066 185.282 107.12 183.32 107.156 181.772ZM116.588 187.19V185.228C116.588 184.238 116.588 182.726 116.624 181.772H115.22C115.166 181.682 115.13 181.592 115.13 181.484C115.13 181.142 115.49 180.926 116.714 180.926C117.164 180.926 117.542 180.962 117.794 181.016L117.686 183.554C119.54 180.746 120.026 180.782 121.016 180.782C121.844 180.782 122.618 181.394 122.618 182.636C122.618 183.086 122.402 183.482 121.898 183.482C121.808 183.482 121.718 183.464 121.628 183.446C121.502 182.078 121.286 181.664 120.818 181.664C120.224 181.664 119.702 181.772 117.722 184.634V187.19L120.476 187.154C120.548 187.28 120.584 187.442 120.584 187.568C120.584 187.838 120.368 188.018 119.972 188.018C119.828 188.018 115.814 188 115.742 188C115.652 187.928 115.598 187.784 115.598 187.64C115.598 187.298 115.868 187.208 116.084 187.208C116.372 187.19 116.588 187.19 116.588 187.19ZM131.42 186.794C131.42 187.424 130.088 188.09 128.09 188.09C125.768 188.09 124.652 187.028 124.652 184.724C124.652 182.438 125.966 180.764 128.45 180.764C130.412 180.764 131.402 181.844 131.402 183.086C131.402 184.22 131.096 184.544 130.826 184.544H125.804C125.804 186.398 126.398 187.262 128.414 187.262C129.224 187.262 130.304 186.92 131.06 186.326C131.33 186.416 131.42 186.578 131.42 186.794ZM130.304 183.824C130.34 183.608 130.358 183.41 130.358 183.23C130.358 182.276 129.584 181.574 128.162 181.574C126.722 181.574 126.02 182.528 125.84 183.824H130.304ZM53.552 208.434L55.262 209.874C55.352 210.162 55.136 210.45 54.758 210.45C54.218 210.45 53.84 210.18 52.796 209.172C51.86 209.838 51.32 210.108 50.366 210.108C48.728 210.108 47.612 209.406 47.612 207.696C47.612 206.598 48.224 205.77 49.052 205.248C48.44 204.456 48.224 203.934 48.224 203.052C48.224 201.846 49.034 200.586 50.852 200.586C52.04 200.586 52.364 200.874 52.364 201.288C52.364 201.468 52.274 201.594 52.184 201.684C51.716 201.522 51.302 201.468 50.798 201.468C49.646 201.468 49.232 202.242 49.232 203.088C49.232 203.862 49.592 204.474 50.294 205.194L52.94 207.876C53.462 207.156 53.858 205.878 53.858 204.582C53.858 204.366 53.804 203.844 53.732 203.556C53.822 203.394 53.984 203.34 54.182 203.34C54.668 203.34 54.848 203.844 54.848 204.528C54.848 206.112 54.29 207.552 53.552 208.434ZM52.274 208.614L49.484 205.86C48.908 206.364 48.71 206.832 48.71 207.516C48.71 208.722 49.412 209.298 50.582 209.298C51.176 209.298 51.662 209.082 52.274 208.614ZM73.748 209.514C73.748 209.946 73.28 210.054 72.344 210.054C71.462 210.054 71.354 210.018 71.354 209.064C71.354 208.506 71.408 205.734 71.408 205.248C71.408 204.132 71.012 203.664 69.734 203.664C68.978 203.664 68.078 204.15 67.664 204.78V209.964C67.556 210.018 67.376 210.054 67.106 210.054C66.602 210.054 66.53 209.874 66.53 209.28V207.228C66.53 206.238 66.53 204.726 66.566 203.772H65.342C65.288 203.682 65.252 203.592 65.252 203.484C65.252 203.142 65.432 202.926 66.656 202.926C67.106 202.926 67.484 202.962 67.736 203.016L67.628 204.384C67.718 203.448 68.852 202.782 70.094 202.782C71.768 202.782 72.506 203.448 72.506 205.032C72.506 205.698 72.488 207.66 72.452 209.19H73.676C73.73 209.298 73.748 209.406 73.748 209.514ZM82.28 209.082C82.334 209.136 82.388 209.28 82.388 209.424C82.388 209.712 82.226 210.072 81.434 210.072C80.624 210.072 80.12 209.694 80.12 208.416C80.012 209.406 79.04 210.072 77.42 210.072C75.836 210.072 75.242 209.226 75.242 208.164C75.242 206.922 75.854 205.932 77.978 205.932C78.446 205.932 79.49 205.986 80.174 206.076L80.192 205.158C80.21 204.15 79.562 203.7 78.356 203.7C77.582 203.7 76.898 203.916 76.178 204.492C75.782 204.438 75.656 204.258 75.656 203.952C75.656 203.412 76.682 202.764 78.536 202.764C80.336 202.764 81.272 203.556 81.272 205.032L81.236 208.236C81.218 208.812 81.38 209.118 81.938 209.118C82.046 209.118 82.154 209.1 82.28 209.082ZM80.138 206.796C79.562 206.688 78.806 206.652 78.212 206.652C76.844 206.652 76.358 207.066 76.358 208.038C76.358 208.794 76.79 209.28 77.762 209.28C78.77 209.28 79.562 208.848 80.12 208.11L80.138 206.796ZM90.992 209.046C90.992 209.784 89.714 210.09 87.824 210.09C86.42 210.09 85.592 209.586 85.592 208.092C85.592 206.85 85.61 205.23 85.628 203.88L83.666 203.862C83.612 203.772 83.576 203.664 83.576 203.538C83.576 203.106 84.044 202.998 85.646 202.998L85.628 201.306C85.628 200.91 85.79 200.586 86.204 200.586C86.474 200.586 86.636 200.64 86.762 200.694L86.744 202.998H90.578C90.614 203.07 90.668 203.214 90.668 203.34C90.668 203.772 90.416 203.916 89.732 203.916C89.354 203.916 87.464 203.916 86.744 203.898V207.786C86.726 208.866 87.086 209.208 88.112 209.208C89.336 209.208 89.966 208.974 90.632 208.578C90.884 208.65 90.992 208.812 90.992 209.046ZM93.656 203.772H92.612C92.558 203.682 92.522 203.592 92.522 203.484C92.522 203.142 92.846 202.926 93.728 202.926C94.736 202.926 94.754 203.034 94.754 203.664C94.754 204.222 94.664 207.228 94.664 207.714C94.664 208.776 94.862 209.298 96.104 209.298C96.86 209.298 97.85 208.812 98.264 208.182V203.52C98.264 203.124 98.444 202.944 98.876 202.944C99.11 202.944 99.236 202.98 99.38 203.052V209.208H100.334C100.388 209.28 100.406 209.37 100.406 209.496C100.406 209.928 100.028 210.054 99.254 210.054C98.804 210.054 98.444 210.018 98.192 209.964L98.282 208.578C98.192 209.532 96.95 210.18 95.744 210.18C94.07 210.18 93.566 209.532 93.566 207.93C93.566 207.282 93.62 205.32 93.656 203.772ZM103.088 209.19V207.228C103.088 206.238 103.088 204.726 103.124 203.772H101.72C101.666 203.682 101.63 203.592 101.63 203.484C101.63 203.142 101.99 202.926 103.214 202.926C103.664 202.926 104.042 202.962 104.294 203.016L104.186 205.554C106.04 202.746 106.526 202.782 107.516 202.782C108.344 202.782 109.118 203.394 109.118 204.636C109.118 205.086 108.902 205.482 108.398 205.482C108.308 205.482 108.218 205.464 108.128 205.446C108.002 204.078 107.786 203.664 107.318 203.664C106.724 203.664 106.202 203.772 104.222 206.634V209.19L106.976 209.154C107.048 209.28 107.084 209.442 107.084 209.568C107.084 209.838 106.868 210.018 106.472 210.018C106.328 210.018 102.314 210 102.242 210C102.152 209.928 102.098 209.784 102.098 209.64C102.098 209.298 102.368 209.208 102.584 209.208C102.872 209.19 103.088 209.19 103.088 209.19ZM118.28 209.082C118.334 209.136 118.388 209.28 118.388 209.424C118.388 209.712 118.226 210.072 117.434 210.072C116.624 210.072 116.12 209.694 116.12 208.416C116.012 209.406 115.04 210.072 113.42 210.072C111.836 210.072 111.242 209.226 111.242 208.164C111.242 206.922 111.854 205.932 113.978 205.932C114.446 205.932 115.49 205.986 116.174 206.076L116.192 205.158C116.21 204.15 115.562 203.7 114.356 203.7C113.582 203.7 112.898 203.916 112.178 204.492C111.782 204.438 111.656 204.258 111.656 203.952C111.656 203.412 112.682 202.764 114.536 202.764C116.336 202.764 117.272 203.556 117.272 205.032L117.236 208.236C117.218 208.812 117.38 209.118 117.938 209.118C118.046 209.118 118.154 209.1 118.28 209.082ZM116.138 206.796C115.562 206.688 114.806 206.652 114.212 206.652C112.844 206.652 112.358 207.066 112.358 208.038C112.358 208.794 112.79 209.28 113.762 209.28C114.77 209.28 115.562 208.848 116.12 208.11L116.138 206.796Z" fill="#1A1A3D"/>
<defs>
<filter id="filter0_d_153_8" x="0" y="0" width="166.125" height="232.948" filterUnits="userSpaceOnUse" color-interpolation-filters="sRGB">
<feFlood flood-opacity="0" result="BackgroundImageFix"/>
<feColorMatrix in="SourceAlpha" type="matrix" values="0 0 0 0 0 0 0 0 0 0 0 0 0 0 0 0 0 0 127 0" result="hardAlpha"/>
<feOffset dy="4"/>
<feGaussianBlur stdDeviation="2"/>
<feComposite in2="hardAlpha" operator="out"/>
<feColorMatrix type="matrix" values="0 0 0 0 0 0 0 0 0 0 0 0 0 0 0 0 0 0 0.25 0"/>
<feBlend mode="normal" in2="BackgroundImageFix" result="effect1_dropShadow_153_8"/>
<feBlend mode="normal" in="SourceGraphic" in2="effect1_dropShadow_153_8" result="shape"/>
</filter>
</defs>
</svg>
