<svg width="167" height="233" viewBox="0 0 167 233" fill="none" xmlns="http://www.w3.org/2000/svg">
<g filter="url(#filter0_d_153_10)">
<path d="M4 219.122V5.8258C4 2.60975 6.55235 0 9.69766 0H156.427C159.573 0 162.125 2.60975 162.125 5.8258V219.122C162.125 222.338 159.573 224.948 156.427 224.948H9.69766C6.55235 224.948 4 222.338 4 219.122Z" fill="white"/>
</g>
<path d="M54.722 184.13C54.722 186.65 53.444 188.036 51.266 188.036C50.546 188.036 49.988 187.946 49.538 187.748V191.096C49.448 191.15 49.25 191.186 48.98 191.186C48.566 191.186 48.458 191.096 48.422 190.826C48.404 190.718 48.404 190.592 48.404 190.412V185.876C48.404 183.644 48.404 182.582 48.422 181.772H47.558C47.504 181.682 47.468 181.592 47.468 181.484C47.468 181.142 47.756 180.926 48.512 180.926C48.962 180.926 49.34 180.962 49.592 181.016L49.52 182.402C49.7 181.304 50.78 180.782 51.842 180.782C53.984 180.782 54.722 181.916 54.722 184.13ZM53.642 184.292C53.642 182.528 53.156 181.646 51.68 181.646C50.762 181.646 49.97 182.222 49.538 182.78V186.974C49.934 187.118 50.546 187.244 51.086 187.244C52.832 187.244 53.642 186.2 53.642 184.292ZM58.088 187.19V185.228C58.088 184.238 58.088 182.726 58.124 181.772H56.72C56.666 181.682 56.63 181.592 56.63 181.484C56.63 181.142 56.99 180.926 58.214 180.926C58.664 180.926 59.042 180.962 59.294 181.016L59.186 183.554C61.04 180.746 61.526 180.782 62.516 180.782C63.344 180.782 64.118 181.394 64.118 182.636C64.118 183.086 63.902 183.482 63.398 183.482C63.308 183.482 63.218 183.464 63.128 183.446C63.002 182.078 62.786 181.664 62.318 181.664C61.724 181.664 61.202 181.772 59.222 184.634V187.19L61.976 187.154C62.048 187.28 62.084 187.442 62.084 187.568C62.084 187.838 61.868 188.018 61.472 188.018C61.328 188.018 57.314 188 57.242 188C57.152 187.928 57.098 187.784 57.098 187.64C57.098 187.298 57.368 187.208 57.584 187.208C57.872 187.19 58.088 187.19 58.088 187.19ZM70.562 178.532C70.562 178.874 70.382 179.234 69.77 179.234C69.23 179.234 68.996 179.018 68.996 178.568C68.996 178.172 69.32 177.866 69.842 177.866C70.4 177.866 70.562 178.19 70.562 178.532ZM69.158 187.154V185.228C69.158 184.238 69.176 182.762 69.194 181.772H66.62C66.566 181.682 66.548 181.592 66.548 181.484C66.548 181.088 67.034 180.926 68.456 180.926C70.13 180.926 70.31 181.124 70.31 181.43L70.292 187.154L72.83 187.118C72.902 187.244 72.938 187.442 72.938 187.568C72.938 187.838 72.722 188.018 72.326 188.018C72.182 188.018 66.26 188 66.188 188C66.098 187.928 66.044 187.784 66.044 187.64C66.044 187.298 66.314 187.172 66.53 187.172C66.818 187.154 69.158 187.154 69.158 187.154ZM82.82 187.532C82.82 187.964 82.478 188.054 81.38 188.054C80.93 188.054 80.588 188.018 80.318 187.964L80.426 186.614C80.336 187.514 79.238 188.054 78.05 188.054C76.214 188.054 75.17 186.974 75.17 184.67C75.17 182.384 76.592 180.764 78.95 180.764C79.544 180.764 80.138 180.836 80.39 180.926V178.244C80.39 177.74 80.498 177.506 80.948 177.506C81.182 177.506 81.398 177.542 81.56 177.596L81.524 178.514C81.506 178.856 81.524 182.996 81.524 183.77C81.524 184.76 81.524 186.308 81.506 187.244L82.73 187.226C82.784 187.298 82.82 187.424 82.82 187.532ZM80.39 186.218V181.808C79.922 181.7 79.4 181.664 78.824 181.664C76.97 181.664 76.286 182.888 76.286 184.454C76.286 186.344 76.754 187.208 78.374 187.208C79.112 187.208 80.012 186.776 80.39 186.218ZM90.92 186.794C90.92 187.424 89.588 188.09 87.59 188.09C85.268 188.09 84.152 187.028 84.152 184.724C84.152 182.438 85.466 180.764 87.95 180.764C89.912 180.764 90.902 181.844 90.902 183.086C90.902 184.22 90.596 184.544 90.326 184.544H85.304C85.304 186.398 85.898 187.262 87.914 187.262C88.724 187.262 89.804 186.92 90.56 186.326C90.83 186.416 90.92 186.578 90.92 186.794ZM89.804 183.824C89.84 183.608 89.858 183.41 89.858 183.23C89.858 182.276 89.084 181.574 87.662 181.574C86.222 181.574 85.52 182.528 85.34 183.824H89.804ZM106.562 178.532C106.562 178.874 106.382 179.234 105.77 179.234C105.23 179.234 104.996 179.018 104.996 178.568C104.996 178.172 105.32 177.866 105.842 177.866C106.4 177.866 106.562 178.19 106.562 178.532ZM105.158 187.154V185.228C105.158 184.238 105.176 182.762 105.194 181.772H102.62C102.566 181.682 102.548 181.592 102.548 181.484C102.548 181.088 103.034 180.926 104.456 180.926C106.13 180.926 106.31 181.124 106.31 181.43L106.292 187.154L108.83 187.118C108.902 187.244 108.938 187.442 108.938 187.568C108.938 187.838 108.722 188.018 108.326 188.018C108.182 188.018 102.26 188 102.188 188C102.098 187.928 102.044 187.784 102.044 187.64C102.044 187.298 102.314 187.172 102.53 187.172C102.818 187.154 105.158 187.154 105.158 187.154ZM118.748 187.514C118.748 187.946 118.28 188.054 117.344 188.054C116.462 188.054 116.354 188.018 116.354 187.064C116.354 186.506 116.408 183.734 116.408 183.248C116.408 182.132 116.012 181.664 114.734 181.664C113.978 181.664 113.078 182.15 112.664 182.78V187.964C112.556 188.018 112.376 188.054 112.106 188.054C111.602 188.054 111.53 187.874 111.53 187.28V185.228C111.53 184.238 111.53 182.726 111.566 181.772H110.342C110.288 181.682 110.252 181.592 110.252 181.484C110.252 181.142 110.432 180.926 111.656 180.926C112.106 180.926 112.484 180.962 112.736 181.016L112.628 182.384C112.718 181.448 113.852 180.782 115.094 180.782C116.768 180.782 117.506 181.448 117.506 183.032C117.506 183.698 117.488 185.66 117.452 187.19H118.676C118.73 187.298 118.748 187.406 118.748 187.514ZM50.78 209.082C50.834 209.136 50.888 209.28 50.888 209.424C50.888 209.712 50.726 210.072 49.934 210.072C49.124 210.072 48.62 209.694 48.62 208.416C48.512 209.406 47.54 210.072 45.92 210.072C44.336 210.072 43.742 209.226 43.742 208.164C43.742 206.922 44.354 205.932 46.478 205.932C46.946 205.932 47.99 205.986 48.674 206.076L48.692 205.158C48.71 204.15 48.062 203.7 46.856 203.7C46.082 203.7 45.398 203.916 44.678 204.492C44.282 204.438 44.156 204.258 44.156 203.952C44.156 203.412 45.182 202.764 47.036 202.764C48.836 202.764 49.772 203.556 49.772 205.032L49.736 208.236C49.718 208.812 49.88 209.118 50.438 209.118C50.546 209.118 50.654 209.1 50.78 209.082ZM48.638 206.796C48.062 206.688 47.306 206.652 46.712 206.652C45.344 206.652 44.858 207.066 44.858 208.038C44.858 208.794 45.29 209.28 46.262 209.28C47.27 209.28 48.062 208.848 48.62 208.11L48.638 206.796ZM60.05 209.514C60.05 209.82 59.834 210.054 59.294 210.054C58.898 210.054 58.646 209.892 58.646 209.496C58.646 208.866 58.7 205.41 58.7 204.924C58.7 204.042 58.592 203.664 57.836 203.664C57.296 203.664 56.828 203.988 56.504 204.834V209.964C56.414 210.018 56.216 210.054 55.946 210.054C55.496 210.054 55.388 209.91 55.388 209.28C55.388 208.668 55.442 205.356 55.442 204.87C55.442 203.934 55.244 203.664 54.542 203.664C53.966 203.664 53.534 203.988 53.21 204.816V209.964C53.102 210.018 52.94 210.054 52.67 210.054C52.166 210.054 52.148 209.91 52.112 209.28C52.094 208.938 52.094 208.002 52.094 207.228C52.094 206.238 52.112 204.726 52.13 203.772C52.148 203.178 52.364 202.962 52.76 202.962C52.886 202.962 53.03 202.98 53.174 203.016V204.222C53.354 203.376 53.912 202.782 54.83 202.782C56.018 202.782 56.342 203.286 56.45 204.312C56.666 203.358 57.26 202.782 58.124 202.782C59.222 202.782 59.762 203.286 59.762 204.672C59.762 205.338 59.762 207.66 59.726 209.19H59.96C60.014 209.28 60.05 209.406 60.05 209.514ZM68.222 207.858C68.222 208.992 67.34 210.054 64.928 210.054C62.534 210.054 61.58 209.514 61.58 208.866C61.58 208.65 61.742 208.416 62.048 208.344C62.534 208.83 63.938 209.226 64.964 209.226C66.62 209.226 67.142 208.812 67.142 208.128C67.142 207.552 66.872 207.336 65.954 207.174C64.946 206.994 63.632 206.796 63.218 206.652C62.264 206.328 61.904 205.878 61.904 204.996C61.904 203.664 63.182 202.764 65.306 202.764C66.872 202.764 68.114 203.196 68.114 203.844C68.114 204.078 67.97 204.258 67.664 204.384C67.142 203.934 66.062 203.61 65.162 203.61C63.614 203.61 62.966 204.114 62.966 204.834C62.966 205.446 63.164 205.716 64.244 205.95C64.766 206.058 65.882 206.22 66.656 206.364C67.808 206.58 68.222 207.03 68.222 207.858ZM77.492 209.046C77.492 209.784 76.214 210.09 74.324 210.09C72.92 210.09 72.092 209.586 72.092 208.092C72.092 206.85 72.11 205.23 72.128 203.88L70.166 203.862C70.112 203.772 70.076 203.664 70.076 203.538C70.076 203.106 70.544 202.998 72.146 202.998L72.128 201.306C72.128 200.91 72.29 200.586 72.704 200.586C72.974 200.586 73.136 200.64 73.262 200.694L73.244 202.998H77.078C77.114 203.07 77.168 203.214 77.168 203.34C77.168 203.772 76.916 203.916 76.232 203.916C75.854 203.916 73.964 203.916 73.244 203.898V207.786C73.226 208.866 73.586 209.208 74.612 209.208C75.836 209.208 76.466 208.974 77.132 208.578C77.384 208.65 77.492 208.812 77.492 209.046ZM86.42 208.794C86.42 209.424 85.088 210.09 83.09 210.09C80.768 210.09 79.652 209.028 79.652 206.724C79.652 204.438 80.966 202.764 83.45 202.764C85.412 202.764 86.402 203.844 86.402 205.086C86.402 206.22 86.096 206.544 85.826 206.544H80.804C80.804 208.398 81.398 209.262 83.414 209.262C84.224 209.262 85.304 208.92 86.06 208.326C86.33 208.416 86.42 208.578 86.42 208.794ZM85.304 205.824C85.34 205.608 85.358 205.41 85.358 205.23C85.358 204.276 84.584 203.574 83.162 203.574C81.722 203.574 81.02 204.528 80.84 205.824H85.304ZM89.588 209.19V207.228C89.588 206.238 89.588 204.726 89.624 203.772H88.22C88.166 203.682 88.13 203.592 88.13 203.484C88.13 203.142 88.49 202.926 89.714 202.926C90.164 202.926 90.542 202.962 90.794 203.016L90.686 205.554C92.54 202.746 93.026 202.782 94.016 202.782C94.844 202.782 95.618 203.394 95.618 204.636C95.618 205.086 95.402 205.482 94.898 205.482C94.808 205.482 94.718 205.464 94.628 205.446C94.502 204.078 94.286 203.664 93.818 203.664C93.224 203.664 92.702 203.772 90.722 206.634V209.19L93.476 209.154C93.548 209.28 93.584 209.442 93.584 209.568C93.584 209.838 93.368 210.018 92.972 210.018C92.828 210.018 88.814 210 88.742 210C88.652 209.928 88.598 209.784 88.598 209.64C88.598 209.298 88.868 209.208 89.084 209.208C89.372 209.19 89.588 209.19 89.588 209.19ZM105.32 209.532C105.32 209.964 104.978 210.054 103.88 210.054C103.43 210.054 103.088 210.018 102.818 209.964L102.926 208.614C102.836 209.514 101.738 210.054 100.55 210.054C98.714 210.054 97.67 208.974 97.67 206.67C97.67 204.384 99.092 202.764 101.45 202.764C102.044 202.764 102.638 202.836 102.89 202.926V200.244C102.89 199.74 102.998 199.506 103.448 199.506C103.682 199.506 103.898 199.542 104.06 199.596L104.024 200.514C104.006 200.856 104.024 204.996 104.024 205.77C104.024 206.76 104.024 208.308 104.006 209.244L105.23 209.226C105.284 209.298 105.32 209.424 105.32 209.532ZM102.89 208.218V203.808C102.422 203.7 101.9 203.664 101.324 203.664C99.47 203.664 98.786 204.888 98.786 206.454C98.786 208.344 99.254 209.208 100.874 209.208C101.612 209.208 102.512 208.776 102.89 208.218ZM113.78 209.082C113.834 209.136 113.888 209.28 113.888 209.424C113.888 209.712 113.726 210.072 112.934 210.072C112.124 210.072 111.62 209.694 111.62 208.416C111.512 209.406 110.54 210.072 108.92 210.072C107.336 210.072 106.742 209.226 106.742 208.164C106.742 206.922 107.354 205.932 109.478 205.932C109.946 205.932 110.99 205.986 111.674 206.076L111.692 205.158C111.71 204.15 111.062 203.7 109.856 203.7C109.082 203.7 108.398 203.916 107.678 204.492C107.282 204.438 107.156 204.258 107.156 203.952C107.156 203.412 108.182 202.764 110.036 202.764C111.836 202.764 112.772 203.556 112.772 205.032L112.736 208.236C112.718 208.812 112.88 209.118 113.438 209.118C113.546 209.118 113.654 209.1 113.78 209.082ZM111.638 206.796C111.062 206.688 110.306 206.652 109.712 206.652C108.344 206.652 107.858 207.066 107.858 208.038C107.858 208.794 108.29 209.28 109.262 209.28C110.27 209.28 111.062 208.848 111.62 208.11L111.638 206.796ZM123.05 209.514C123.05 209.82 122.834 210.054 122.294 210.054C121.898 210.054 121.646 209.892 121.646 209.496C121.646 208.866 121.7 205.41 121.7 204.924C121.7 204.042 121.592 203.664 120.836 203.664C120.296 203.664 119.828 203.988 119.504 204.834V209.964C119.414 210.018 119.216 210.054 118.946 210.054C118.496 210.054 118.388 209.91 118.388 209.28C118.388 208.668 118.442 205.356 118.442 204.87C118.442 203.934 118.244 203.664 117.542 203.664C116.966 203.664 116.534 203.988 116.21 204.816V209.964C116.102 210.018 115.94 210.054 115.67 210.054C115.166 210.054 115.148 209.91 115.112 209.28C115.094 208.938 115.094 208.002 115.094 207.228C115.094 206.238 115.112 204.726 115.13 203.772C115.148 203.178 115.364 202.962 115.76 202.962C115.886 202.962 116.03 202.98 116.174 203.016V204.222C116.354 203.376 116.912 202.782 117.83 202.782C119.018 202.782 119.342 203.286 119.45 204.312C119.666 203.358 120.26 202.782 121.124 202.782C122.222 202.782 122.762 203.286 122.762 204.672C122.762 205.338 122.762 207.66 122.726 209.19H122.96C123.014 209.28 123.05 209.406 123.05 209.514Z" fill="#1A1A3D"/>
<defs>
<filter id="filter0_d_153_10" x="0" y="0" width="166.125" height="232.948" filterUnits="userSpaceOnUse" color-interpolation-filters="sRGB">
<feFlood flood-opacity="0" result="BackgroundImageFix"/>
<feColorMatrix in="SourceAlpha" type="matrix" values="0 0 0 0 0 0 0 0 0 0 0 0 0 0 0 0 0 0 127 0" result="hardAlpha"/>
<feOffset dy="4"/>
<feGaussianBlur stdDeviation="2"/>
<feComposite in2="hardAlpha" operator="out"/>
<feColorMatrix type="matrix" values="0 0 0 0 0 0 0 0 0 0 0 0 0 0 0 0 0 0 0.25 0"/>
<feBlend mode="normal" in2="BackgroundImageFix" result="effect1_dropShadow_153_10"/>
<feBlend mode="normal" in="SourceGraphic" in2="effect1_dropShadow_153_10" result="shape"/>
</filter>
</defs>
</svg>
