<svg width="167" height="233" viewBox="0 0 167 233" fill="none" xmlns="http://www.w3.org/2000/svg">
<g filter="url(#filter0_d_39_16640)">
<path d="M4 219.122V5.8258C4 2.60975 6.55235 0 9.69766 0H156.427C159.573 0 162.125 2.60975 162.125 5.8258V219.122C162.125 222.338 159.573 224.948 156.427 224.948H9.69766C6.55235 224.948 4 222.338 4 219.122Z" fill="white"/>
</g>
<path d="M46.28 187.082C46.334 187.136 46.388 187.28 46.388 187.424C46.388 187.712 46.226 188.072 45.434 188.072C44.624 188.072 44.12 187.694 44.12 186.416C44.012 187.406 43.04 188.072 41.42 188.072C39.836 188.072 39.242 187.226 39.242 186.164C39.242 184.922 39.854 183.932 41.978 183.932C42.446 183.932 43.49 183.986 44.174 184.076L44.192 183.158C44.21 182.15 43.562 181.7 42.356 181.7C41.582 181.7 40.898 181.916 40.178 182.492C39.782 182.438 39.656 182.258 39.656 181.952C39.656 181.412 40.682 180.764 42.536 180.764C44.336 180.764 45.272 181.556 45.272 183.032L45.236 186.236C45.218 186.812 45.38 187.118 45.938 187.118C46.046 187.118 46.154 187.1 46.28 187.082ZM44.138 184.796C43.562 184.688 42.806 184.652 42.212 184.652C40.844 184.652 40.358 185.066 40.358 186.038C40.358 186.794 40.79 187.28 41.762 187.28C42.77 187.28 43.562 186.848 44.12 186.11L44.138 184.796ZM55.748 187.514C55.748 187.946 55.28 188.054 54.344 188.054C53.462 188.054 53.354 188.018 53.354 187.064C53.354 186.506 53.408 183.734 53.408 183.248C53.408 182.132 53.012 181.664 51.734 181.664C50.978 181.664 50.078 182.15 49.664 182.78V187.964C49.556 188.018 49.376 188.054 49.106 188.054C48.602 188.054 48.53 187.874 48.53 187.28V185.228C48.53 184.238 48.53 182.726 48.566 181.772H47.342C47.288 181.682 47.252 181.592 47.252 181.484C47.252 181.142 47.432 180.926 48.656 180.926C49.106 180.926 49.484 180.962 49.736 181.016L49.628 182.384C49.718 181.448 50.852 180.782 52.094 180.782C53.768 180.782 54.506 181.448 54.506 183.032C54.506 183.698 54.488 185.66 54.452 187.19H55.676C55.73 187.298 55.748 187.406 55.748 187.514ZM64.748 187.514C64.748 187.946 64.28 188.054 63.344 188.054C62.462 188.054 62.354 188.018 62.354 187.064C62.354 186.506 62.408 183.734 62.408 183.248C62.408 182.132 62.012 181.664 60.734 181.664C59.978 181.664 59.078 182.15 58.664 182.78V187.964C58.556 188.018 58.376 188.054 58.106 188.054C57.602 188.054 57.53 187.874 57.53 187.28V185.228C57.53 184.238 57.53 182.726 57.566 181.772H56.342C56.288 181.682 56.252 181.592 56.252 181.484C56.252 181.142 56.432 180.926 57.656 180.926C58.106 180.926 58.484 180.962 58.736 181.016L58.628 182.384C58.718 181.448 59.852 180.782 61.094 180.782C62.768 180.782 63.506 181.448 63.506 183.032C63.506 183.698 63.488 185.66 63.452 187.19H64.676C64.73 187.298 64.748 187.406 64.748 187.514ZM72.92 186.794C72.92 187.424 71.588 188.09 69.59 188.09C67.268 188.09 66.152 187.028 66.152 184.724C66.152 182.438 67.466 180.764 69.95 180.764C71.912 180.764 72.902 181.844 72.902 183.086C72.902 184.22 72.596 184.544 72.326 184.544H67.304C67.304 186.398 67.898 187.262 69.914 187.262C70.724 187.262 71.804 186.92 72.56 186.326C72.83 186.416 72.92 186.578 72.92 186.794ZM71.804 183.824C71.84 183.608 71.858 183.41 71.858 183.23C71.858 182.276 71.084 181.574 69.662 181.574C68.222 181.574 67.52 182.528 67.34 183.824H71.804ZM85.988 181.142C85.988 178.334 86.474 177.434 88.256 177.434C89.48 177.434 90.272 177.704 90.272 178.226C90.272 178.388 90.182 178.64 90.02 178.766C89.444 178.514 88.886 178.37 88.238 178.37C87.14 178.37 87.086 178.658 87.086 181.142L90.452 181.124C90.488 181.196 90.542 181.322 90.542 181.448C90.542 181.862 90.29 182.042 89.606 182.042C89.228 182.042 87.806 182.042 87.068 182.024V187.19L90.38 187.154C90.452 187.28 90.488 187.442 90.488 187.568C90.488 187.838 90.272 188.018 89.876 188.018C89.732 188.018 84.278 188 84.206 188C84.116 187.928 84.062 187.784 84.062 187.64C84.062 187.298 84.332 187.208 84.548 187.208C84.836 187.19 85.934 187.19 85.934 187.19V185.228C85.934 184.238 85.952 182.996 85.97 182.006L84.044 181.988C83.954 181.916 83.9 181.772 83.9 181.628C83.9 181.286 84.17 181.16 84.386 181.16C84.674 181.142 85.988 181.142 85.988 181.142ZM94.088 187.19V185.228C94.088 184.238 94.088 182.726 94.124 181.772H92.72C92.666 181.682 92.63 181.592 92.63 181.484C92.63 181.142 92.99 180.926 94.214 180.926C94.664 180.926 95.042 180.962 95.294 181.016L95.186 183.554C97.04 180.746 97.526 180.782 98.516 180.782C99.344 180.782 100.118 181.394 100.118 182.636C100.118 183.086 99.902 183.482 99.398 183.482C99.308 183.482 99.218 183.464 99.128 183.446C99.002 182.078 98.786 181.664 98.318 181.664C97.724 181.664 97.202 181.772 95.222 184.634V187.19L97.976 187.154C98.048 187.28 98.084 187.442 98.084 187.568C98.084 187.838 97.868 188.018 97.472 188.018C97.328 188.018 93.314 188 93.242 188C93.152 187.928 93.098 187.784 93.098 187.64C93.098 187.298 93.368 187.208 93.584 187.208C93.872 187.19 94.088 187.19 94.088 187.19ZM109.28 187.082C109.334 187.136 109.388 187.28 109.388 187.424C109.388 187.712 109.226 188.072 108.434 188.072C107.624 188.072 107.12 187.694 107.12 186.416C107.012 187.406 106.04 188.072 104.42 188.072C102.836 188.072 102.242 187.226 102.242 186.164C102.242 184.922 102.854 183.932 104.978 183.932C105.446 183.932 106.49 183.986 107.174 184.076L107.192 183.158C107.21 182.15 106.562 181.7 105.356 181.7C104.582 181.7 103.898 181.916 103.178 182.492C102.782 182.438 102.656 182.258 102.656 181.952C102.656 181.412 103.682 180.764 105.536 180.764C107.336 180.764 108.272 181.556 108.272 183.032L108.236 186.236C108.218 186.812 108.38 187.118 108.938 187.118C109.046 187.118 109.154 187.1 109.28 187.082ZM107.138 184.796C106.562 184.688 105.806 184.652 105.212 184.652C103.844 184.652 103.358 185.066 103.358 186.038C103.358 186.794 103.79 187.28 104.762 187.28C105.77 187.28 106.562 186.848 107.12 186.11L107.138 184.796ZM118.748 187.514C118.748 187.946 118.28 188.054 117.344 188.054C116.462 188.054 116.354 188.018 116.354 187.064C116.354 186.506 116.408 183.734 116.408 183.248C116.408 182.132 116.012 181.664 114.734 181.664C113.978 181.664 113.078 182.15 112.664 182.78V187.964C112.556 188.018 112.376 188.054 112.106 188.054C111.602 188.054 111.53 187.874 111.53 187.28V185.228C111.53 184.238 111.53 182.726 111.566 181.772H110.342C110.288 181.682 110.252 181.592 110.252 181.484C110.252 181.142 110.432 180.926 111.656 180.926C112.106 180.926 112.484 180.962 112.736 181.016L112.628 182.384C112.718 181.448 113.852 180.782 115.094 180.782C116.768 180.782 117.506 181.448 117.506 183.032C117.506 183.698 117.488 185.66 117.452 187.19H118.676C118.73 187.298 118.748 187.406 118.748 187.514ZM127.352 187.496C127.352 187.838 126.92 188.054 125.894 188.054C125.372 188.054 125.12 187.91 124.85 187.514L122.636 184.364L121.538 185.192V187.964C121.448 188.018 121.286 188.054 121.016 188.054C120.512 188.054 120.44 187.874 120.44 187.28C120.44 186.938 120.422 184.85 120.422 182.42C120.422 180.134 120.422 178.928 120.44 178.244C120.44 177.74 120.548 177.506 120.98 177.506C121.232 177.506 121.412 177.542 121.574 177.596L121.538 178.514V184.22L125.318 181.25C125.606 180.998 125.768 180.908 126.038 180.908C126.344 180.908 126.488 181.07 126.488 181.304C126.488 181.358 126.47 181.412 126.452 181.466L123.554 183.788L126.056 187.19H127.262C127.316 187.262 127.352 187.388 127.352 187.496ZM73.676 209.514C73.676 209.91 73.226 210.054 72.236 210.054C71.372 210.054 71.264 210.018 71.264 209.064C71.264 208.506 71.318 205.734 71.318 205.248C71.318 204.132 70.94 203.664 69.644 203.664C68.906 203.664 67.952 204.15 67.538 204.78V209.964C67.448 210.018 67.286 210.054 67.016 210.054C66.494 210.054 66.44 209.892 66.44 209.28C66.44 208.938 66.422 206.85 66.422 204.42C66.422 202.134 66.422 200.928 66.44 200.244C66.44 199.74 66.548 199.506 66.98 199.506C67.232 199.506 67.412 199.542 67.574 199.596L67.556 200.514L67.538 203.178C67.538 203.826 67.52 204.186 67.52 204.186C67.862 203.304 68.78 202.782 70.022 202.782C71.696 202.782 72.398 203.448 72.398 205.032C72.398 205.698 72.398 207.66 72.362 209.19H73.586C73.64 209.298 73.676 209.406 73.676 209.514ZM82.28 209.082C82.334 209.136 82.388 209.28 82.388 209.424C82.388 209.712 82.226 210.072 81.434 210.072C80.624 210.072 80.12 209.694 80.12 208.416C80.012 209.406 79.04 210.072 77.42 210.072C75.836 210.072 75.242 209.226 75.242 208.164C75.242 206.922 75.854 205.932 77.978 205.932C78.446 205.932 79.49 205.986 80.174 206.076L80.192 205.158C80.21 204.15 79.562 203.7 78.356 203.7C77.582 203.7 76.898 203.916 76.178 204.492C75.782 204.438 75.656 204.258 75.656 203.952C75.656 203.412 76.682 202.764 78.536 202.764C80.336 202.764 81.272 203.556 81.272 205.032L81.236 208.236C81.218 208.812 81.38 209.118 81.938 209.118C82.046 209.118 82.154 209.1 82.28 209.082ZM80.138 206.796C79.562 206.688 78.806 206.652 78.212 206.652C76.844 206.652 76.358 207.066 76.358 208.038C76.358 208.794 76.79 209.28 77.762 209.28C78.77 209.28 79.562 208.848 80.12 208.11L80.138 206.796ZM84.656 203.772H83.612C83.558 203.682 83.522 203.592 83.522 203.484C83.522 203.142 83.846 202.926 84.728 202.926C85.736 202.926 85.754 203.034 85.754 203.664C85.754 204.222 85.664 207.228 85.664 207.714C85.664 208.776 85.862 209.298 87.104 209.298C87.86 209.298 88.85 208.812 89.264 208.182V203.52C89.264 203.124 89.444 202.944 89.876 202.944C90.11 202.944 90.236 202.98 90.38 203.052V209.208H91.334C91.388 209.28 91.406 209.37 91.406 209.496C91.406 209.928 91.028 210.054 90.254 210.054C89.804 210.054 89.444 210.018 89.192 209.964L89.282 208.578C89.192 209.532 87.95 210.18 86.744 210.18C85.07 210.18 84.566 209.532 84.566 207.93C84.566 207.282 84.62 205.32 84.656 203.772ZM99.722 207.858C99.722 208.992 98.84 210.054 96.428 210.054C94.034 210.054 93.08 209.514 93.08 208.866C93.08 208.65 93.242 208.416 93.548 208.344C94.034 208.83 95.438 209.226 96.464 209.226C98.12 209.226 98.642 208.812 98.642 208.128C98.642 207.552 98.372 207.336 97.454 207.174C96.446 206.994 95.132 206.796 94.718 206.652C93.764 206.328 93.404 205.878 93.404 204.996C93.404 203.664 94.682 202.764 96.806 202.764C98.372 202.764 99.614 203.196 99.614 203.844C99.614 204.078 99.47 204.258 99.164 204.384C98.642 203.934 97.562 203.61 96.662 203.61C95.114 203.61 94.466 204.114 94.466 204.834C94.466 205.446 94.664 205.716 95.744 205.95C96.266 206.058 97.382 206.22 98.156 206.364C99.308 206.58 99.722 207.03 99.722 207.858Z" fill="#1A1A3D"/>
<defs>
<filter id="filter0_d_39_16640" x="0" y="0" width="166.125" height="232.948" filterUnits="userSpaceOnUse" color-interpolation-filters="sRGB">
<feFlood flood-opacity="0" result="BackgroundImageFix"/>
<feColorMatrix in="SourceAlpha" type="matrix" values="0 0 0 0 0 0 0 0 0 0 0 0 0 0 0 0 0 0 127 0" result="hardAlpha"/>
<feOffset dy="4"/>
<feGaussianBlur stdDeviation="2"/>
<feComposite in2="hardAlpha" operator="out"/>
<feColorMatrix type="matrix" values="0 0 0 0 0 0 0 0 0 0 0 0 0 0 0 0 0 0 0.25 0"/>
<feBlend mode="normal" in2="BackgroundImageFix" result="effect1_dropShadow_39_16640"/>
<feBlend mode="normal" in="SourceGraphic" in2="effect1_dropShadow_39_16640" result="shape"/>
</filter>
</defs>
</svg>
