<?xml version="1.0" encoding="utf-8"?>
<!-- Generator: Adobe Adobe Illustrator 24.2.0, SVG Export Plug-In . SVG Version: 6.00 Build 0)  -->
<svg version="1.1" id="Layer_1" xmlns="http://www.w3.org/2000/svg" xmlns:xlink="http://www.w3.org/1999/xlink" x="0px" y="0px"
	 viewBox="0 0 500 500" style="enable-background:new 0 0 500 500;" xml:space="preserve">
<style type="text/css">
	.st0{fill:#1A1A3E;}
	.st1{fill:#E9B89A;}
	.st2{fill:#C6937B;}
	.st3{fill:#F41B23;}
	.st4{fill:#6E0111;}
	.st5{fill:#C6937C;}
	.st6{fill:#F41A22;}
	.st7{fill:#CA947C;}
	.st8{fill:#E8B79A;}
	.st9{fill:#E9B79A;}
	.st10{fill:#FBDCD7;}
	.st11{fill:#E9B699;}
</style>
<g>
	<path class="st0" d="M235.35,457.92c-3.45-0.04-6.91-0.06-10.36-0.13c-2.19-0.05-4.38-0.13-6.57-0.29
		c-3.39-0.25-6.79-0.52-10.17-0.9c-3.9-0.44-7.79-0.95-11.66-1.55c-2.91-0.46-5.8-1.06-8.68-1.71c-3.7-0.83-7.39-1.72-11.05-2.69
		c-2.84-0.75-5.66-1.58-8.44-2.53c-4.53-1.54-9.06-3.09-13.5-4.86c-4.18-1.66-8.29-3.5-12.34-5.46
		c-9.94-4.8-19.51-10.25-28.46-16.74c-4.09-2.97-8.13-6.02-12.11-9.13c-7.09-5.54-13.5-11.83-19.69-18.34
		c-3.05-3.2-6.01-6.5-8.81-9.92c-7.53-9.2-14.34-18.93-20.09-29.34c-3.35-6.07-6.47-12.28-9.28-18.62
		c-2.49-5.6-4.53-11.41-6.53-17.21c-1.6-4.64-3.06-9.35-4.22-14.11c-1.41-5.8-2.54-11.67-3.59-17.55c-0.81-4.58-1.38-9.2-1.91-13.82
		c-0.32-2.78-0.46-5.58-0.53-8.38c-0.14-5.24-0.36-10.49-0.2-15.73c0.17-5.55,0.61-11.09,1.16-16.62c0.49-4.95,1.19-9.88,2-14.78
		c0.59-3.54,1.45-7.05,2.3-10.54c0.96-3.96,1.92-7.93,3.11-11.82c1.35-4.42,2.86-8.79,4.47-13.12c2.75-7.38,5.83-14.63,9.63-21.54
		c3.35-6.09,6.75-12.17,10.56-17.97c3.85-5.88,8.1-11.52,12.4-17.09c2.67-3.46,5.69-6.67,8.65-9.89c2.73-2.97,5.46-5.96,8.43-8.69
		c4.82-4.42,9.68-8.81,14.78-12.89c6.46-5.17,13.29-9.86,20.39-14.15c8.07-4.88,16.4-9.26,25.09-12.92c4.77-2,9.56-3.98,14.44-5.68
		c4.56-1.58,9.24-2.84,13.91-4.11c3.77-1.03,7.58-1.98,11.41-2.76c4.15-0.84,8.35-1.5,12.54-2.11c3.81-0.56,7.63-1.01,11.46-1.38
		c3.03-0.29,6.07-0.51,9.11-0.56c5.33-0.09,10.66-0.14,15.99,0.01c3.93,0.11,7.85,0.52,11.76,0.92c4.19,0.42,8.37,0.92,12.53,1.52
		c2.96,0.42,5.9,0.98,8.82,1.62c3.82,0.84,7.63,1.76,11.41,2.75c3.5,0.92,7,1.89,10.44,3.03c3.97,1.31,7.89,2.78,11.79,4.28
		c6.97,2.67,13.73,5.8,20.33,9.29c7.74,4.09,15.24,8.58,22.33,13.72c4.61,3.34,9.08,6.89,13.51,10.48
		c6.26,5.06,12.05,10.61,17.56,16.48c6.06,6.46,11.69,13.26,16.87,20.44c4.54,6.3,8.84,12.77,12.44,19.67
		c3.11,5.96,6.32,11.9,9.01,18.06c2.67,6.1,4.92,12.39,7.02,18.71c1.84,5.54,3.46,11.18,4.77,16.86c1.36,5.9,2.33,11.9,3.26,17.89
		c0.62,3.96,0.91,7.97,1.26,11.96c0.25,2.95,0.36,5.91,0.54,9.05c0.01,0.29,0,0.39-0.02,0.6c-0.01,4.45,0,8.78,0.01,13.12
		c-0.34,5.38-0.5,10.78-1.07,16.13c-0.52,4.94-1.38,9.85-2.29,14.74c-0.88,4.72-1.92,9.42-3.09,14.08
		c-0.92,3.67-2.05,7.29-3.27,10.87c-1.69,4.94-3.36,9.91-5.38,14.72c-2.45,5.83-5.08,11.6-7.95,17.24
		c-4.86,9.55-10.57,18.61-17.04,27.16c-2.71,3.59-5.59,7.06-8.44,10.55c-5.42,6.62-11.43,12.71-17.75,18.46
		c-8.21,7.46-16.85,14.4-26.33,20.2c-6.2,3.8-12.55,7.35-18.84,11.01c-0.2,0.12-0.47,0.13-0.81,0.08c-0.75-3.23-1.52-6.34-2.01-9.49
		c-0.7-4.48-1.06-9.01-1.81-13.48c-0.78-4.68-1.72-9.35-2.82-13.97c-2.07-8.66-4.25-17.29-7.44-25.62
		c-0.56-1.47-1.17-3.03-1.21-4.56c-0.13-4.7-0.03-9.4,0.07-14.11c0.05-2.35,0.39-4.7,0.49-7.05c0.25-6.09-0.67-12.04-2.06-17.96
		c-1.15-4.9-1.93-9.88-3-14.79c-0.76-3.49-1.6-6.97-2.67-10.37c-1.33-4.21-2.81-8.36-3.65-12.72c-0.86-4.5-1.89-8.98-2.86-13.46
		c-0.46-2.14-0.98-4.28-1.43-6.42c-1.33-6.32-2.44-12.7-4.82-18.74c-2.72-6.9-5.27-13.89-8.43-20.59c-4.2-8.9-8.8-17.61-13.44-26.29
		c-3.89-7.29-8.13-14.4-12.13-21.64c-5.8-10.49-12.1-20.66-19.12-30.39c-0.2-0.28-0.34-0.63-0.43-0.97
		c-1.87-7.62-3.69-15.24-5.62-22.85c-1.06-4.18-2.14-8.36-3.47-12.45c-1.74-5.36-3.72-10.64-5.65-15.93
		c-1.98-5.43-4.84-10.3-9.45-13.92c-2.77-2.17-6.08-3.32-9.49-2.56c-5.57,1.23-9.35,4.8-10.82,10.39
		c-1.04,3.98-0.88,8.05,0.02,12.07c0.13,0.56,0.13,1.15,0.17,1.62c-2.32,0-4.46-0.15-6.58,0.04c-3.25,0.29-5.95,1.78-8.06,4.3
		c-3.23,3.86-3.29,8.14-0.94,12.25c3.22,5.62,6.78,11.06,10.4,16.44c3.71,5.52,7.68,10.88,11.52,16.32
		c0.25,0.36,0.53,0.76,0.62,1.18c0.44,2.02,0.85,4.04,1.23,6.07c0.99,5.27,1.99,10.53,2.92,15.81c0.53,2.99,0.9,6.02,1.38,9.02
		c0.55,3.48,1.21,6.95,1.67,10.45c0.61,4.66,1.06,9.34,1.59,14.01c0.17,1.49,0.36,2.98,0.54,4.41c-2.02-1.74-4-3.45-5.98-5.17
		c-3.66-3.17-7.84-3.93-12.52-3c-7.14,1.41-11.22,6.1-13.72,12.51c-1.31,3.36-0.92,6.86-0.54,10.39c-2.27,1.41-3.04,3.58-3.49,5.99
		c-6.74,1.75-11.4,5.74-13.49,12.36c-1.67,5.28-1.86,10.81-1.79,16.28c0.09,7.01,0.66,13.99,2.2,20.89
		c1.27,5.69,2.71,11.28,5.43,16.47c4.32,8.25,9.03,16.29,12.24,25.11c2.41,6.61,5.47,12.99,8.34,19.42
		c3.25,7.28,7.26,14.14,12.04,20.52c3.02,4.03,6.33,7.84,9.38,11.85c2.24,2.93,4.26,6.03,6.43,9.02c0.76,1.04,1.68,1.96,2.55,2.99
		c0.09,0.11,0.16,0.15,0.25,0.28c1.68,3.41,3.46,6.68,4.95,10.08c1.6,3.67,2.92,7.46,4.38,11.19c2.3,5.88,4.63,11.75,6.92,17.64
		c1.38,3.55,2.84,7.08,4.01,10.7c1.01,3.16,1.72,6.42,2.43,9.66C235.73,456.04,235.43,457,235.35,457.92z"/>
	<path class="st1" d="M235.46,457.92c-0.02-0.91,0.28-1.88,0.09-2.74c-0.71-3.24-1.42-6.51-2.43-9.66
		c-1.16-3.62-2.63-7.15-4.01-10.7c-2.29-5.89-4.62-11.76-6.92-17.64c-1.46-3.73-2.77-7.53-4.38-11.19
		c-1.49-3.4-3.27-6.67-4.93-10.16c0.01-0.21,0.01-0.27,0.1-0.3c1.67,1.27,3.22,2.59,4.86,3.78c3.47,2.51,7.28,4.14,11.66,4
		c4.47-0.15,8.19-2.15,11.59-4.88c3.17-2.54,6.2-5.25,9.46-7.66c2.78-2.06,5.81-3.74,9.34-4.27c1.07-0.16,2.14-0.52,3.15-0.91
		c0.7-0.27,1.14-0.9,0.69-1.67c-0.42-0.72-0.96-0.42-1.55-0.06c-0.54,0.33-1.19,0.53-1.82,0.65c-4.37,0.82-8.34,2.6-11.76,5.36
		c-3.94,3.18-8.34,5.32-13.15,6.71c-3.38,0.98-6.81,1.48-10.35,0.92c-3.98-0.62-7.53-2.19-10.89-4.34
		c-1.75-1.11-3.24-2.41-4.43-4.11c-2.47-3.53-4.95-7.04-7.48-10.52c-3.39-4.66-6.92-9.23-10.25-13.94
		c-2.99-4.23-5.18-8.92-7.14-13.7c-1.76-4.28-3.29-8.65-5.12-12.9c-1.89-4.4-3.98-8.71-6.05-13.03c-3.75-7.84-7.57-15.64-11.3-23.48
		c-2.2-4.63-3.96-9.42-4.82-14.53c-1.03-6.1-1.77-12.22-1.62-18.42c0.01-0.52,0.18-1.03,0.27-1.54c0.15-0.04,0.3-0.09,0.44-0.13
		c3.33,6.42,8.42,11.2,14.14,15.55c-0.89,0.42-1.72,0.73-2.57,0.81c-1.57,0.15-3.17,0.12-4.74,0.28c-0.38,0.04-0.72,0.5-1.08,0.76
		c0.32,0.3,0.63,0.84,0.97,0.85c2.43,0.09,4.95,0.46,7.23-0.61c2.01-0.94,3.46-0.63,4.73,1.1c0.31,0.42,0.77,0.73,1.1,1.14
		c0.59,0.74,1.13,1.53,1.86,2.51c-0.94,0.22-1.61,0.36-2.26,0.53c-3.25,0.88-6.5,1.74-9.73,2.69c-0.34,0.1-0.53,0.75-0.78,1.14
		c0.44,0.16,0.9,0.51,1.31,0.45c0.84-0.12,1.63-0.5,2.46-0.69c3.11-0.74,6.23-1.46,9.36-2.13c0.33-0.07,0.89,0.17,1.1,0.45
		c0.82,1.11,1.61,2.25,2.25,3.47c0.28,0.53,0.42,1.39,0.18,1.88c-0.82,1.67-1.71,3.32-2.81,4.82c-0.87,1.2-2.11,2.12-3.12,3.23
		c-0.28,0.31-0.29,0.85-0.43,1.28c0.47,0.12,0.93,0.29,1.4,0.35c0.21,0.03,0.47-0.12,0.68-0.25c2.42-1.49,4.85-2.97,7.24-4.49
		c0.81-0.52,1.65-1.69,2.3-1.58c0.89,0.15,1.62,1.25,2.41,1.94c0.12,0.11,0.22,0.24,0.35,0.34c2.41,1.85,4.77,3.77,7.25,5.52
		c1.18,0.83,1.35,0.84,0.68,2.17c-0.46,0.91-1.06,1.76-1.4,2.7c-0.16,0.44,0.16,1.04,0.26,1.57c0.44-0.25,1.01-0.4,1.31-0.77
		c0.45-0.56,0.7-1.28,1.05-1.92c1.23-2.24,1.23-2.24,3.8-1.93c0.84,0.77,1.56,1.56,2.39,2.19c0.5,0.38,1.19,0.73,1.78,0.72
		c2.12-0.06,3.82-1.22,5.47-2.41c3.08-2.22,3.68-4.1,2.55-7.54c1.42,0.5,2.73,1.07,4.09,1.44c1.24,0.34,1.4,0.46,0.99,1.72
		c-0.59,1.82-1.17,3.64-1.81,5.44c-2.74,7.73-3.88,15.67-3.12,23.87c0.07,0.73,0.12,1.51,1.09,1.4c0.87-0.1,0.72-0.83,0.73-1.52
		c0.06-4.06-0.2-8.17,0.38-12.16c0.62-4.27,1.98-8.45,3.13-12.63c0.39-1.42,1.12-2.74,1.76-4.05c1.03,1.23,2.34,1.25,3.67,1.25
		c-0.42,3.41-1.09,6.7-1.18,10.02c-0.24,9.42-0.09,18.85,0.95,28.24c0.22,1.97,0.61,3.93,1,5.88c0.07,0.32,0.57,0.56,0.87,0.84
		c0.25-0.32,0.63-0.61,0.73-0.98c0.12-0.41,0.05-0.9-0.04-1.33c-1.21-5.83-1.41-11.76-1.6-17.68c-0.16-5.19-0.19-10.39,0.01-15.58
		c0.13-3.31,0.8-6.6,1.31-9.93c1.33-0.52,2.57-1,3.82-1.4c0.15,3.98,0.24,7.87,0.44,11.76c0.26,5.12,1.06,10.16,2.35,15.14
		c1.33,5.12,3.19,9.95,6.45,14.18c4.27,5.55,8.6,11.03,14.3,15.23c0.53,0.39,1.07,0.95,1.68,0.27c0.68-0.75,0.04-1.23-0.51-1.69
		c-1.54-1.26-3.29-2.34-4.59-3.81c-3.42-3.86-6.76-7.79-9.92-11.86c-3.7-4.77-5.35-10.47-6.51-16.27
		c-0.72-3.57-1.06-7.23-1.44-10.86c-0.29-2.86-0.56-5.75-0.51-8.63c0.09-5.32,0.41-10.63,0.65-15.95c0.02-0.46,0.08-0.91,0.14-1.52
		c0.36,0.22,0.55,0.29,0.68,0.42c3.1,3.22,6.19,6.45,9.3,9.67c1.75,1.81,3.51,3.6,5.3,5.37c0.47,0.46,1.1,0.9,1.67,0.17
		c0.55-0.72-0.06-1.17-0.55-1.62c-1.07-1-2.17-1.97-3.17-3.03c-3.61-3.8-7.16-7.66-10.79-11.44c-1.63-1.7-3.44-3.23-5.04-4.96
		c-2.25-2.43-4.77-4.39-7.89-5.55c-0.99-0.37-1.9-0.93-2.85-1.4c1.83-0.56,3.55-0.79,5.25-1.16c0.48-0.1,1.21-0.62,1.23-0.97
		c0.05-0.84-0.74-0.9-1.43-0.88c-0.12,0-0.24,0.03-0.36,0.05c-1.04,0.19-2.07,0.42-3.11,0.57c-4.7,0.69-9.37,0.84-14.02-0.48
		c-1.87-0.53-3.81-0.9-5.74-1.09c-3.73-0.36-7.05-1.73-9.94-4c-2.55-2-4.91-4.26-7.29-6.47c-3.47-3.24-6.91-6.52-10.31-9.84
		c-0.85-0.83-1.62-1.83-1.34-3.14c1.71,1.3,3.25,2.72,5.01,3.76c3.97,2.34,8.45,3,12.95,3.55c3.73,0.46,6.53-0.99,8.12-4.24
		c1.22-2.49,1.77-5.3,2.84-7.87c1.14-2.76-0.78-6.95-3.63-8.17c-1.64-0.7-3.22-1.57-4.91-2.14c-2.73-0.93-5.51-1.67-8.19-2.54
		c1.84,0.22,3.62,0.36,5.34,0.76c7.09,1.65,14.18,3.3,21.22,5.11c2.78,0.71,5.44,1.86,8.17,2.77c1.81,0.6,3.68,1.04,5.47,1.69
		c3.88,1.41,7.71,3.08,10.79,5.81c5.33,4.72,10.82,9.21,16.51,13.49c3.7,2.78,7.08,6.03,11.44,7.78c2.63,1.05,4.1,3.1,5.29,5.38
		c2.9,5.53,3.82,11.63,4.59,17.72c0.76,6,1.28,12.03,1.91,18.04c0.2,1.91-0.05,2.24-1.95,2.3c-3.17,0.09-6.22-0.52-9.18-1.64
		c-0.77-0.29-1.84-0.78-2.25,0.28c-0.43,1.1,0.74,1.36,1.5,1.65c3.6,1.38,6.68,3.52,9.22,6.41c0.92,1.04,1.74,2.17,2.75,3.44
		c-1.16,0-2.04,0.03-2.91,0c-4.01-0.14-7.55-2.08-11.36-3c-0.51-0.12-1.09,0.08-1.64,0.14c0.22,0.5,0.3,1.22,0.68,1.46
		c1.67,1.08,3.36,2.15,5.16,2.99c3.13,1.46,6.35,2.73,9.52,4.1c1.02,0.44,1.63,1.14,1.8,2.37c0.42,3.01,0.73,6.09,1.61,8.98
		c2.03,6.67,4.36,13.25,6.61,19.86c1.26,3.71,2.2,7.44,2.29,11.42c0.14,6.13-0.88,12.26,0.15,18.38c0.98,5.8,1.73,11.64,2.82,17.42
		c0.87,4.58,2.04,9.12,3.22,13.63c1.37,5.23,2.82,10.44,4.38,15.61c0.65,2.17,1.68,4.22,2.54,6.32c-5.2,1.73-10.33,3.67-15.6,5.13
		c-6.05,1.68-12.19,3.05-18.34,4.35c-3.86,0.81-7.78,1.41-11.7,1.79C249.6,456.94,242.57,457.37,235.46,457.92z"/>
	<path class="st2" d="M302.33,444.99c-0.94-2.09-1.97-4.14-2.63-6.31c-1.56-5.17-3.01-10.38-4.38-15.61
		c-1.18-4.52-2.35-9.05-3.22-13.63c-1.1-5.78-1.85-11.62-2.82-17.42c-1.03-6.12-0.01-12.26-0.15-18.38
		c-0.09-3.98-1.03-7.71-2.29-11.42c-2.25-6.61-4.57-13.19-6.61-19.86c-0.88-2.89-1.18-5.96-1.61-8.98c-0.17-1.23-0.78-1.92-1.8-2.37
		c-3.17-1.37-6.39-2.64-9.52-4.1c-1.8-0.84-3.49-1.91-5.16-2.99c-0.38-0.25-0.46-0.96-0.68-1.46c0.55-0.05,1.13-0.26,1.64-0.14
		c3.81,0.91,7.35,2.86,11.36,3c0.88,0.03,1.75,0,2.91,0c-1.01-1.27-1.84-2.4-2.75-3.44c-2.54-2.89-5.61-5.03-9.22-6.41
		c-0.76-0.29-1.93-0.55-1.5-1.65c0.41-1.06,1.48-0.57,2.25-0.28c2.96,1.11,6.01,1.73,9.18,1.64c1.9-0.05,2.15-0.39,1.95-2.3
		c-0.63-6.02-1.15-12.05-1.91-18.04c-0.77-6.09-1.69-12.18-4.59-17.72c-1.19-2.28-2.66-4.33-5.29-5.38
		c-4.36-1.74-7.75-4.99-11.44-7.78c-5.69-4.28-11.18-8.77-16.51-13.49c-3.08-2.72-6.91-4.4-10.79-5.81
		c-1.79-0.65-3.66-1.09-5.47-1.69c-2.73-0.91-5.39-2.05-8.17-2.77c-7.05-1.81-14.14-3.46-21.22-5.11c-1.72-0.4-3.5-0.54-5.43-0.75
		c-2.36-0.28-4.55-0.62-6.67-1.01c3.37-1.37,6.82-1.29,10.15-0.55c8.09,1.79,16.12,3.84,24.18,5.77c0.25,0.06,0.52,0.04,1.25,0.09
		c-1.74-3.29-3.19-6.37-4.96-9.25c-1.09-1.78-2.77-3.18-4.01-4.88c-2.34-3.2-4.89-6.1-8.15-8.44c-2.76-1.98-5.54-3.03-9.03-2.76
		c-4.93,0.39-8.64,2.7-11.53,6.44c-2.92,3.78-3.86,8.18-3.3,12.89c0.04,0.37,0.61,0.67,0.86,1.06c-0.85,0.36-1.64,0.65-2.42,0.95
		c-0.44-3.48-0.83-6.98,0.48-10.34c2.5-6.41,6.58-11.1,13.72-12.51c4.68-0.93,8.87-0.17,12.52,3c1.98,1.72,3.97,3.43,5.98,5.17
		c-0.17-1.43-0.37-2.92-0.54-4.41c-0.53-4.67-0.98-9.35-1.59-14.01c-0.46-3.5-1.12-6.96-1.67-10.45c-0.47-3-0.85-6.03-1.38-9.02
		c-0.93-5.28-1.93-10.54-2.92-15.81c-0.38-2.03-0.79-4.05-1.23-6.07c-0.09-0.42-0.36-0.82-0.62-1.18
		c-3.84-5.44-7.81-10.79-11.52-16.32c-3.62-5.38-7.18-10.82-10.4-16.44c-2.35-4.1-2.29-8.38,0.94-12.25
		c2.11-2.53,4.81-4.02,8.06-4.3c2.12-0.19,4.26-0.04,6.58-0.04c-0.05-0.47-0.05-1.06-0.17-1.62c-0.9-4.02-1.06-8.09-0.02-12.07
		c1.46-5.59,5.24-9.16,10.82-10.39c3.41-0.75,6.73,0.39,9.49,2.56c4.62,3.62,7.48,8.49,9.45,13.92c1.93,5.3,3.91,10.58,5.65,15.93
		c1.33,4.09,2.41,8.28,3.47,12.45c1.92,7.6,3.74,15.23,5.62,22.85c0.08,0.34,0.22,0.69,0.43,0.97c7.02,9.72,13.32,19.9,19.12,30.39
		c4,7.24,8.24,14.35,12.13,21.64c4.64,8.68,9.24,17.4,13.44,26.29c3.16,6.7,5.71,13.69,8.43,20.59c2.38,6.04,3.49,12.42,4.82,18.74
		c0.45,2.15,0.97,4.28,1.43,6.42c0.97,4.48,2,8.96,2.86,13.46c0.84,4.36,2.32,8.51,3.65,12.72c1.07,3.4,1.91,6.88,2.67,10.37
		c1.08,4.92,1.85,9.9,3,14.79c1.4,5.92,2.31,11.87,2.06,17.96c-0.1,2.35-0.43,4.7-0.49,7.05c-0.11,4.7-0.2,9.41-0.07,14.11
		c0.04,1.53,0.65,3.09,1.21,4.56c3.19,8.34,5.37,16.97,7.44,25.62c1.11,4.62,2.04,9.28,2.82,13.97c0.75,4.47,1.11,9,1.81,13.48
		c0.49,3.15,1.26,6.26,1.92,9.48c-0.59,0.48-1.15,0.93-1.8,1.21C314.45,439.81,308.43,442.39,302.33,444.99z M235.36,159.52
		c-0.08-0.18-0.17-0.36-0.25-0.53c-0.06,0.04-0.13,0.08-0.19,0.12c0.14,0.19,0.29,0.38,0.44,0.76c0.18,0.49,0.31,1.01,0.54,1.48
		c1,2.12,2.25,4.09,2.58,6.52c0.68,4.96-1.7,10.11-6.11,12.45c-0.48,0.25-1.24-0.02-1.87-0.04c0.13-0.54,0.15-1.16,0.43-1.61
		c0.65-1.03,1.53-1.91,2.14-2.96c3.04-5.12,2.16-10.38,0.12-15.49c-1.09-2.73-2.84-5.18-4.25-7.78c-2.07-3.81-4.74-7.18-7.64-10.38
		c-1.37-1.51-1.43-1.58-3.21-0.65c-2.73,1.43-5.41,2.95-8.07,4.5c-1.4,0.82-2.68,1.84-4.1,2.63c-0.39,0.22-1.06-0.05-1.61-0.09
		c0.18-0.46,0.23-1.06,0.56-1.36c0.78-0.71,1.68-1.28,2.53-1.9c2.68-1.95,5.63-3.52,7.69-6.3c1.56-2.12,1.83-2.12,0.06-3.99
		c-3.89-4.1-7.7-8.29-11.92-12.04c-4.09-3.63-8.64-6.75-12.99-10.09c-1.27-0.98-2.71-1.46-4.31-1.39c-0.81,0.03-1.62,0.15-2.43,0.2
		c-4.15,0.27-7.11,2.32-8.91,6.03c-0.77,1.58-1.08,3.24-0.33,4.95c0.78,1.79,1.36,3.7,2.36,5.34c2.77,4.54,5.62,9.04,8.62,13.43
		c4.15,6.07,8.57,11.96,12.67,18.07c2.76,4.11,5.3,8.38,7.66,12.73c2.42,4.46,4.53,9.08,6.71,13.66c0.94,1.98,1.74,4.02,2.53,6.07
		c1.75,4.54,3.43,9.12,5.21,13.65c0.45,1.16,1.18,2.21,1.79,3.3c0.34,0.61,0.74,1.18,1.08,1.79c0.18,0.31,0.23,0.72,0.45,0.98
		c1.5,1.7,2.99,3.42,4.57,5.05c0.9,0.93,2.06,1.61,2.94,2.55c0.34,0.36,0.25,1.12,0.36,1.7c-0.49-0.09-1.1-0.04-1.45-0.31
		c-1.53-1.21-2.99-2.5-4.44-3.8c-0.73-0.65-1.37-1.39-2.21-2.26c-0.13,0.54-0.21,0.76-0.23,0.99c-0.13,1.57-0.13,3.15-0.38,4.69
		c-1.13,6.86-1.94,13.7,0.51,20.48c0.25,0.71,0.55,1.09,1.25,1.28c3.67,1.01,7.14,2.48,10.4,4.44c2.86,1.71,5.79,3.32,8.46,5.29
		c2.37,1.74,4.71,2.21,7.4,1.17c0.6-0.23,1.24-0.75,1.72,0.02c0.47,0.76-0.15,1.29-0.69,1.73c-0.28,0.23-0.63,0.38-0.93,0.59
		c-0.85,0.59-1.69,1.19-2.68,1.89c2.29,1.73,4.4,3.25,6.41,4.89c2.34,1.91,5.04,3.09,7.82,4.09c2.5,0.9,5.06,0.29,7.59-0.05
		c0.49-0.07,1.03,0.19,1.55,0.29c-0.26,0.49-0.43,1.08-0.81,1.45c-0.97,0.95-2.04,1.8-3.16,2.77c0.35,0.22,0.59,0.44,0.87,0.54
		c2.4,0.89,4.77,1.91,7.23,2.58c1.93,0.52,3.47,1.57,4.93,2.77c3.67,3.03,6.49,6.81,9,10.83c1.29,2.07,2.64,4.1,4.01,6.12
		c0.37,0.55,0.92,0.99,1.38,1.47c0.1-0.08,0.2-0.15,0.3-0.23c-0.13-0.54-0.29-1.07-0.4-1.62c-0.93-4.49-1.81-9-2.8-13.48
		c-0.99-4.52-2.23-8.99-3.09-13.53c-1.66-8.69-4.88-16.86-8.32-24.93c-2.45-5.74-5.3-11.31-8.06-16.92
		c-2.46-4.99-4.95-9.98-7.62-14.86c-3.95-7.24-8.06-14.4-12.13-21.58c-2.64-4.67-5.26-9.35-8.02-13.95c-2.24-3.73-4.65-7.35-7.01-11
		C236.94,161.69,236.12,160.69,235.36,159.52z M219.75,131.03c-1.2,0.54-2.41,1.08-3.73,1.67c2.78,3.01,5.58,5.77,8.04,8.81
		c2.43,3.02,4.51,6.32,6.74,9.5c-0.06-1.12-0.27-2.19-0.51-3.25c-0.9-3.84-1.72-7.7-2.73-11.51c-1.67-6.32-3.34-12.66-5.26-18.91
		c-1.44-4.69-3.23-9.28-4.9-13.89c-1.8-4.98-4.27-9.54-8.28-13.15c-3.21-2.89-9.34-4.61-13.77-0.63c-1.85,1.66-3.65,3.34-4.32,5.76
		c-1.34,4.82-1,9.66,0.31,14.45c0.12,0.43,0.44,0.89,0.8,1.15c1.29,0.92,2.69,1.68,3.95,2.64c2.51,1.92,5.08,3.79,7.37,5.96
		c2.77,2.62,5.25,5.55,7.9,8.3c1.91,1.99,4.9,2.5,7.53,1.49c0.45-0.17,1.07,0.13,1.61,0.21C220.3,130.09,220.1,130.52,219.75,131.03
		z M200.92,174.43c0.6,3.64,1.2,7.28,1.79,10.93c0.53,3.28,1.07,6.57,1.57,9.86c0.45,2.97,0.89,5.94,1.26,8.92
		c0.58,4.67,1.09,9.35,1.63,14.02c0.13,1.13,0.44,2.28,0.31,3.38c-0.13,1.17,0.33,1.92,1,2.7c1.27,1.48,2.46,3.02,3.76,4.47
		c0.36,0.4,0.98,0.75,1.5,0.77c2.27,0.11,4.12-1.48,4.48-4.11c0.67-4.81,1.46-9.64,0.3-14.51c-0.21-0.87-0.48-0.97-1.23-0.61
		c-0.9,0.44-1.83,0.9-2.8,1.12c-0.45,0.1-1.02-0.35-1.53-0.56c0.39-0.38,0.72-0.86,1.17-1.14c1.2-0.73,2.48-1.34,3.69-2.07
		c0.69-0.42,0.69-1.03,0.36-1.8c-1-2.35-1.93-4.73-2.83-7.12c-1.25-3.3-2.23-6.72-3.72-9.91c-3.11-6.65-6.45-13.19-9.75-19.75
		c-0.74-1.47-1.69-2.84-2.54-4.25c-0.09,0.05-0.19,0.1-0.28,0.15C199.67,168.02,200.29,171.12,200.92,174.43z"/>
	<path class="st3" d="M434.61,247.53c0-0.1,0.01-0.2,0.02-0.38c0.15,0.24,0.41,0.56,0.41,0.88c0.02,3.98,0.02,7.97,0,11.95
		c0,0.2-0.09,0.39-0.2,0.56c-0.03-4.05,0.01-8.06,0.02-12.08C434.87,248.15,434.7,247.84,434.61,247.53z"/>
	<path class="st4" d="M434.59,247.65c0.11,0.19,0.28,0.5,0.27,0.81c-0.01,4.02-0.04,8.03-0.07,12.17c0,0.11-0.1,0.12-0.15,0.13
		C434.59,256.43,434.58,252.09,434.59,247.65z"/>
	<path class="st5" d="M203.15,309.95c-2.48-0.26-2.49-0.27-3.72,1.98c-0.35,0.64-0.6,1.36-1.05,1.92c-0.29,0.37-0.86,0.52-1.31,0.77
		c-0.1-0.53-0.41-1.13-0.26-1.57c0.34-0.95,0.94-1.79,1.4-2.7c0.67-1.33,0.5-1.34-0.68-2.17c-2.48-1.75-4.84-3.67-7.25-5.52
		c-0.13-0.1-0.23-0.23-0.35-0.34c-0.8-0.69-1.53-1.79-2.41-1.94c-0.66-0.11-1.49,1.07-2.3,1.58c-2.4,1.52-4.82,3-7.24,4.49
		c-0.2,0.13-0.46,0.28-0.68,0.25c-0.48-0.06-0.94-0.23-1.4-0.35c0.14-0.43,0.15-0.98,0.43-1.28c1-1.11,2.24-2.03,3.12-3.23
		c1.09-1.49,1.99-3.15,2.81-4.82c0.24-0.49,0.1-1.35-0.18-1.88c-0.64-1.22-1.43-2.36-2.25-3.47c-0.21-0.28-0.77-0.52-1.1-0.45
		c-3.13,0.67-6.25,1.39-9.36,2.13c-0.83,0.2-1.62,0.57-2.46,0.69c-0.41,0.06-0.87-0.29-1.31-0.45c0.26-0.39,0.44-1.04,0.78-1.14
		c3.23-0.95,6.48-1.81,9.73-2.69c0.65-0.18,1.31-0.31,2.26-0.53c-0.72-0.98-1.26-1.76-1.86-2.51c-0.33-0.41-0.79-0.72-1.1-1.14
		c-1.27-1.73-2.73-2.04-4.73-1.1c-2.27,1.07-4.79,0.7-7.23,0.61c-0.33-0.01-0.64-0.55-0.97-0.85c0.36-0.27,0.7-0.72,1.08-0.76
		c1.57-0.15,3.17-0.13,4.74-0.28c0.85-0.08,1.68-0.39,2.57-0.81c-5.72-4.35-10.82-9.13-14.14-15.55c-0.15,0.04-0.3,0.09-0.44,0.13
		c-0.09,0.51-0.26,1.03-0.27,1.54c-0.15,6.2,0.59,12.32,1.62,18.42c0.86,5.11,2.62,9.89,4.82,14.53c3.73,7.85,7.55,15.65,11.3,23.48
		c2.07,4.32,4.16,8.63,6.05,13.03c1.83,4.25,3.35,8.63,5.12,12.9c1.97,4.78,4.15,9.47,7.14,13.7c3.33,4.71,6.85,9.28,10.25,13.94
		c2.53,3.48,5.02,7,7.48,10.52c1.19,1.7,2.68,3,4.43,4.11c3.37,2.15,6.92,3.72,10.89,4.34c3.54,0.55,6.97,0.05,10.35-0.92
		c4.81-1.39,9.2-3.53,13.15-6.71c3.42-2.75,7.39-4.54,11.76-5.36c0.63-0.12,1.28-0.32,1.82-0.65c0.59-0.36,1.13-0.67,1.55,0.06
		c0.45,0.77,0.01,1.4-0.69,1.67c-1.02,0.4-2.08,0.75-3.15,0.91c-3.53,0.53-6.56,2.21-9.34,4.27c-3.26,2.41-6.3,5.12-9.46,7.66
		c-3.39,2.72-7.11,4.73-11.59,4.88c-4.39,0.15-8.19-1.48-11.66-4c-1.64-1.19-3.19-2.5-4.86-3.78c-0.08-0.02-0.08-0.01-0.09-0.04
		c-0.06-0.07-0.11-0.07-0.19,0c-0.03,0.02-0.1,0.07-0.1,0.07c-0.85-0.97-1.77-1.89-2.53-2.93c-2.17-2.98-4.19-6.09-6.43-9.02
		c-3.06-4-6.36-7.82-9.38-11.85c-4.78-6.38-8.79-13.24-12.04-20.52c-2.87-6.44-5.94-12.81-8.34-19.42
		c-3.21-8.83-7.92-16.86-12.24-25.11c-2.72-5.19-4.16-10.79-5.43-16.47c-1.55-6.89-2.11-13.88-2.2-20.89
		c-0.07-5.47,0.12-10.99,1.79-16.28c2.1-6.63,6.75-10.61,13.5-12.28c0.17,0.8,0.25,1.53,0.27,2.21c-0.48-0.05-0.93-0.18-1.31-0.06
		c-5.92,1.95-9.65,5.98-11.14,12.01c-0.36,1.44-0.79,3.07-0.47,4.44c0.63,2.71,1.56,5.4,2.74,7.92c2.08,4.44,5.58,7.76,9.31,10.81
		c1.87,1.52,3.9,2.84,5.85,4.26c3,2.18,5.04,5.14,6.87,8.29c0.89,1.53,1.81,3.14,3.05,4.37c2.27,2.26,4.79,4.27,7.21,6.37
		c2.36,2.05,4.54,4.35,7.51,5.55c0.64,0.26,1.38,0.26,2.15,0.42C201.99,308.27,202.57,309.11,203.15,309.95z"/>
	<path class="st6" d="M169.61,243.05c-0.08-0.72-0.16-1.45-0.25-2.25c0.35-2.49,1.12-4.66,3.4-6.06c0.84-0.35,1.63-0.65,2.48-1.01
		c0.07-0.06,0.08-0.06,0.17-0.04c0.43-0.01,0.76-0.04,1.19-0.05c1.1-0.07,2.11-0.16,3.11-0.25c2.19,0.34,4.38,0.68,6.66,1.01
		c2.85,0.81,5.64,1.56,8.37,2.48c1.68,0.57,3.27,1.44,4.91,2.14c2.85,1.22,4.77,5.4,3.63,8.17c-1.06,2.58-1.62,5.38-2.84,7.87
		c-1.59,3.25-4.4,4.7-8.12,4.24c-4.5-0.55-8.97-1.22-12.95-3.55c-1.76-1.04-3.3-2.46-5.03-3.83c-0.47-0.59-0.86-1.05-1.27-1.5
		c-0.44-0.48-0.9-0.94-1.38-1.51c-0.18-0.5-0.34-0.91-0.48-1.33C170.68,246.07,170.15,244.56,169.61,243.05z M181.98,251.25
		c-0.66-0.31-1.39-0.53-1.96-0.96c-1.47-1.13-2.84-2.38-4.3-3.51c-0.34-0.27-0.89-0.28-1.34-0.41c-0.03,0.51-0.1,1.03-0.08,1.54
		c0.01,0.16,0.24,0.31,0.37,0.47c2.17,2.62,5.24,3.89,8.16,5.37c0.27,0.14,0.94-0.09,1.12-0.35c0.15-0.21-0.04-0.87-0.28-1.1
		C183.25,251.89,182.66,251.66,181.98,251.25z M188.06,255.25c0.45-0.2,0.91-0.39,1.36-0.59c-0.21-0.36-0.33-0.88-0.64-1.02
		c-0.3-0.14-0.78,0.1-1.19,0.18C187.7,254.27,187.8,254.71,188.06,255.25z"/>
	<path class="st5" d="M212.89,395.51c-0.01,0.05-0.02,0.11-0.04,0.24c-0.09,0.03-0.16-0.01-0.25-0.12
		c-0.02-0.06,0.05-0.11,0.13-0.12C212.81,395.49,212.89,395.51,212.89,395.51C212.89,395.51,212.89,395.51,212.89,395.51z"/>
	<path class="st7" d="M171.72,249c0.45,0.47,0.92,0.93,1.36,1.41c0.41,0.45,0.79,0.91,1.2,1.45c-0.2,1.44,0.57,2.43,1.42,3.27
		c3.4,3.32,6.84,6.6,10.31,9.84c2.38,2.22,4.74,4.47,7.29,6.47c2.89,2.27,6.21,3.64,9.94,4c1.93,0.19,3.87,0.56,5.74,1.09
		c4.65,1.32,9.32,1.17,14.02,0.48c1.04-0.15,2.07-0.38,3.11-0.57c0.12-0.02,0.24-0.04,0.36-0.05c0.68-0.02,1.47,0.04,1.43,0.88
		c-0.02,0.36-0.75,0.87-1.23,0.97c-1.69,0.37-3.42,0.59-5.25,1.16c0.95,0.47,1.86,1.03,2.85,1.4c3.13,1.16,5.65,3.12,7.89,5.55
		c1.6,1.73,3.41,3.26,5.04,4.96c3.62,3.79,7.18,7.64,10.79,11.44c1.01,1.06,2.1,2.03,3.17,3.03c0.49,0.45,1.1,0.9,0.55,1.62
		c-0.57,0.74-1.2,0.3-1.67-0.17c-1.79-1.77-3.55-3.56-5.3-5.37c-3.11-3.21-6.2-6.45-9.3-9.67c-0.13-0.14-0.33-0.21-0.68-0.42
		c-0.06,0.6-0.12,1.06-0.14,1.52c-0.23,5.32-0.56,10.63-0.65,15.95c-0.05,2.87,0.22,5.76,0.51,8.63c0.37,3.63,0.72,7.29,1.44,10.86
		c1.17,5.8,2.81,11.5,6.51,16.27c3.16,4.07,6.5,8.01,9.92,11.86c1.3,1.47,3.05,2.55,4.59,3.81c0.55,0.45,1.19,0.93,0.51,1.69
		c-0.62,0.68-1.15,0.12-1.68-0.27c-5.7-4.2-10.03-9.68-14.3-15.23c-3.26-4.23-5.12-9.07-6.45-14.18
		c-1.29-4.97-2.09-10.01-2.35-15.14c-0.2-3.89-0.29-7.78-0.37-11.81c0.4-1.01,1.01-1.88,1.03-2.76c0.08-3.61,0.04-7.23-0.07-10.84
		c-0.04-1.34,0.02-2.94-0.67-3.95c-2.62-3.83-6.34-6.03-11.09-6.49c-1.51-0.84-2.94-2.17-4.43-2.26c-3.73-0.21-7.34-0.8-10.93-1.73
		c-0.98-0.25-2.03-0.26-3.4-0.43c0.78,1.98,1.35,3.61,2.06,5.18c2.47,5.51,5.73,10.57,8.87,15.69c1.17,1.91,2.78,3.27,4.84,4.07
		c0.43,0.17,0.96,0.07,1.52,0.13c0.91,1.38,1.74,2.71,2.57,4.04c-0.57,1.36-1.31,2.69-1.69,4.1c-1.15,4.19-2.51,8.36-3.13,12.63
		c-0.58,3.99-0.32,8.1-0.38,12.16c-0.01,0.69,0.14,1.42-0.73,1.52c-0.96,0.11-1.02-0.67-1.09-1.4c-0.77-8.19,0.37-16.13,3.12-23.87
		c0.64-1.8,1.22-3.62,1.81-5.44c0.41-1.27,0.26-1.38-0.99-1.72c-1.36-0.38-2.67-0.95-4.14-1.51c-2.89-4.43-5.62-8.78-8.41-13.11
		c-0.31-0.47-0.92-0.75-1.39-1.19c-1.59-3.7-3.17-7.34-4.84-10.94c-0.22-0.47-0.87-0.79-1.38-1.05c-2.13-1.08-4.48-1.84-6.38-3.22
		c-6.58-4.81-12.02-10.92-18.08-16.32C172.46,254.88,172.15,251.93,171.72,249z"/>
	<path class="st3" d="M222.67,306.45c-0.9-1.39-1.73-2.72-2.7-4.17c-1.55-3.58-3.06-7.01-4.39-10.51c-1.76-4.63-0.71-6.91,3.71-9.16
		c0.71-0.36,1.49-0.58,2.24-0.86c4.7,0.39,8.42,2.59,11.04,6.42c0.69,1.01,0.63,2.61,0.67,3.95c0.11,3.61,0.16,7.23,0.07,10.84
		c-0.02,0.88-0.64,1.75-1.05,2.68c-1.31,0.53-2.55,1.02-3.97,1.54c-0.77,0.16-1.36,0.29-1.96,0.42
		C225.01,307.7,223.7,307.69,222.67,306.45z M219.14,294.45c0.39,0.97,0.72,1.98,1.22,2.9c0.2,0.36,0.79,0.51,1.2,0.76
		c0.17-0.4,0.59-0.89,0.48-1.19c-0.7-1.98-1.48-3.93-2.34-5.85c-0.15-0.33-0.81-0.44-1.23-0.65c-0.13,0.46-0.45,0.97-0.35,1.38
		C218.31,292.65,218.73,293.45,219.14,294.45z M222.07,300.57c-0.09,0.71,0.12,1.3,0.93,1.16c0.3-0.05,0.77-0.72,0.7-0.98
		C223.43,299.82,222.79,299.87,222.07,300.57z"/>
	<path class="st3" d="M205.57,288.66c0.47,0.37,1.09,0.64,1.4,1.11c2.79,4.32,5.52,8.68,8.32,13.1c1.27,3.52,0.67,5.39-2.42,7.62
		c-1.65,1.19-3.35,2.35-5.47,2.41c-0.59,0.02-1.28-0.34-1.78-0.72c-0.83-0.63-1.55-1.43-2.39-2.19c-0.65-0.88-1.23-1.72-1.91-2.68
		c-2.01-3.07-3.52-6.19-4.12-9.68c-0.12-0.73-0.15-1.59,0.13-2.24C198.9,291.75,201.82,289.68,205.57,288.66z M202.47,299.33
		c-0.16-0.58-0.41-1.24-1.12-0.86c-0.35,0.19-0.67,0.98-0.56,1.35c0.46,1.46,1.08,2.88,1.68,4.29c0.25,0.59,0.7,1.21,1.36,0.74
		c0.31-0.22,0.42-1.08,0.27-1.53C203.67,302.02,203.06,300.78,202.47,299.33z M206.14,306.71c-0.76-0.3-1.31-0.12-1.3,0.76
		c0,0.31,0.35,0.7,0.64,0.89c0.19,0.11,0.81-0.06,0.82-0.16C206.38,307.74,206.3,307.27,206.14,306.71z"/>
	<path class="st7" d="M226.34,307.71c0.61-0.23,1.2-0.37,1.88-0.5c-0.33,3.3-1,6.59-1.13,9.9c-0.2,5.19-0.18,10.39-0.01,15.58
		c0.19,5.92,0.38,11.85,1.6,17.68c0.09,0.43,0.16,0.92,0.04,1.33c-0.11,0.37-0.48,0.65-0.73,0.98c-0.3-0.28-0.8-0.51-0.87-0.84
		c-0.4-1.95-0.79-3.91-1-5.88c-1.03-9.39-1.19-18.81-0.95-28.24C225.25,314.41,225.92,311.11,226.34,307.71z"/>
	<path class="st1" d="M235.36,159.66c0.76,1.03,1.58,2.03,2.28,3.11c2.37,3.65,4.78,7.27,7.01,11c2.76,4.6,5.38,9.28,8.02,13.95
		c4.07,7.18,8.17,14.34,12.13,21.58c2.67,4.88,5.16,9.87,7.62,14.86c2.77,5.6,5.61,11.18,8.06,16.92
		c3.45,8.07,6.67,16.23,8.32,24.93c0.87,4.54,2.1,9.01,3.09,13.53c0.98,4.48,1.86,8.99,2.8,13.48c0.11,0.54,0.27,1.08,0.4,1.62
		c-0.1,0.08-0.2,0.15-0.3,0.23c-0.47-0.49-1.01-0.92-1.38-1.47c-1.37-2.02-2.71-4.05-4.01-6.12c-2.52-4.02-5.33-7.79-9-10.83
		c-1.46-1.2-3-2.25-4.93-2.77c-2.46-0.67-4.83-1.69-7.23-2.58c-0.28-0.1-0.52-0.32-0.87-0.54c1.12-0.97,2.19-1.82,3.16-2.77
		c0.38-0.37,0.55-0.96,0.81-1.45c-0.52-0.11-1.05-0.36-1.55-0.29c-2.54,0.34-5.1,0.95-7.59,0.05c-2.78-1-5.48-2.18-7.82-4.09
		c-2.01-1.64-4.13-3.15-6.41-4.89c1-0.7,1.84-1.3,2.68-1.89c0.3-0.21,0.65-0.35,0.93-0.59c0.54-0.45,1.16-0.97,0.69-1.73
		c-0.48-0.77-1.12-0.25-1.72-0.02c-2.69,1.04-5.03,0.57-7.4-1.17c-2.67-1.96-5.61-3.58-8.46-5.29c-3.26-1.95-6.74-3.43-10.4-4.44
		c-0.7-0.19-1-0.57-1.25-1.28c-2.45-6.78-1.64-13.62-0.51-20.48c0.25-1.54,0.25-3.13,0.38-4.69c0.02-0.23,0.1-0.45,0.23-0.99
		c0.84,0.86,1.48,1.6,2.21,2.26c1.45,1.3,2.92,2.59,4.44,3.8c0.35,0.28,0.96,0.22,1.45,0.31c-0.11-0.58-0.02-1.34-0.36-1.7
		c-0.89-0.94-2.04-1.62-2.94-2.55c-1.58-1.62-3.07-3.34-4.57-5.05c-0.23-0.26-0.28-0.67-0.45-0.98c-0.34-0.61-0.74-1.18-1.08-1.79
		c-0.62-1.09-1.34-2.15-1.79-3.3c-1.78-4.53-3.46-9.11-5.21-13.65c-0.79-2.04-1.59-4.09-2.53-6.07c-2.18-4.58-4.29-9.21-6.71-13.66
		c-2.36-4.35-4.9-8.62-7.66-12.73c-4.1-6.11-8.52-12-12.67-18.07c-3-4.39-5.85-8.89-8.62-13.43c-1.01-1.65-1.58-3.56-2.36-5.34
		c-0.75-1.71-0.44-3.37,0.33-4.95c1.8-3.71,4.76-5.77,8.91-6.03c0.81-0.05,1.62-0.16,2.43-0.2c1.6-0.07,3.04,0.41,4.31,1.39
		c4.35,3.34,8.9,6.46,12.99,10.09c4.21,3.74,8.03,7.94,11.92,12.04c1.77,1.87,1.5,1.86-0.06,3.99c-2.05,2.78-5,4.35-7.69,6.3
		c-0.86,0.62-1.76,1.19-2.53,1.9c-0.33,0.3-0.38,0.9-0.56,1.36c0.54,0.04,1.21,0.31,1.61,0.09c1.41-0.79,2.69-1.82,4.1-2.63
		c2.66-1.55,5.34-3.07,8.07-4.5c1.78-0.93,1.84-0.86,3.21,0.65c2.9,3.2,5.57,6.57,7.64,10.38c1.41,2.6,3.17,5.05,4.25,7.78
		c2.04,5.11,2.92,10.36-0.12,15.49c-0.62,1.04-1.49,1.93-2.14,2.96c-0.28,0.45-0.29,1.07-0.43,1.61c0.63,0.03,1.39,0.3,1.87,0.04
		c4.41-2.33,6.79-7.49,6.11-12.45c-0.34-2.43-1.59-4.4-2.58-6.52c-0.22-0.47-0.36-0.99-0.54-1.58
		C235.35,159.67,235.36,159.66,235.36,159.66z M250.63,213.15c1.13,0.99,1.89-0.17,2.71-0.55c4.01-1.84,6.91-5.78,4.95-11.35
		c-0.17-0.48-0.71-0.82-1.08-1.22c-0.28,0.48-0.79,0.95-0.79,1.43c-0.06,4.41-2.03,7.75-5.49,10.35
		C250.64,212.01,250.65,212.6,250.63,213.15z"/>
	<path class="st1" d="M219.83,130.99c0.27-0.47,0.47-0.9,0.66-1.34c-0.54-0.08-1.17-0.38-1.61-0.21c-2.63,1.01-5.62,0.5-7.53-1.49
		c-2.65-2.75-5.13-5.68-7.9-8.3c-2.29-2.16-4.86-4.03-7.37-5.96c-1.25-0.96-2.66-1.72-3.95-2.64c-0.36-0.26-0.68-0.72-0.8-1.15
		c-1.31-4.79-1.64-9.63-0.31-14.45c0.67-2.42,2.47-4.1,4.32-5.76c4.43-3.99,10.56-2.27,13.77,0.63c4.01,3.61,6.48,8.16,8.28,13.15
		c1.67,4.62,3.47,9.2,4.9,13.89c1.91,6.25,3.58,12.59,5.26,18.91c1.01,3.81,1.83,7.67,2.73,11.51c0.25,1.06,0.45,2.13,0.51,3.25
		c-2.23-3.18-4.31-6.49-6.74-9.5c-2.45-3.04-5.26-5.8-8.04-8.81C217.35,132.11,218.55,131.57,219.83,130.99z"/>
	<path class="st1" d="M179.78,233.33c-1.07,0.14-2.07,0.23-3.25,0.27c-0.52-0.01-0.87,0.03-1.22,0.07c0,0-0.01,0-0.01,0
		c-0.32-0.33-0.88-0.64-0.93-1.01c-0.56-4.71,0.37-9.11,3.3-12.89c2.9-3.75,6.6-6.06,11.53-6.44c3.49-0.27,6.27,0.78,9.03,2.76
		c3.26,2.34,5.82,5.24,8.15,8.44c1.24,1.7,2.92,3.1,4.01,4.88c1.77,2.88,3.22,5.96,4.96,9.25c-0.73-0.05-1-0.03-1.25-0.09
		c-8.06-1.94-16.09-3.99-24.18-5.77C186.6,232.05,183.15,231.97,179.78,233.33z"/>
	<path class="st8" d="M200.92,174.32c-0.62-3.2-1.24-6.3-1.87-9.39c0.09-0.05,0.19-0.1,0.28-0.15c0.85,1.41,1.8,2.78,2.54,4.25
		c3.3,6.56,6.64,13.1,9.75,19.75c1.49,3.19,2.47,6.61,3.72,9.91c0.9,2.39,1.83,4.77,2.83,7.12c0.33,0.77,0.33,1.38-0.36,1.8
		c-1.2,0.73-2.48,1.34-3.69,2.07c-0.45,0.28-0.79,0.75-1.17,1.14c0.51,0.2,1.09,0.66,1.53,0.56c0.97-0.22,1.9-0.68,2.8-1.12
		c0.75-0.37,1.02-0.27,1.23,0.61c1.16,4.87,0.37,9.69-0.3,14.51c-0.37,2.63-2.21,4.22-4.48,4.11c-0.52-0.03-1.14-0.38-1.5-0.77
		c-1.3-1.45-2.49-2.99-3.76-4.47c-0.68-0.79-1.14-1.53-1-2.7c0.13-1.1-0.18-2.25-0.31-3.38c-0.54-4.67-1.05-9.35-1.63-14.02
		c-0.37-2.98-0.81-5.95-1.26-8.92c-0.5-3.29-1.04-6.57-1.57-9.86C202.12,181.71,201.52,178.07,200.92,174.32z"/>
	<path class="st1" d="M235.35,159.67c-0.15-0.19-0.29-0.38-0.44-0.57c0.06-0.04,0.13-0.08,0.19-0.12c0.08,0.18,0.17,0.36,0.25,0.61
		C235.36,159.66,235.35,159.67,235.35,159.67z"/>
	<path class="st9" d="M205.58,288.59c-3.76,1.09-6.67,3.17-8.25,6.81c-0.28,0.65-0.26,1.52-0.13,2.24c0.6,3.49,2.12,6.61,4.05,9.64
		c-0.67-0.04-1.41-0.04-2.05-0.3c-2.97-1.2-5.15-3.51-7.51-5.55c-2.42-2.1-4.94-4.11-7.21-6.37c-1.24-1.23-2.15-2.84-3.05-4.37
		c-1.84-3.15-3.88-6.11-6.87-8.29c-1.95-1.42-3.99-2.74-5.85-4.26c-3.73-3.05-7.24-6.38-9.31-10.81c-1.18-2.52-2.11-5.21-2.74-7.92
		c-0.32-1.37,0.11-2.99,0.47-4.44c1.49-6.03,5.21-10.06,11.14-12.01c0.37-0.12,0.83,0,1.31,0.06c0.59,1.55,1.13,3.06,1.66,4.57
		c0.15,0.41,0.31,0.82,0.48,1.33c0.45,3.03,0.76,5.98,3.2,8.15c6.07,5.4,11.5,11.51,18.08,16.32c1.9,1.39,4.25,2.14,6.38,3.22
		c0.51,0.26,1.16,0.58,1.38,1.05C202.41,281.24,203.98,284.89,205.58,288.59z"/>
	<path class="st1" d="M212.88,395.49c0.01,0.02-0.07,0.01-0.11-0.01C212.77,395.42,212.82,395.41,212.88,395.49z"/>
	<path class="st10" d="M182.06,251.3c0.6,0.36,1.19,0.59,1.62,0.99c0.25,0.23,0.43,0.89,0.28,1.1c-0.19,0.27-0.85,0.49-1.12,0.35
		c-2.92-1.48-5.99-2.75-8.16-5.37c-0.13-0.16-0.36-0.31-0.37-0.47c-0.02-0.51,0.05-1.03,0.08-1.54c0.45,0.13,0.99,0.14,1.34,0.41
		c1.46,1.14,2.83,2.39,4.3,3.51C180.59,250.72,181.32,250.94,182.06,251.3z"/>
	<path class="st10" d="M187.98,255.2c-0.18-0.49-0.28-0.94-0.39-1.38c0.4-0.08,0.88-0.32,1.19-0.18c0.3,0.14,0.43,0.66,0.64,1.02
		C188.97,254.86,188.51,255.05,187.98,255.2z"/>
	<path class="st2" d="M175.41,233.69c0.25-0.06,0.6-0.1,1.03-0.1C176.17,233.65,175.84,233.68,175.41,233.69z"/>
	<path class="st11" d="M221.49,281.69c-0.7,0.36-1.48,0.57-2.19,0.93c-4.42,2.24-5.47,4.52-3.71,9.16c1.33,3.5,2.83,6.94,4.31,10.47
		c-0.43,0.05-0.96,0.14-1.39-0.02c-2.07-0.8-3.67-2.16-4.84-4.07c-3.15-5.12-6.41-10.19-8.87-15.69c-0.71-1.57-1.28-3.2-2.06-5.18
		c1.37,0.16,2.41,0.17,3.4,0.43c3.59,0.93,7.2,1.52,10.93,1.73C218.56,279.52,219.98,280.85,221.49,281.69z"/>
	<path class="st10" d="M219.09,294.36c-0.37-0.91-0.78-1.72-0.97-2.57c-0.09-0.41,0.22-0.92,0.35-1.38
		c0.42,0.21,1.08,0.32,1.23,0.65c0.86,1.92,1.63,3.87,2.34,5.85c0.11,0.3-0.31,0.79-0.48,1.19c-0.41-0.25-1.01-0.39-1.2-0.76
		C219.85,296.43,219.53,295.42,219.09,294.36z"/>
	<path class="st10" d="M222.09,300.49c0.69-0.62,1.33-0.67,1.6,0.25c0.07,0.26-0.4,0.93-0.7,0.98
		C222.19,301.86,221.98,301.28,222.09,300.49z"/>
	<path class="st10" d="M202.49,299.42c0.57,1.36,1.18,2.6,1.61,3.9c0.15,0.45,0.05,1.31-0.27,1.53c-0.66,0.47-1.11-0.15-1.36-0.74
		c-0.6-1.42-1.22-2.83-1.68-4.29c-0.12-0.38,0.21-1.17,0.56-1.35C202.05,298.09,202.31,298.75,202.49,299.42z"/>
	<path class="st10" d="M206.21,306.76c0.09,0.51,0.17,0.98,0.1,1.43c-0.02,0.11-0.64,0.28-0.82,0.16c-0.3-0.18-0.64-0.58-0.64-0.89
		C204.83,306.59,205.38,306.41,206.21,306.76z"/>
	<path class="st7" d="M250.58,213.08c0.07-0.48,0.07-1.07,0.34-1.28c3.46-2.6,5.43-5.94,5.49-10.35c0.01-0.48,0.52-0.95,0.79-1.43
		c0.37,0.4,0.92,0.75,1.08,1.22c1.96,5.57-0.94,9.51-4.95,11.35C252.52,212.97,251.76,214.13,250.58,213.08z"/>
</g>
</svg>
