<svg width="82" height="76" viewBox="0 0 82 76" fill="none" xmlns="http://www.w3.org/2000/svg">
<g clip-path="url(#clip0_21_8190)">
<path d="M56.4757 69.6636C55.9601 69.7322 55.4446 69.8007 54.9165 69.8605C54.2209 69.8871 53.5487 69.858 52.8763 69.7325C51.9561 69.5607 51.1617 69.1753 50.5557 68.554C49.8071 67.7865 49.1337 66.9556 48.4509 66.1358C47.826 65.3855 47.2256 64.6175 46.626 63.8496C46.1924 63.2946 45.777 62.7274 45.3548 62.1648C44.8898 61.5449 44.4274 60.9235 43.9621 60.3039C43.5944 59.8142 43.2284 59.3234 42.854 58.8382C42.1801 57.9647 41.4996 57.0955 40.8234 56.2235C40.3794 55.651 39.9399 55.0754 39.4952 54.5034C38.7457 53.5391 37.9998 52.5724 37.2401 51.6151C36.8323 51.1013 36.441 50.5683 35.9663 50.1102C35.3824 49.5466 34.7312 49.0395 34.0863 48.5321C33.6592 48.196 33.2044 47.8859 32.7382 47.5957C32.4488 47.4155 32.1281 47.2628 31.7981 47.1537C31.2336 46.9669 30.6577 46.8006 30.0736 46.6704C29.6566 46.5774 29.2171 46.5028 28.79 46.5203C28.3487 46.5384 27.8949 46.6359 27.474 46.7735C26.8097 46.9907 26.1506 47.2374 25.5214 47.5313C24.5252 47.9967 23.6754 48.6518 22.9475 49.4317C22.6181 49.7846 22.3118 50.1574 22.02 50.537C21.7534 50.8838 21.4908 51.2383 21.2786 51.6134C20.7829 52.4894 20.3741 53.3978 20.0823 54.3479C19.8167 55.2125 19.7015 56.0899 19.7104 56.9775C19.7152 57.4624 19.7676 57.9463 19.8086 58.4296C19.8483 58.8976 19.8874 59.3661 19.951 59.8311C20.0444 60.5144 20.1469 61.197 20.2697 61.8758C20.3539 62.3413 20.4481 62.8089 20.5936 63.2593C20.8193 63.9581 21.1506 64.6181 21.635 65.1972C21.836 65.4374 22.0516 65.6911 22.3229 65.8523C22.842 66.1609 23.4256 66.2666 24.0605 66.1026C24.3905 66.0174 24.6826 65.8827 24.9438 65.6875C25.38 65.3615 25.6899 64.9397 26.0142 64.5237C26.3342 64.1132 26.6876 63.7177 27.0737 63.3583C27.464 62.9949 27.9363 62.7249 28.4846 62.5894C28.7407 62.5261 28.9905 62.4394 29.2453 62.3708C29.5927 62.2772 29.938 62.1643 30.2922 62.1086C30.6288 62.0556 30.9756 62.0589 31.3181 62.0493C31.8639 62.0339 32.3925 62.1252 32.9062 62.2734C33.714 62.5065 34.4254 62.8998 35.058 63.403C35.4435 63.7097 35.7514 64.0847 35.9875 64.5024C36.4006 65.2331 36.5451 66.0237 36.5828 66.848C36.6163 67.5834 36.3805 68.2525 36.0583 68.9097C35.7412 69.5565 35.3059 70.1304 34.768 70.6475C34.2641 71.1318 33.695 71.5268 33.0448 71.8169C32.499 72.0604 31.9433 72.2869 31.3817 72.4964C30.736 72.7373 30.0794 72.9523 29.4266 73.1761C29.2696 73.23 29.1091 73.2747 28.9501 73.3236C28.4197 73.3942 27.8892 73.4647 27.3461 73.5265C26.9234 73.5237 26.5121 73.5466 26.1034 73.5313C25.5476 73.5106 24.9878 73.4921 24.4407 73.4155C23.7224 73.3149 23.0039 73.1921 22.3063 73.0149C21.8193 72.8912 21.3512 72.6871 20.9039 72.4699C20.3777 72.2144 19.8631 71.931 19.3807 71.6131C18.9345 71.319 18.5179 70.9816 18.1242 70.6296C17.723 70.2709 17.3429 69.8879 16.9943 69.4856C16.4407 68.8469 16.2146 68.058 15.9232 67.3016C15.8474 67.1048 15.7787 66.9056 15.7067 66.7075C13.8635 52.8451 12.0202 38.9826 10.1868 25.1084C10.2125 24.8158 10.264 24.5313 10.2371 24.2549C10.1751 23.6174 10.9908 23.2334 11.5305 23.3379C11.8958 23.4086 12.2635 23.4809 12.6157 23.5896C13.4891 23.8592 14.3631 24.1303 15.2201 24.438C16.0902 24.7506 16.9392 25.1102 17.7995 25.4448C18.7552 25.8164 19.7118 26.1861 20.6708 26.5509C21.4354 26.8417 22.2036 27.1252 22.9712 27.4096C23.7255 27.689 24.4767 27.9757 25.2377 28.24C25.8371 28.4481 26.2141 28.8019 26.2589 29.4109C26.2762 29.646 26.2834 29.8821 26.3088 30.1163C26.3918 30.8843 26.483 31.6514 26.5672 32.4193C26.6206 32.9066 26.6695 33.3945 26.7163 33.8825C26.7895 34.6462 26.845 35.412 26.9349 36.1737C27.0029 36.749 27.122 37.318 27.2019 37.8921C27.295 38.5602 27.4443 39.2166 27.6993 39.8426C27.9025 40.3412 28.1377 40.8334 28.4175 41.2979C28.6948 41.7583 29.0646 42.1612 29.4999 42.5164C30.0098 42.9327 30.5476 43.2986 31.1942 43.5174C31.826 43.7312 32.4734 43.8643 33.1619 43.8447C33.7602 43.8276 34.3379 43.7429 34.8998 43.5391C35.5451 43.305 36.1263 42.9648 36.7044 42.6184C37.0048 42.4384 37.3125 42.2669 37.5995 42.0699C37.8904 41.8704 38.1749 41.6584 38.4346 41.4259C38.7453 41.1477 39.0576 40.8624 39.3128 40.543C39.6376 40.1366 39.9088 39.6945 40.1968 39.2644C40.2945 39.1185 40.3984 38.9693 40.4554 38.8093C40.577 38.4681 40.662 38.1169 40.7757 37.7734C41.056 36.9266 41.3541 36.0843 41.3544 35.1902C41.3546 34.6763 41.4079 34.1586 41.3658 33.6491C41.317 33.0589 41.2019 32.4737 41.0931 31.8903C40.9949 31.3642 40.8503 30.8462 40.7552 30.3197C40.6368 29.6644 40.5154 29.0113 40.2657 28.3875C40.049 27.8462 39.8611 27.2923 39.6021 26.7692C39.3667 26.2935 39.0203 25.8662 38.7809 25.3919C38.4336 24.7041 37.9746 24.083 37.5216 23.4586C37.0782 22.8472 36.6028 22.2553 36.1303 21.6624C35.8397 21.2979 35.5713 20.9058 35.2168 20.6001C34.5282 20.0065 33.8086 19.4382 33.0593 18.9096C32.3364 18.3996 31.5729 17.9346 30.8025 17.4845C30.259 17.1671 29.6876 16.8828 29.1047 16.6282C28.2607 16.2595 27.4006 15.9192 26.5372 15.5881C25.3669 15.1393 24.1464 14.8264 22.8942 14.6181C22.1689 14.4974 21.4348 14.417 20.7059 14.3119C19.5847 14.1503 18.4678 13.961 17.3211 13.9801C16.6076 13.992 15.8942 14.0062 15.1808 14.0137C14.7331 14.0183 14.3082 13.9376 13.9845 13.6413C13.8345 13.504 13.6148 13.3594 13.741 13.1136C13.8095 12.9803 13.9089 12.8323 14.0389 12.7575C14.4132 12.5419 14.8086 12.3573 15.1986 12.1658C16.2393 11.655 17.2804 11.145 18.3236 10.6385C19.0938 10.2646 19.8692 9.89997 20.6392 9.52556C21.6012 9.05775 22.5624 8.58833 23.5194 8.1117C24.2537 7.74598 24.9748 7.35706 25.7132 6.99879C26.3599 6.685 27.0203 6.3952 27.6794 6.10415C27.8739 6.01825 28.0845 5.96411 28.2877 5.89541C28.7434 5.83481 29.1992 5.7742 29.6676 5.72235C29.9303 5.73256 30.1824 5.71877 30.4305 5.73828C31.2275 5.80099 32.0281 5.84836 32.8176 5.95448C33.5229 6.04927 34.2189 6.20073 34.9122 6.35141C35.827 6.55022 36.7444 6.74589 37.6431 6.99298C38.4392 7.21185 39.2322 7.45788 39.9888 7.76647C41.0111 8.18341 42.0037 8.66059 42.9962 9.13392C43.5041 9.37611 43.9923 9.65431 44.4738 9.93802C44.9298 10.2067 45.3683 10.5001 45.8084 10.7904C45.9736 10.8994 46.1188 11.0332 46.2779 11.1504C46.6621 11.4332 47.0682 11.6938 47.4305 11.9981C48.014 12.4882 48.6052 12.977 49.129 13.5187C50.192 14.6181 51.2447 15.7294 52.0726 16.9992C52.4995 17.654 52.9583 18.2945 53.3309 18.9756C54.0819 20.3483 54.7696 21.7493 55.1435 23.2655C55.2911 23.8637 55.454 24.4583 55.6076 25.0552C55.6492 25.217 55.6794 25.3815 55.7194 25.5438C55.8483 26.0662 55.9996 26.5845 56.1027 27.1117C56.1727 27.4697 56.1825 27.8396 56.2078 28.205C56.2319 28.5519 56.2529 28.8996 56.2544 29.2475C56.2572 29.8871 56.2538 30.5272 56.2358 31.1671C56.2195 31.7488 56.2066 32.3322 56.145 32.9117C56.0543 33.7659 55.9352 34.6187 55.8035 35.4694C55.6402 36.524 55.3578 37.5596 54.9788 38.5685C54.6606 39.4158 54.278 40.2448 53.9033 41.0745C53.4631 42.049 52.9076 42.9734 52.2972 43.8683C51.9543 44.371 51.5672 44.8494 51.1917 45.3333C50.8943 45.7163 50.5764 46.0863 50.2837 46.4721C50.1715 46.6199 50.0441 46.7653 50.0764 46.9801C50.1148 47.2352 50.3218 47.3626 50.4744 47.5368C50.9306 48.0577 51.3668 48.5937 51.8291 49.1098C52.5505 49.9152 53.2758 50.7182 54.02 51.5057C54.9629 52.5036 55.8893 53.5161 56.9772 54.3908C57.5102 54.8194 58.0165 55.276 58.5276 55.7269C58.9891 56.1342 59.4353 56.5562 59.8981 56.9622C60.4526 57.4486 60.9942 57.9505 61.5845 58.3985C62.2035 58.8684 62.8582 59.3031 63.5268 59.7136C63.9659 59.9831 64.4522 60.1913 64.9265 60.4109C65.5471 60.6983 66.2017 60.9084 66.8815 61.0574C67.7412 61.2457 68.6166 61.2643 69.4989 61.2225C69.7889 61.2087 70.0791 61.1934 70.369 61.1914C70.755 61.1887 71.1415 61.2174 71.5265 61.1975C71.9886 61.1735 72.4067 61.2146 72.693 61.5892C72.712 61.7325 72.7311 61.8758 72.7403 62.0309C72.6484 62.2631 72.4779 62.4136 72.2609 62.5208C71.8281 62.7346 71.3939 62.9462 70.9572 63.1529C69.8084 63.6967 68.6547 64.2313 67.5093 64.7811C66.6075 65.2139 65.7142 65.6622 64.819 66.1067C63.7263 66.6492 62.6414 67.2056 61.542 67.736C60.7082 68.1382 59.8623 68.5197 59.012 68.8908C58.2479 69.2242 57.4556 69.4855 56.618 69.6048C56.5687 69.6118 56.523 69.6434 56.4757 69.6636Z" fill="#1A1A3D"/>
</g>
<defs>
<clipPath id="clip0_21_8190">
<rect width="73.2636" height="66.9272" fill="white" transform="translate(0 9.65674) rotate(-7.57404)"/>
</clipPath>
</defs>
</svg>
