<svg width="167" height="233" viewBox="0 0 167 233" fill="none" xmlns="http://www.w3.org/2000/svg">
<g filter="url(#filter0_d_167_2)">
<path d="M4 219.122V5.8258C4 2.60975 6.55235 0 9.69766 0H156.427C159.573 0 162.125 2.60975 162.125 5.8258V219.122C162.125 222.338 159.573 224.948 156.427 224.948H9.69766C6.55235 224.948 4 222.338 4 219.122Z" fill="white"/>
</g>
<path d="M36.722 182.858C36.722 183.992 35.84 185.054 33.428 185.054C31.034 185.054 30.08 184.514 30.08 183.866C30.08 183.65 30.242 183.416 30.548 183.344C31.034 183.83 32.438 184.226 33.464 184.226C35.12 184.226 35.642 183.812 35.642 183.128C35.642 182.552 35.372 182.336 34.454 182.174C33.446 181.994 32.132 181.796 31.718 181.652C30.764 181.328 30.404 180.878 30.404 179.996C30.404 178.664 31.682 177.764 33.806 177.764C35.372 177.764 36.614 178.196 36.614 178.844C36.614 179.078 36.47 179.258 36.164 179.384C35.642 178.934 34.562 178.61 33.662 178.61C32.114 178.61 31.466 179.114 31.466 179.834C31.466 180.446 31.664 180.716 32.744 180.95C33.266 181.058 34.382 181.22 35.156 181.364C36.308 181.58 36.722 182.03 36.722 182.858ZM46.676 184.514C46.676 184.91 46.226 185.054 45.236 185.054C44.372 185.054 44.264 185.018 44.264 184.064C44.264 183.506 44.318 180.734 44.318 180.248C44.318 179.132 43.94 178.664 42.644 178.664C41.906 178.664 40.952 179.15 40.538 179.78V184.964C40.448 185.018 40.286 185.054 40.016 185.054C39.494 185.054 39.44 184.892 39.44 184.28C39.44 183.938 39.422 181.85 39.422 179.42C39.422 177.134 39.422 175.928 39.44 175.244C39.44 174.74 39.548 174.506 39.98 174.506C40.232 174.506 40.412 174.542 40.574 174.596L40.556 175.514L40.538 178.178C40.538 178.826 40.52 179.186 40.52 179.186C40.862 178.304 41.78 177.782 43.022 177.782C44.696 177.782 45.398 178.448 45.398 180.032C45.398 180.698 45.398 182.66 45.362 184.19H46.586C46.64 184.298 46.676 184.406 46.676 184.514ZM55.28 184.082C55.334 184.136 55.388 184.28 55.388 184.424C55.388 184.712 55.226 185.072 54.434 185.072C53.624 185.072 53.12 184.694 53.12 183.416C53.012 184.406 52.04 185.072 50.42 185.072C48.836 185.072 48.242 184.226 48.242 183.164C48.242 181.922 48.854 180.932 50.978 180.932C51.446 180.932 52.49 180.986 53.174 181.076L53.192 180.158C53.21 179.15 52.562 178.7 51.356 178.7C50.582 178.7 49.898 178.916 49.178 179.492C48.782 179.438 48.656 179.258 48.656 178.952C48.656 178.412 49.682 177.764 51.536 177.764C53.336 177.764 54.272 178.556 54.272 180.032L54.236 183.236C54.218 183.812 54.38 184.118 54.938 184.118C55.046 184.118 55.154 184.1 55.28 184.082ZM53.138 181.796C52.562 181.688 51.806 181.652 51.212 181.652C49.844 181.652 49.358 182.066 49.358 183.038C49.358 183.794 49.79 184.28 50.762 184.28C51.77 184.28 52.562 183.848 53.12 183.11L53.138 181.796ZM64.352 184.496C64.352 184.838 63.92 185.054 62.894 185.054C62.372 185.054 62.12 184.91 61.85 184.514L59.636 181.364L58.538 182.192V184.964C58.448 185.018 58.286 185.054 58.016 185.054C57.512 185.054 57.44 184.874 57.44 184.28C57.44 183.938 57.422 181.85 57.422 179.42C57.422 177.134 57.422 175.928 57.44 175.244C57.44 174.74 57.548 174.506 57.98 174.506C58.232 174.506 58.412 174.542 58.574 174.596L58.538 175.514V181.22L62.318 178.25C62.606 177.998 62.768 177.908 63.038 177.908C63.344 177.908 63.488 178.07 63.488 178.304C63.488 178.358 63.47 178.412 63.452 178.466L60.554 180.788L63.056 184.19H64.262C64.316 184.262 64.352 184.388 64.352 184.496ZM72.92 183.794C72.92 184.424 71.588 185.09 69.59 185.09C67.268 185.09 66.152 184.028 66.152 181.724C66.152 179.438 67.466 177.764 69.95 177.764C71.912 177.764 72.902 178.844 72.902 180.086C72.902 181.22 72.596 181.544 72.326 181.544H67.304C67.304 183.398 67.898 184.262 69.914 184.262C70.724 184.262 71.804 183.92 72.56 183.326C72.83 183.416 72.92 183.578 72.92 183.794ZM71.804 180.824C71.84 180.608 71.858 180.41 71.858 180.23C71.858 179.276 71.084 178.574 69.662 178.574C68.222 178.574 67.52 179.528 67.34 180.824H71.804ZM81.722 182.858C81.722 183.992 80.84 185.054 78.428 185.054C76.034 185.054 75.08 184.514 75.08 183.866C75.08 183.65 75.242 183.416 75.548 183.344C76.034 183.83 77.438 184.226 78.464 184.226C80.12 184.226 80.642 183.812 80.642 183.128C80.642 182.552 80.372 182.336 79.454 182.174C78.446 181.994 77.132 181.796 76.718 181.652C75.764 181.328 75.404 180.878 75.404 179.996C75.404 178.664 76.682 177.764 78.806 177.764C80.372 177.764 81.614 178.196 81.614 178.844C81.614 179.078 81.47 179.258 81.164 179.384C80.642 178.934 79.562 178.61 78.662 178.61C77.114 178.61 76.466 179.114 76.466 179.834C76.466 180.446 76.664 180.716 77.744 180.95C78.266 181.058 79.382 181.22 80.156 181.364C81.308 181.58 81.722 182.03 81.722 182.858ZM90.722 181.13C90.722 183.65 89.444 185.036 87.266 185.036C86.546 185.036 85.988 184.946 85.538 184.748V188.096C85.448 188.15 85.25 188.186 84.98 188.186C84.566 188.186 84.458 188.096 84.422 187.826C84.404 187.718 84.404 187.592 84.404 187.412V182.876C84.404 180.644 84.404 179.582 84.422 178.772H83.558C83.504 178.682 83.468 178.592 83.468 178.484C83.468 178.142 83.756 177.926 84.512 177.926C84.962 177.926 85.34 177.962 85.592 178.016L85.52 179.402C85.7 178.304 86.78 177.782 87.842 177.782C89.984 177.782 90.722 178.916 90.722 181.13ZM89.642 181.292C89.642 179.528 89.156 178.646 87.68 178.646C86.762 178.646 85.97 179.222 85.538 179.78V183.974C85.934 184.118 86.546 184.244 87.086 184.244C88.832 184.244 89.642 183.2 89.642 181.292ZM99.92 183.794C99.92 184.424 98.588 185.09 96.59 185.09C94.268 185.09 93.152 184.028 93.152 181.724C93.152 179.438 94.466 177.764 96.95 177.764C98.912 177.764 99.902 178.844 99.902 180.086C99.902 181.22 99.596 181.544 99.326 181.544H94.304C94.304 183.398 94.898 184.262 96.914 184.262C97.724 184.262 98.804 183.92 99.56 183.326C99.83 183.416 99.92 183.578 99.92 183.794ZM98.804 180.824C98.84 180.608 98.858 180.41 98.858 180.23C98.858 179.276 98.084 178.574 96.662 178.574C95.222 178.574 94.52 179.528 94.34 180.824H98.804ZM109.28 184.082C109.334 184.136 109.388 184.28 109.388 184.424C109.388 184.712 109.226 185.072 108.434 185.072C107.624 185.072 107.12 184.694 107.12 183.416C107.012 184.406 106.04 185.072 104.42 185.072C102.836 185.072 102.242 184.226 102.242 183.164C102.242 181.922 102.854 180.932 104.978 180.932C105.446 180.932 106.49 180.986 107.174 181.076L107.192 180.158C107.21 179.15 106.562 178.7 105.356 178.7C104.582 178.7 103.898 178.916 103.178 179.492C102.782 179.438 102.656 179.258 102.656 178.952C102.656 178.412 103.682 177.764 105.536 177.764C107.336 177.764 108.272 178.556 108.272 180.032L108.236 183.236C108.218 183.812 108.38 184.118 108.938 184.118C109.046 184.118 109.154 184.1 109.28 184.082ZM107.138 181.796C106.562 181.688 105.806 181.652 105.212 181.652C103.844 181.652 103.358 182.066 103.358 183.038C103.358 183.794 103.79 184.28 104.762 184.28C105.77 184.28 106.562 183.848 107.12 183.11L107.138 181.796ZM112.088 184.19V182.228C112.088 181.238 112.088 179.726 112.124 178.772H110.72C110.666 178.682 110.63 178.592 110.63 178.484C110.63 178.142 110.99 177.926 112.214 177.926C112.664 177.926 113.042 177.962 113.294 178.016L113.186 180.554C115.04 177.746 115.526 177.782 116.516 177.782C117.344 177.782 118.118 178.394 118.118 179.636C118.118 180.086 117.902 180.482 117.398 180.482C117.308 180.482 117.218 180.464 117.128 180.446C117.002 179.078 116.786 178.664 116.318 178.664C115.724 178.664 115.202 178.772 113.222 181.634V184.19L115.976 184.154C116.048 184.28 116.084 184.442 116.084 184.568C116.084 184.838 115.868 185.018 115.472 185.018C115.328 185.018 111.314 185 111.242 185C111.152 184.928 111.098 184.784 111.098 184.64C111.098 184.298 111.368 184.208 111.584 184.208C111.872 184.19 112.088 184.19 112.088 184.19ZM126.92 183.794C126.92 184.424 125.588 185.09 123.59 185.09C121.268 185.09 120.152 184.028 120.152 181.724C120.152 179.438 121.466 177.764 123.95 177.764C125.912 177.764 126.902 178.844 126.902 180.086C126.902 181.22 126.596 181.544 126.326 181.544H121.304C121.304 183.398 121.898 184.262 123.914 184.262C124.724 184.262 125.804 183.92 126.56 183.326C126.83 183.416 126.92 183.578 126.92 183.794ZM125.804 180.824C125.84 180.608 125.858 180.41 125.858 180.23C125.858 179.276 125.084 178.574 123.662 178.574C122.222 178.574 121.52 179.528 121.34 180.824H125.804ZM67.052 205.434L68.762 206.874C68.852 207.162 68.636 207.45 68.258 207.45C67.718 207.45 67.34 207.18 66.296 206.172C65.36 206.838 64.82 207.108 63.866 207.108C62.228 207.108 61.112 206.406 61.112 204.696C61.112 203.598 61.724 202.77 62.552 202.248C61.94 201.456 61.724 200.934 61.724 200.052C61.724 198.846 62.534 197.586 64.352 197.586C65.54 197.586 65.864 197.874 65.864 198.288C65.864 198.468 65.774 198.594 65.684 198.684C65.216 198.522 64.802 198.468 64.298 198.468C63.146 198.468 62.732 199.242 62.732 200.088C62.732 200.862 63.092 201.474 63.794 202.194L66.44 204.876C66.962 204.156 67.358 202.878 67.358 201.582C67.358 201.366 67.304 200.844 67.232 200.556C67.322 200.394 67.484 200.34 67.682 200.34C68.168 200.34 68.348 200.844 68.348 201.528C68.348 203.112 67.79 204.552 67.052 205.434ZM65.774 205.614L62.984 202.86C62.408 203.364 62.21 203.832 62.21 204.516C62.21 205.722 62.912 206.298 64.082 206.298C64.676 206.298 65.162 206.082 65.774 205.614ZM86.384 205.902C86.384 206.568 85.07 207.09 83.108 207.09C80.768 207.09 79.652 205.956 79.652 203.67C79.652 201.33 81.038 199.764 83.72 199.764C85.16 199.764 86.114 200.124 86.114 200.628C86.114 200.934 85.934 201.096 85.682 201.204C84.98 200.916 84.188 200.682 83.432 200.682C81.614 200.682 80.786 201.672 80.786 203.454C80.786 205.146 81.308 206.208 83.432 206.208C84.386 206.208 85.43 205.866 86.096 205.47C86.276 205.542 86.384 205.686 86.384 205.902ZM95.366 203.184C95.366 205.83 94.034 207.09 91.838 207.09C89.498 207.09 88.616 205.992 88.616 203.706C88.616 201.204 89.966 199.764 92.216 199.764C94.484 199.764 95.366 200.97 95.366 203.184ZM94.25 203.346C94.25 201.672 93.764 200.592 92.126 200.592C90.524 200.592 89.732 201.492 89.732 203.562C89.732 205.434 90.2 206.244 92 206.244C93.548 206.244 94.25 205.218 94.25 203.346ZM101.864 206.226C101.864 206.622 101.684 207.018 100.982 207.018C100.388 207.018 100.136 206.766 100.136 206.298C100.136 205.848 100.496 205.506 101.072 205.506C101.684 205.506 101.864 205.866 101.864 206.226Z" fill="#1A1A3D"/>
<defs>
<filter id="filter0_d_167_2" x="0" y="0" width="166.125" height="232.948" filterUnits="userSpaceOnUse" color-interpolation-filters="sRGB">
<feFlood flood-opacity="0" result="BackgroundImageFix"/>
<feColorMatrix in="SourceAlpha" type="matrix" values="0 0 0 0 0 0 0 0 0 0 0 0 0 0 0 0 0 0 127 0" result="hardAlpha"/>
<feOffset dy="4"/>
<feGaussianBlur stdDeviation="2"/>
<feComposite in2="hardAlpha" operator="out"/>
<feColorMatrix type="matrix" values="0 0 0 0 0 0 0 0 0 0 0 0 0 0 0 0 0 0 0.25 0"/>
<feBlend mode="normal" in2="BackgroundImageFix" result="effect1_dropShadow_167_2"/>
<feBlend mode="normal" in="SourceGraphic" in2="effect1_dropShadow_167_2" result="shape"/>
</filter>
</defs>
</svg>
